G04 #@! TF.GenerationSoftware,KiCad,Pcbnew,8.0.8-2.fc41*
G04 #@! TF.CreationDate,2025-02-23T13:33:09+00:00*
G04 #@! TF.ProjectId,Power_supply,506f7765-725f-4737-9570-706c792e6b69,rev?*
G04 #@! TF.SameCoordinates,Original*
G04 #@! TF.FileFunction,Copper,L2,Bot*
G04 #@! TF.FilePolarity,Positive*
%FSLAX46Y46*%
G04 Gerber Fmt 4.6, Leading zero omitted, Abs format (unit mm)*
G04 Created by KiCad (PCBNEW 8.0.8-2.fc41) date 2025-02-23 13:33:09*
%MOMM*%
%LPD*%
G01*
G04 APERTURE LIST*
G04 Aperture macros list*
%AMRoundRect*
0 Rectangle with rounded corners*
0 $1 Rounding radius*
0 $2 $3 $4 $5 $6 $7 $8 $9 X,Y pos of 4 corners*
0 Add a 4 corners polygon primitive as box body*
4,1,4,$2,$3,$4,$5,$6,$7,$8,$9,$2,$3,0*
0 Add four circle primitives for the rounded corners*
1,1,$1+$1,$2,$3*
1,1,$1+$1,$4,$5*
1,1,$1+$1,$6,$7*
1,1,$1+$1,$8,$9*
0 Add four rect primitives between the rounded corners*
20,1,$1+$1,$2,$3,$4,$5,0*
20,1,$1+$1,$4,$5,$6,$7,0*
20,1,$1+$1,$6,$7,$8,$9,0*
20,1,$1+$1,$8,$9,$2,$3,0*%
G04 Aperture macros list end*
G04 #@! TA.AperFunction,ComponentPad*
%ADD10RoundRect,0.250000X-0.750000X0.600000X-0.750000X-0.600000X0.750000X-0.600000X0.750000X0.600000X0*%
G04 #@! TD*
G04 #@! TA.AperFunction,ComponentPad*
%ADD11O,2.000000X1.700000*%
G04 #@! TD*
G04 #@! TA.AperFunction,ComponentPad*
%ADD12R,1.800000X1.800000*%
G04 #@! TD*
G04 #@! TA.AperFunction,ComponentPad*
%ADD13C,1.800000*%
G04 #@! TD*
G04 #@! TA.AperFunction,ComponentPad*
%ADD14R,1.700000X1.700000*%
G04 #@! TD*
G04 #@! TA.AperFunction,ComponentPad*
%ADD15O,1.700000X1.700000*%
G04 #@! TD*
G04 #@! TA.AperFunction,ComponentPad*
%ADD16R,2.000000X1.905000*%
G04 #@! TD*
G04 #@! TA.AperFunction,ComponentPad*
%ADD17O,2.000000X1.905000*%
G04 #@! TD*
G04 #@! TA.AperFunction,ComponentPad*
%ADD18C,6.000000*%
G04 #@! TD*
G04 #@! TA.AperFunction,ComponentPad*
%ADD19R,3.500000X3.500000*%
G04 #@! TD*
G04 #@! TA.AperFunction,ComponentPad*
%ADD20RoundRect,0.750000X0.750000X1.000000X-0.750000X1.000000X-0.750000X-1.000000X0.750000X-1.000000X0*%
G04 #@! TD*
G04 #@! TA.AperFunction,ComponentPad*
%ADD21RoundRect,0.875000X0.875000X0.875000X-0.875000X0.875000X-0.875000X-0.875000X0.875000X-0.875000X0*%
G04 #@! TD*
G04 #@! TA.AperFunction,ComponentPad*
%ADD22C,2.400000*%
G04 #@! TD*
G04 #@! TA.AperFunction,ComponentPad*
%ADD23C,1.600000*%
G04 #@! TD*
G04 #@! TA.AperFunction,ViaPad*
%ADD24C,1.900000*%
G04 #@! TD*
G04 #@! TA.AperFunction,Conductor*
%ADD25C,2.000000*%
G04 #@! TD*
G04 APERTURE END LIST*
D10*
X180865000Y-119400000D03*
D11*
X180865000Y-121900000D03*
D12*
X142240000Y-155575000D03*
D13*
X144780000Y-155575000D03*
D14*
X106680000Y-105380000D03*
D15*
X106680000Y-107920000D03*
X106680000Y-110460000D03*
X106680000Y-113000000D03*
X106680000Y-115540000D03*
X106680000Y-118080000D03*
D16*
X123225000Y-139700000D03*
D17*
X123225000Y-137160000D03*
X123225000Y-134620000D03*
D16*
X123225000Y-64770000D03*
D17*
X123225000Y-62230000D03*
X123225000Y-59690000D03*
D18*
X119380000Y-149860000D03*
X119380000Y-124460000D03*
D16*
X168875000Y-59690000D03*
D17*
X168875000Y-62230000D03*
X168875000Y-64770000D03*
D18*
X119380000Y-74930000D03*
X119380000Y-49530000D03*
D19*
X175610000Y-88900000D03*
D20*
X181610000Y-88900000D03*
D21*
X178610000Y-84200000D03*
D18*
X172720000Y-49530000D03*
X172720000Y-74930000D03*
D22*
X171238000Y-102430000D03*
X182838000Y-98230000D03*
D23*
X174538000Y-101580000D03*
X177038000Y-101580000D03*
X179538000Y-101580000D03*
X174538000Y-99080000D03*
X177038000Y-99080000D03*
X179538000Y-99080000D03*
D24*
X109855000Y-110490000D03*
X139700000Y-73660000D03*
X133350000Y-128270000D03*
X154305000Y-65405000D03*
X109855000Y-113030000D03*
X142240000Y-67945000D03*
X152400000Y-50800000D03*
X143510000Y-140335000D03*
X173990000Y-124460000D03*
X164465000Y-152400000D03*
X139700000Y-148590000D03*
X142240000Y-60325000D03*
X109855000Y-107950000D03*
X144145000Y-137795000D03*
X164465000Y-142240000D03*
X169545000Y-151130000D03*
X164465000Y-147320000D03*
X164465000Y-157480000D03*
X137795000Y-59055000D03*
X168275000Y-140335000D03*
X149860000Y-64135000D03*
X137160000Y-64770000D03*
X137160000Y-139700000D03*
X109855000Y-105410000D03*
X109855000Y-115570000D03*
X164465000Y-115570000D03*
X177165000Y-106680000D03*
X173990000Y-116840000D03*
X154940000Y-59690000D03*
D25*
X123225000Y-64770000D02*
X137160000Y-64770000D01*
X123225000Y-139700000D02*
X137160000Y-139700000D01*
X154940000Y-59690000D02*
X168875000Y-59690000D01*
G04 #@! TA.AperFunction,Conductor*
G36*
X105184870Y-104158954D02*
G01*
X105265652Y-104212930D01*
X105319628Y-104293712D01*
X105338582Y-104389000D01*
X105337155Y-104415616D01*
X105330000Y-104482164D01*
X105330000Y-105129999D01*
X105330001Y-105130000D01*
X106246988Y-105130000D01*
X106214075Y-105187007D01*
X106180000Y-105314174D01*
X106180000Y-105445826D01*
X106214075Y-105572993D01*
X106246988Y-105630000D01*
X105330001Y-105630000D01*
X105330000Y-105630001D01*
X105330000Y-106277832D01*
X105336401Y-106337371D01*
X105336403Y-106337382D01*
X105338866Y-106343983D01*
X105354407Y-106439887D01*
X105332065Y-106534438D01*
X105275240Y-106613241D01*
X105192583Y-106664300D01*
X105105566Y-106680000D01*
X104249500Y-106680000D01*
X104154212Y-106661046D01*
X104073430Y-106607070D01*
X104019454Y-106526288D01*
X104000500Y-106431000D01*
X104000500Y-104389000D01*
X104019454Y-104293712D01*
X104073430Y-104212930D01*
X104154212Y-104158954D01*
X104249500Y-104140000D01*
X105089582Y-104140000D01*
X105184870Y-104158954D01*
G37*
G04 #@! TD.AperFunction*
G04 #@! TA.AperFunction,Conductor*
G36*
X111606288Y-104158954D02*
G01*
X111687070Y-104212930D01*
X111741046Y-104293712D01*
X111760000Y-104389000D01*
X111760000Y-106431000D01*
X111741046Y-106526288D01*
X111687070Y-106607070D01*
X111606288Y-106661046D01*
X111511000Y-106680000D01*
X110618907Y-106680000D01*
X110523619Y-106661046D01*
X110500396Y-106649989D01*
X110439655Y-106617117D01*
X110212297Y-106539066D01*
X110212294Y-106539065D01*
X109975192Y-106499500D01*
X109734808Y-106499500D01*
X109497705Y-106539065D01*
X109497702Y-106539066D01*
X109270344Y-106617117D01*
X109209604Y-106649989D01*
X109116780Y-106678672D01*
X109091093Y-106680000D01*
X108254434Y-106680000D01*
X108159146Y-106661046D01*
X108078364Y-106607070D01*
X108024388Y-106526288D01*
X108005434Y-106431000D01*
X108021134Y-106343983D01*
X108023596Y-106337382D01*
X108023598Y-106337371D01*
X108029999Y-106277832D01*
X108030000Y-106277825D01*
X108030000Y-105630001D01*
X108029999Y-105630000D01*
X107113012Y-105630000D01*
X107145925Y-105572993D01*
X107180000Y-105445826D01*
X107180000Y-105314174D01*
X107145925Y-105187007D01*
X107113012Y-105130000D01*
X108029999Y-105130000D01*
X108030000Y-105129999D01*
X108030000Y-104482175D01*
X108029999Y-104482164D01*
X108022845Y-104415616D01*
X108031505Y-104318848D01*
X108076537Y-104232759D01*
X108151086Y-104170457D01*
X108243802Y-104141427D01*
X108270418Y-104140000D01*
X111511000Y-104140000D01*
X111606288Y-104158954D01*
G37*
G04 #@! TD.AperFunction*
G04 #@! TA.AperFunction,Conductor*
G36*
X184008863Y-36501134D02*
G01*
X184036639Y-36503120D01*
X184195645Y-36514493D01*
X184230793Y-36519546D01*
X184405064Y-36557456D01*
X184439143Y-36567463D01*
X184606228Y-36629783D01*
X184638542Y-36644540D01*
X184795062Y-36730006D01*
X184824947Y-36749212D01*
X184967703Y-36856078D01*
X184994553Y-36879343D01*
X185120656Y-37005446D01*
X185143921Y-37032296D01*
X185250787Y-37175052D01*
X185269995Y-37204940D01*
X185355459Y-37361457D01*
X185370216Y-37393771D01*
X185432534Y-37560850D01*
X185442544Y-37594939D01*
X185480451Y-37769195D01*
X185485507Y-37804360D01*
X185498866Y-37991135D01*
X185499500Y-38008899D01*
X185499500Y-79761000D01*
X185480546Y-79856288D01*
X185426570Y-79937070D01*
X185345788Y-79991046D01*
X185250500Y-80010000D01*
X165735000Y-80010000D01*
X165735000Y-80010001D01*
X165735000Y-102621000D01*
X165716046Y-102716288D01*
X165662070Y-102797070D01*
X165581288Y-102851046D01*
X165486000Y-102870000D01*
X160655000Y-102870000D01*
X160655000Y-140335000D01*
X165486000Y-140335000D01*
X165581288Y-140353954D01*
X165662070Y-140407930D01*
X165716046Y-140488712D01*
X165735000Y-140584000D01*
X165735000Y-158750000D01*
X165735001Y-158750000D01*
X167004999Y-158750000D01*
X167005000Y-158750000D01*
X167005000Y-140335000D01*
X167005000Y-139065000D01*
X167004999Y-139065000D01*
X162174000Y-139065000D01*
X162078712Y-139046046D01*
X161997930Y-138992070D01*
X161943954Y-138911288D01*
X161925000Y-138816000D01*
X161925000Y-121534000D01*
X161943954Y-121438712D01*
X161997930Y-121357930D01*
X162078712Y-121303954D01*
X162174000Y-121285000D01*
X175646000Y-121285000D01*
X175741288Y-121303954D01*
X175822070Y-121357930D01*
X175876046Y-121438712D01*
X175895000Y-121534000D01*
X175895000Y-126365000D01*
X185250500Y-126365000D01*
X185345788Y-126383954D01*
X185426570Y-126437930D01*
X185480546Y-126518712D01*
X185499500Y-126614000D01*
X185499500Y-160991100D01*
X185498866Y-161008864D01*
X185485507Y-161195639D01*
X185480451Y-161230804D01*
X185442544Y-161405060D01*
X185432534Y-161439149D01*
X185370216Y-161606228D01*
X185355459Y-161638542D01*
X185269995Y-161795059D01*
X185250787Y-161824947D01*
X185143921Y-161967703D01*
X185120656Y-161994553D01*
X184994553Y-162120656D01*
X184967703Y-162143921D01*
X184824947Y-162250787D01*
X184795059Y-162269995D01*
X184638542Y-162355459D01*
X184606228Y-162370216D01*
X184439149Y-162432534D01*
X184405060Y-162442544D01*
X184230804Y-162480451D01*
X184195639Y-162485507D01*
X184008864Y-162498866D01*
X183991100Y-162499500D01*
X104249500Y-162499500D01*
X104154212Y-162480546D01*
X104073430Y-162426570D01*
X104019454Y-162345788D01*
X104000500Y-162250500D01*
X104000500Y-159378712D01*
X105149500Y-159378712D01*
X105149500Y-159621287D01*
X105181162Y-159861790D01*
X105181163Y-159861795D01*
X105243940Y-160096082D01*
X105243948Y-160096105D01*
X105336770Y-160320201D01*
X105336778Y-160320217D01*
X105458058Y-160530279D01*
X105458064Y-160530289D01*
X105605729Y-160722731D01*
X105605738Y-160722741D01*
X105777258Y-160894261D01*
X105777268Y-160894270D01*
X105898491Y-160987287D01*
X105969711Y-161041936D01*
X105969720Y-161041941D01*
X106179782Y-161163221D01*
X106179798Y-161163229D01*
X106300926Y-161213401D01*
X106403900Y-161256054D01*
X106403911Y-161256057D01*
X106403917Y-161256059D01*
X106587021Y-161305121D01*
X106638211Y-161318838D01*
X106878712Y-161350500D01*
X107121288Y-161350500D01*
X107361789Y-161318838D01*
X107523275Y-161275567D01*
X107596082Y-161256059D01*
X107596084Y-161256058D01*
X107596100Y-161256054D01*
X107747766Y-161193231D01*
X107820201Y-161163229D01*
X107820206Y-161163226D01*
X107820212Y-161163224D01*
X108030289Y-161041936D01*
X108222738Y-160894265D01*
X108394265Y-160722738D01*
X108541936Y-160530289D01*
X108663224Y-160320212D01*
X108756054Y-160096100D01*
X108818838Y-159861789D01*
X108850500Y-159621288D01*
X108850500Y-159378712D01*
X180649500Y-159378712D01*
X180649500Y-159621287D01*
X180681162Y-159861790D01*
X180681163Y-159861795D01*
X180743940Y-160096082D01*
X180743948Y-160096105D01*
X180836770Y-160320201D01*
X180836778Y-160320217D01*
X180958058Y-160530279D01*
X180958064Y-160530289D01*
X181105729Y-160722731D01*
X181105738Y-160722741D01*
X181277258Y-160894261D01*
X181277268Y-160894270D01*
X181398491Y-160987287D01*
X181469711Y-161041936D01*
X181469720Y-161041941D01*
X181679782Y-161163221D01*
X181679798Y-161163229D01*
X181800926Y-161213401D01*
X181903900Y-161256054D01*
X181903911Y-161256057D01*
X181903917Y-161256059D01*
X182087021Y-161305121D01*
X182138211Y-161318838D01*
X182378712Y-161350500D01*
X182621288Y-161350500D01*
X182861789Y-161318838D01*
X183023275Y-161275567D01*
X183096082Y-161256059D01*
X183096084Y-161256058D01*
X183096100Y-161256054D01*
X183247766Y-161193231D01*
X183320201Y-161163229D01*
X183320206Y-161163226D01*
X183320212Y-161163224D01*
X183530289Y-161041936D01*
X183722738Y-160894265D01*
X183894265Y-160722738D01*
X184041936Y-160530289D01*
X184163224Y-160320212D01*
X184256054Y-160096100D01*
X184318838Y-159861789D01*
X184350500Y-159621288D01*
X184350500Y-159378712D01*
X184318838Y-159138211D01*
X184256054Y-158903900D01*
X184192307Y-158750000D01*
X184163229Y-158679798D01*
X184163221Y-158679782D01*
X184041941Y-158469720D01*
X184041935Y-158469710D01*
X183894270Y-158277268D01*
X183894261Y-158277258D01*
X183722741Y-158105738D01*
X183722731Y-158105729D01*
X183530289Y-157958064D01*
X183530279Y-157958058D01*
X183320217Y-157836778D01*
X183320201Y-157836770D01*
X183096105Y-157743948D01*
X183096103Y-157743947D01*
X183096100Y-157743946D01*
X183096096Y-157743945D01*
X183096082Y-157743940D01*
X182861795Y-157681163D01*
X182861790Y-157681162D01*
X182621288Y-157649500D01*
X182378712Y-157649500D01*
X182138209Y-157681162D01*
X182138204Y-157681163D01*
X181903917Y-157743940D01*
X181903894Y-157743948D01*
X181679798Y-157836770D01*
X181679782Y-157836778D01*
X181469720Y-157958058D01*
X181469710Y-157958064D01*
X181277268Y-158105729D01*
X181277258Y-158105738D01*
X181105738Y-158277258D01*
X181105729Y-158277268D01*
X180958064Y-158469710D01*
X180958058Y-158469720D01*
X180836778Y-158679782D01*
X180836770Y-158679798D01*
X180743948Y-158903894D01*
X180743940Y-158903917D01*
X180681163Y-159138204D01*
X180681162Y-159138209D01*
X180649500Y-159378712D01*
X108850500Y-159378712D01*
X108818838Y-159138211D01*
X108756054Y-158903900D01*
X108692307Y-158750000D01*
X108663229Y-158679798D01*
X108663221Y-158679782D01*
X108541941Y-158469720D01*
X108541935Y-158469710D01*
X108394270Y-158277268D01*
X108394261Y-158277258D01*
X108222741Y-158105738D01*
X108222731Y-158105729D01*
X108030289Y-157958064D01*
X108030279Y-157958058D01*
X107820217Y-157836778D01*
X107820201Y-157836770D01*
X107596105Y-157743948D01*
X107596103Y-157743947D01*
X107596100Y-157743946D01*
X107596096Y-157743945D01*
X107596082Y-157743940D01*
X107361795Y-157681163D01*
X107361790Y-157681162D01*
X107121288Y-157649500D01*
X106878712Y-157649500D01*
X106638209Y-157681162D01*
X106638204Y-157681163D01*
X106403917Y-157743940D01*
X106403894Y-157743948D01*
X106179798Y-157836770D01*
X106179782Y-157836778D01*
X105969720Y-157958058D01*
X105969710Y-157958064D01*
X105777268Y-158105729D01*
X105777258Y-158105738D01*
X105605738Y-158277258D01*
X105605729Y-158277268D01*
X105458064Y-158469710D01*
X105458058Y-158469720D01*
X105336778Y-158679782D01*
X105336770Y-158679798D01*
X105243948Y-158903894D01*
X105243940Y-158903917D01*
X105181163Y-159138204D01*
X105181162Y-159138209D01*
X105149500Y-159378712D01*
X104000500Y-159378712D01*
X104000500Y-154627167D01*
X140840000Y-154627167D01*
X140840000Y-155324999D01*
X140840001Y-155325000D01*
X141864722Y-155325000D01*
X141820667Y-155401306D01*
X141790000Y-155515756D01*
X141790000Y-155634244D01*
X141820667Y-155748694D01*
X141864722Y-155825000D01*
X140840001Y-155825000D01*
X140840000Y-155825001D01*
X140840000Y-156522832D01*
X140846401Y-156582371D01*
X140846403Y-156582378D01*
X140896646Y-156717087D01*
X140982810Y-156832187D01*
X140982812Y-156832189D01*
X141097912Y-156918353D01*
X141232621Y-156968596D01*
X141232628Y-156968598D01*
X141292167Y-156974999D01*
X141292175Y-156975000D01*
X141989999Y-156975000D01*
X141990000Y-156974999D01*
X141990000Y-155950277D01*
X142066306Y-155994333D01*
X142180756Y-156025000D01*
X142299244Y-156025000D01*
X142413694Y-155994333D01*
X142490000Y-155950277D01*
X142490000Y-156974999D01*
X142490001Y-156975000D01*
X143187825Y-156975000D01*
X143187832Y-156974999D01*
X143247371Y-156968598D01*
X143247378Y-156968596D01*
X143382087Y-156918353D01*
X143497187Y-156832189D01*
X143497191Y-156832185D01*
X143572616Y-156731431D01*
X143644893Y-156666508D01*
X143736514Y-156634186D01*
X143833530Y-156639387D01*
X143921171Y-156681318D01*
X143924890Y-156684157D01*
X144011370Y-156751468D01*
X144215487Y-156861931D01*
X144215489Y-156861931D01*
X144215497Y-156861936D01*
X144435019Y-156937298D01*
X144663951Y-156975500D01*
X144896049Y-156975500D01*
X145124981Y-156937298D01*
X145344503Y-156861936D01*
X145548626Y-156751470D01*
X145731784Y-156608913D01*
X145888979Y-156438153D01*
X146015924Y-156243849D01*
X146109157Y-156031300D01*
X146166134Y-155806305D01*
X146185300Y-155575000D01*
X146166134Y-155343695D01*
X146109157Y-155118700D01*
X146015924Y-154906151D01*
X145888979Y-154711847D01*
X145888977Y-154711844D01*
X145731785Y-154541088D01*
X145731779Y-154541083D01*
X145548628Y-154398531D01*
X145344512Y-154288068D01*
X145344507Y-154288066D01*
X145344503Y-154288064D01*
X145124981Y-154212702D01*
X145124978Y-154212701D01*
X145124974Y-154212700D01*
X144896049Y-154174500D01*
X144663951Y-154174500D01*
X144435025Y-154212700D01*
X144435019Y-154212701D01*
X144435019Y-154212702D01*
X144215497Y-154288064D01*
X144215494Y-154288065D01*
X144215487Y-154288068D01*
X144011369Y-154398532D01*
X144011366Y-154398534D01*
X143924888Y-154465843D01*
X143838051Y-154509413D01*
X143741150Y-154516435D01*
X143648938Y-154485840D01*
X143575454Y-154422285D01*
X143572616Y-154418569D01*
X143497189Y-154317812D01*
X143497187Y-154317810D01*
X143382087Y-154231646D01*
X143247378Y-154181403D01*
X143247371Y-154181401D01*
X143187832Y-154175000D01*
X142490001Y-154175000D01*
X142490000Y-154175001D01*
X142490000Y-155199722D01*
X142413694Y-155155667D01*
X142299244Y-155125000D01*
X142180756Y-155125000D01*
X142066306Y-155155667D01*
X141990000Y-155199722D01*
X141990000Y-154175001D01*
X141989999Y-154175000D01*
X141292167Y-154175000D01*
X141232628Y-154181401D01*
X141232621Y-154181403D01*
X141097912Y-154231646D01*
X140982812Y-154317810D01*
X140982810Y-154317812D01*
X140896646Y-154432912D01*
X140846403Y-154567621D01*
X140846401Y-154567628D01*
X140840000Y-154627167D01*
X104000500Y-154627167D01*
X104000500Y-149860000D01*
X115874696Y-149860000D01*
X115893897Y-150226401D01*
X115951294Y-150588793D01*
X115951296Y-150588802D01*
X116046254Y-150943189D01*
X116177746Y-151285740D01*
X116177747Y-151285742D01*
X116344316Y-151612649D01*
X116544152Y-151920371D01*
X116775045Y-152205499D01*
X116775051Y-152205506D01*
X117034494Y-152464949D01*
X117034499Y-152464953D01*
X117034500Y-152464954D01*
X117319629Y-152695847D01*
X117319628Y-152695847D01*
X117627350Y-152895683D01*
X117954257Y-153062252D01*
X117954259Y-153062253D01*
X117954263Y-153062254D01*
X117954264Y-153062255D01*
X118296801Y-153193742D01*
X118296804Y-153193743D01*
X118296810Y-153193745D01*
X118651197Y-153288703D01*
X118651206Y-153288705D01*
X119013596Y-153346102D01*
X119380000Y-153365304D01*
X119746404Y-153346102D01*
X120108794Y-153288705D01*
X120108798Y-153288703D01*
X120108802Y-153288703D01*
X120463189Y-153193745D01*
X120463191Y-153193743D01*
X120463199Y-153193742D01*
X120805736Y-153062255D01*
X121132652Y-152895682D01*
X121440366Y-152695851D01*
X121725506Y-152464949D01*
X121984949Y-152205506D01*
X122215851Y-151920366D01*
X122415682Y-151612652D01*
X122582255Y-151285736D01*
X122713742Y-150943199D01*
X122808705Y-150588794D01*
X122866102Y-150226404D01*
X122885304Y-149860000D01*
X122866102Y-149493596D01*
X122808705Y-149131206D01*
X122808703Y-149131197D01*
X122713745Y-148776810D01*
X122582253Y-148434259D01*
X122582252Y-148434257D01*
X122415683Y-148107350D01*
X122215847Y-147799628D01*
X121984954Y-147514500D01*
X121984953Y-147514499D01*
X121984949Y-147514494D01*
X121725506Y-147255051D01*
X121440370Y-147024152D01*
X121440371Y-147024152D01*
X121132649Y-146824316D01*
X120805742Y-146657747D01*
X120805740Y-146657746D01*
X120463189Y-146526254D01*
X120108802Y-146431296D01*
X120108793Y-146431294D01*
X119746401Y-146373897D01*
X119746402Y-146373897D01*
X119380000Y-146354696D01*
X119013598Y-146373897D01*
X118651206Y-146431294D01*
X118651197Y-146431296D01*
X118296810Y-146526254D01*
X117954259Y-146657746D01*
X117954257Y-146657747D01*
X117627350Y-146824316D01*
X117319628Y-147024152D01*
X117034500Y-147255045D01*
X116775045Y-147514500D01*
X116544152Y-147799628D01*
X116344316Y-148107350D01*
X116177747Y-148434257D01*
X116177746Y-148434259D01*
X116046254Y-148776810D01*
X115951296Y-149131197D01*
X115951294Y-149131206D01*
X115893897Y-149493598D01*
X115874696Y-149860000D01*
X104000500Y-149860000D01*
X104000500Y-134505636D01*
X121724500Y-134505636D01*
X121724500Y-134734363D01*
X121760277Y-134960242D01*
X121830949Y-135177751D01*
X121830952Y-135177758D01*
X121934783Y-135381538D01*
X122069214Y-135566566D01*
X122216581Y-135713933D01*
X122270555Y-135794712D01*
X122289509Y-135890000D01*
X122270555Y-135985288D01*
X122216581Y-136066066D01*
X122069214Y-136213434D01*
X122069211Y-136213437D01*
X121934785Y-136398458D01*
X121830952Y-136602241D01*
X121830949Y-136602248D01*
X121760277Y-136819757D01*
X121724500Y-137045636D01*
X121724500Y-137274363D01*
X121760277Y-137500242D01*
X121830949Y-137717751D01*
X121830952Y-137717758D01*
X121900988Y-137855212D01*
X121934785Y-137921541D01*
X121987214Y-137993703D01*
X122027889Y-138081933D01*
X122031704Y-138179013D01*
X121998077Y-138270163D01*
X121934991Y-138339395D01*
X121867459Y-138389949D01*
X121867453Y-138389955D01*
X121781204Y-138505169D01*
X121730908Y-138640018D01*
X121724500Y-138699623D01*
X121724500Y-140700365D01*
X121724501Y-140700369D01*
X121730908Y-140759980D01*
X121730909Y-140759984D01*
X121781203Y-140894829D01*
X121781204Y-140894831D01*
X121867454Y-141010046D01*
X121982669Y-141096296D01*
X122117517Y-141146591D01*
X122177127Y-141153000D01*
X122801713Y-141152999D01*
X122863751Y-141162824D01*
X122864125Y-141161270D01*
X122873630Y-141163552D01*
X122873632Y-141163553D01*
X122873633Y-141163553D01*
X122873641Y-141163555D01*
X123072493Y-141195049D01*
X123106908Y-141200500D01*
X123106912Y-141200500D01*
X137278088Y-141200500D01*
X137278092Y-141200500D01*
X137511368Y-141163553D01*
X137735992Y-141090568D01*
X137946433Y-140983343D01*
X138137510Y-140844517D01*
X138304517Y-140677510D01*
X138443343Y-140486433D01*
X138550568Y-140275992D01*
X138623553Y-140051368D01*
X138660500Y-139818092D01*
X138660500Y-139581908D01*
X138623553Y-139348632D01*
X138550568Y-139124008D01*
X138443343Y-138913567D01*
X138443341Y-138913564D01*
X138443340Y-138913562D01*
X138304521Y-138722495D01*
X138304519Y-138722493D01*
X138304517Y-138722490D01*
X138137510Y-138555483D01*
X138137506Y-138555480D01*
X138137504Y-138555478D01*
X137946437Y-138416659D01*
X137894025Y-138389954D01*
X137735992Y-138309432D01*
X137735989Y-138309431D01*
X137735987Y-138309430D01*
X137563571Y-138253409D01*
X137511368Y-138236447D01*
X137511366Y-138236446D01*
X137511364Y-138236446D01*
X137278103Y-138199501D01*
X137278094Y-138199500D01*
X137278092Y-138199500D01*
X137278088Y-138199500D01*
X124779919Y-138199500D01*
X124684631Y-138180546D01*
X124603849Y-138126570D01*
X124549873Y-138045788D01*
X124530919Y-137950500D01*
X124549873Y-137855212D01*
X124558059Y-137837456D01*
X124565242Y-137823357D01*
X124619048Y-137717758D01*
X124689722Y-137500245D01*
X124725500Y-137274354D01*
X124725500Y-137045646D01*
X124725499Y-137045643D01*
X124725499Y-137045636D01*
X124689722Y-136819757D01*
X124689722Y-136819755D01*
X124619048Y-136602242D01*
X124515217Y-136398462D01*
X124380786Y-136213434D01*
X124233418Y-136066066D01*
X124179445Y-135985288D01*
X124160491Y-135890000D01*
X124179445Y-135794712D01*
X124233418Y-135713933D01*
X124380786Y-135566566D01*
X124515217Y-135381538D01*
X124619048Y-135177758D01*
X124689722Y-134960245D01*
X124725500Y-134734354D01*
X124725500Y-134505646D01*
X124725499Y-134505643D01*
X124725499Y-134505636D01*
X124689722Y-134279757D01*
X124689722Y-134279755D01*
X124619048Y-134062242D01*
X124515217Y-133858462D01*
X124380786Y-133673434D01*
X124219066Y-133511714D01*
X124034038Y-133377283D01*
X123830258Y-133273452D01*
X123830251Y-133273449D01*
X123612742Y-133202777D01*
X123386863Y-133167000D01*
X123386854Y-133167000D01*
X123063146Y-133167000D01*
X123063136Y-133167000D01*
X122837257Y-133202777D01*
X122619748Y-133273449D01*
X122619741Y-133273452D01*
X122415958Y-133377285D01*
X122230937Y-133511711D01*
X122069211Y-133673437D01*
X121934785Y-133858458D01*
X121830952Y-134062241D01*
X121830949Y-134062248D01*
X121760277Y-134279757D01*
X121724500Y-134505636D01*
X104000500Y-134505636D01*
X104000500Y-124460000D01*
X115874696Y-124460000D01*
X115893897Y-124826401D01*
X115951294Y-125188793D01*
X115951296Y-125188802D01*
X116046254Y-125543189D01*
X116177746Y-125885740D01*
X116177747Y-125885742D01*
X116344316Y-126212649D01*
X116544152Y-126520371D01*
X116619972Y-126614000D01*
X116775051Y-126805506D01*
X117034494Y-127064949D01*
X117034499Y-127064953D01*
X117034500Y-127064954D01*
X117319629Y-127295847D01*
X117319628Y-127295847D01*
X117627350Y-127495683D01*
X117954257Y-127662252D01*
X117954259Y-127662253D01*
X117954263Y-127662254D01*
X117954264Y-127662255D01*
X118296801Y-127793742D01*
X118296804Y-127793743D01*
X118296810Y-127793745D01*
X118651197Y-127888703D01*
X118651206Y-127888705D01*
X119013596Y-127946102D01*
X119380000Y-127965304D01*
X119746404Y-127946102D01*
X120108794Y-127888705D01*
X120108798Y-127888703D01*
X120108802Y-127888703D01*
X120463189Y-127793745D01*
X120463191Y-127793743D01*
X120463199Y-127793742D01*
X120805736Y-127662255D01*
X121132652Y-127495682D01*
X121440366Y-127295851D01*
X121725506Y-127064949D01*
X121984949Y-126805506D01*
X122215851Y-126520366D01*
X122415682Y-126212652D01*
X122582255Y-125885736D01*
X122713742Y-125543199D01*
X122808705Y-125188794D01*
X122866102Y-124826404D01*
X122885304Y-124460000D01*
X122866102Y-124093596D01*
X122808705Y-123731206D01*
X122808703Y-123731197D01*
X122713745Y-123376810D01*
X122582253Y-123034259D01*
X122582252Y-123034257D01*
X122415683Y-122707350D01*
X122215847Y-122399628D01*
X121984954Y-122114500D01*
X121984953Y-122114499D01*
X121984949Y-122114494D01*
X121725506Y-121855051D01*
X121440370Y-121624152D01*
X121440371Y-121624152D01*
X121132649Y-121424316D01*
X120805742Y-121257747D01*
X120805740Y-121257746D01*
X120463189Y-121126254D01*
X120108802Y-121031296D01*
X120108793Y-121031294D01*
X119746401Y-120973897D01*
X119746402Y-120973897D01*
X119380000Y-120954696D01*
X119013598Y-120973897D01*
X118651206Y-121031294D01*
X118651197Y-121031296D01*
X118296810Y-121126254D01*
X117954259Y-121257746D01*
X117954257Y-121257747D01*
X117627350Y-121424316D01*
X117319628Y-121624152D01*
X117034500Y-121855045D01*
X116775045Y-122114500D01*
X116544152Y-122399628D01*
X116344316Y-122707350D01*
X116177747Y-123034257D01*
X116177746Y-123034259D01*
X116046254Y-123376810D01*
X115951296Y-123731197D01*
X115951294Y-123731206D01*
X115893897Y-124093598D01*
X115874696Y-124460000D01*
X104000500Y-124460000D01*
X104000500Y-117594500D01*
X104019454Y-117499212D01*
X104073430Y-117418430D01*
X104154212Y-117364454D01*
X104249500Y-117345500D01*
X105154682Y-117345500D01*
X105249970Y-117364454D01*
X105330752Y-117418430D01*
X105384728Y-117499212D01*
X105403682Y-117594500D01*
X105395198Y-117658946D01*
X105349364Y-117829999D01*
X105349364Y-117830000D01*
X106246988Y-117830000D01*
X106214075Y-117887007D01*
X106180000Y-118014174D01*
X106180000Y-118145826D01*
X106214075Y-118272993D01*
X106246988Y-118330000D01*
X105349364Y-118330000D01*
X105349363Y-118330001D01*
X105406566Y-118543483D01*
X105406566Y-118543485D01*
X105506399Y-118757576D01*
X105641889Y-118951076D01*
X105808923Y-119118110D01*
X106002423Y-119253600D01*
X106216511Y-119353431D01*
X106430000Y-119410635D01*
X106430000Y-118513012D01*
X106487007Y-118545925D01*
X106614174Y-118580000D01*
X106745826Y-118580000D01*
X106872993Y-118545925D01*
X106930000Y-118513012D01*
X106930000Y-119410635D01*
X107143488Y-119353431D01*
X107357576Y-119253600D01*
X107551076Y-119118110D01*
X107718110Y-118951076D01*
X107853600Y-118757576D01*
X107953433Y-118543485D01*
X107953433Y-118543483D01*
X108010636Y-118330001D01*
X108010636Y-118330000D01*
X107113012Y-118330000D01*
X107145925Y-118272993D01*
X107180000Y-118145826D01*
X107180000Y-118014174D01*
X107145925Y-117887007D01*
X107113012Y-117830000D01*
X108010636Y-117830000D01*
X108010635Y-117829999D01*
X107964802Y-117658946D01*
X107958448Y-117561999D01*
X107989678Y-117470000D01*
X108053736Y-117396955D01*
X108140872Y-117353984D01*
X108205318Y-117345500D01*
X111510997Y-117345500D01*
X111511000Y-117345500D01*
X111609618Y-117335787D01*
X111704906Y-117316833D01*
X111757335Y-117303451D01*
X111887126Y-117241356D01*
X111967908Y-117187380D01*
X112011233Y-117154947D01*
X112107380Y-117047908D01*
X112161356Y-116967126D01*
X112188966Y-116920591D01*
X112236833Y-116784906D01*
X112255787Y-116689618D01*
X112265500Y-116591000D01*
X112265500Y-114549000D01*
X112255787Y-114450382D01*
X112236833Y-114355094D01*
X112223451Y-114302665D01*
X112161356Y-114172874D01*
X112107380Y-114092092D01*
X112074947Y-114048767D01*
X111967908Y-113952620D01*
X111967205Y-113952150D01*
X111887150Y-113898659D01*
X111887121Y-113898641D01*
X111840590Y-113871033D01*
X111704907Y-113823167D01*
X111704903Y-113823166D01*
X111609614Y-113804212D01*
X111511000Y-113794500D01*
X110618907Y-113794500D01*
X110618906Y-113794500D01*
X110592816Y-113795173D01*
X110569203Y-113796394D01*
X110567121Y-113796502D01*
X110505553Y-113807430D01*
X110443985Y-113818359D01*
X110385117Y-113836549D01*
X110363548Y-113843214D01*
X110351156Y-113847043D01*
X110351146Y-113847046D01*
X110259806Y-113885435D01*
X110254032Y-113888560D01*
X110216389Y-113905070D01*
X110107295Y-113942522D01*
X110067431Y-113952617D01*
X109991818Y-113965235D01*
X109953650Y-113971604D01*
X109912669Y-113975000D01*
X109797331Y-113975000D01*
X109756347Y-113971604D01*
X109699458Y-113962111D01*
X109642571Y-113952618D01*
X109602705Y-113942522D01*
X109493603Y-113905067D01*
X109455948Y-113888551D01*
X109450183Y-113885431D01*
X109426906Y-113873601D01*
X109403699Y-113862551D01*
X109403696Y-113862550D01*
X109403694Y-113862549D01*
X109285001Y-113823167D01*
X109191641Y-113804597D01*
X109189711Y-113804213D01*
X109189709Y-113804212D01*
X109189705Y-113804212D01*
X109091093Y-113794500D01*
X108188563Y-113794500D01*
X108093275Y-113775546D01*
X108012493Y-113721570D01*
X107958517Y-113640788D01*
X107939563Y-113545500D01*
X107952100Y-113474389D01*
X107950618Y-113473992D01*
X108010636Y-113250001D01*
X108010636Y-113250000D01*
X107113012Y-113250000D01*
X107145925Y-113192993D01*
X107180000Y-113065826D01*
X107180000Y-112934174D01*
X107145925Y-112807007D01*
X107113012Y-112750000D01*
X108010636Y-112750000D01*
X108010635Y-112749999D01*
X107964802Y-112578946D01*
X107958448Y-112481999D01*
X107989678Y-112390000D01*
X108053736Y-112316955D01*
X108140872Y-112273984D01*
X108205318Y-112265500D01*
X109091094Y-112265500D01*
X109094355Y-112265415D01*
X109117192Y-112264826D01*
X109142879Y-112263498D01*
X109266019Y-112241640D01*
X109358843Y-112212957D01*
X109450202Y-112174559D01*
X109455935Y-112171455D01*
X109493608Y-112154928D01*
X109602716Y-112117472D01*
X109642566Y-112107381D01*
X109721064Y-112094282D01*
X109756346Y-112088396D01*
X109797327Y-112085000D01*
X109912671Y-112085000D01*
X109953654Y-112088396D01*
X110067427Y-112107381D01*
X110107292Y-112117476D01*
X110164592Y-112137146D01*
X110216386Y-112154927D01*
X110254050Y-112171448D01*
X110259801Y-112174561D01*
X110283090Y-112186397D01*
X110306313Y-112197454D01*
X110425001Y-112236833D01*
X110520289Y-112255787D01*
X110618907Y-112265500D01*
X110618910Y-112265500D01*
X111510997Y-112265500D01*
X111511000Y-112265500D01*
X111609618Y-112255787D01*
X111704906Y-112236833D01*
X111757335Y-112223451D01*
X111887126Y-112161356D01*
X111967908Y-112107380D01*
X112011233Y-112074947D01*
X112107380Y-111967908D01*
X112161356Y-111887126D01*
X112188966Y-111840591D01*
X112236833Y-111704906D01*
X112255787Y-111609618D01*
X112265500Y-111511000D01*
X112265500Y-109469000D01*
X112255787Y-109370382D01*
X112236833Y-109275094D01*
X112223451Y-109222665D01*
X112161356Y-109092874D01*
X112107380Y-109012092D01*
X112074947Y-108968767D01*
X111967908Y-108872620D01*
X111967205Y-108872150D01*
X111887150Y-108818659D01*
X111887121Y-108818641D01*
X111840590Y-108791033D01*
X111704907Y-108743167D01*
X111704903Y-108743166D01*
X111609614Y-108724212D01*
X111511000Y-108714500D01*
X110618907Y-108714500D01*
X110618906Y-108714500D01*
X110592816Y-108715173D01*
X110569203Y-108716394D01*
X110567121Y-108716502D01*
X110505553Y-108727430D01*
X110443985Y-108738359D01*
X110385117Y-108756549D01*
X110363548Y-108763214D01*
X110351156Y-108767043D01*
X110351146Y-108767046D01*
X110259806Y-108805435D01*
X110254032Y-108808560D01*
X110216389Y-108825070D01*
X110107295Y-108862522D01*
X110067431Y-108872617D01*
X109991818Y-108885235D01*
X109953650Y-108891604D01*
X109912669Y-108895000D01*
X109797331Y-108895000D01*
X109756347Y-108891604D01*
X109699458Y-108882111D01*
X109642571Y-108872618D01*
X109602705Y-108862522D01*
X109493603Y-108825067D01*
X109455948Y-108808551D01*
X109450183Y-108805431D01*
X109426906Y-108793601D01*
X109403699Y-108782551D01*
X109403696Y-108782550D01*
X109403694Y-108782549D01*
X109285001Y-108743167D01*
X109191641Y-108724597D01*
X109189711Y-108724213D01*
X109189709Y-108724212D01*
X109189705Y-108724212D01*
X109091093Y-108714500D01*
X108188563Y-108714500D01*
X108093275Y-108695546D01*
X108012493Y-108641570D01*
X107958517Y-108560788D01*
X107939563Y-108465500D01*
X107952100Y-108394389D01*
X107950618Y-108393992D01*
X108010636Y-108170001D01*
X108010636Y-108170000D01*
X107113012Y-108170000D01*
X107145925Y-108112993D01*
X107180000Y-107985826D01*
X107180000Y-107854174D01*
X107145925Y-107727007D01*
X107113012Y-107670000D01*
X108010636Y-107670000D01*
X108010635Y-107669999D01*
X107963802Y-107495215D01*
X107957447Y-107398268D01*
X107988676Y-107306269D01*
X108052735Y-107233224D01*
X108139870Y-107190253D01*
X108228721Y-107182967D01*
X108254434Y-107185500D01*
X108254441Y-107185500D01*
X109091094Y-107185500D01*
X109094355Y-107185415D01*
X109117192Y-107184826D01*
X109142879Y-107183498D01*
X109266019Y-107161640D01*
X109358843Y-107132957D01*
X109450202Y-107094559D01*
X109455935Y-107091455D01*
X109493608Y-107074928D01*
X109602716Y-107037472D01*
X109642566Y-107027381D01*
X109721064Y-107014282D01*
X109756346Y-107008396D01*
X109797327Y-107005000D01*
X109912671Y-107005000D01*
X109953654Y-107008396D01*
X110067427Y-107027381D01*
X110107292Y-107037476D01*
X110164592Y-107057146D01*
X110216386Y-107074927D01*
X110254050Y-107091448D01*
X110259801Y-107094561D01*
X110283090Y-107106397D01*
X110306313Y-107117454D01*
X110425001Y-107156833D01*
X110520289Y-107175787D01*
X110618907Y-107185500D01*
X110618910Y-107185500D01*
X111510997Y-107185500D01*
X111511000Y-107185500D01*
X111609618Y-107175787D01*
X111704906Y-107156833D01*
X111757335Y-107143451D01*
X111887126Y-107081356D01*
X111967908Y-107027380D01*
X112011233Y-106994947D01*
X112107380Y-106887908D01*
X112161356Y-106807126D01*
X112188966Y-106760591D01*
X112236833Y-106624906D01*
X112255787Y-106529618D01*
X112265500Y-106431000D01*
X112265500Y-104389000D01*
X112255787Y-104290382D01*
X112236833Y-104195094D01*
X112223451Y-104142665D01*
X112161356Y-104012874D01*
X112107380Y-103932092D01*
X112074947Y-103888767D01*
X111967908Y-103792620D01*
X111967205Y-103792150D01*
X111887150Y-103738659D01*
X111887121Y-103738641D01*
X111840590Y-103711033D01*
X111704907Y-103663167D01*
X111704903Y-103663166D01*
X111609614Y-103644212D01*
X111511000Y-103634500D01*
X108270418Y-103634500D01*
X108243355Y-103635225D01*
X108216739Y-103636652D01*
X108092757Y-103659021D01*
X108092752Y-103659022D01*
X108092749Y-103659023D01*
X108000053Y-103688047D01*
X108000033Y-103688053D01*
X107949335Y-103706962D01*
X107826932Y-103782573D01*
X107752371Y-103844884D01*
X107712771Y-103881753D01*
X107680763Y-103926140D01*
X107609656Y-103992342D01*
X107518626Y-104026294D01*
X107478798Y-104029500D01*
X105883521Y-104029500D01*
X105788233Y-104010546D01*
X105707451Y-103956570D01*
X105684187Y-103929721D01*
X105653530Y-103888769D01*
X105653529Y-103888767D01*
X105546490Y-103792620D01*
X105545787Y-103792150D01*
X105465732Y-103738659D01*
X105465703Y-103738641D01*
X105419172Y-103711033D01*
X105283489Y-103663167D01*
X105283485Y-103663166D01*
X105188196Y-103644212D01*
X105089582Y-103634500D01*
X104249500Y-103634500D01*
X104154212Y-103615546D01*
X104073430Y-103561570D01*
X104019454Y-103480788D01*
X104000500Y-103385500D01*
X104000500Y-74930000D01*
X115874696Y-74930000D01*
X115893897Y-75296401D01*
X115951294Y-75658793D01*
X115951296Y-75658802D01*
X116046254Y-76013189D01*
X116177746Y-76355740D01*
X116177747Y-76355742D01*
X116344316Y-76682649D01*
X116544152Y-76990371D01*
X116775045Y-77275499D01*
X116775051Y-77275506D01*
X117034494Y-77534949D01*
X117034499Y-77534953D01*
X117034500Y-77534954D01*
X117319629Y-77765847D01*
X117319628Y-77765847D01*
X117627350Y-77965683D01*
X117954257Y-78132252D01*
X117954259Y-78132253D01*
X117954263Y-78132254D01*
X117954264Y-78132255D01*
X118296801Y-78263742D01*
X118296804Y-78263743D01*
X118296810Y-78263745D01*
X118651197Y-78358703D01*
X118651206Y-78358705D01*
X119013596Y-78416102D01*
X119380000Y-78435304D01*
X119746404Y-78416102D01*
X120108794Y-78358705D01*
X120108798Y-78358703D01*
X120108802Y-78358703D01*
X120463189Y-78263745D01*
X120463191Y-78263743D01*
X120463199Y-78263742D01*
X120805736Y-78132255D01*
X121132652Y-77965682D01*
X121440366Y-77765851D01*
X121725506Y-77534949D01*
X121984949Y-77275506D01*
X122215851Y-76990366D01*
X122415682Y-76682652D01*
X122582255Y-76355736D01*
X122713742Y-76013199D01*
X122808705Y-75658794D01*
X122866102Y-75296404D01*
X122885304Y-74930000D01*
X169214696Y-74930000D01*
X169233897Y-75296401D01*
X169291294Y-75658793D01*
X169291296Y-75658802D01*
X169386254Y-76013189D01*
X169517746Y-76355740D01*
X169517747Y-76355742D01*
X169684316Y-76682649D01*
X169884152Y-76990371D01*
X170115045Y-77275499D01*
X170115051Y-77275506D01*
X170374494Y-77534949D01*
X170374499Y-77534953D01*
X170374500Y-77534954D01*
X170659629Y-77765847D01*
X170659628Y-77765847D01*
X170967350Y-77965683D01*
X171294257Y-78132252D01*
X171294259Y-78132253D01*
X171294263Y-78132254D01*
X171294264Y-78132255D01*
X171636801Y-78263742D01*
X171636804Y-78263743D01*
X171636810Y-78263745D01*
X171991197Y-78358703D01*
X171991206Y-78358705D01*
X172353596Y-78416102D01*
X172720000Y-78435304D01*
X173086404Y-78416102D01*
X173448794Y-78358705D01*
X173448798Y-78358703D01*
X173448802Y-78358703D01*
X173803189Y-78263745D01*
X173803191Y-78263743D01*
X173803199Y-78263742D01*
X174145736Y-78132255D01*
X174472652Y-77965682D01*
X174780366Y-77765851D01*
X175065506Y-77534949D01*
X175324949Y-77275506D01*
X175555851Y-76990366D01*
X175755682Y-76682652D01*
X175922255Y-76355736D01*
X176053742Y-76013199D01*
X176148705Y-75658794D01*
X176206102Y-75296404D01*
X176225304Y-74930000D01*
X176206102Y-74563596D01*
X176148705Y-74201206D01*
X176148703Y-74201197D01*
X176053745Y-73846810D01*
X175922253Y-73504259D01*
X175922252Y-73504257D01*
X175755683Y-73177350D01*
X175555847Y-72869628D01*
X175324954Y-72584500D01*
X175324953Y-72584499D01*
X175324949Y-72584494D01*
X175065506Y-72325051D01*
X174780370Y-72094152D01*
X174780371Y-72094152D01*
X174472649Y-71894316D01*
X174145742Y-71727747D01*
X174145740Y-71727746D01*
X173803189Y-71596254D01*
X173448802Y-71501296D01*
X173448793Y-71501294D01*
X173086401Y-71443897D01*
X173086402Y-71443897D01*
X172720000Y-71424696D01*
X172353598Y-71443897D01*
X171991206Y-71501294D01*
X171991197Y-71501296D01*
X171636810Y-71596254D01*
X171294259Y-71727746D01*
X171294257Y-71727747D01*
X170967350Y-71894316D01*
X170659628Y-72094152D01*
X170374500Y-72325045D01*
X170115045Y-72584500D01*
X169884152Y-72869628D01*
X169684316Y-73177350D01*
X169517747Y-73504257D01*
X169517746Y-73504259D01*
X169386254Y-73846810D01*
X169291296Y-74201197D01*
X169291294Y-74201206D01*
X169233897Y-74563598D01*
X169214696Y-74930000D01*
X122885304Y-74930000D01*
X122866102Y-74563596D01*
X122808705Y-74201206D01*
X122808703Y-74201197D01*
X122713745Y-73846810D01*
X122582253Y-73504259D01*
X122582252Y-73504257D01*
X122415683Y-73177350D01*
X122215847Y-72869628D01*
X121984954Y-72584500D01*
X121984953Y-72584499D01*
X121984949Y-72584494D01*
X121725506Y-72325051D01*
X121440370Y-72094152D01*
X121440371Y-72094152D01*
X121132649Y-71894316D01*
X120805742Y-71727747D01*
X120805740Y-71727746D01*
X120463189Y-71596254D01*
X120108802Y-71501296D01*
X120108793Y-71501294D01*
X119746401Y-71443897D01*
X119746402Y-71443897D01*
X119380000Y-71424696D01*
X119013598Y-71443897D01*
X118651206Y-71501294D01*
X118651197Y-71501296D01*
X118296810Y-71596254D01*
X117954259Y-71727746D01*
X117954257Y-71727747D01*
X117627350Y-71894316D01*
X117319628Y-72094152D01*
X117034500Y-72325045D01*
X116775045Y-72584500D01*
X116544152Y-72869628D01*
X116344316Y-73177350D01*
X116177747Y-73504257D01*
X116177746Y-73504259D01*
X116046254Y-73846810D01*
X115951296Y-74201197D01*
X115951294Y-74201206D01*
X115893897Y-74563598D01*
X115874696Y-74930000D01*
X104000500Y-74930000D01*
X104000500Y-59575636D01*
X121724500Y-59575636D01*
X121724500Y-59804363D01*
X121760277Y-60030242D01*
X121830949Y-60247751D01*
X121830952Y-60247758D01*
X121934783Y-60451538D01*
X122069214Y-60636566D01*
X122216581Y-60783933D01*
X122270555Y-60864712D01*
X122289509Y-60960000D01*
X122270555Y-61055288D01*
X122216581Y-61136066D01*
X122141662Y-61210986D01*
X122069211Y-61283437D01*
X121934785Y-61468458D01*
X121830952Y-61672241D01*
X121830949Y-61672248D01*
X121760277Y-61889757D01*
X121724500Y-62115636D01*
X121724500Y-62344363D01*
X121760277Y-62570242D01*
X121830949Y-62787751D01*
X121830952Y-62787758D01*
X121900988Y-62925212D01*
X121934785Y-62991541D01*
X121987214Y-63063703D01*
X122027889Y-63151933D01*
X122031704Y-63249013D01*
X121998077Y-63340163D01*
X121934991Y-63409395D01*
X121867459Y-63459949D01*
X121867453Y-63459955D01*
X121781204Y-63575169D01*
X121730908Y-63710018D01*
X121724500Y-63769623D01*
X121724500Y-65770365D01*
X121724501Y-65770369D01*
X121730908Y-65829980D01*
X121730909Y-65829984D01*
X121781203Y-65964829D01*
X121781204Y-65964831D01*
X121867454Y-66080046D01*
X121982669Y-66166296D01*
X122117517Y-66216591D01*
X122177127Y-66223000D01*
X122801713Y-66222999D01*
X122863751Y-66232824D01*
X122864125Y-66231270D01*
X122873630Y-66233552D01*
X122873632Y-66233553D01*
X122873633Y-66233553D01*
X122873641Y-66233555D01*
X123072493Y-66265049D01*
X123106908Y-66270500D01*
X123106912Y-66270500D01*
X137278088Y-66270500D01*
X137278092Y-66270500D01*
X137511368Y-66233553D01*
X137735992Y-66160568D01*
X137946433Y-66053343D01*
X138137510Y-65914517D01*
X138304517Y-65747510D01*
X138443343Y-65556433D01*
X138550568Y-65345992D01*
X138623553Y-65121368D01*
X138660500Y-64888092D01*
X138660500Y-64651908D01*
X138623553Y-64418632D01*
X138550568Y-64194008D01*
X138443343Y-63983567D01*
X138443341Y-63983564D01*
X138443340Y-63983562D01*
X138304521Y-63792495D01*
X138304519Y-63792493D01*
X138304517Y-63792490D01*
X138137510Y-63625483D01*
X138137506Y-63625480D01*
X138137504Y-63625478D01*
X137946437Y-63486659D01*
X137894025Y-63459954D01*
X137735992Y-63379432D01*
X137735989Y-63379431D01*
X137735987Y-63379430D01*
X137563571Y-63323409D01*
X137511368Y-63306447D01*
X137511366Y-63306446D01*
X137511364Y-63306446D01*
X137278103Y-63269501D01*
X137278094Y-63269500D01*
X137278092Y-63269500D01*
X137278088Y-63269500D01*
X124779919Y-63269500D01*
X124684631Y-63250546D01*
X124603849Y-63196570D01*
X124549873Y-63115788D01*
X124530919Y-63020500D01*
X124549873Y-62925212D01*
X124558059Y-62907456D01*
X124565242Y-62893357D01*
X124619048Y-62787758D01*
X124689722Y-62570245D01*
X124725500Y-62344354D01*
X124725500Y-62115646D01*
X124725499Y-62115643D01*
X124725499Y-62115636D01*
X124689722Y-61889757D01*
X124689722Y-61889755D01*
X124619048Y-61672242D01*
X124515217Y-61468462D01*
X124380786Y-61283434D01*
X124233418Y-61136066D01*
X124179445Y-61055288D01*
X124160491Y-60960000D01*
X124179445Y-60864712D01*
X124233418Y-60783933D01*
X124380786Y-60636566D01*
X124515217Y-60451538D01*
X124619048Y-60247758D01*
X124689722Y-60030245D01*
X124708597Y-59911072D01*
X124725499Y-59804363D01*
X124725500Y-59804351D01*
X124725500Y-59575648D01*
X124725499Y-59575636D01*
X124724909Y-59571912D01*
X153439500Y-59571912D01*
X153439500Y-59808087D01*
X153439501Y-59808103D01*
X153474685Y-60030245D01*
X153476447Y-60041368D01*
X153549432Y-60265992D01*
X153643972Y-60451538D01*
X153656659Y-60476437D01*
X153795478Y-60667504D01*
X153795480Y-60667506D01*
X153795483Y-60667510D01*
X153962490Y-60834517D01*
X153962493Y-60834519D01*
X153962495Y-60834521D01*
X154153562Y-60973340D01*
X154153564Y-60973341D01*
X154153567Y-60973343D01*
X154364008Y-61080568D01*
X154588632Y-61153553D01*
X154821908Y-61190500D01*
X167320081Y-61190500D01*
X167415369Y-61209454D01*
X167496151Y-61263430D01*
X167550127Y-61344212D01*
X167569081Y-61439500D01*
X167550127Y-61534788D01*
X167541941Y-61552544D01*
X167480957Y-61672231D01*
X167480949Y-61672248D01*
X167410277Y-61889757D01*
X167374500Y-62115636D01*
X167374500Y-62344363D01*
X167410277Y-62570242D01*
X167480949Y-62787751D01*
X167480952Y-62787758D01*
X167584783Y-62991538D01*
X167719214Y-63176566D01*
X167866581Y-63323933D01*
X167920555Y-63404712D01*
X167939509Y-63500000D01*
X167920555Y-63595288D01*
X167866581Y-63676066D01*
X167773025Y-63769623D01*
X167719211Y-63823437D01*
X167584785Y-64008458D01*
X167480952Y-64212241D01*
X167480949Y-64212248D01*
X167410277Y-64429757D01*
X167374500Y-64655636D01*
X167374500Y-64884363D01*
X167410277Y-65110242D01*
X167480949Y-65327751D01*
X167480952Y-65327758D01*
X167584783Y-65531538D01*
X167719214Y-65716566D01*
X167880934Y-65878286D01*
X168065962Y-66012717D01*
X168269742Y-66116548D01*
X168487255Y-66187222D01*
X168566703Y-66199805D01*
X168713136Y-66222999D01*
X168713143Y-66222999D01*
X168713146Y-66223000D01*
X168713149Y-66223000D01*
X169036851Y-66223000D01*
X169036854Y-66223000D01*
X169036857Y-66222999D01*
X169036863Y-66222999D01*
X169143572Y-66206097D01*
X169262745Y-66187222D01*
X169480258Y-66116548D01*
X169684038Y-66012717D01*
X169869066Y-65878286D01*
X170030786Y-65716566D01*
X170165217Y-65531538D01*
X170269048Y-65327758D01*
X170339722Y-65110245D01*
X170358597Y-64991072D01*
X170375499Y-64884363D01*
X170375500Y-64884351D01*
X170375500Y-64655648D01*
X170375499Y-64655636D01*
X170339722Y-64429757D01*
X170339722Y-64429755D01*
X170269048Y-64212242D01*
X170165217Y-64008462D01*
X170030786Y-63823434D01*
X169883418Y-63676066D01*
X169829445Y-63595288D01*
X169810491Y-63500000D01*
X169829445Y-63404712D01*
X169883418Y-63323933D01*
X170030786Y-63176566D01*
X170165217Y-62991538D01*
X170269048Y-62787758D01*
X170339722Y-62570245D01*
X170375500Y-62344354D01*
X170375500Y-62115646D01*
X170375499Y-62115643D01*
X170375499Y-62115636D01*
X170339722Y-61889757D01*
X170339722Y-61889755D01*
X170269048Y-61672242D01*
X170165217Y-61468462D01*
X170112786Y-61396297D01*
X170072110Y-61308066D01*
X170068295Y-61210986D01*
X170101922Y-61119836D01*
X170165008Y-61050604D01*
X170232546Y-61000046D01*
X170318796Y-60884831D01*
X170369091Y-60749983D01*
X170375500Y-60690373D01*
X170375500Y-59793465D01*
X170375500Y-59571908D01*
X170375500Y-59556648D01*
X170375499Y-59556630D01*
X170375499Y-58689634D01*
X170375499Y-58689628D01*
X170369091Y-58630017D01*
X170318796Y-58495169D01*
X170232546Y-58379954D01*
X170117331Y-58293704D01*
X170037117Y-58263786D01*
X169982481Y-58243408D01*
X169922876Y-58237000D01*
X169922873Y-58237000D01*
X169298283Y-58237000D01*
X169236247Y-58227175D01*
X169235874Y-58228730D01*
X169226369Y-58226447D01*
X169226368Y-58226447D01*
X169226366Y-58226446D01*
X169226355Y-58226444D01*
X168993103Y-58189501D01*
X168993094Y-58189500D01*
X168993092Y-58189500D01*
X154821908Y-58189500D01*
X154821905Y-58189500D01*
X154821896Y-58189501D01*
X154588635Y-58226446D01*
X154364012Y-58299430D01*
X154153562Y-58406659D01*
X153962495Y-58545478D01*
X153795478Y-58712495D01*
X153656659Y-58903562D01*
X153549430Y-59114012D01*
X153476446Y-59338635D01*
X153439501Y-59571896D01*
X153439500Y-59571912D01*
X124724909Y-59571912D01*
X124689722Y-59349757D01*
X124689722Y-59349755D01*
X124619048Y-59132242D01*
X124515217Y-58928462D01*
X124380786Y-58743434D01*
X124219066Y-58581714D01*
X124219062Y-58581711D01*
X124034041Y-58447285D01*
X124034040Y-58447284D01*
X124034038Y-58447283D01*
X123830258Y-58343452D01*
X123830251Y-58343449D01*
X123612742Y-58272777D01*
X123386863Y-58237000D01*
X123386854Y-58237000D01*
X123063146Y-58237000D01*
X123063136Y-58237000D01*
X122837257Y-58272777D01*
X122619748Y-58343449D01*
X122619741Y-58343452D01*
X122415958Y-58447285D01*
X122230937Y-58581711D01*
X122069211Y-58743437D01*
X121934785Y-58928458D01*
X121830952Y-59132241D01*
X121830949Y-59132248D01*
X121760277Y-59349757D01*
X121724500Y-59575636D01*
X104000500Y-59575636D01*
X104000500Y-49530000D01*
X115874696Y-49530000D01*
X115893897Y-49896401D01*
X115951294Y-50258793D01*
X115951296Y-50258802D01*
X116046254Y-50613189D01*
X116177746Y-50955740D01*
X116177747Y-50955742D01*
X116344316Y-51282649D01*
X116544152Y-51590371D01*
X116775045Y-51875499D01*
X116775051Y-51875506D01*
X117034494Y-52134949D01*
X117034499Y-52134953D01*
X117034500Y-52134954D01*
X117319629Y-52365847D01*
X117319628Y-52365847D01*
X117627350Y-52565683D01*
X117954257Y-52732252D01*
X117954259Y-52732253D01*
X117954263Y-52732254D01*
X117954264Y-52732255D01*
X118296801Y-52863742D01*
X118296804Y-52863743D01*
X118296810Y-52863745D01*
X118651197Y-52958703D01*
X118651206Y-52958705D01*
X119013596Y-53016102D01*
X119380000Y-53035304D01*
X119746404Y-53016102D01*
X120108794Y-52958705D01*
X120108798Y-52958703D01*
X120108802Y-52958703D01*
X120463189Y-52863745D01*
X120463191Y-52863743D01*
X120463199Y-52863742D01*
X120805736Y-52732255D01*
X121132652Y-52565682D01*
X121440366Y-52365851D01*
X121725506Y-52134949D01*
X121984949Y-51875506D01*
X122215851Y-51590366D01*
X122415682Y-51282652D01*
X122582255Y-50955736D01*
X122713742Y-50613199D01*
X122808705Y-50258794D01*
X122866102Y-49896404D01*
X122885304Y-49530000D01*
X169214696Y-49530000D01*
X169233897Y-49896401D01*
X169291294Y-50258793D01*
X169291296Y-50258802D01*
X169386254Y-50613189D01*
X169517746Y-50955740D01*
X169517747Y-50955742D01*
X169684316Y-51282649D01*
X169884152Y-51590371D01*
X170115045Y-51875499D01*
X170115051Y-51875506D01*
X170374494Y-52134949D01*
X170374499Y-52134953D01*
X170374500Y-52134954D01*
X170659629Y-52365847D01*
X170659628Y-52365847D01*
X170967350Y-52565683D01*
X171294257Y-52732252D01*
X171294259Y-52732253D01*
X171294263Y-52732254D01*
X171294264Y-52732255D01*
X171636801Y-52863742D01*
X171636804Y-52863743D01*
X171636810Y-52863745D01*
X171991197Y-52958703D01*
X171991206Y-52958705D01*
X172353596Y-53016102D01*
X172720000Y-53035304D01*
X173086404Y-53016102D01*
X173448794Y-52958705D01*
X173448798Y-52958703D01*
X173448802Y-52958703D01*
X173803189Y-52863745D01*
X173803191Y-52863743D01*
X173803199Y-52863742D01*
X174145736Y-52732255D01*
X174472652Y-52565682D01*
X174780366Y-52365851D01*
X175065506Y-52134949D01*
X175324949Y-51875506D01*
X175555851Y-51590366D01*
X175755682Y-51282652D01*
X175922255Y-50955736D01*
X176053742Y-50613199D01*
X176148705Y-50258794D01*
X176206102Y-49896404D01*
X176225304Y-49530000D01*
X176206102Y-49163596D01*
X176148705Y-48801206D01*
X176148703Y-48801197D01*
X176053745Y-48446810D01*
X175922253Y-48104259D01*
X175922252Y-48104257D01*
X175755683Y-47777350D01*
X175555847Y-47469628D01*
X175324954Y-47184500D01*
X175324953Y-47184499D01*
X175324949Y-47184494D01*
X175065506Y-46925051D01*
X174780370Y-46694152D01*
X174780371Y-46694152D01*
X174472649Y-46494316D01*
X174145742Y-46327747D01*
X174145740Y-46327746D01*
X173803189Y-46196254D01*
X173448802Y-46101296D01*
X173448793Y-46101294D01*
X173086401Y-46043897D01*
X173086402Y-46043897D01*
X172720000Y-46024696D01*
X172353598Y-46043897D01*
X171991206Y-46101294D01*
X171991197Y-46101296D01*
X171636810Y-46196254D01*
X171294259Y-46327746D01*
X171294257Y-46327747D01*
X170967350Y-46494316D01*
X170659628Y-46694152D01*
X170374500Y-46925045D01*
X170115045Y-47184500D01*
X169884152Y-47469628D01*
X169684316Y-47777350D01*
X169517747Y-48104257D01*
X169517746Y-48104259D01*
X169386254Y-48446810D01*
X169291296Y-48801197D01*
X169291294Y-48801206D01*
X169233897Y-49163598D01*
X169214696Y-49530000D01*
X122885304Y-49530000D01*
X122866102Y-49163596D01*
X122808705Y-48801206D01*
X122808703Y-48801197D01*
X122713745Y-48446810D01*
X122582253Y-48104259D01*
X122582252Y-48104257D01*
X122415683Y-47777350D01*
X122215847Y-47469628D01*
X121984954Y-47184500D01*
X121984953Y-47184499D01*
X121984949Y-47184494D01*
X121725506Y-46925051D01*
X121440370Y-46694152D01*
X121440371Y-46694152D01*
X121132649Y-46494316D01*
X120805742Y-46327747D01*
X120805740Y-46327746D01*
X120463189Y-46196254D01*
X120108802Y-46101296D01*
X120108793Y-46101294D01*
X119746401Y-46043897D01*
X119746402Y-46043897D01*
X119380000Y-46024696D01*
X119013598Y-46043897D01*
X118651206Y-46101294D01*
X118651197Y-46101296D01*
X118296810Y-46196254D01*
X117954259Y-46327746D01*
X117954257Y-46327747D01*
X117627350Y-46494316D01*
X117319628Y-46694152D01*
X117034500Y-46925045D01*
X116775045Y-47184500D01*
X116544152Y-47469628D01*
X116344316Y-47777350D01*
X116177747Y-48104257D01*
X116177746Y-48104259D01*
X116046254Y-48446810D01*
X115951296Y-48801197D01*
X115951294Y-48801206D01*
X115893897Y-49163598D01*
X115874696Y-49530000D01*
X104000500Y-49530000D01*
X104000500Y-39378712D01*
X105149500Y-39378712D01*
X105149500Y-39621287D01*
X105181162Y-39861790D01*
X105181163Y-39861795D01*
X105243940Y-40096082D01*
X105243948Y-40096105D01*
X105336770Y-40320201D01*
X105336778Y-40320217D01*
X105458058Y-40530279D01*
X105458064Y-40530289D01*
X105605729Y-40722731D01*
X105605738Y-40722741D01*
X105777258Y-40894261D01*
X105777268Y-40894270D01*
X105898491Y-40987287D01*
X105969711Y-41041936D01*
X105969720Y-41041941D01*
X106179782Y-41163221D01*
X106179798Y-41163229D01*
X106319858Y-41221242D01*
X106403900Y-41256054D01*
X106403911Y-41256057D01*
X106403917Y-41256059D01*
X106587021Y-41305121D01*
X106638211Y-41318838D01*
X106878712Y-41350500D01*
X107121288Y-41350500D01*
X107361789Y-41318838D01*
X107523275Y-41275567D01*
X107596082Y-41256059D01*
X107596084Y-41256058D01*
X107596100Y-41256054D01*
X107747766Y-41193231D01*
X107820201Y-41163229D01*
X107820206Y-41163226D01*
X107820212Y-41163224D01*
X108030289Y-41041936D01*
X108222738Y-40894265D01*
X108394265Y-40722738D01*
X108541936Y-40530289D01*
X108663224Y-40320212D01*
X108756054Y-40096100D01*
X108818838Y-39861789D01*
X108850500Y-39621288D01*
X108850500Y-39378712D01*
X180649500Y-39378712D01*
X180649500Y-39621287D01*
X180681162Y-39861790D01*
X180681163Y-39861795D01*
X180743940Y-40096082D01*
X180743948Y-40096105D01*
X180836770Y-40320201D01*
X180836778Y-40320217D01*
X180958058Y-40530279D01*
X180958064Y-40530289D01*
X181105729Y-40722731D01*
X181105738Y-40722741D01*
X181277258Y-40894261D01*
X181277268Y-40894270D01*
X181398491Y-40987287D01*
X181469711Y-41041936D01*
X181469720Y-41041941D01*
X181679782Y-41163221D01*
X181679798Y-41163229D01*
X181819858Y-41221242D01*
X181903900Y-41256054D01*
X181903911Y-41256057D01*
X181903917Y-41256059D01*
X182087021Y-41305121D01*
X182138211Y-41318838D01*
X182378712Y-41350500D01*
X182621288Y-41350500D01*
X182861789Y-41318838D01*
X183023275Y-41275567D01*
X183096082Y-41256059D01*
X183096084Y-41256058D01*
X183096100Y-41256054D01*
X183247766Y-41193231D01*
X183320201Y-41163229D01*
X183320206Y-41163226D01*
X183320212Y-41163224D01*
X183530289Y-41041936D01*
X183722738Y-40894265D01*
X183894265Y-40722738D01*
X184041936Y-40530289D01*
X184163224Y-40320212D01*
X184256054Y-40096100D01*
X184318838Y-39861789D01*
X184350500Y-39621288D01*
X184350500Y-39378712D01*
X184318838Y-39138211D01*
X184256054Y-38903900D01*
X184221242Y-38819858D01*
X184163229Y-38679798D01*
X184163221Y-38679782D01*
X184041941Y-38469720D01*
X184041935Y-38469710D01*
X183894270Y-38277268D01*
X183894261Y-38277258D01*
X183722741Y-38105738D01*
X183722731Y-38105729D01*
X183530289Y-37958064D01*
X183530279Y-37958058D01*
X183320217Y-37836778D01*
X183320201Y-37836770D01*
X183096105Y-37743948D01*
X183096103Y-37743947D01*
X183096100Y-37743946D01*
X183096096Y-37743945D01*
X183096082Y-37743940D01*
X182861795Y-37681163D01*
X182861790Y-37681162D01*
X182621288Y-37649500D01*
X182378712Y-37649500D01*
X182138209Y-37681162D01*
X182138204Y-37681163D01*
X181903917Y-37743940D01*
X181903894Y-37743948D01*
X181679798Y-37836770D01*
X181679782Y-37836778D01*
X181469720Y-37958058D01*
X181469710Y-37958064D01*
X181277268Y-38105729D01*
X181277258Y-38105738D01*
X181105738Y-38277258D01*
X181105729Y-38277268D01*
X180958064Y-38469710D01*
X180958058Y-38469720D01*
X180836778Y-38679782D01*
X180836770Y-38679798D01*
X180743948Y-38903894D01*
X180743940Y-38903917D01*
X180681163Y-39138204D01*
X180681162Y-39138209D01*
X180649500Y-39378712D01*
X108850500Y-39378712D01*
X108818838Y-39138211D01*
X108756054Y-38903900D01*
X108721242Y-38819858D01*
X108663229Y-38679798D01*
X108663221Y-38679782D01*
X108541941Y-38469720D01*
X108541935Y-38469710D01*
X108394270Y-38277268D01*
X108394261Y-38277258D01*
X108222741Y-38105738D01*
X108222731Y-38105729D01*
X108030289Y-37958064D01*
X108030279Y-37958058D01*
X107820217Y-37836778D01*
X107820201Y-37836770D01*
X107596105Y-37743948D01*
X107596103Y-37743947D01*
X107596100Y-37743946D01*
X107596096Y-37743945D01*
X107596082Y-37743940D01*
X107361795Y-37681163D01*
X107361790Y-37681162D01*
X107121288Y-37649500D01*
X106878712Y-37649500D01*
X106638209Y-37681162D01*
X106638204Y-37681163D01*
X106403917Y-37743940D01*
X106403894Y-37743948D01*
X106179798Y-37836770D01*
X106179782Y-37836778D01*
X105969720Y-37958058D01*
X105969710Y-37958064D01*
X105777268Y-38105729D01*
X105777258Y-38105738D01*
X105605738Y-38277258D01*
X105605729Y-38277268D01*
X105458064Y-38469710D01*
X105458058Y-38469720D01*
X105336778Y-38679782D01*
X105336770Y-38679798D01*
X105243948Y-38903894D01*
X105243940Y-38903917D01*
X105181163Y-39138204D01*
X105181162Y-39138209D01*
X105149500Y-39378712D01*
X104000500Y-39378712D01*
X104000500Y-38008899D01*
X104001134Y-37991136D01*
X104005213Y-37934108D01*
X104014493Y-37804352D01*
X104019546Y-37769208D01*
X104057457Y-37594931D01*
X104067461Y-37560860D01*
X104129785Y-37393766D01*
X104144540Y-37361457D01*
X104202815Y-37254734D01*
X104230009Y-37204931D01*
X104249207Y-37175058D01*
X104356085Y-37032287D01*
X104379336Y-37005453D01*
X104505453Y-36879336D01*
X104532287Y-36856085D01*
X104675058Y-36749207D01*
X104704931Y-36730009D01*
X104861462Y-36644537D01*
X104893766Y-36629785D01*
X105060860Y-36567461D01*
X105094931Y-36557457D01*
X105269208Y-36519546D01*
X105304352Y-36514493D01*
X105466158Y-36502920D01*
X105491137Y-36501134D01*
X105508900Y-36500500D01*
X105565892Y-36500500D01*
X183934108Y-36500500D01*
X183991100Y-36500500D01*
X184008863Y-36501134D01*
G37*
G04 #@! TD.AperFunction*
G04 #@! TA.AperFunction,Conductor*
G36*
X105249970Y-112284454D02*
G01*
X105330752Y-112338430D01*
X105384728Y-112419212D01*
X105403682Y-112514500D01*
X105395198Y-112578946D01*
X105349364Y-112749999D01*
X105349364Y-112750000D01*
X106246988Y-112750000D01*
X106214075Y-112807007D01*
X106180000Y-112934174D01*
X106180000Y-113065826D01*
X106214075Y-113192993D01*
X106246988Y-113250000D01*
X105349364Y-113250000D01*
X105349363Y-113250001D01*
X105409382Y-113473992D01*
X105407597Y-113474470D01*
X105420200Y-113556372D01*
X105397103Y-113650742D01*
X105339651Y-113729090D01*
X105256590Y-113779487D01*
X105171437Y-113794500D01*
X104249500Y-113794500D01*
X104154212Y-113775546D01*
X104073430Y-113721570D01*
X104019454Y-113640788D01*
X104000500Y-113545500D01*
X104000500Y-112514500D01*
X104019454Y-112419212D01*
X104073430Y-112338430D01*
X104154212Y-112284454D01*
X104249500Y-112265500D01*
X105154682Y-112265500D01*
X105249970Y-112284454D01*
G37*
G04 #@! TD.AperFunction*
G04 #@! TA.AperFunction,Conductor*
G36*
X105230020Y-107193392D02*
G01*
X105315290Y-107239954D01*
X105376252Y-107315603D01*
X105403624Y-107408822D01*
X105396131Y-107495462D01*
X105349364Y-107669999D01*
X105349364Y-107670000D01*
X106246988Y-107670000D01*
X106214075Y-107727007D01*
X106180000Y-107854174D01*
X106180000Y-107985826D01*
X106214075Y-108112993D01*
X106246988Y-108170000D01*
X105349364Y-108170000D01*
X105349363Y-108170001D01*
X105409382Y-108393992D01*
X105407597Y-108394470D01*
X105420200Y-108476372D01*
X105397103Y-108570742D01*
X105339651Y-108649090D01*
X105256590Y-108699487D01*
X105171437Y-108714500D01*
X104249500Y-108714500D01*
X104154212Y-108695546D01*
X104073430Y-108641570D01*
X104019454Y-108560788D01*
X104000500Y-108465500D01*
X104000500Y-107434500D01*
X104019454Y-107339212D01*
X104073430Y-107258430D01*
X104154212Y-107204454D01*
X104249500Y-107185500D01*
X105105561Y-107185500D01*
X105105566Y-107185500D01*
X105133422Y-107183007D01*
X105230020Y-107193392D01*
G37*
G04 #@! TD.AperFunction*
G04 #@! TA.AperFunction,Conductor*
G36*
X167640000Y-120015000D02*
G01*
X167005000Y-120015000D01*
X162174000Y-120015000D01*
X162078712Y-119996046D01*
X161997930Y-119942070D01*
X161943954Y-119861288D01*
X161925000Y-119766000D01*
X161925000Y-104389000D01*
X161943954Y-104293712D01*
X161997930Y-104212930D01*
X162078712Y-104158954D01*
X162174000Y-104140000D01*
X167004999Y-104140000D01*
X167005000Y-104140000D01*
X167640000Y-104140000D01*
X167640000Y-120015000D01*
G37*
G04 #@! TD.AperFunction*
G04 #@! TA.AperFunction,Conductor*
G36*
X185345788Y-81298954D02*
G01*
X185426570Y-81352930D01*
X185480546Y-81433712D01*
X185499500Y-81529000D01*
X185499500Y-119380000D01*
X182365499Y-119380000D01*
X182365499Y-118749992D01*
X182354999Y-118647203D01*
X182299814Y-118480666D01*
X182207712Y-118331344D01*
X182083656Y-118207288D01*
X181934334Y-118115186D01*
X181934332Y-118115185D01*
X181934330Y-118115184D01*
X181934332Y-118115184D01*
X181767802Y-118060002D01*
X181767798Y-118060001D01*
X181767797Y-118060001D01*
X181665009Y-118049500D01*
X181665005Y-118049500D01*
X180064993Y-118049500D01*
X179962199Y-118060001D01*
X179795667Y-118115185D01*
X179646346Y-118207286D01*
X179522286Y-118331346D01*
X179430184Y-118480668D01*
X179375002Y-118647197D01*
X179375001Y-118647204D01*
X179364500Y-118749988D01*
X179364500Y-119380000D01*
X177165000Y-119380000D01*
X177165000Y-120015000D01*
X167640000Y-120015000D01*
X167640000Y-104140000D01*
X167005000Y-104140000D01*
X167005000Y-102430000D01*
X169532732Y-102430000D01*
X169551777Y-102684154D01*
X169608489Y-102932629D01*
X169608495Y-102932645D01*
X169701600Y-103169872D01*
X169701605Y-103169884D01*
X169701607Y-103169888D01*
X169829041Y-103390612D01*
X169829045Y-103390617D01*
X169987945Y-103589872D01*
X170174785Y-103763234D01*
X170385362Y-103906803D01*
X170385364Y-103906804D01*
X170385366Y-103906805D01*
X170515064Y-103969264D01*
X170614989Y-104017386D01*
X170614993Y-104017387D01*
X170614996Y-104017389D01*
X170787033Y-104070455D01*
X170858535Y-104092511D01*
X170858538Y-104092512D01*
X170858539Y-104092512D01*
X170858542Y-104092513D01*
X171110565Y-104130500D01*
X171110569Y-104130500D01*
X171365431Y-104130500D01*
X171365435Y-104130500D01*
X171617458Y-104092513D01*
X171861004Y-104017389D01*
X172090634Y-103906805D01*
X172301217Y-103763232D01*
X172488050Y-103589877D01*
X172646959Y-103390612D01*
X172774393Y-103169888D01*
X172867508Y-102932637D01*
X172924222Y-102684157D01*
X172943268Y-102430000D01*
X172938571Y-102367324D01*
X172950351Y-102270888D01*
X172998140Y-102186298D01*
X173074662Y-102126436D01*
X173168267Y-102100414D01*
X173264705Y-102112194D01*
X173349295Y-102159983D01*
X173402518Y-102224222D01*
X173407436Y-102232741D01*
X173491969Y-102353467D01*
X173537953Y-102419139D01*
X173698861Y-102580047D01*
X173698864Y-102580049D01*
X173698865Y-102580050D01*
X173885258Y-102710563D01*
X173885262Y-102710565D01*
X173885266Y-102710568D01*
X174091504Y-102806739D01*
X174311308Y-102865635D01*
X174330984Y-102867356D01*
X174537994Y-102885468D01*
X174538000Y-102885468D01*
X174538006Y-102885468D01*
X174717668Y-102869749D01*
X174764692Y-102865635D01*
X174984496Y-102806739D01*
X175190734Y-102710568D01*
X175377139Y-102580047D01*
X175538047Y-102419139D01*
X175584031Y-102353467D01*
X175654212Y-102286283D01*
X175744761Y-102251070D01*
X175841893Y-102253189D01*
X175930820Y-102292318D01*
X175991969Y-102353467D01*
X176037953Y-102419139D01*
X176198861Y-102580047D01*
X176198864Y-102580049D01*
X176198865Y-102580050D01*
X176385258Y-102710563D01*
X176385262Y-102710565D01*
X176385266Y-102710568D01*
X176591504Y-102806739D01*
X176811308Y-102865635D01*
X176830984Y-102867356D01*
X177037994Y-102885468D01*
X177038000Y-102885468D01*
X177038006Y-102885468D01*
X177217668Y-102869749D01*
X177264692Y-102865635D01*
X177484496Y-102806739D01*
X177690734Y-102710568D01*
X177877139Y-102580047D01*
X178038047Y-102419139D01*
X178084031Y-102353467D01*
X178154212Y-102286283D01*
X178244761Y-102251070D01*
X178341893Y-102253189D01*
X178430820Y-102292318D01*
X178491969Y-102353467D01*
X178537953Y-102419139D01*
X178698861Y-102580047D01*
X178698864Y-102580049D01*
X178698865Y-102580050D01*
X178885258Y-102710563D01*
X178885262Y-102710565D01*
X178885266Y-102710568D01*
X179091504Y-102806739D01*
X179311308Y-102865635D01*
X179330984Y-102867356D01*
X179537994Y-102885468D01*
X179538000Y-102885468D01*
X179538006Y-102885468D01*
X179717668Y-102869749D01*
X179764692Y-102865635D01*
X179984496Y-102806739D01*
X180190734Y-102710568D01*
X180377139Y-102580047D01*
X180538047Y-102419139D01*
X180668568Y-102232734D01*
X180764739Y-102026496D01*
X180823635Y-101806692D01*
X180833833Y-101690127D01*
X180843468Y-101580005D01*
X180843468Y-101579994D01*
X180823636Y-101353320D01*
X180823635Y-101353308D01*
X180764739Y-101133504D01*
X180726270Y-101051008D01*
X180668571Y-100927272D01*
X180668563Y-100927258D01*
X180538050Y-100740865D01*
X180538049Y-100740864D01*
X180538047Y-100740861D01*
X180377139Y-100579953D01*
X180377135Y-100579950D01*
X180377134Y-100579949D01*
X180311467Y-100533969D01*
X180244283Y-100463788D01*
X180209070Y-100373239D01*
X180211189Y-100276107D01*
X180250318Y-100187180D01*
X180311467Y-100126031D01*
X180377133Y-100080051D01*
X180377139Y-100080047D01*
X180538047Y-99919139D01*
X180668568Y-99732734D01*
X180764739Y-99526496D01*
X180823635Y-99306692D01*
X180843293Y-99081999D01*
X180870479Y-98988729D01*
X180931291Y-98912959D01*
X181016469Y-98866229D01*
X181113046Y-98855651D01*
X181206320Y-98882838D01*
X181282090Y-98943650D01*
X181306983Y-98979200D01*
X181429041Y-99190612D01*
X181429044Y-99190617D01*
X181587945Y-99389872D01*
X181587948Y-99389875D01*
X181587950Y-99389877D01*
X181721402Y-99513702D01*
X181774785Y-99563234D01*
X181985362Y-99706803D01*
X181985364Y-99706804D01*
X181985366Y-99706805D01*
X182115064Y-99769264D01*
X182214989Y-99817386D01*
X182214993Y-99817387D01*
X182214996Y-99817389D01*
X182331958Y-99853467D01*
X182458535Y-99892511D01*
X182458538Y-99892512D01*
X182458539Y-99892512D01*
X182458542Y-99892513D01*
X182710565Y-99930500D01*
X182710569Y-99930500D01*
X182965431Y-99930500D01*
X182965435Y-99930500D01*
X183217458Y-99892513D01*
X183461004Y-99817389D01*
X183690634Y-99706805D01*
X183901217Y-99563232D01*
X184088050Y-99389877D01*
X184246959Y-99190612D01*
X184374393Y-98969888D01*
X184467508Y-98732637D01*
X184470321Y-98720315D01*
X184512945Y-98533564D01*
X184524222Y-98484157D01*
X184543268Y-98230000D01*
X184524222Y-97975843D01*
X184482801Y-97794365D01*
X184467510Y-97727370D01*
X184467508Y-97727367D01*
X184467508Y-97727363D01*
X184374393Y-97490112D01*
X184246959Y-97269388D01*
X184213609Y-97227568D01*
X184088054Y-97070127D01*
X183901214Y-96896765D01*
X183690637Y-96753196D01*
X183690632Y-96753194D01*
X183461010Y-96642613D01*
X183461005Y-96642611D01*
X183217464Y-96567488D01*
X183217461Y-96567487D01*
X183109448Y-96551206D01*
X182965435Y-96529500D01*
X182710565Y-96529500D01*
X182584553Y-96548493D01*
X182458538Y-96567487D01*
X182458535Y-96567488D01*
X182214994Y-96642611D01*
X182214989Y-96642613D01*
X181985367Y-96753194D01*
X181985362Y-96753196D01*
X181774785Y-96896765D01*
X181587945Y-97070127D01*
X181429045Y-97269382D01*
X181429041Y-97269388D01*
X181301609Y-97490107D01*
X181301600Y-97490127D01*
X181208495Y-97727354D01*
X181208489Y-97727370D01*
X181151777Y-97975845D01*
X181132732Y-98230001D01*
X181137428Y-98292676D01*
X181125647Y-98389114D01*
X181077857Y-98473703D01*
X181001334Y-98533564D01*
X180907729Y-98559585D01*
X180811291Y-98547804D01*
X180726702Y-98500014D01*
X180673479Y-98435773D01*
X180668564Y-98427259D01*
X180538050Y-98240865D01*
X180538049Y-98240864D01*
X180538047Y-98240861D01*
X180377139Y-98079953D01*
X180377135Y-98079950D01*
X180377134Y-98079949D01*
X180190741Y-97949436D01*
X180190727Y-97949428D01*
X179984499Y-97853262D01*
X179984496Y-97853261D01*
X179764694Y-97794365D01*
X179764679Y-97794363D01*
X179538006Y-97774532D01*
X179537994Y-97774532D01*
X179311320Y-97794363D01*
X179311305Y-97794365D01*
X179091503Y-97853261D01*
X179091500Y-97853262D01*
X178885272Y-97949428D01*
X178885258Y-97949436D01*
X178698865Y-98079949D01*
X178537948Y-98240866D01*
X178491968Y-98306533D01*
X178421787Y-98373717D01*
X178331238Y-98408929D01*
X178234106Y-98406810D01*
X178145179Y-98367680D01*
X178084032Y-98306533D01*
X178038051Y-98240866D01*
X178038049Y-98240864D01*
X178038047Y-98240861D01*
X177877139Y-98079953D01*
X177877135Y-98079950D01*
X177877134Y-98079949D01*
X177690741Y-97949436D01*
X177690727Y-97949428D01*
X177484499Y-97853262D01*
X177484496Y-97853261D01*
X177264694Y-97794365D01*
X177264679Y-97794363D01*
X177038006Y-97774532D01*
X177037994Y-97774532D01*
X176811320Y-97794363D01*
X176811305Y-97794365D01*
X176591503Y-97853261D01*
X176591500Y-97853262D01*
X176385272Y-97949428D01*
X176385258Y-97949436D01*
X176198865Y-98079949D01*
X176037948Y-98240866D01*
X175991968Y-98306533D01*
X175921787Y-98373717D01*
X175831238Y-98408929D01*
X175734106Y-98406810D01*
X175645179Y-98367680D01*
X175584032Y-98306533D01*
X175538051Y-98240866D01*
X175538049Y-98240864D01*
X175538047Y-98240861D01*
X175377139Y-98079953D01*
X175377135Y-98079950D01*
X175377134Y-98079949D01*
X175190741Y-97949436D01*
X175190727Y-97949428D01*
X174984499Y-97853262D01*
X174984496Y-97853261D01*
X174764694Y-97794365D01*
X174764679Y-97794363D01*
X174538006Y-97774532D01*
X174537994Y-97774532D01*
X174311320Y-97794363D01*
X174311305Y-97794365D01*
X174091503Y-97853261D01*
X174091500Y-97853262D01*
X173885272Y-97949428D01*
X173885258Y-97949436D01*
X173698865Y-98079949D01*
X173537949Y-98240865D01*
X173407436Y-98427258D01*
X173407428Y-98427272D01*
X173311262Y-98633500D01*
X173311261Y-98633503D01*
X173252365Y-98853305D01*
X173252363Y-98853320D01*
X173232532Y-99079994D01*
X173232532Y-99080005D01*
X173252363Y-99306679D01*
X173252365Y-99306694D01*
X173311261Y-99526496D01*
X173311262Y-99526499D01*
X173407428Y-99732727D01*
X173407436Y-99732741D01*
X173519309Y-99892513D01*
X173537953Y-99919139D01*
X173698861Y-100080047D01*
X173698864Y-100080049D01*
X173698866Y-100080051D01*
X173764533Y-100126032D01*
X173831717Y-100196213D01*
X173866929Y-100286762D01*
X173864810Y-100383894D01*
X173825680Y-100472821D01*
X173764533Y-100533968D01*
X173698866Y-100579948D01*
X173537949Y-100740865D01*
X173407436Y-100927258D01*
X173407428Y-100927272D01*
X173311262Y-101133500D01*
X173311261Y-101133503D01*
X173252365Y-101353305D01*
X173252363Y-101353320D01*
X173232706Y-101577998D01*
X173205519Y-101671271D01*
X173144708Y-101747041D01*
X173059529Y-101793771D01*
X172962951Y-101804347D01*
X172869678Y-101777160D01*
X172793908Y-101716349D01*
X172769013Y-101680794D01*
X172710820Y-101580000D01*
X172646959Y-101469388D01*
X172554386Y-101353305D01*
X172488054Y-101270127D01*
X172434369Y-101220315D01*
X172301217Y-101096768D01*
X172301214Y-101096765D01*
X172090637Y-100953196D01*
X172090632Y-100953194D01*
X171861010Y-100842613D01*
X171861005Y-100842611D01*
X171617464Y-100767488D01*
X171617461Y-100767487D01*
X171509448Y-100751206D01*
X171365435Y-100729500D01*
X171110565Y-100729500D01*
X170984553Y-100748493D01*
X170858538Y-100767487D01*
X170858535Y-100767488D01*
X170614994Y-100842611D01*
X170614989Y-100842613D01*
X170385367Y-100953194D01*
X170385362Y-100953196D01*
X170174785Y-101096765D01*
X169987945Y-101270127D01*
X169829045Y-101469382D01*
X169829041Y-101469388D01*
X169701609Y-101690107D01*
X169701600Y-101690127D01*
X169608495Y-101927354D01*
X169608489Y-101927370D01*
X169551777Y-102175845D01*
X169532732Y-102430000D01*
X167005000Y-102430000D01*
X167005000Y-87102123D01*
X173359500Y-87102123D01*
X173359500Y-90697865D01*
X173359500Y-90697868D01*
X173359501Y-90697872D01*
X173360195Y-90704329D01*
X173365908Y-90757480D01*
X173365909Y-90757483D01*
X173416204Y-90892331D01*
X173502454Y-91007546D01*
X173617669Y-91093796D01*
X173752517Y-91144091D01*
X173812127Y-91150500D01*
X177407872Y-91150499D01*
X177467483Y-91144091D01*
X177602331Y-91093796D01*
X177717546Y-91007546D01*
X177803796Y-90892331D01*
X177854091Y-90757483D01*
X177860500Y-90697873D01*
X177860499Y-87835797D01*
X179610000Y-87835797D01*
X179610000Y-88649999D01*
X179610001Y-88650000D01*
X181110000Y-88650000D01*
X181110000Y-89150000D01*
X179610002Y-89150000D01*
X179610001Y-89150001D01*
X179610001Y-89964181D01*
X179620400Y-90096334D01*
X179675377Y-90314517D01*
X179768429Y-90519375D01*
X179768431Y-90519379D01*
X179896564Y-90704329D01*
X180055670Y-90863435D01*
X180240620Y-90991568D01*
X180240624Y-90991570D01*
X180445482Y-91084622D01*
X180663665Y-91139599D01*
X180663678Y-91139601D01*
X180795803Y-91149999D01*
X181359998Y-91149999D01*
X181360000Y-91149998D01*
X181360000Y-90333012D01*
X181417007Y-90365925D01*
X181544174Y-90400000D01*
X181675826Y-90400000D01*
X181802993Y-90365925D01*
X181860000Y-90333012D01*
X181860000Y-91149998D01*
X181860001Y-91149999D01*
X182424182Y-91149999D01*
X182556334Y-91139599D01*
X182774517Y-91084622D01*
X182979375Y-90991570D01*
X182979379Y-90991568D01*
X183164329Y-90863435D01*
X183323435Y-90704329D01*
X183451568Y-90519379D01*
X183451570Y-90519375D01*
X183544622Y-90314517D01*
X183599599Y-90096334D01*
X183599601Y-90096321D01*
X183609999Y-89964202D01*
X183610000Y-89964190D01*
X183610000Y-89150001D01*
X183609999Y-89150000D01*
X182110000Y-89150000D01*
X182110000Y-88650000D01*
X183609998Y-88650000D01*
X183609999Y-88649999D01*
X183609999Y-87835818D01*
X183599599Y-87703665D01*
X183544622Y-87485482D01*
X183451570Y-87280624D01*
X183451568Y-87280620D01*
X183323435Y-87095670D01*
X183164329Y-86936564D01*
X182979379Y-86808431D01*
X182979375Y-86808429D01*
X182774517Y-86715377D01*
X182556334Y-86660400D01*
X182556321Y-86660398D01*
X182424202Y-86650000D01*
X181860001Y-86650000D01*
X181860000Y-86650001D01*
X181860000Y-87466988D01*
X181802993Y-87434075D01*
X181675826Y-87400000D01*
X181544174Y-87400000D01*
X181417007Y-87434075D01*
X181360000Y-87466988D01*
X181360000Y-86650001D01*
X181359999Y-86650000D01*
X180795817Y-86650000D01*
X180663665Y-86660400D01*
X180445482Y-86715377D01*
X180240624Y-86808429D01*
X180240620Y-86808431D01*
X180055670Y-86936564D01*
X179896564Y-87095670D01*
X179768431Y-87280620D01*
X179768429Y-87280624D01*
X179675377Y-87485482D01*
X179620400Y-87703665D01*
X179620398Y-87703678D01*
X179610000Y-87835797D01*
X177860499Y-87835797D01*
X177860499Y-87102128D01*
X177854091Y-87042517D01*
X177803796Y-86907669D01*
X177803795Y-86907667D01*
X177759293Y-86848220D01*
X177717362Y-86760579D01*
X177712161Y-86663563D01*
X177744483Y-86571942D01*
X177809406Y-86499665D01*
X177897047Y-86457734D01*
X177958627Y-86449999D01*
X178359999Y-86449999D01*
X178360000Y-86449998D01*
X178360000Y-84700000D01*
X178860000Y-84700000D01*
X178860000Y-86449998D01*
X178860001Y-86449999D01*
X179578574Y-86449999D01*
X179578591Y-86449998D01*
X179631191Y-86447205D01*
X179860992Y-86402760D01*
X180079977Y-86320118D01*
X180281833Y-86201665D01*
X180281848Y-86201654D01*
X180460778Y-86050794D01*
X180460794Y-86050778D01*
X180611654Y-85871848D01*
X180611665Y-85871833D01*
X180730118Y-85669977D01*
X180812760Y-85450991D01*
X180857207Y-85221178D01*
X180859998Y-85168623D01*
X180860000Y-85168579D01*
X180860000Y-84450001D01*
X180859999Y-84450000D01*
X180043012Y-84450000D01*
X180075925Y-84392993D01*
X180110000Y-84265826D01*
X180110000Y-84134174D01*
X180075925Y-84007007D01*
X180043012Y-83950000D01*
X180859998Y-83950000D01*
X180859999Y-83949999D01*
X180859999Y-83231426D01*
X180859998Y-83231408D01*
X180857205Y-83178808D01*
X180812760Y-82949007D01*
X180730118Y-82730022D01*
X180611665Y-82528166D01*
X180611654Y-82528151D01*
X180460794Y-82349221D01*
X180460778Y-82349205D01*
X180281848Y-82198345D01*
X180281833Y-82198334D01*
X180079977Y-82079881D01*
X179860991Y-81997239D01*
X179631175Y-81952792D01*
X179631182Y-81952792D01*
X179578623Y-81950001D01*
X179578580Y-81950000D01*
X178860001Y-81950000D01*
X178860000Y-81950001D01*
X178860000Y-83700000D01*
X178360000Y-83700000D01*
X178360000Y-81950001D01*
X178359999Y-81950000D01*
X177641427Y-81950000D01*
X177641407Y-81950001D01*
X177588808Y-81952794D01*
X177359007Y-81997239D01*
X177140022Y-82079881D01*
X176938166Y-82198334D01*
X176938151Y-82198345D01*
X176759221Y-82349205D01*
X176759205Y-82349221D01*
X176608345Y-82528151D01*
X176608334Y-82528166D01*
X176489881Y-82730022D01*
X176407239Y-82949008D01*
X176362792Y-83178821D01*
X176360001Y-83231376D01*
X176360000Y-83231420D01*
X176360000Y-83949999D01*
X176360001Y-83950000D01*
X177176988Y-83950000D01*
X177144075Y-84007007D01*
X177110000Y-84134174D01*
X177110000Y-84265826D01*
X177144075Y-84392993D01*
X177176988Y-84450000D01*
X176360002Y-84450000D01*
X176360001Y-84450001D01*
X176360001Y-85168591D01*
X176362794Y-85221191D01*
X176407239Y-85450992D01*
X176489881Y-85669977D01*
X176608334Y-85871833D01*
X176608345Y-85871848D01*
X176759205Y-86050778D01*
X176759221Y-86050794D01*
X176946244Y-86208478D01*
X176944505Y-86210539D01*
X176998715Y-86267705D01*
X177033499Y-86358419D01*
X177030922Y-86455540D01*
X176991373Y-86544282D01*
X176920876Y-86611134D01*
X176830162Y-86645918D01*
X176788081Y-86649500D01*
X173812134Y-86649500D01*
X173812130Y-86649500D01*
X173812128Y-86649501D01*
X173799314Y-86650878D01*
X173752519Y-86655908D01*
X173752515Y-86655909D01*
X173617670Y-86706203D01*
X173502455Y-86792453D01*
X173502453Y-86792455D01*
X173416204Y-86907669D01*
X173365908Y-87042518D01*
X173359500Y-87102123D01*
X167005000Y-87102123D01*
X167005000Y-81529000D01*
X167023954Y-81433712D01*
X167077930Y-81352930D01*
X167158712Y-81298954D01*
X167254000Y-81280000D01*
X185250500Y-81280000D01*
X185345788Y-81298954D01*
G37*
G04 #@! TD.AperFunction*
G04 #@! TA.AperFunction,Conductor*
G36*
X105517176Y-114318954D02*
G01*
X105597958Y-114372930D01*
X105651934Y-114453712D01*
X105670888Y-114549000D01*
X105651934Y-114644288D01*
X105625856Y-114691821D01*
X105506405Y-114862413D01*
X105506396Y-114862428D01*
X105406570Y-115076505D01*
X105406566Y-115076516D01*
X105349363Y-115289998D01*
X105349364Y-115290000D01*
X106246988Y-115290000D01*
X106214075Y-115347007D01*
X106180000Y-115474174D01*
X106180000Y-115605826D01*
X106214075Y-115732993D01*
X106246988Y-115790000D01*
X105349364Y-115790000D01*
X105349363Y-115790001D01*
X105406566Y-116003483D01*
X105406566Y-116003485D01*
X105506399Y-116217576D01*
X105641889Y-116411076D01*
X105645743Y-116414930D01*
X105648169Y-116418561D01*
X105648878Y-116419406D01*
X105648785Y-116419483D01*
X105699719Y-116495712D01*
X105718673Y-116591000D01*
X105699719Y-116686288D01*
X105645743Y-116767070D01*
X105564961Y-116821046D01*
X105469673Y-116840000D01*
X104249500Y-116840000D01*
X104154212Y-116821046D01*
X104073430Y-116767070D01*
X104019454Y-116686288D01*
X104000500Y-116591000D01*
X104000500Y-114549000D01*
X104019454Y-114453712D01*
X104073430Y-114372930D01*
X104154212Y-114318954D01*
X104249500Y-114300000D01*
X105421888Y-114300000D01*
X105517176Y-114318954D01*
G37*
G04 #@! TD.AperFunction*
G04 #@! TA.AperFunction,Conductor*
G36*
X109186381Y-114318954D02*
G01*
X109209601Y-114330010D01*
X109270344Y-114362882D01*
X109497703Y-114440934D01*
X109734808Y-114480500D01*
X109975192Y-114480500D01*
X110212297Y-114440934D01*
X110439656Y-114362882D01*
X110500396Y-114330010D01*
X110593220Y-114301328D01*
X110618907Y-114300000D01*
X111511000Y-114300000D01*
X111606288Y-114318954D01*
X111687070Y-114372930D01*
X111741046Y-114453712D01*
X111760000Y-114549000D01*
X111760000Y-116591000D01*
X111741046Y-116686288D01*
X111687070Y-116767070D01*
X111606288Y-116821046D01*
X111511000Y-116840000D01*
X107890327Y-116840000D01*
X107795039Y-116821046D01*
X107714257Y-116767070D01*
X107660281Y-116686288D01*
X107641327Y-116591000D01*
X107660281Y-116495712D01*
X107711214Y-116419483D01*
X107711122Y-116419406D01*
X107711830Y-116418561D01*
X107714257Y-116414930D01*
X107718110Y-116411076D01*
X107853600Y-116217576D01*
X107953433Y-116003485D01*
X107953433Y-116003483D01*
X108010636Y-115790001D01*
X108010636Y-115790000D01*
X107113012Y-115790000D01*
X107145925Y-115732993D01*
X107180000Y-115605826D01*
X107180000Y-115474174D01*
X107145925Y-115347007D01*
X107113012Y-115290000D01*
X108010636Y-115290000D01*
X108010636Y-115289998D01*
X107953433Y-115076516D01*
X107953429Y-115076505D01*
X107853603Y-114862428D01*
X107853594Y-114862413D01*
X107734144Y-114691821D01*
X107695014Y-114602894D01*
X107692895Y-114505762D01*
X107728107Y-114415213D01*
X107795291Y-114345032D01*
X107884218Y-114305902D01*
X107938112Y-114300000D01*
X109091093Y-114300000D01*
X109186381Y-114318954D01*
G37*
G04 #@! TD.AperFunction*
G04 #@! TA.AperFunction,Conductor*
G36*
X179364500Y-120049997D02*
G01*
X179364501Y-120050014D01*
X179375001Y-120152800D01*
X179430185Y-120319331D01*
X179430186Y-120319334D01*
X179522288Y-120468656D01*
X179646344Y-120592712D01*
X179646346Y-120592713D01*
X179646348Y-120592715D01*
X179667007Y-120605458D01*
X179738158Y-120671614D01*
X179778575Y-120759963D01*
X179782107Y-120857054D01*
X179748214Y-120948105D01*
X179712359Y-120993452D01*
X179685281Y-121020530D01*
X179685277Y-121020535D01*
X179560376Y-121192446D01*
X179463908Y-121381774D01*
X179463902Y-121381787D01*
X179398243Y-121583870D01*
X179387769Y-121650000D01*
X180431988Y-121650000D01*
X180399075Y-121707007D01*
X180365000Y-121834174D01*
X180365000Y-121965826D01*
X180399075Y-122092993D01*
X180431988Y-122150000D01*
X179387770Y-122150000D01*
X179398243Y-122216129D01*
X179463902Y-122418212D01*
X179463908Y-122418225D01*
X179560376Y-122607553D01*
X179685275Y-122779462D01*
X179835537Y-122929724D01*
X180007446Y-123054623D01*
X180196774Y-123151091D01*
X180196784Y-123151095D01*
X180398876Y-123216758D01*
X180608743Y-123249999D01*
X180608756Y-123250000D01*
X180614999Y-123250000D01*
X180615000Y-123249999D01*
X180615000Y-122333012D01*
X180672007Y-122365925D01*
X180799174Y-122400000D01*
X180930826Y-122400000D01*
X181057993Y-122365925D01*
X181115000Y-122333012D01*
X181115000Y-123249999D01*
X181115001Y-123250000D01*
X181121244Y-123250000D01*
X181121256Y-123249999D01*
X181331123Y-123216758D01*
X181533215Y-123151095D01*
X181533225Y-123151091D01*
X181722553Y-123054623D01*
X181894462Y-122929724D01*
X182044724Y-122779462D01*
X182169623Y-122607553D01*
X182266091Y-122418225D01*
X182266097Y-122418212D01*
X182331756Y-122216129D01*
X182342230Y-122150000D01*
X181298012Y-122150000D01*
X181330925Y-122092993D01*
X181365000Y-121965826D01*
X181365000Y-121834174D01*
X181330925Y-121707007D01*
X181298012Y-121650000D01*
X182342230Y-121650000D01*
X182331756Y-121583870D01*
X182266097Y-121381787D01*
X182266091Y-121381774D01*
X182169623Y-121192446D01*
X182044724Y-121020537D01*
X182017642Y-120993455D01*
X181963666Y-120912673D01*
X181944712Y-120817385D01*
X181963666Y-120722097D01*
X182017642Y-120641315D01*
X182062995Y-120605456D01*
X182070540Y-120600801D01*
X182083656Y-120592712D01*
X182207712Y-120468656D01*
X182299814Y-120319334D01*
X182354999Y-120152797D01*
X182365500Y-120050009D01*
X182365499Y-119380000D01*
X185499500Y-119380000D01*
X185499500Y-124846000D01*
X185480546Y-124941288D01*
X185426570Y-125022070D01*
X185345788Y-125076046D01*
X185250500Y-125095000D01*
X177414000Y-125095000D01*
X177318712Y-125076046D01*
X177237930Y-125022070D01*
X177183954Y-124941288D01*
X177165000Y-124846000D01*
X177165000Y-120015001D01*
X177165000Y-119380000D01*
X179364500Y-119380000D01*
X179364500Y-120049997D01*
G37*
G04 #@! TD.AperFunction*
G04 #@! TA.AperFunction,Conductor*
G36*
X105517176Y-109238954D02*
G01*
X105597958Y-109292930D01*
X105651934Y-109373712D01*
X105670888Y-109469000D01*
X105651934Y-109564288D01*
X105625856Y-109611821D01*
X105506405Y-109782413D01*
X105506396Y-109782428D01*
X105406570Y-109996505D01*
X105406566Y-109996516D01*
X105349363Y-110209998D01*
X105349364Y-110210000D01*
X106246988Y-110210000D01*
X106214075Y-110267007D01*
X106180000Y-110394174D01*
X106180000Y-110525826D01*
X106214075Y-110652993D01*
X106246988Y-110710000D01*
X105349364Y-110710000D01*
X105349363Y-110710001D01*
X105406566Y-110923483D01*
X105406566Y-110923485D01*
X105506399Y-111137576D01*
X105641889Y-111331076D01*
X105645743Y-111334930D01*
X105648169Y-111338561D01*
X105648878Y-111339406D01*
X105648785Y-111339483D01*
X105699719Y-111415712D01*
X105718673Y-111511000D01*
X105699719Y-111606288D01*
X105645743Y-111687070D01*
X105564961Y-111741046D01*
X105469673Y-111760000D01*
X104249500Y-111760000D01*
X104154212Y-111741046D01*
X104073430Y-111687070D01*
X104019454Y-111606288D01*
X104000500Y-111511000D01*
X104000500Y-109469000D01*
X104019454Y-109373712D01*
X104073430Y-109292930D01*
X104154212Y-109238954D01*
X104249500Y-109220000D01*
X105421888Y-109220000D01*
X105517176Y-109238954D01*
G37*
G04 #@! TD.AperFunction*
G04 #@! TA.AperFunction,Conductor*
G36*
X109186381Y-109238954D02*
G01*
X109209601Y-109250010D01*
X109270344Y-109282882D01*
X109497703Y-109360934D01*
X109734808Y-109400500D01*
X109975192Y-109400500D01*
X110212297Y-109360934D01*
X110439656Y-109282882D01*
X110500396Y-109250010D01*
X110593220Y-109221328D01*
X110618907Y-109220000D01*
X111511000Y-109220000D01*
X111606288Y-109238954D01*
X111687070Y-109292930D01*
X111741046Y-109373712D01*
X111760000Y-109469000D01*
X111760000Y-111511000D01*
X111741046Y-111606288D01*
X111687070Y-111687070D01*
X111606288Y-111741046D01*
X111511000Y-111760000D01*
X110618907Y-111760000D01*
X110523619Y-111741046D01*
X110500396Y-111729989D01*
X110439655Y-111697117D01*
X110212297Y-111619066D01*
X110212294Y-111619065D01*
X109975192Y-111579500D01*
X109734808Y-111579500D01*
X109497705Y-111619065D01*
X109497702Y-111619066D01*
X109270344Y-111697117D01*
X109209604Y-111729989D01*
X109116780Y-111758672D01*
X109091093Y-111760000D01*
X107890327Y-111760000D01*
X107795039Y-111741046D01*
X107714257Y-111687070D01*
X107660281Y-111606288D01*
X107641327Y-111511000D01*
X107660281Y-111415712D01*
X107711214Y-111339483D01*
X107711122Y-111339406D01*
X107711830Y-111338561D01*
X107714257Y-111334930D01*
X107718110Y-111331076D01*
X107853600Y-111137576D01*
X107953433Y-110923485D01*
X107953433Y-110923483D01*
X108010636Y-110710001D01*
X108010636Y-110710000D01*
X107113012Y-110710000D01*
X107145925Y-110652993D01*
X107180000Y-110525826D01*
X107180000Y-110394174D01*
X107145925Y-110267007D01*
X107113012Y-110210000D01*
X108010636Y-110210000D01*
X108010636Y-110209998D01*
X107953433Y-109996516D01*
X107953429Y-109996505D01*
X107853603Y-109782428D01*
X107853594Y-109782413D01*
X107734144Y-109611821D01*
X107695014Y-109522894D01*
X107692895Y-109425762D01*
X107728107Y-109335213D01*
X107795291Y-109265032D01*
X107884218Y-109225902D01*
X107938112Y-109220000D01*
X109091093Y-109220000D01*
X109186381Y-109238954D01*
G37*
G04 #@! TD.AperFunction*
M02*
