%TF.GenerationSoftware,KiCad,Pcbnew,8.0.8-2.fc41*%
%TF.CreationDate,2025-02-25T20:52:41+00:00*%
%TF.ProjectId,Power_supply,506f7765-725f-4737-9570-706c792e6b69,rev?*%
%TF.SameCoordinates,Original*%
%TF.FileFunction,Drillmap*%
%TF.FilePolarity,Positive*%
%FSLAX45Y45*%
G04 Gerber Fmt 4.5, Leading zero omitted, Abs format (unit mm)*
G04 Created by KiCad (PCBNEW 8.0.8-2.fc41) date 2025-02-25 20:52:41*
%MOMM*%
%LPD*%
G01*
G04 APERTURE LIST*
%ADD10C,0.100000*%
%ADD11C,0.200000*%
%ADD12C,0.320000*%
G04 APERTURE END LIST*
D10*
X18400000Y-16300000D02*
X10550000Y-16300000D01*
X10350000Y-3800000D02*
G75*
G02*
X10550000Y-3600000I200000J0D01*
G01*
X18600000Y-3800000D02*
X18600000Y-16100000D01*
X10350000Y-16100000D02*
X10350000Y-3800000D01*
X18400000Y-3600000D02*
G75*
G02*
X18600000Y-3800000I0J-200000D01*
G01*
X18600000Y-16100000D02*
G75*
G02*
X18400000Y-16300000I-200000J0D01*
G01*
X10550000Y-16300000D02*
G75*
G02*
X10350000Y-16100000I0J200000D01*
G01*
X10550000Y-3600000D02*
X18400000Y-3600000D01*
D11*
D12*
X10540000Y-3790000D02*
X10860000Y-4110000D01*
X10860000Y-3790000D02*
X10540000Y-4110000D01*
X10540000Y-15790000D02*
X10860000Y-16110000D01*
X10860000Y-15790000D02*
X10540000Y-16110000D01*
X18090000Y-3790000D02*
X18410000Y-4110000D01*
X18410000Y-3790000D02*
X18090000Y-4110000D01*
X18090000Y-15790000D02*
X18410000Y-16110000D01*
X18410000Y-15790000D02*
X18090000Y-16110000D01*
D11*
X10605777Y-16616484D02*
X10605777Y-16416484D01*
X10605777Y-16416484D02*
X10653396Y-16416484D01*
X10653396Y-16416484D02*
X10681967Y-16426008D01*
X10681967Y-16426008D02*
X10701015Y-16445055D01*
X10701015Y-16445055D02*
X10710539Y-16464103D01*
X10710539Y-16464103D02*
X10720063Y-16502198D01*
X10720063Y-16502198D02*
X10720063Y-16530769D01*
X10720063Y-16530769D02*
X10710539Y-16568865D01*
X10710539Y-16568865D02*
X10701015Y-16587912D01*
X10701015Y-16587912D02*
X10681967Y-16606960D01*
X10681967Y-16606960D02*
X10653396Y-16616484D01*
X10653396Y-16616484D02*
X10605777Y-16616484D01*
X10805777Y-16616484D02*
X10805777Y-16483150D01*
X10805777Y-16521246D02*
X10815301Y-16502198D01*
X10815301Y-16502198D02*
X10824824Y-16492674D01*
X10824824Y-16492674D02*
X10843872Y-16483150D01*
X10843872Y-16483150D02*
X10862920Y-16483150D01*
X10929586Y-16616484D02*
X10929586Y-16483150D01*
X10929586Y-16416484D02*
X10920063Y-16426008D01*
X10920063Y-16426008D02*
X10929586Y-16435531D01*
X10929586Y-16435531D02*
X10939110Y-16426008D01*
X10939110Y-16426008D02*
X10929586Y-16416484D01*
X10929586Y-16416484D02*
X10929586Y-16435531D01*
X11053396Y-16616484D02*
X11034348Y-16606960D01*
X11034348Y-16606960D02*
X11024824Y-16587912D01*
X11024824Y-16587912D02*
X11024824Y-16416484D01*
X11158158Y-16616484D02*
X11139110Y-16606960D01*
X11139110Y-16606960D02*
X11129586Y-16587912D01*
X11129586Y-16587912D02*
X11129586Y-16416484D01*
X11386729Y-16616484D02*
X11386729Y-16416484D01*
X11386729Y-16416484D02*
X11453396Y-16559341D01*
X11453396Y-16559341D02*
X11520062Y-16416484D01*
X11520062Y-16416484D02*
X11520062Y-16616484D01*
X11701015Y-16616484D02*
X11701015Y-16511722D01*
X11701015Y-16511722D02*
X11691491Y-16492674D01*
X11691491Y-16492674D02*
X11672443Y-16483150D01*
X11672443Y-16483150D02*
X11634348Y-16483150D01*
X11634348Y-16483150D02*
X11615301Y-16492674D01*
X11701015Y-16606960D02*
X11681967Y-16616484D01*
X11681967Y-16616484D02*
X11634348Y-16616484D01*
X11634348Y-16616484D02*
X11615301Y-16606960D01*
X11615301Y-16606960D02*
X11605777Y-16587912D01*
X11605777Y-16587912D02*
X11605777Y-16568865D01*
X11605777Y-16568865D02*
X11615301Y-16549817D01*
X11615301Y-16549817D02*
X11634348Y-16540293D01*
X11634348Y-16540293D02*
X11681967Y-16540293D01*
X11681967Y-16540293D02*
X11701015Y-16530769D01*
X11796253Y-16483150D02*
X11796253Y-16683150D01*
X11796253Y-16492674D02*
X11815301Y-16483150D01*
X11815301Y-16483150D02*
X11853396Y-16483150D01*
X11853396Y-16483150D02*
X11872443Y-16492674D01*
X11872443Y-16492674D02*
X11881967Y-16502198D01*
X11881967Y-16502198D02*
X11891491Y-16521246D01*
X11891491Y-16521246D02*
X11891491Y-16578388D01*
X11891491Y-16578388D02*
X11881967Y-16597436D01*
X11881967Y-16597436D02*
X11872443Y-16606960D01*
X11872443Y-16606960D02*
X11853396Y-16616484D01*
X11853396Y-16616484D02*
X11815301Y-16616484D01*
X11815301Y-16616484D02*
X11796253Y-16606960D01*
X11977205Y-16597436D02*
X11986729Y-16606960D01*
X11986729Y-16606960D02*
X11977205Y-16616484D01*
X11977205Y-16616484D02*
X11967682Y-16606960D01*
X11967682Y-16606960D02*
X11977205Y-16597436D01*
X11977205Y-16597436D02*
X11977205Y-16616484D01*
X11977205Y-16492674D02*
X11986729Y-16502198D01*
X11986729Y-16502198D02*
X11977205Y-16511722D01*
X11977205Y-16511722D02*
X11967682Y-16502198D01*
X11967682Y-16502198D02*
X11977205Y-16492674D01*
X11977205Y-16492674D02*
X11977205Y-16511722D01*
X10145000Y-16845000D02*
X10345000Y-17045000D01*
X10345000Y-16845000D02*
X10145000Y-17045000D01*
X10586729Y-16836484D02*
X10710539Y-16836484D01*
X10710539Y-16836484D02*
X10643872Y-16912674D01*
X10643872Y-16912674D02*
X10672444Y-16912674D01*
X10672444Y-16912674D02*
X10691491Y-16922198D01*
X10691491Y-16922198D02*
X10701015Y-16931722D01*
X10701015Y-16931722D02*
X10710539Y-16950770D01*
X10710539Y-16950770D02*
X10710539Y-16998389D01*
X10710539Y-16998389D02*
X10701015Y-17017436D01*
X10701015Y-17017436D02*
X10691491Y-17026960D01*
X10691491Y-17026960D02*
X10672444Y-17036484D01*
X10672444Y-17036484D02*
X10615301Y-17036484D01*
X10615301Y-17036484D02*
X10596253Y-17026960D01*
X10596253Y-17026960D02*
X10586729Y-17017436D01*
X10796253Y-17017436D02*
X10805777Y-17026960D01*
X10805777Y-17026960D02*
X10796253Y-17036484D01*
X10796253Y-17036484D02*
X10786729Y-17026960D01*
X10786729Y-17026960D02*
X10796253Y-17017436D01*
X10796253Y-17017436D02*
X10796253Y-17036484D01*
X10881967Y-16855531D02*
X10891491Y-16846008D01*
X10891491Y-16846008D02*
X10910539Y-16836484D01*
X10910539Y-16836484D02*
X10958158Y-16836484D01*
X10958158Y-16836484D02*
X10977205Y-16846008D01*
X10977205Y-16846008D02*
X10986729Y-16855531D01*
X10986729Y-16855531D02*
X10996253Y-16874579D01*
X10996253Y-16874579D02*
X10996253Y-16893627D01*
X10996253Y-16893627D02*
X10986729Y-16922198D01*
X10986729Y-16922198D02*
X10872444Y-17036484D01*
X10872444Y-17036484D02*
X10996253Y-17036484D01*
X11120063Y-16836484D02*
X11139110Y-16836484D01*
X11139110Y-16836484D02*
X11158158Y-16846008D01*
X11158158Y-16846008D02*
X11167682Y-16855531D01*
X11167682Y-16855531D02*
X11177205Y-16874579D01*
X11177205Y-16874579D02*
X11186729Y-16912674D01*
X11186729Y-16912674D02*
X11186729Y-16960293D01*
X11186729Y-16960293D02*
X11177205Y-16998389D01*
X11177205Y-16998389D02*
X11167682Y-17017436D01*
X11167682Y-17017436D02*
X11158158Y-17026960D01*
X11158158Y-17026960D02*
X11139110Y-17036484D01*
X11139110Y-17036484D02*
X11120063Y-17036484D01*
X11120063Y-17036484D02*
X11101015Y-17026960D01*
X11101015Y-17026960D02*
X11091491Y-17017436D01*
X11091491Y-17017436D02*
X11081967Y-16998389D01*
X11081967Y-16998389D02*
X11072444Y-16960293D01*
X11072444Y-16960293D02*
X11072444Y-16912674D01*
X11072444Y-16912674D02*
X11081967Y-16874579D01*
X11081967Y-16874579D02*
X11091491Y-16855531D01*
X11091491Y-16855531D02*
X11101015Y-16846008D01*
X11101015Y-16846008D02*
X11120063Y-16836484D01*
X11310539Y-16836484D02*
X11329586Y-16836484D01*
X11329586Y-16836484D02*
X11348634Y-16846008D01*
X11348634Y-16846008D02*
X11358158Y-16855531D01*
X11358158Y-16855531D02*
X11367682Y-16874579D01*
X11367682Y-16874579D02*
X11377205Y-16912674D01*
X11377205Y-16912674D02*
X11377205Y-16960293D01*
X11377205Y-16960293D02*
X11367682Y-16998389D01*
X11367682Y-16998389D02*
X11358158Y-17017436D01*
X11358158Y-17017436D02*
X11348634Y-17026960D01*
X11348634Y-17026960D02*
X11329586Y-17036484D01*
X11329586Y-17036484D02*
X11310539Y-17036484D01*
X11310539Y-17036484D02*
X11291491Y-17026960D01*
X11291491Y-17026960D02*
X11281967Y-17017436D01*
X11281967Y-17017436D02*
X11272443Y-16998389D01*
X11272443Y-16998389D02*
X11262920Y-16960293D01*
X11262920Y-16960293D02*
X11262920Y-16912674D01*
X11262920Y-16912674D02*
X11272443Y-16874579D01*
X11272443Y-16874579D02*
X11281967Y-16855531D01*
X11281967Y-16855531D02*
X11291491Y-16846008D01*
X11291491Y-16846008D02*
X11310539Y-16836484D01*
X11462920Y-17036484D02*
X11462920Y-16903150D01*
X11462920Y-16922198D02*
X11472443Y-16912674D01*
X11472443Y-16912674D02*
X11491491Y-16903150D01*
X11491491Y-16903150D02*
X11520063Y-16903150D01*
X11520063Y-16903150D02*
X11539110Y-16912674D01*
X11539110Y-16912674D02*
X11548634Y-16931722D01*
X11548634Y-16931722D02*
X11548634Y-17036484D01*
X11548634Y-16931722D02*
X11558158Y-16912674D01*
X11558158Y-16912674D02*
X11577205Y-16903150D01*
X11577205Y-16903150D02*
X11605777Y-16903150D01*
X11605777Y-16903150D02*
X11624824Y-16912674D01*
X11624824Y-16912674D02*
X11634348Y-16931722D01*
X11634348Y-16931722D02*
X11634348Y-17036484D01*
X11729586Y-17036484D02*
X11729586Y-16903150D01*
X11729586Y-16922198D02*
X11739110Y-16912674D01*
X11739110Y-16912674D02*
X11758158Y-16903150D01*
X11758158Y-16903150D02*
X11786729Y-16903150D01*
X11786729Y-16903150D02*
X11805777Y-16912674D01*
X11805777Y-16912674D02*
X11815301Y-16931722D01*
X11815301Y-16931722D02*
X11815301Y-17036484D01*
X11815301Y-16931722D02*
X11824824Y-16912674D01*
X11824824Y-16912674D02*
X11843872Y-16903150D01*
X11843872Y-16903150D02*
X11872443Y-16903150D01*
X11872443Y-16903150D02*
X11891491Y-16912674D01*
X11891491Y-16912674D02*
X11901015Y-16931722D01*
X11901015Y-16931722D02*
X11901015Y-17036484D01*
X12291491Y-16826960D02*
X12120063Y-17084103D01*
X12548634Y-16836484D02*
X12567682Y-16836484D01*
X12567682Y-16836484D02*
X12586729Y-16846008D01*
X12586729Y-16846008D02*
X12596253Y-16855531D01*
X12596253Y-16855531D02*
X12605777Y-16874579D01*
X12605777Y-16874579D02*
X12615301Y-16912674D01*
X12615301Y-16912674D02*
X12615301Y-16960293D01*
X12615301Y-16960293D02*
X12605777Y-16998389D01*
X12605777Y-16998389D02*
X12596253Y-17017436D01*
X12596253Y-17017436D02*
X12586729Y-17026960D01*
X12586729Y-17026960D02*
X12567682Y-17036484D01*
X12567682Y-17036484D02*
X12548634Y-17036484D01*
X12548634Y-17036484D02*
X12529586Y-17026960D01*
X12529586Y-17026960D02*
X12520063Y-17017436D01*
X12520063Y-17017436D02*
X12510539Y-16998389D01*
X12510539Y-16998389D02*
X12501015Y-16960293D01*
X12501015Y-16960293D02*
X12501015Y-16912674D01*
X12501015Y-16912674D02*
X12510539Y-16874579D01*
X12510539Y-16874579D02*
X12520063Y-16855531D01*
X12520063Y-16855531D02*
X12529586Y-16846008D01*
X12529586Y-16846008D02*
X12548634Y-16836484D01*
X12701015Y-17017436D02*
X12710539Y-17026960D01*
X12710539Y-17026960D02*
X12701015Y-17036484D01*
X12701015Y-17036484D02*
X12691491Y-17026960D01*
X12691491Y-17026960D02*
X12701015Y-17017436D01*
X12701015Y-17017436D02*
X12701015Y-17036484D01*
X12901015Y-17036484D02*
X12786729Y-17036484D01*
X12843872Y-17036484D02*
X12843872Y-16836484D01*
X12843872Y-16836484D02*
X12824825Y-16865055D01*
X12824825Y-16865055D02*
X12805777Y-16884103D01*
X12805777Y-16884103D02*
X12786729Y-16893627D01*
X12977206Y-16855531D02*
X12986729Y-16846008D01*
X12986729Y-16846008D02*
X13005777Y-16836484D01*
X13005777Y-16836484D02*
X13053396Y-16836484D01*
X13053396Y-16836484D02*
X13072444Y-16846008D01*
X13072444Y-16846008D02*
X13081967Y-16855531D01*
X13081967Y-16855531D02*
X13091491Y-16874579D01*
X13091491Y-16874579D02*
X13091491Y-16893627D01*
X13091491Y-16893627D02*
X13081967Y-16922198D01*
X13081967Y-16922198D02*
X12967682Y-17036484D01*
X12967682Y-17036484D02*
X13091491Y-17036484D01*
X13262920Y-16836484D02*
X13224825Y-16836484D01*
X13224825Y-16836484D02*
X13205777Y-16846008D01*
X13205777Y-16846008D02*
X13196253Y-16855531D01*
X13196253Y-16855531D02*
X13177206Y-16884103D01*
X13177206Y-16884103D02*
X13167682Y-16922198D01*
X13167682Y-16922198D02*
X13167682Y-16998389D01*
X13167682Y-16998389D02*
X13177206Y-17017436D01*
X13177206Y-17017436D02*
X13186729Y-17026960D01*
X13186729Y-17026960D02*
X13205777Y-17036484D01*
X13205777Y-17036484D02*
X13243872Y-17036484D01*
X13243872Y-17036484D02*
X13262920Y-17026960D01*
X13262920Y-17026960D02*
X13272444Y-17017436D01*
X13272444Y-17017436D02*
X13281967Y-16998389D01*
X13281967Y-16998389D02*
X13281967Y-16950770D01*
X13281967Y-16950770D02*
X13272444Y-16931722D01*
X13272444Y-16931722D02*
X13262920Y-16922198D01*
X13262920Y-16922198D02*
X13243872Y-16912674D01*
X13243872Y-16912674D02*
X13205777Y-16912674D01*
X13205777Y-16912674D02*
X13186729Y-16922198D01*
X13186729Y-16922198D02*
X13177206Y-16931722D01*
X13177206Y-16931722D02*
X13167682Y-16950770D01*
X13405777Y-16836484D02*
X13424825Y-16836484D01*
X13424825Y-16836484D02*
X13443872Y-16846008D01*
X13443872Y-16846008D02*
X13453396Y-16855531D01*
X13453396Y-16855531D02*
X13462920Y-16874579D01*
X13462920Y-16874579D02*
X13472444Y-16912674D01*
X13472444Y-16912674D02*
X13472444Y-16960293D01*
X13472444Y-16960293D02*
X13462920Y-16998389D01*
X13462920Y-16998389D02*
X13453396Y-17017436D01*
X13453396Y-17017436D02*
X13443872Y-17026960D01*
X13443872Y-17026960D02*
X13424825Y-17036484D01*
X13424825Y-17036484D02*
X13405777Y-17036484D01*
X13405777Y-17036484D02*
X13386729Y-17026960D01*
X13386729Y-17026960D02*
X13377206Y-17017436D01*
X13377206Y-17017436D02*
X13367682Y-16998389D01*
X13367682Y-16998389D02*
X13358158Y-16960293D01*
X13358158Y-16960293D02*
X13358158Y-16912674D01*
X13358158Y-16912674D02*
X13367682Y-16874579D01*
X13367682Y-16874579D02*
X13377206Y-16855531D01*
X13377206Y-16855531D02*
X13386729Y-16846008D01*
X13386729Y-16846008D02*
X13405777Y-16836484D01*
X13548634Y-16836484D02*
X13548634Y-16874579D01*
X13624825Y-16836484D02*
X13624825Y-16874579D01*
X13920063Y-17112674D02*
X13910539Y-17103150D01*
X13910539Y-17103150D02*
X13891491Y-17074579D01*
X13891491Y-17074579D02*
X13881968Y-17055531D01*
X13881968Y-17055531D02*
X13872444Y-17026960D01*
X13872444Y-17026960D02*
X13862920Y-16979341D01*
X13862920Y-16979341D02*
X13862920Y-16941246D01*
X13862920Y-16941246D02*
X13872444Y-16893627D01*
X13872444Y-16893627D02*
X13881968Y-16865055D01*
X13881968Y-16865055D02*
X13891491Y-16846008D01*
X13891491Y-16846008D02*
X13910539Y-16817436D01*
X13910539Y-16817436D02*
X13920063Y-16807912D01*
X14081968Y-16903150D02*
X14081968Y-17036484D01*
X14034348Y-16826960D02*
X13986729Y-16969817D01*
X13986729Y-16969817D02*
X14110539Y-16969817D01*
X14339110Y-17036484D02*
X14339110Y-16836484D01*
X14424825Y-17036484D02*
X14424825Y-16931722D01*
X14424825Y-16931722D02*
X14415301Y-16912674D01*
X14415301Y-16912674D02*
X14396253Y-16903150D01*
X14396253Y-16903150D02*
X14367682Y-16903150D01*
X14367682Y-16903150D02*
X14348634Y-16912674D01*
X14348634Y-16912674D02*
X14339110Y-16922198D01*
X14548634Y-17036484D02*
X14529587Y-17026960D01*
X14529587Y-17026960D02*
X14520063Y-17017436D01*
X14520063Y-17017436D02*
X14510539Y-16998389D01*
X14510539Y-16998389D02*
X14510539Y-16941246D01*
X14510539Y-16941246D02*
X14520063Y-16922198D01*
X14520063Y-16922198D02*
X14529587Y-16912674D01*
X14529587Y-16912674D02*
X14548634Y-16903150D01*
X14548634Y-16903150D02*
X14577206Y-16903150D01*
X14577206Y-16903150D02*
X14596253Y-16912674D01*
X14596253Y-16912674D02*
X14605777Y-16922198D01*
X14605777Y-16922198D02*
X14615301Y-16941246D01*
X14615301Y-16941246D02*
X14615301Y-16998389D01*
X14615301Y-16998389D02*
X14605777Y-17017436D01*
X14605777Y-17017436D02*
X14596253Y-17026960D01*
X14596253Y-17026960D02*
X14577206Y-17036484D01*
X14577206Y-17036484D02*
X14548634Y-17036484D01*
X14729587Y-17036484D02*
X14710539Y-17026960D01*
X14710539Y-17026960D02*
X14701015Y-17007912D01*
X14701015Y-17007912D02*
X14701015Y-16836484D01*
X14881968Y-17026960D02*
X14862920Y-17036484D01*
X14862920Y-17036484D02*
X14824825Y-17036484D01*
X14824825Y-17036484D02*
X14805777Y-17026960D01*
X14805777Y-17026960D02*
X14796253Y-17007912D01*
X14796253Y-17007912D02*
X14796253Y-16931722D01*
X14796253Y-16931722D02*
X14805777Y-16912674D01*
X14805777Y-16912674D02*
X14824825Y-16903150D01*
X14824825Y-16903150D02*
X14862920Y-16903150D01*
X14862920Y-16903150D02*
X14881968Y-16912674D01*
X14881968Y-16912674D02*
X14891491Y-16931722D01*
X14891491Y-16931722D02*
X14891491Y-16950770D01*
X14891491Y-16950770D02*
X14796253Y-16969817D01*
X14967682Y-17026960D02*
X14986730Y-17036484D01*
X14986730Y-17036484D02*
X15024825Y-17036484D01*
X15024825Y-17036484D02*
X15043872Y-17026960D01*
X15043872Y-17026960D02*
X15053396Y-17007912D01*
X15053396Y-17007912D02*
X15053396Y-16998389D01*
X15053396Y-16998389D02*
X15043872Y-16979341D01*
X15043872Y-16979341D02*
X15024825Y-16969817D01*
X15024825Y-16969817D02*
X14996253Y-16969817D01*
X14996253Y-16969817D02*
X14977206Y-16960293D01*
X14977206Y-16960293D02*
X14967682Y-16941246D01*
X14967682Y-16941246D02*
X14967682Y-16931722D01*
X14967682Y-16931722D02*
X14977206Y-16912674D01*
X14977206Y-16912674D02*
X14996253Y-16903150D01*
X14996253Y-16903150D02*
X15024825Y-16903150D01*
X15024825Y-16903150D02*
X15043872Y-16912674D01*
X15120063Y-17112674D02*
X15129587Y-17103150D01*
X15129587Y-17103150D02*
X15148634Y-17074579D01*
X15148634Y-17074579D02*
X15158158Y-17055531D01*
X15158158Y-17055531D02*
X15167682Y-17026960D01*
X15167682Y-17026960D02*
X15177206Y-16979341D01*
X15177206Y-16979341D02*
X15177206Y-16941246D01*
X15177206Y-16941246D02*
X15167682Y-16893627D01*
X15167682Y-16893627D02*
X15158158Y-16865055D01*
X15158158Y-16865055D02*
X15148634Y-16846008D01*
X15148634Y-16846008D02*
X15129587Y-16817436D01*
X15129587Y-16817436D02*
X15120063Y-16807912D01*
X15481968Y-17112674D02*
X15472444Y-17103150D01*
X15472444Y-17103150D02*
X15453396Y-17074579D01*
X15453396Y-17074579D02*
X15443872Y-17055531D01*
X15443872Y-17055531D02*
X15434349Y-17026960D01*
X15434349Y-17026960D02*
X15424825Y-16979341D01*
X15424825Y-16979341D02*
X15424825Y-16941246D01*
X15424825Y-16941246D02*
X15434349Y-16893627D01*
X15434349Y-16893627D02*
X15443872Y-16865055D01*
X15443872Y-16865055D02*
X15453396Y-16846008D01*
X15453396Y-16846008D02*
X15472444Y-16817436D01*
X15472444Y-16817436D02*
X15481968Y-16807912D01*
X15558158Y-16903150D02*
X15558158Y-17036484D01*
X15558158Y-16922198D02*
X15567682Y-16912674D01*
X15567682Y-16912674D02*
X15586730Y-16903150D01*
X15586730Y-16903150D02*
X15615301Y-16903150D01*
X15615301Y-16903150D02*
X15634349Y-16912674D01*
X15634349Y-16912674D02*
X15643872Y-16931722D01*
X15643872Y-16931722D02*
X15643872Y-17036484D01*
X15767682Y-17036484D02*
X15748634Y-17026960D01*
X15748634Y-17026960D02*
X15739111Y-17017436D01*
X15739111Y-17017436D02*
X15729587Y-16998389D01*
X15729587Y-16998389D02*
X15729587Y-16941246D01*
X15729587Y-16941246D02*
X15739111Y-16922198D01*
X15739111Y-16922198D02*
X15748634Y-16912674D01*
X15748634Y-16912674D02*
X15767682Y-16903150D01*
X15767682Y-16903150D02*
X15796253Y-16903150D01*
X15796253Y-16903150D02*
X15815301Y-16912674D01*
X15815301Y-16912674D02*
X15824825Y-16922198D01*
X15824825Y-16922198D02*
X15834349Y-16941246D01*
X15834349Y-16941246D02*
X15834349Y-16998389D01*
X15834349Y-16998389D02*
X15824825Y-17017436D01*
X15824825Y-17017436D02*
X15815301Y-17026960D01*
X15815301Y-17026960D02*
X15796253Y-17036484D01*
X15796253Y-17036484D02*
X15767682Y-17036484D01*
X15891492Y-16903150D02*
X15967682Y-16903150D01*
X15920063Y-16836484D02*
X15920063Y-17007912D01*
X15920063Y-17007912D02*
X15929587Y-17026960D01*
X15929587Y-17026960D02*
X15948634Y-17036484D01*
X15948634Y-17036484D02*
X15967682Y-17036484D01*
X16186730Y-16903150D02*
X16186730Y-17103150D01*
X16186730Y-16912674D02*
X16205777Y-16903150D01*
X16205777Y-16903150D02*
X16243873Y-16903150D01*
X16243873Y-16903150D02*
X16262920Y-16912674D01*
X16262920Y-16912674D02*
X16272444Y-16922198D01*
X16272444Y-16922198D02*
X16281968Y-16941246D01*
X16281968Y-16941246D02*
X16281968Y-16998389D01*
X16281968Y-16998389D02*
X16272444Y-17017436D01*
X16272444Y-17017436D02*
X16262920Y-17026960D01*
X16262920Y-17026960D02*
X16243873Y-17036484D01*
X16243873Y-17036484D02*
X16205777Y-17036484D01*
X16205777Y-17036484D02*
X16186730Y-17026960D01*
X16396253Y-17036484D02*
X16377206Y-17026960D01*
X16377206Y-17026960D02*
X16367682Y-17007912D01*
X16367682Y-17007912D02*
X16367682Y-16836484D01*
X16558158Y-17036484D02*
X16558158Y-16931722D01*
X16558158Y-16931722D02*
X16548634Y-16912674D01*
X16548634Y-16912674D02*
X16529587Y-16903150D01*
X16529587Y-16903150D02*
X16491492Y-16903150D01*
X16491492Y-16903150D02*
X16472444Y-16912674D01*
X16558158Y-17026960D02*
X16539111Y-17036484D01*
X16539111Y-17036484D02*
X16491492Y-17036484D01*
X16491492Y-17036484D02*
X16472444Y-17026960D01*
X16472444Y-17026960D02*
X16462920Y-17007912D01*
X16462920Y-17007912D02*
X16462920Y-16988865D01*
X16462920Y-16988865D02*
X16472444Y-16969817D01*
X16472444Y-16969817D02*
X16491492Y-16960293D01*
X16491492Y-16960293D02*
X16539111Y-16960293D01*
X16539111Y-16960293D02*
X16558158Y-16950770D01*
X16624825Y-16903150D02*
X16701015Y-16903150D01*
X16653396Y-16836484D02*
X16653396Y-17007912D01*
X16653396Y-17007912D02*
X16662920Y-17026960D01*
X16662920Y-17026960D02*
X16681968Y-17036484D01*
X16681968Y-17036484D02*
X16701015Y-17036484D01*
X16843873Y-17026960D02*
X16824825Y-17036484D01*
X16824825Y-17036484D02*
X16786730Y-17036484D01*
X16786730Y-17036484D02*
X16767682Y-17026960D01*
X16767682Y-17026960D02*
X16758158Y-17007912D01*
X16758158Y-17007912D02*
X16758158Y-16931722D01*
X16758158Y-16931722D02*
X16767682Y-16912674D01*
X16767682Y-16912674D02*
X16786730Y-16903150D01*
X16786730Y-16903150D02*
X16824825Y-16903150D01*
X16824825Y-16903150D02*
X16843873Y-16912674D01*
X16843873Y-16912674D02*
X16853396Y-16931722D01*
X16853396Y-16931722D02*
X16853396Y-16950770D01*
X16853396Y-16950770D02*
X16758158Y-16969817D01*
X17024825Y-17036484D02*
X17024825Y-16836484D01*
X17024825Y-17026960D02*
X17005777Y-17036484D01*
X17005777Y-17036484D02*
X16967682Y-17036484D01*
X16967682Y-17036484D02*
X16948635Y-17026960D01*
X16948635Y-17026960D02*
X16939111Y-17017436D01*
X16939111Y-17017436D02*
X16929587Y-16998389D01*
X16929587Y-16998389D02*
X16929587Y-16941246D01*
X16929587Y-16941246D02*
X16939111Y-16922198D01*
X16939111Y-16922198D02*
X16948635Y-16912674D01*
X16948635Y-16912674D02*
X16967682Y-16903150D01*
X16967682Y-16903150D02*
X17005777Y-16903150D01*
X17005777Y-16903150D02*
X17024825Y-16912674D01*
X17101016Y-17112674D02*
X17110539Y-17103150D01*
X17110539Y-17103150D02*
X17129587Y-17074579D01*
X17129587Y-17074579D02*
X17139111Y-17055531D01*
X17139111Y-17055531D02*
X17148635Y-17026960D01*
X17148635Y-17026960D02*
X17158158Y-16979341D01*
X17158158Y-16979341D02*
X17158158Y-16941246D01*
X17158158Y-16941246D02*
X17148635Y-16893627D01*
X17148635Y-16893627D02*
X17139111Y-16865055D01*
X17139111Y-16865055D02*
X17129587Y-16846008D01*
X17129587Y-16846008D02*
X17110539Y-16817436D01*
X17110539Y-16817436D02*
X17101016Y-16807912D01*
M02*
