%TF.GenerationSoftware,KiCad,Pcbnew,8.0.8-2.fc41*%
%TF.CreationDate,2025-02-25T20:32:14+00:00*%
%TF.ProjectId,Power_supply,506f7765-725f-4737-9570-706c792e6b69,rev?*%
%TF.SameCoordinates,Original*%
%TF.FileFunction,Drillmap*%
%TF.FilePolarity,Positive*%
%FSLAX45Y45*%
G04 Gerber Fmt 4.5, Leading zero omitted, Abs format (unit mm)*
G04 Created by KiCad (PCBNEW 8.0.8-2.fc41) date 2025-02-25 20:32:14*
%MOMM*%
%LPD*%
G01*
G04 APERTURE LIST*
%ADD10C,0.100000*%
%ADD11C,0.200000*%
%ADD12C,0.110000*%
%ADD13C,0.140000*%
%ADD14C,0.250000*%
G04 APERTURE END LIST*
D10*
X18400000Y-16300000D02*
X10550000Y-16300000D01*
X10350000Y-3800000D02*
G75*
G02*
X10550000Y-3600000I200000J0D01*
G01*
X18600000Y-3800000D02*
X18600000Y-16100000D01*
X10350000Y-16100000D02*
X10350000Y-3800000D01*
X18400000Y-3600000D02*
G75*
G02*
X18600000Y-3800000I0J-200000D01*
G01*
X18600000Y-16100000D02*
G75*
G02*
X18400000Y-16300000I-200000J0D01*
G01*
X10550000Y-16300000D02*
G75*
G02*
X10350000Y-16100000I0J200000D01*
G01*
X10550000Y-3600000D02*
X18400000Y-3600000D01*
D11*
D10*
X14303000Y-15512500D02*
X14393000Y-15602500D01*
X14393000Y-15512500D02*
X14303000Y-15602500D01*
X14557000Y-15512500D02*
X14647000Y-15602500D01*
X14647000Y-15512500D02*
X14557000Y-15602500D01*
X17408800Y-9863000D02*
X17498800Y-9953000D01*
X17498800Y-9863000D02*
X17408800Y-9953000D01*
X17408800Y-10113000D02*
X17498800Y-10203000D01*
X17498800Y-10113000D02*
X17408800Y-10203000D01*
X17658800Y-9863000D02*
X17748800Y-9953000D01*
X17748800Y-9863000D02*
X17658800Y-9953000D01*
X17658800Y-10113000D02*
X17748800Y-10203000D01*
X17748800Y-10113000D02*
X17658800Y-10203000D01*
X17908800Y-9863000D02*
X17998800Y-9953000D01*
X17998800Y-9863000D02*
X17908800Y-9953000D01*
X17908800Y-10113000D02*
X17998800Y-10203000D01*
X17998800Y-10113000D02*
X17908800Y-10203000D01*
X11035500Y-10541000D02*
G75*
G02*
X10935500Y-10541000I-50000J0D01*
G01*
X10935500Y-10541000D02*
G75*
G02*
X11035500Y-10541000I50000J0D01*
G01*
X11035500Y-10795000D02*
G75*
G02*
X10935500Y-10795000I-50000J0D01*
G01*
X10935500Y-10795000D02*
G75*
G02*
X11035500Y-10795000I50000J0D01*
G01*
X11035500Y-11049000D02*
G75*
G02*
X10935500Y-11049000I-50000J0D01*
G01*
X10935500Y-11049000D02*
G75*
G02*
X11035500Y-11049000I50000J0D01*
G01*
X11035500Y-11303000D02*
G75*
G02*
X10935500Y-11303000I-50000J0D01*
G01*
X10935500Y-11303000D02*
G75*
G02*
X11035500Y-11303000I50000J0D01*
G01*
X11035500Y-11557000D02*
G75*
G02*
X10935500Y-11557000I-50000J0D01*
G01*
X10935500Y-11557000D02*
G75*
G02*
X11035500Y-11557000I50000J0D01*
G01*
X13385000Y-12827000D02*
G75*
G02*
X13285000Y-12827000I-50000J0D01*
G01*
X13285000Y-12827000D02*
G75*
G02*
X13385000Y-12827000I50000J0D01*
G01*
X13766000Y-6477000D02*
G75*
G02*
X13666000Y-6477000I-50000J0D01*
G01*
X13666000Y-6477000D02*
G75*
G02*
X13766000Y-6477000I50000J0D01*
G01*
X13766000Y-13970000D02*
G75*
G02*
X13666000Y-13970000I-50000J0D01*
G01*
X13666000Y-13970000D02*
G75*
G02*
X13766000Y-13970000I50000J0D01*
G01*
X13829500Y-5905500D02*
G75*
G02*
X13729500Y-5905500I-50000J0D01*
G01*
X13729500Y-5905500D02*
G75*
G02*
X13829500Y-5905500I50000J0D01*
G01*
X14020000Y-7366000D02*
G75*
G02*
X13920000Y-7366000I-50000J0D01*
G01*
X13920000Y-7366000D02*
G75*
G02*
X14020000Y-7366000I50000J0D01*
G01*
X14020000Y-14859000D02*
G75*
G02*
X13920000Y-14859000I-50000J0D01*
G01*
X13920000Y-14859000D02*
G75*
G02*
X14020000Y-14859000I50000J0D01*
G01*
X14274000Y-6032500D02*
G75*
G02*
X14174000Y-6032500I-50000J0D01*
G01*
X14174000Y-6032500D02*
G75*
G02*
X14274000Y-6032500I50000J0D01*
G01*
X14274000Y-6794500D02*
G75*
G02*
X14174000Y-6794500I-50000J0D01*
G01*
X14174000Y-6794500D02*
G75*
G02*
X14274000Y-6794500I50000J0D01*
G01*
X14401000Y-14033500D02*
G75*
G02*
X14301000Y-14033500I-50000J0D01*
G01*
X14301000Y-14033500D02*
G75*
G02*
X14401000Y-14033500I50000J0D01*
G01*
X14464500Y-13779500D02*
G75*
G02*
X14364500Y-13779500I-50000J0D01*
G01*
X14364500Y-13779500D02*
G75*
G02*
X14464500Y-13779500I50000J0D01*
G01*
X15036000Y-6413500D02*
G75*
G02*
X14936000Y-6413500I-50000J0D01*
G01*
X14936000Y-6413500D02*
G75*
G02*
X15036000Y-6413500I50000J0D01*
G01*
X15290000Y-5080000D02*
G75*
G02*
X15190000Y-5080000I-50000J0D01*
G01*
X15190000Y-5080000D02*
G75*
G02*
X15290000Y-5080000I50000J0D01*
G01*
X15480500Y-6540500D02*
G75*
G02*
X15380500Y-6540500I-50000J0D01*
G01*
X15380500Y-6540500D02*
G75*
G02*
X15480500Y-6540500I50000J0D01*
G01*
X15544000Y-5969000D02*
G75*
G02*
X15444000Y-5969000I-50000J0D01*
G01*
X15444000Y-5969000D02*
G75*
G02*
X15544000Y-5969000I50000J0D01*
G01*
X16496500Y-11557000D02*
G75*
G02*
X16396500Y-11557000I-50000J0D01*
G01*
X16396500Y-11557000D02*
G75*
G02*
X16496500Y-11557000I50000J0D01*
G01*
X16496500Y-14224000D02*
G75*
G02*
X16396500Y-14224000I-50000J0D01*
G01*
X16396500Y-14224000D02*
G75*
G02*
X16496500Y-14224000I50000J0D01*
G01*
X16496500Y-14732000D02*
G75*
G02*
X16396500Y-14732000I-50000J0D01*
G01*
X16396500Y-14732000D02*
G75*
G02*
X16496500Y-14732000I50000J0D01*
G01*
X16496500Y-15240000D02*
G75*
G02*
X16396500Y-15240000I-50000J0D01*
G01*
X16396500Y-15240000D02*
G75*
G02*
X16496500Y-15240000I50000J0D01*
G01*
X16496500Y-15748000D02*
G75*
G02*
X16396500Y-15748000I-50000J0D01*
G01*
X16396500Y-15748000D02*
G75*
G02*
X16496500Y-15748000I50000J0D01*
G01*
X16941000Y-14478000D02*
G75*
G02*
X16841000Y-14478000I-50000J0D01*
G01*
X16841000Y-14478000D02*
G75*
G02*
X16941000Y-14478000I50000J0D01*
G01*
X16941000Y-15240000D02*
G75*
G02*
X16841000Y-15240000I-50000J0D01*
G01*
X16841000Y-15240000D02*
G75*
G02*
X16941000Y-15240000I50000J0D01*
G01*
X17449000Y-11684000D02*
G75*
G02*
X17349000Y-11684000I-50000J0D01*
G01*
X17349000Y-11684000D02*
G75*
G02*
X17449000Y-11684000I50000J0D01*
G01*
X17449000Y-12446000D02*
G75*
G02*
X17349000Y-12446000I-50000J0D01*
G01*
X17349000Y-12446000D02*
G75*
G02*
X17449000Y-12446000I50000J0D01*
G01*
X17766500Y-10668000D02*
G75*
G02*
X17666500Y-10668000I-50000J0D01*
G01*
X17666500Y-10668000D02*
G75*
G02*
X17766500Y-10668000I50000J0D01*
G01*
X10668000Y-10488000D02*
X10668000Y-10588000D01*
X10618000Y-10538000D02*
X10718000Y-10538000D01*
X10668000Y-10742000D02*
X10668000Y-10842000D01*
X10618000Y-10792000D02*
X10718000Y-10792000D01*
X10668000Y-10996000D02*
X10668000Y-11096000D01*
X10618000Y-11046000D02*
X10718000Y-11046000D01*
X10668000Y-11250000D02*
X10668000Y-11350000D01*
X10618000Y-11300000D02*
X10718000Y-11300000D01*
X10668000Y-11504000D02*
X10668000Y-11604000D01*
X10618000Y-11554000D02*
X10718000Y-11554000D01*
X10668000Y-11758000D02*
X10668000Y-11858000D01*
X10618000Y-11808000D02*
X10718000Y-11808000D01*
X17561000Y-8840000D02*
X17561000Y-8940000D01*
X17511000Y-8890000D02*
X17611000Y-8890000D01*
X17611000Y-8990000D02*
X17611000Y-8790000D01*
X17511000Y-8790000D02*
G75*
G02*
X17611000Y-8790000I50000J0D01*
G01*
X17511000Y-8790000D02*
X17511000Y-8990000D01*
X17511000Y-8990000D02*
G75*
G03*
X17611000Y-8990000I50000J0D01*
G01*
X17861000Y-8370000D02*
X17861000Y-8470000D01*
X17811000Y-8420000D02*
X17911000Y-8420000D01*
X17961000Y-8370000D02*
X17761000Y-8370000D01*
X17761000Y-8470000D02*
G75*
G02*
X17761000Y-8370000I0J50000D01*
G01*
X17761000Y-8470000D02*
X17961000Y-8470000D01*
X17961000Y-8470000D02*
G75*
G03*
X17961000Y-8370000I0J50000D01*
G01*
X18086500Y-11890000D02*
X18086500Y-11990000D01*
X18036500Y-11940000D02*
X18136500Y-11940000D01*
X18086500Y-12140000D02*
X18086500Y-12240000D01*
X18036500Y-12190000D02*
X18136500Y-12190000D01*
X18161000Y-8840000D02*
X18161000Y-8940000D01*
X18111000Y-8890000D02*
X18211000Y-8890000D01*
X18211000Y-8990000D02*
X18211000Y-8790000D01*
X18111000Y-8790000D02*
G75*
G02*
X18211000Y-8790000I50000J0D01*
G01*
X18111000Y-8790000D02*
X18111000Y-8990000D01*
X18111000Y-8990000D02*
G75*
G03*
X18211000Y-8990000I50000J0D01*
G01*
D12*
X12361391Y-6007891D02*
X12361391Y-5930109D01*
X12283609Y-5930109D01*
X12283609Y-6007891D01*
X12361391Y-6007891D01*
X12361391Y-6261891D02*
X12361391Y-6184109D01*
X12283609Y-6184109D01*
X12283609Y-6261891D01*
X12361391Y-6261891D01*
X12361391Y-6515891D02*
X12361391Y-6438109D01*
X12283609Y-6438109D01*
X12283609Y-6515891D01*
X12361391Y-6515891D01*
X12361391Y-13500891D02*
X12361391Y-13423109D01*
X12283609Y-13423109D01*
X12283609Y-13500891D01*
X12361391Y-13500891D01*
X12361391Y-13754891D02*
X12361391Y-13677109D01*
X12283609Y-13677109D01*
X12283609Y-13754891D01*
X12361391Y-13754891D01*
X12361391Y-14008891D02*
X12361391Y-13931109D01*
X12283609Y-13931109D01*
X12283609Y-14008891D01*
X12361391Y-14008891D01*
X16926391Y-6007891D02*
X16926391Y-5930109D01*
X16848609Y-5930109D01*
X16848609Y-6007891D01*
X16926391Y-6007891D01*
X16926391Y-6261891D02*
X16926391Y-6184109D01*
X16848609Y-6184109D01*
X16848609Y-6261891D01*
X16926391Y-6261891D01*
X16926391Y-6515891D02*
X16926391Y-6438109D01*
X16848609Y-6438109D01*
X16848609Y-6515891D01*
X16926391Y-6515891D01*
D13*
X17123800Y-10313000D02*
X17193800Y-10243000D01*
X17123800Y-10173000D01*
X17053800Y-10243000D01*
X17123800Y-10313000D01*
X18283800Y-9893000D02*
X18353800Y-9823000D01*
X18283800Y-9753000D01*
X18213800Y-9823000D01*
X18283800Y-9893000D01*
D14*
X11813000Y-4828000D02*
X12063000Y-5078000D01*
X12063000Y-4828000D02*
X11813000Y-5078000D01*
X12063000Y-4953000D02*
G75*
G02*
X11813000Y-4953000I-125000J0D01*
G01*
X11813000Y-4953000D02*
G75*
G02*
X12063000Y-4953000I125000J0D01*
G01*
X11813000Y-7368000D02*
X12063000Y-7618000D01*
X12063000Y-7368000D02*
X11813000Y-7618000D01*
X12063000Y-7493000D02*
G75*
G02*
X11813000Y-7493000I-125000J0D01*
G01*
X11813000Y-7493000D02*
G75*
G02*
X12063000Y-7493000I125000J0D01*
G01*
X11813000Y-12321000D02*
X12063000Y-12571000D01*
X12063000Y-12321000D02*
X11813000Y-12571000D01*
X12063000Y-12446000D02*
G75*
G02*
X11813000Y-12446000I-125000J0D01*
G01*
X11813000Y-12446000D02*
G75*
G02*
X12063000Y-12446000I125000J0D01*
G01*
X11813000Y-14861000D02*
X12063000Y-15111000D01*
X12063000Y-14861000D02*
X11813000Y-15111000D01*
X12063000Y-14986000D02*
G75*
G02*
X11813000Y-14986000I-125000J0D01*
G01*
X11813000Y-14986000D02*
G75*
G02*
X12063000Y-14986000I125000J0D01*
G01*
X17147000Y-4828000D02*
X17397000Y-5078000D01*
X17397000Y-4828000D02*
X17147000Y-5078000D01*
X17397000Y-4953000D02*
G75*
G02*
X17147000Y-4953000I-125000J0D01*
G01*
X17147000Y-4953000D02*
G75*
G02*
X17397000Y-4953000I125000J0D01*
G01*
X17147000Y-7368000D02*
X17397000Y-7618000D01*
X17397000Y-7368000D02*
X17147000Y-7618000D01*
X17397000Y-7493000D02*
G75*
G02*
X17147000Y-7493000I-125000J0D01*
G01*
X17147000Y-7493000D02*
G75*
G02*
X17397000Y-7493000I125000J0D01*
G01*
D11*
X10605777Y-16616484D02*
X10605777Y-16416484D01*
X10605777Y-16416484D02*
X10653396Y-16416484D01*
X10653396Y-16416484D02*
X10681967Y-16426008D01*
X10681967Y-16426008D02*
X10701015Y-16445055D01*
X10701015Y-16445055D02*
X10710539Y-16464103D01*
X10710539Y-16464103D02*
X10720063Y-16502198D01*
X10720063Y-16502198D02*
X10720063Y-16530769D01*
X10720063Y-16530769D02*
X10710539Y-16568865D01*
X10710539Y-16568865D02*
X10701015Y-16587912D01*
X10701015Y-16587912D02*
X10681967Y-16606960D01*
X10681967Y-16606960D02*
X10653396Y-16616484D01*
X10653396Y-16616484D02*
X10605777Y-16616484D01*
X10805777Y-16616484D02*
X10805777Y-16483150D01*
X10805777Y-16521246D02*
X10815301Y-16502198D01*
X10815301Y-16502198D02*
X10824824Y-16492674D01*
X10824824Y-16492674D02*
X10843872Y-16483150D01*
X10843872Y-16483150D02*
X10862920Y-16483150D01*
X10929586Y-16616484D02*
X10929586Y-16483150D01*
X10929586Y-16416484D02*
X10920063Y-16426008D01*
X10920063Y-16426008D02*
X10929586Y-16435531D01*
X10929586Y-16435531D02*
X10939110Y-16426008D01*
X10939110Y-16426008D02*
X10929586Y-16416484D01*
X10929586Y-16416484D02*
X10929586Y-16435531D01*
X11053396Y-16616484D02*
X11034348Y-16606960D01*
X11034348Y-16606960D02*
X11024824Y-16587912D01*
X11024824Y-16587912D02*
X11024824Y-16416484D01*
X11158158Y-16616484D02*
X11139110Y-16606960D01*
X11139110Y-16606960D02*
X11129586Y-16587912D01*
X11129586Y-16587912D02*
X11129586Y-16416484D01*
X11386729Y-16616484D02*
X11386729Y-16416484D01*
X11386729Y-16416484D02*
X11453396Y-16559341D01*
X11453396Y-16559341D02*
X11520062Y-16416484D01*
X11520062Y-16416484D02*
X11520062Y-16616484D01*
X11701015Y-16616484D02*
X11701015Y-16511722D01*
X11701015Y-16511722D02*
X11691491Y-16492674D01*
X11691491Y-16492674D02*
X11672443Y-16483150D01*
X11672443Y-16483150D02*
X11634348Y-16483150D01*
X11634348Y-16483150D02*
X11615301Y-16492674D01*
X11701015Y-16606960D02*
X11681967Y-16616484D01*
X11681967Y-16616484D02*
X11634348Y-16616484D01*
X11634348Y-16616484D02*
X11615301Y-16606960D01*
X11615301Y-16606960D02*
X11605777Y-16587912D01*
X11605777Y-16587912D02*
X11605777Y-16568865D01*
X11605777Y-16568865D02*
X11615301Y-16549817D01*
X11615301Y-16549817D02*
X11634348Y-16540293D01*
X11634348Y-16540293D02*
X11681967Y-16540293D01*
X11681967Y-16540293D02*
X11701015Y-16530769D01*
X11796253Y-16483150D02*
X11796253Y-16683150D01*
X11796253Y-16492674D02*
X11815301Y-16483150D01*
X11815301Y-16483150D02*
X11853396Y-16483150D01*
X11853396Y-16483150D02*
X11872443Y-16492674D01*
X11872443Y-16492674D02*
X11881967Y-16502198D01*
X11881967Y-16502198D02*
X11891491Y-16521246D01*
X11891491Y-16521246D02*
X11891491Y-16578388D01*
X11891491Y-16578388D02*
X11881967Y-16597436D01*
X11881967Y-16597436D02*
X11872443Y-16606960D01*
X11872443Y-16606960D02*
X11853396Y-16616484D01*
X11853396Y-16616484D02*
X11815301Y-16616484D01*
X11815301Y-16616484D02*
X11796253Y-16606960D01*
X11977205Y-16597436D02*
X11986729Y-16606960D01*
X11986729Y-16606960D02*
X11977205Y-16616484D01*
X11977205Y-16616484D02*
X11967682Y-16606960D01*
X11967682Y-16606960D02*
X11977205Y-16597436D01*
X11977205Y-16597436D02*
X11977205Y-16616484D01*
X11977205Y-16492674D02*
X11986729Y-16502198D01*
X11986729Y-16502198D02*
X11977205Y-16511722D01*
X11977205Y-16511722D02*
X11967682Y-16502198D01*
X11967682Y-16502198D02*
X11977205Y-16492674D01*
X11977205Y-16492674D02*
X11977205Y-16511722D01*
D10*
X10255000Y-16900000D02*
X10345000Y-16990000D01*
X10345000Y-16900000D02*
X10255000Y-16990000D01*
D11*
X10643872Y-16836484D02*
X10662920Y-16836484D01*
X10662920Y-16836484D02*
X10681967Y-16846008D01*
X10681967Y-16846008D02*
X10691491Y-16855531D01*
X10691491Y-16855531D02*
X10701015Y-16874579D01*
X10701015Y-16874579D02*
X10710539Y-16912674D01*
X10710539Y-16912674D02*
X10710539Y-16960293D01*
X10710539Y-16960293D02*
X10701015Y-16998389D01*
X10701015Y-16998389D02*
X10691491Y-17017436D01*
X10691491Y-17017436D02*
X10681967Y-17026960D01*
X10681967Y-17026960D02*
X10662920Y-17036484D01*
X10662920Y-17036484D02*
X10643872Y-17036484D01*
X10643872Y-17036484D02*
X10624824Y-17026960D01*
X10624824Y-17026960D02*
X10615301Y-17017436D01*
X10615301Y-17017436D02*
X10605777Y-16998389D01*
X10605777Y-16998389D02*
X10596253Y-16960293D01*
X10596253Y-16960293D02*
X10596253Y-16912674D01*
X10596253Y-16912674D02*
X10605777Y-16874579D01*
X10605777Y-16874579D02*
X10615301Y-16855531D01*
X10615301Y-16855531D02*
X10624824Y-16846008D01*
X10624824Y-16846008D02*
X10643872Y-16836484D01*
X10796253Y-17017436D02*
X10805777Y-17026960D01*
X10805777Y-17026960D02*
X10796253Y-17036484D01*
X10796253Y-17036484D02*
X10786729Y-17026960D01*
X10786729Y-17026960D02*
X10796253Y-17017436D01*
X10796253Y-17017436D02*
X10796253Y-17036484D01*
X10901015Y-17036484D02*
X10939110Y-17036484D01*
X10939110Y-17036484D02*
X10958158Y-17026960D01*
X10958158Y-17026960D02*
X10967682Y-17017436D01*
X10967682Y-17017436D02*
X10986729Y-16988865D01*
X10986729Y-16988865D02*
X10996253Y-16950770D01*
X10996253Y-16950770D02*
X10996253Y-16874579D01*
X10996253Y-16874579D02*
X10986729Y-16855531D01*
X10986729Y-16855531D02*
X10977205Y-16846008D01*
X10977205Y-16846008D02*
X10958158Y-16836484D01*
X10958158Y-16836484D02*
X10920063Y-16836484D01*
X10920063Y-16836484D02*
X10901015Y-16846008D01*
X10901015Y-16846008D02*
X10891491Y-16855531D01*
X10891491Y-16855531D02*
X10881967Y-16874579D01*
X10881967Y-16874579D02*
X10881967Y-16922198D01*
X10881967Y-16922198D02*
X10891491Y-16941246D01*
X10891491Y-16941246D02*
X10901015Y-16950770D01*
X10901015Y-16950770D02*
X10920063Y-16960293D01*
X10920063Y-16960293D02*
X10958158Y-16960293D01*
X10958158Y-16960293D02*
X10977205Y-16950770D01*
X10977205Y-16950770D02*
X10986729Y-16941246D01*
X10986729Y-16941246D02*
X10996253Y-16922198D01*
X11120063Y-16836484D02*
X11139110Y-16836484D01*
X11139110Y-16836484D02*
X11158158Y-16846008D01*
X11158158Y-16846008D02*
X11167682Y-16855531D01*
X11167682Y-16855531D02*
X11177205Y-16874579D01*
X11177205Y-16874579D02*
X11186729Y-16912674D01*
X11186729Y-16912674D02*
X11186729Y-16960293D01*
X11186729Y-16960293D02*
X11177205Y-16998389D01*
X11177205Y-16998389D02*
X11167682Y-17017436D01*
X11167682Y-17017436D02*
X11158158Y-17026960D01*
X11158158Y-17026960D02*
X11139110Y-17036484D01*
X11139110Y-17036484D02*
X11120063Y-17036484D01*
X11120063Y-17036484D02*
X11101015Y-17026960D01*
X11101015Y-17026960D02*
X11091491Y-17017436D01*
X11091491Y-17017436D02*
X11081967Y-16998389D01*
X11081967Y-16998389D02*
X11072444Y-16960293D01*
X11072444Y-16960293D02*
X11072444Y-16912674D01*
X11072444Y-16912674D02*
X11081967Y-16874579D01*
X11081967Y-16874579D02*
X11091491Y-16855531D01*
X11091491Y-16855531D02*
X11101015Y-16846008D01*
X11101015Y-16846008D02*
X11120063Y-16836484D01*
X11310539Y-16836484D02*
X11329586Y-16836484D01*
X11329586Y-16836484D02*
X11348634Y-16846008D01*
X11348634Y-16846008D02*
X11358158Y-16855531D01*
X11358158Y-16855531D02*
X11367682Y-16874579D01*
X11367682Y-16874579D02*
X11377205Y-16912674D01*
X11377205Y-16912674D02*
X11377205Y-16960293D01*
X11377205Y-16960293D02*
X11367682Y-16998389D01*
X11367682Y-16998389D02*
X11358158Y-17017436D01*
X11358158Y-17017436D02*
X11348634Y-17026960D01*
X11348634Y-17026960D02*
X11329586Y-17036484D01*
X11329586Y-17036484D02*
X11310539Y-17036484D01*
X11310539Y-17036484D02*
X11291491Y-17026960D01*
X11291491Y-17026960D02*
X11281967Y-17017436D01*
X11281967Y-17017436D02*
X11272443Y-16998389D01*
X11272443Y-16998389D02*
X11262920Y-16960293D01*
X11262920Y-16960293D02*
X11262920Y-16912674D01*
X11262920Y-16912674D02*
X11272443Y-16874579D01*
X11272443Y-16874579D02*
X11281967Y-16855531D01*
X11281967Y-16855531D02*
X11291491Y-16846008D01*
X11291491Y-16846008D02*
X11310539Y-16836484D01*
X11462920Y-17036484D02*
X11462920Y-16903150D01*
X11462920Y-16922198D02*
X11472443Y-16912674D01*
X11472443Y-16912674D02*
X11491491Y-16903150D01*
X11491491Y-16903150D02*
X11520063Y-16903150D01*
X11520063Y-16903150D02*
X11539110Y-16912674D01*
X11539110Y-16912674D02*
X11548634Y-16931722D01*
X11548634Y-16931722D02*
X11548634Y-17036484D01*
X11548634Y-16931722D02*
X11558158Y-16912674D01*
X11558158Y-16912674D02*
X11577205Y-16903150D01*
X11577205Y-16903150D02*
X11605777Y-16903150D01*
X11605777Y-16903150D02*
X11624824Y-16912674D01*
X11624824Y-16912674D02*
X11634348Y-16931722D01*
X11634348Y-16931722D02*
X11634348Y-17036484D01*
X11729586Y-17036484D02*
X11729586Y-16903150D01*
X11729586Y-16922198D02*
X11739110Y-16912674D01*
X11739110Y-16912674D02*
X11758158Y-16903150D01*
X11758158Y-16903150D02*
X11786729Y-16903150D01*
X11786729Y-16903150D02*
X11805777Y-16912674D01*
X11805777Y-16912674D02*
X11815301Y-16931722D01*
X11815301Y-16931722D02*
X11815301Y-17036484D01*
X11815301Y-16931722D02*
X11824824Y-16912674D01*
X11824824Y-16912674D02*
X11843872Y-16903150D01*
X11843872Y-16903150D02*
X11872443Y-16903150D01*
X11872443Y-16903150D02*
X11891491Y-16912674D01*
X11891491Y-16912674D02*
X11901015Y-16931722D01*
X11901015Y-16931722D02*
X11901015Y-17036484D01*
X12291491Y-16826960D02*
X12120063Y-17084103D01*
X12548634Y-16836484D02*
X12567682Y-16836484D01*
X12567682Y-16836484D02*
X12586729Y-16846008D01*
X12586729Y-16846008D02*
X12596253Y-16855531D01*
X12596253Y-16855531D02*
X12605777Y-16874579D01*
X12605777Y-16874579D02*
X12615301Y-16912674D01*
X12615301Y-16912674D02*
X12615301Y-16960293D01*
X12615301Y-16960293D02*
X12605777Y-16998389D01*
X12605777Y-16998389D02*
X12596253Y-17017436D01*
X12596253Y-17017436D02*
X12586729Y-17026960D01*
X12586729Y-17026960D02*
X12567682Y-17036484D01*
X12567682Y-17036484D02*
X12548634Y-17036484D01*
X12548634Y-17036484D02*
X12529586Y-17026960D01*
X12529586Y-17026960D02*
X12520063Y-17017436D01*
X12520063Y-17017436D02*
X12510539Y-16998389D01*
X12510539Y-16998389D02*
X12501015Y-16960293D01*
X12501015Y-16960293D02*
X12501015Y-16912674D01*
X12501015Y-16912674D02*
X12510539Y-16874579D01*
X12510539Y-16874579D02*
X12520063Y-16855531D01*
X12520063Y-16855531D02*
X12529586Y-16846008D01*
X12529586Y-16846008D02*
X12548634Y-16836484D01*
X12701015Y-17017436D02*
X12710539Y-17026960D01*
X12710539Y-17026960D02*
X12701015Y-17036484D01*
X12701015Y-17036484D02*
X12691491Y-17026960D01*
X12691491Y-17026960D02*
X12701015Y-17017436D01*
X12701015Y-17017436D02*
X12701015Y-17036484D01*
X12834348Y-16836484D02*
X12853396Y-16836484D01*
X12853396Y-16836484D02*
X12872444Y-16846008D01*
X12872444Y-16846008D02*
X12881967Y-16855531D01*
X12881967Y-16855531D02*
X12891491Y-16874579D01*
X12891491Y-16874579D02*
X12901015Y-16912674D01*
X12901015Y-16912674D02*
X12901015Y-16960293D01*
X12901015Y-16960293D02*
X12891491Y-16998389D01*
X12891491Y-16998389D02*
X12881967Y-17017436D01*
X12881967Y-17017436D02*
X12872444Y-17026960D01*
X12872444Y-17026960D02*
X12853396Y-17036484D01*
X12853396Y-17036484D02*
X12834348Y-17036484D01*
X12834348Y-17036484D02*
X12815301Y-17026960D01*
X12815301Y-17026960D02*
X12805777Y-17017436D01*
X12805777Y-17017436D02*
X12796253Y-16998389D01*
X12796253Y-16998389D02*
X12786729Y-16960293D01*
X12786729Y-16960293D02*
X12786729Y-16912674D01*
X12786729Y-16912674D02*
X12796253Y-16874579D01*
X12796253Y-16874579D02*
X12805777Y-16855531D01*
X12805777Y-16855531D02*
X12815301Y-16846008D01*
X12815301Y-16846008D02*
X12834348Y-16836484D01*
X12967682Y-16836484D02*
X13091491Y-16836484D01*
X13091491Y-16836484D02*
X13024825Y-16912674D01*
X13024825Y-16912674D02*
X13053396Y-16912674D01*
X13053396Y-16912674D02*
X13072444Y-16922198D01*
X13072444Y-16922198D02*
X13081967Y-16931722D01*
X13081967Y-16931722D02*
X13091491Y-16950770D01*
X13091491Y-16950770D02*
X13091491Y-16998389D01*
X13091491Y-16998389D02*
X13081967Y-17017436D01*
X13081967Y-17017436D02*
X13072444Y-17026960D01*
X13072444Y-17026960D02*
X13053396Y-17036484D01*
X13053396Y-17036484D02*
X12996253Y-17036484D01*
X12996253Y-17036484D02*
X12977206Y-17026960D01*
X12977206Y-17026960D02*
X12967682Y-17017436D01*
X13272444Y-16836484D02*
X13177206Y-16836484D01*
X13177206Y-16836484D02*
X13167682Y-16931722D01*
X13167682Y-16931722D02*
X13177206Y-16922198D01*
X13177206Y-16922198D02*
X13196253Y-16912674D01*
X13196253Y-16912674D02*
X13243872Y-16912674D01*
X13243872Y-16912674D02*
X13262920Y-16922198D01*
X13262920Y-16922198D02*
X13272444Y-16931722D01*
X13272444Y-16931722D02*
X13281967Y-16950770D01*
X13281967Y-16950770D02*
X13281967Y-16998389D01*
X13281967Y-16998389D02*
X13272444Y-17017436D01*
X13272444Y-17017436D02*
X13262920Y-17026960D01*
X13262920Y-17026960D02*
X13243872Y-17036484D01*
X13243872Y-17036484D02*
X13196253Y-17036484D01*
X13196253Y-17036484D02*
X13177206Y-17026960D01*
X13177206Y-17026960D02*
X13167682Y-17017436D01*
X13453396Y-16903150D02*
X13453396Y-17036484D01*
X13405777Y-16826960D02*
X13358158Y-16969817D01*
X13358158Y-16969817D02*
X13481967Y-16969817D01*
X13548634Y-16836484D02*
X13548634Y-16874579D01*
X13624825Y-16836484D02*
X13624825Y-16874579D01*
X13920063Y-17112674D02*
X13910539Y-17103150D01*
X13910539Y-17103150D02*
X13891491Y-17074579D01*
X13891491Y-17074579D02*
X13881968Y-17055531D01*
X13881968Y-17055531D02*
X13872444Y-17026960D01*
X13872444Y-17026960D02*
X13862920Y-16979341D01*
X13862920Y-16979341D02*
X13862920Y-16941246D01*
X13862920Y-16941246D02*
X13872444Y-16893627D01*
X13872444Y-16893627D02*
X13881968Y-16865055D01*
X13881968Y-16865055D02*
X13891491Y-16846008D01*
X13891491Y-16846008D02*
X13910539Y-16817436D01*
X13910539Y-16817436D02*
X13920063Y-16807912D01*
X14024825Y-16922198D02*
X14005777Y-16912674D01*
X14005777Y-16912674D02*
X13996253Y-16903150D01*
X13996253Y-16903150D02*
X13986729Y-16884103D01*
X13986729Y-16884103D02*
X13986729Y-16874579D01*
X13986729Y-16874579D02*
X13996253Y-16855531D01*
X13996253Y-16855531D02*
X14005777Y-16846008D01*
X14005777Y-16846008D02*
X14024825Y-16836484D01*
X14024825Y-16836484D02*
X14062920Y-16836484D01*
X14062920Y-16836484D02*
X14081968Y-16846008D01*
X14081968Y-16846008D02*
X14091491Y-16855531D01*
X14091491Y-16855531D02*
X14101015Y-16874579D01*
X14101015Y-16874579D02*
X14101015Y-16884103D01*
X14101015Y-16884103D02*
X14091491Y-16903150D01*
X14091491Y-16903150D02*
X14081968Y-16912674D01*
X14081968Y-16912674D02*
X14062920Y-16922198D01*
X14062920Y-16922198D02*
X14024825Y-16922198D01*
X14024825Y-16922198D02*
X14005777Y-16931722D01*
X14005777Y-16931722D02*
X13996253Y-16941246D01*
X13996253Y-16941246D02*
X13986729Y-16960293D01*
X13986729Y-16960293D02*
X13986729Y-16998389D01*
X13986729Y-16998389D02*
X13996253Y-17017436D01*
X13996253Y-17017436D02*
X14005777Y-17026960D01*
X14005777Y-17026960D02*
X14024825Y-17036484D01*
X14024825Y-17036484D02*
X14062920Y-17036484D01*
X14062920Y-17036484D02*
X14081968Y-17026960D01*
X14081968Y-17026960D02*
X14091491Y-17017436D01*
X14091491Y-17017436D02*
X14101015Y-16998389D01*
X14101015Y-16998389D02*
X14101015Y-16960293D01*
X14101015Y-16960293D02*
X14091491Y-16941246D01*
X14091491Y-16941246D02*
X14081968Y-16931722D01*
X14081968Y-16931722D02*
X14062920Y-16922198D01*
X14339110Y-17036484D02*
X14339110Y-16836484D01*
X14424825Y-17036484D02*
X14424825Y-16931722D01*
X14424825Y-16931722D02*
X14415301Y-16912674D01*
X14415301Y-16912674D02*
X14396253Y-16903150D01*
X14396253Y-16903150D02*
X14367682Y-16903150D01*
X14367682Y-16903150D02*
X14348634Y-16912674D01*
X14348634Y-16912674D02*
X14339110Y-16922198D01*
X14548634Y-17036484D02*
X14529587Y-17026960D01*
X14529587Y-17026960D02*
X14520063Y-17017436D01*
X14520063Y-17017436D02*
X14510539Y-16998389D01*
X14510539Y-16998389D02*
X14510539Y-16941246D01*
X14510539Y-16941246D02*
X14520063Y-16922198D01*
X14520063Y-16922198D02*
X14529587Y-16912674D01*
X14529587Y-16912674D02*
X14548634Y-16903150D01*
X14548634Y-16903150D02*
X14577206Y-16903150D01*
X14577206Y-16903150D02*
X14596253Y-16912674D01*
X14596253Y-16912674D02*
X14605777Y-16922198D01*
X14605777Y-16922198D02*
X14615301Y-16941246D01*
X14615301Y-16941246D02*
X14615301Y-16998389D01*
X14615301Y-16998389D02*
X14605777Y-17017436D01*
X14605777Y-17017436D02*
X14596253Y-17026960D01*
X14596253Y-17026960D02*
X14577206Y-17036484D01*
X14577206Y-17036484D02*
X14548634Y-17036484D01*
X14729587Y-17036484D02*
X14710539Y-17026960D01*
X14710539Y-17026960D02*
X14701015Y-17007912D01*
X14701015Y-17007912D02*
X14701015Y-16836484D01*
X14881968Y-17026960D02*
X14862920Y-17036484D01*
X14862920Y-17036484D02*
X14824825Y-17036484D01*
X14824825Y-17036484D02*
X14805777Y-17026960D01*
X14805777Y-17026960D02*
X14796253Y-17007912D01*
X14796253Y-17007912D02*
X14796253Y-16931722D01*
X14796253Y-16931722D02*
X14805777Y-16912674D01*
X14805777Y-16912674D02*
X14824825Y-16903150D01*
X14824825Y-16903150D02*
X14862920Y-16903150D01*
X14862920Y-16903150D02*
X14881968Y-16912674D01*
X14881968Y-16912674D02*
X14891491Y-16931722D01*
X14891491Y-16931722D02*
X14891491Y-16950770D01*
X14891491Y-16950770D02*
X14796253Y-16969817D01*
X14967682Y-17026960D02*
X14986730Y-17036484D01*
X14986730Y-17036484D02*
X15024825Y-17036484D01*
X15024825Y-17036484D02*
X15043872Y-17026960D01*
X15043872Y-17026960D02*
X15053396Y-17007912D01*
X15053396Y-17007912D02*
X15053396Y-16998389D01*
X15053396Y-16998389D02*
X15043872Y-16979341D01*
X15043872Y-16979341D02*
X15024825Y-16969817D01*
X15024825Y-16969817D02*
X14996253Y-16969817D01*
X14996253Y-16969817D02*
X14977206Y-16960293D01*
X14977206Y-16960293D02*
X14967682Y-16941246D01*
X14967682Y-16941246D02*
X14967682Y-16931722D01*
X14967682Y-16931722D02*
X14977206Y-16912674D01*
X14977206Y-16912674D02*
X14996253Y-16903150D01*
X14996253Y-16903150D02*
X15024825Y-16903150D01*
X15024825Y-16903150D02*
X15043872Y-16912674D01*
X15120063Y-17112674D02*
X15129587Y-17103150D01*
X15129587Y-17103150D02*
X15148634Y-17074579D01*
X15148634Y-17074579D02*
X15158158Y-17055531D01*
X15158158Y-17055531D02*
X15167682Y-17026960D01*
X15167682Y-17026960D02*
X15177206Y-16979341D01*
X15177206Y-16979341D02*
X15177206Y-16941246D01*
X15177206Y-16941246D02*
X15167682Y-16893627D01*
X15167682Y-16893627D02*
X15158158Y-16865055D01*
X15158158Y-16865055D02*
X15148634Y-16846008D01*
X15148634Y-16846008D02*
X15129587Y-16817436D01*
X15129587Y-16817436D02*
X15120063Y-16807912D01*
D10*
X10345000Y-17209000D02*
G75*
G02*
X10245000Y-17209000I-50000J0D01*
G01*
X10245000Y-17209000D02*
G75*
G02*
X10345000Y-17209000I50000J0D01*
G01*
D11*
X10710539Y-17300484D02*
X10596253Y-17300484D01*
X10653396Y-17300484D02*
X10653396Y-17100484D01*
X10653396Y-17100484D02*
X10634348Y-17129055D01*
X10634348Y-17129055D02*
X10615301Y-17148103D01*
X10615301Y-17148103D02*
X10596253Y-17157627D01*
X10796253Y-17281436D02*
X10805777Y-17290960D01*
X10805777Y-17290960D02*
X10796253Y-17300484D01*
X10796253Y-17300484D02*
X10786729Y-17290960D01*
X10786729Y-17290960D02*
X10796253Y-17281436D01*
X10796253Y-17281436D02*
X10796253Y-17300484D01*
X10929586Y-17100484D02*
X10948634Y-17100484D01*
X10948634Y-17100484D02*
X10967682Y-17110008D01*
X10967682Y-17110008D02*
X10977205Y-17119531D01*
X10977205Y-17119531D02*
X10986729Y-17138579D01*
X10986729Y-17138579D02*
X10996253Y-17176674D01*
X10996253Y-17176674D02*
X10996253Y-17224293D01*
X10996253Y-17224293D02*
X10986729Y-17262389D01*
X10986729Y-17262389D02*
X10977205Y-17281436D01*
X10977205Y-17281436D02*
X10967682Y-17290960D01*
X10967682Y-17290960D02*
X10948634Y-17300484D01*
X10948634Y-17300484D02*
X10929586Y-17300484D01*
X10929586Y-17300484D02*
X10910539Y-17290960D01*
X10910539Y-17290960D02*
X10901015Y-17281436D01*
X10901015Y-17281436D02*
X10891491Y-17262389D01*
X10891491Y-17262389D02*
X10881967Y-17224293D01*
X10881967Y-17224293D02*
X10881967Y-17176674D01*
X10881967Y-17176674D02*
X10891491Y-17138579D01*
X10891491Y-17138579D02*
X10901015Y-17119531D01*
X10901015Y-17119531D02*
X10910539Y-17110008D01*
X10910539Y-17110008D02*
X10929586Y-17100484D01*
X11120063Y-17100484D02*
X11139110Y-17100484D01*
X11139110Y-17100484D02*
X11158158Y-17110008D01*
X11158158Y-17110008D02*
X11167682Y-17119531D01*
X11167682Y-17119531D02*
X11177205Y-17138579D01*
X11177205Y-17138579D02*
X11186729Y-17176674D01*
X11186729Y-17176674D02*
X11186729Y-17224293D01*
X11186729Y-17224293D02*
X11177205Y-17262389D01*
X11177205Y-17262389D02*
X11167682Y-17281436D01*
X11167682Y-17281436D02*
X11158158Y-17290960D01*
X11158158Y-17290960D02*
X11139110Y-17300484D01*
X11139110Y-17300484D02*
X11120063Y-17300484D01*
X11120063Y-17300484D02*
X11101015Y-17290960D01*
X11101015Y-17290960D02*
X11091491Y-17281436D01*
X11091491Y-17281436D02*
X11081967Y-17262389D01*
X11081967Y-17262389D02*
X11072444Y-17224293D01*
X11072444Y-17224293D02*
X11072444Y-17176674D01*
X11072444Y-17176674D02*
X11081967Y-17138579D01*
X11081967Y-17138579D02*
X11091491Y-17119531D01*
X11091491Y-17119531D02*
X11101015Y-17110008D01*
X11101015Y-17110008D02*
X11120063Y-17100484D01*
X11310539Y-17100484D02*
X11329586Y-17100484D01*
X11329586Y-17100484D02*
X11348634Y-17110008D01*
X11348634Y-17110008D02*
X11358158Y-17119531D01*
X11358158Y-17119531D02*
X11367682Y-17138579D01*
X11367682Y-17138579D02*
X11377205Y-17176674D01*
X11377205Y-17176674D02*
X11377205Y-17224293D01*
X11377205Y-17224293D02*
X11367682Y-17262389D01*
X11367682Y-17262389D02*
X11358158Y-17281436D01*
X11358158Y-17281436D02*
X11348634Y-17290960D01*
X11348634Y-17290960D02*
X11329586Y-17300484D01*
X11329586Y-17300484D02*
X11310539Y-17300484D01*
X11310539Y-17300484D02*
X11291491Y-17290960D01*
X11291491Y-17290960D02*
X11281967Y-17281436D01*
X11281967Y-17281436D02*
X11272443Y-17262389D01*
X11272443Y-17262389D02*
X11262920Y-17224293D01*
X11262920Y-17224293D02*
X11262920Y-17176674D01*
X11262920Y-17176674D02*
X11272443Y-17138579D01*
X11272443Y-17138579D02*
X11281967Y-17119531D01*
X11281967Y-17119531D02*
X11291491Y-17110008D01*
X11291491Y-17110008D02*
X11310539Y-17100484D01*
X11462920Y-17300484D02*
X11462920Y-17167150D01*
X11462920Y-17186198D02*
X11472443Y-17176674D01*
X11472443Y-17176674D02*
X11491491Y-17167150D01*
X11491491Y-17167150D02*
X11520063Y-17167150D01*
X11520063Y-17167150D02*
X11539110Y-17176674D01*
X11539110Y-17176674D02*
X11548634Y-17195722D01*
X11548634Y-17195722D02*
X11548634Y-17300484D01*
X11548634Y-17195722D02*
X11558158Y-17176674D01*
X11558158Y-17176674D02*
X11577205Y-17167150D01*
X11577205Y-17167150D02*
X11605777Y-17167150D01*
X11605777Y-17167150D02*
X11624824Y-17176674D01*
X11624824Y-17176674D02*
X11634348Y-17195722D01*
X11634348Y-17195722D02*
X11634348Y-17300484D01*
X11729586Y-17300484D02*
X11729586Y-17167150D01*
X11729586Y-17186198D02*
X11739110Y-17176674D01*
X11739110Y-17176674D02*
X11758158Y-17167150D01*
X11758158Y-17167150D02*
X11786729Y-17167150D01*
X11786729Y-17167150D02*
X11805777Y-17176674D01*
X11805777Y-17176674D02*
X11815301Y-17195722D01*
X11815301Y-17195722D02*
X11815301Y-17300484D01*
X11815301Y-17195722D02*
X11824824Y-17176674D01*
X11824824Y-17176674D02*
X11843872Y-17167150D01*
X11843872Y-17167150D02*
X11872443Y-17167150D01*
X11872443Y-17167150D02*
X11891491Y-17176674D01*
X11891491Y-17176674D02*
X11901015Y-17195722D01*
X11901015Y-17195722D02*
X11901015Y-17300484D01*
X12291491Y-17090960D02*
X12120063Y-17348103D01*
X12548634Y-17100484D02*
X12567682Y-17100484D01*
X12567682Y-17100484D02*
X12586729Y-17110008D01*
X12586729Y-17110008D02*
X12596253Y-17119531D01*
X12596253Y-17119531D02*
X12605777Y-17138579D01*
X12605777Y-17138579D02*
X12615301Y-17176674D01*
X12615301Y-17176674D02*
X12615301Y-17224293D01*
X12615301Y-17224293D02*
X12605777Y-17262389D01*
X12605777Y-17262389D02*
X12596253Y-17281436D01*
X12596253Y-17281436D02*
X12586729Y-17290960D01*
X12586729Y-17290960D02*
X12567682Y-17300484D01*
X12567682Y-17300484D02*
X12548634Y-17300484D01*
X12548634Y-17300484D02*
X12529586Y-17290960D01*
X12529586Y-17290960D02*
X12520063Y-17281436D01*
X12520063Y-17281436D02*
X12510539Y-17262389D01*
X12510539Y-17262389D02*
X12501015Y-17224293D01*
X12501015Y-17224293D02*
X12501015Y-17176674D01*
X12501015Y-17176674D02*
X12510539Y-17138579D01*
X12510539Y-17138579D02*
X12520063Y-17119531D01*
X12520063Y-17119531D02*
X12529586Y-17110008D01*
X12529586Y-17110008D02*
X12548634Y-17100484D01*
X12701015Y-17281436D02*
X12710539Y-17290960D01*
X12710539Y-17290960D02*
X12701015Y-17300484D01*
X12701015Y-17300484D02*
X12691491Y-17290960D01*
X12691491Y-17290960D02*
X12701015Y-17281436D01*
X12701015Y-17281436D02*
X12701015Y-17300484D01*
X12834348Y-17100484D02*
X12853396Y-17100484D01*
X12853396Y-17100484D02*
X12872444Y-17110008D01*
X12872444Y-17110008D02*
X12881967Y-17119531D01*
X12881967Y-17119531D02*
X12891491Y-17138579D01*
X12891491Y-17138579D02*
X12901015Y-17176674D01*
X12901015Y-17176674D02*
X12901015Y-17224293D01*
X12901015Y-17224293D02*
X12891491Y-17262389D01*
X12891491Y-17262389D02*
X12881967Y-17281436D01*
X12881967Y-17281436D02*
X12872444Y-17290960D01*
X12872444Y-17290960D02*
X12853396Y-17300484D01*
X12853396Y-17300484D02*
X12834348Y-17300484D01*
X12834348Y-17300484D02*
X12815301Y-17290960D01*
X12815301Y-17290960D02*
X12805777Y-17281436D01*
X12805777Y-17281436D02*
X12796253Y-17262389D01*
X12796253Y-17262389D02*
X12786729Y-17224293D01*
X12786729Y-17224293D02*
X12786729Y-17176674D01*
X12786729Y-17176674D02*
X12796253Y-17138579D01*
X12796253Y-17138579D02*
X12805777Y-17119531D01*
X12805777Y-17119531D02*
X12815301Y-17110008D01*
X12815301Y-17110008D02*
X12834348Y-17100484D01*
X12967682Y-17100484D02*
X13091491Y-17100484D01*
X13091491Y-17100484D02*
X13024825Y-17176674D01*
X13024825Y-17176674D02*
X13053396Y-17176674D01*
X13053396Y-17176674D02*
X13072444Y-17186198D01*
X13072444Y-17186198D02*
X13081967Y-17195722D01*
X13081967Y-17195722D02*
X13091491Y-17214770D01*
X13091491Y-17214770D02*
X13091491Y-17262389D01*
X13091491Y-17262389D02*
X13081967Y-17281436D01*
X13081967Y-17281436D02*
X13072444Y-17290960D01*
X13072444Y-17290960D02*
X13053396Y-17300484D01*
X13053396Y-17300484D02*
X12996253Y-17300484D01*
X12996253Y-17300484D02*
X12977206Y-17290960D01*
X12977206Y-17290960D02*
X12967682Y-17281436D01*
X13186729Y-17300484D02*
X13224825Y-17300484D01*
X13224825Y-17300484D02*
X13243872Y-17290960D01*
X13243872Y-17290960D02*
X13253396Y-17281436D01*
X13253396Y-17281436D02*
X13272444Y-17252865D01*
X13272444Y-17252865D02*
X13281967Y-17214770D01*
X13281967Y-17214770D02*
X13281967Y-17138579D01*
X13281967Y-17138579D02*
X13272444Y-17119531D01*
X13272444Y-17119531D02*
X13262920Y-17110008D01*
X13262920Y-17110008D02*
X13243872Y-17100484D01*
X13243872Y-17100484D02*
X13205777Y-17100484D01*
X13205777Y-17100484D02*
X13186729Y-17110008D01*
X13186729Y-17110008D02*
X13177206Y-17119531D01*
X13177206Y-17119531D02*
X13167682Y-17138579D01*
X13167682Y-17138579D02*
X13167682Y-17186198D01*
X13167682Y-17186198D02*
X13177206Y-17205246D01*
X13177206Y-17205246D02*
X13186729Y-17214770D01*
X13186729Y-17214770D02*
X13205777Y-17224293D01*
X13205777Y-17224293D02*
X13243872Y-17224293D01*
X13243872Y-17224293D02*
X13262920Y-17214770D01*
X13262920Y-17214770D02*
X13272444Y-17205246D01*
X13272444Y-17205246D02*
X13281967Y-17186198D01*
X13453396Y-17167150D02*
X13453396Y-17300484D01*
X13405777Y-17090960D02*
X13358158Y-17233817D01*
X13358158Y-17233817D02*
X13481967Y-17233817D01*
X13548634Y-17100484D02*
X13548634Y-17138579D01*
X13624825Y-17100484D02*
X13624825Y-17138579D01*
X13920063Y-17376674D02*
X13910539Y-17367150D01*
X13910539Y-17367150D02*
X13891491Y-17338579D01*
X13891491Y-17338579D02*
X13881968Y-17319531D01*
X13881968Y-17319531D02*
X13872444Y-17290960D01*
X13872444Y-17290960D02*
X13862920Y-17243341D01*
X13862920Y-17243341D02*
X13862920Y-17205246D01*
X13862920Y-17205246D02*
X13872444Y-17157627D01*
X13872444Y-17157627D02*
X13881968Y-17129055D01*
X13881968Y-17129055D02*
X13891491Y-17110008D01*
X13891491Y-17110008D02*
X13910539Y-17081436D01*
X13910539Y-17081436D02*
X13920063Y-17071912D01*
X13986729Y-17119531D02*
X13996253Y-17110008D01*
X13996253Y-17110008D02*
X14015301Y-17100484D01*
X14015301Y-17100484D02*
X14062920Y-17100484D01*
X14062920Y-17100484D02*
X14081968Y-17110008D01*
X14081968Y-17110008D02*
X14091491Y-17119531D01*
X14091491Y-17119531D02*
X14101015Y-17138579D01*
X14101015Y-17138579D02*
X14101015Y-17157627D01*
X14101015Y-17157627D02*
X14091491Y-17186198D01*
X14091491Y-17186198D02*
X13977206Y-17300484D01*
X13977206Y-17300484D02*
X14101015Y-17300484D01*
X14196253Y-17300484D02*
X14234348Y-17300484D01*
X14234348Y-17300484D02*
X14253396Y-17290960D01*
X14253396Y-17290960D02*
X14262920Y-17281436D01*
X14262920Y-17281436D02*
X14281968Y-17252865D01*
X14281968Y-17252865D02*
X14291491Y-17214770D01*
X14291491Y-17214770D02*
X14291491Y-17138579D01*
X14291491Y-17138579D02*
X14281968Y-17119531D01*
X14281968Y-17119531D02*
X14272444Y-17110008D01*
X14272444Y-17110008D02*
X14253396Y-17100484D01*
X14253396Y-17100484D02*
X14215301Y-17100484D01*
X14215301Y-17100484D02*
X14196253Y-17110008D01*
X14196253Y-17110008D02*
X14186729Y-17119531D01*
X14186729Y-17119531D02*
X14177206Y-17138579D01*
X14177206Y-17138579D02*
X14177206Y-17186198D01*
X14177206Y-17186198D02*
X14186729Y-17205246D01*
X14186729Y-17205246D02*
X14196253Y-17214770D01*
X14196253Y-17214770D02*
X14215301Y-17224293D01*
X14215301Y-17224293D02*
X14253396Y-17224293D01*
X14253396Y-17224293D02*
X14272444Y-17214770D01*
X14272444Y-17214770D02*
X14281968Y-17205246D01*
X14281968Y-17205246D02*
X14291491Y-17186198D01*
X14529587Y-17300484D02*
X14529587Y-17100484D01*
X14615301Y-17300484D02*
X14615301Y-17195722D01*
X14615301Y-17195722D02*
X14605777Y-17176674D01*
X14605777Y-17176674D02*
X14586730Y-17167150D01*
X14586730Y-17167150D02*
X14558158Y-17167150D01*
X14558158Y-17167150D02*
X14539110Y-17176674D01*
X14539110Y-17176674D02*
X14529587Y-17186198D01*
X14739110Y-17300484D02*
X14720063Y-17290960D01*
X14720063Y-17290960D02*
X14710539Y-17281436D01*
X14710539Y-17281436D02*
X14701015Y-17262389D01*
X14701015Y-17262389D02*
X14701015Y-17205246D01*
X14701015Y-17205246D02*
X14710539Y-17186198D01*
X14710539Y-17186198D02*
X14720063Y-17176674D01*
X14720063Y-17176674D02*
X14739110Y-17167150D01*
X14739110Y-17167150D02*
X14767682Y-17167150D01*
X14767682Y-17167150D02*
X14786730Y-17176674D01*
X14786730Y-17176674D02*
X14796253Y-17186198D01*
X14796253Y-17186198D02*
X14805777Y-17205246D01*
X14805777Y-17205246D02*
X14805777Y-17262389D01*
X14805777Y-17262389D02*
X14796253Y-17281436D01*
X14796253Y-17281436D02*
X14786730Y-17290960D01*
X14786730Y-17290960D02*
X14767682Y-17300484D01*
X14767682Y-17300484D02*
X14739110Y-17300484D01*
X14920063Y-17300484D02*
X14901015Y-17290960D01*
X14901015Y-17290960D02*
X14891491Y-17271912D01*
X14891491Y-17271912D02*
X14891491Y-17100484D01*
X15072444Y-17290960D02*
X15053396Y-17300484D01*
X15053396Y-17300484D02*
X15015301Y-17300484D01*
X15015301Y-17300484D02*
X14996253Y-17290960D01*
X14996253Y-17290960D02*
X14986730Y-17271912D01*
X14986730Y-17271912D02*
X14986730Y-17195722D01*
X14986730Y-17195722D02*
X14996253Y-17176674D01*
X14996253Y-17176674D02*
X15015301Y-17167150D01*
X15015301Y-17167150D02*
X15053396Y-17167150D01*
X15053396Y-17167150D02*
X15072444Y-17176674D01*
X15072444Y-17176674D02*
X15081968Y-17195722D01*
X15081968Y-17195722D02*
X15081968Y-17214770D01*
X15081968Y-17214770D02*
X14986730Y-17233817D01*
X15158158Y-17290960D02*
X15177206Y-17300484D01*
X15177206Y-17300484D02*
X15215301Y-17300484D01*
X15215301Y-17300484D02*
X15234349Y-17290960D01*
X15234349Y-17290960D02*
X15243872Y-17271912D01*
X15243872Y-17271912D02*
X15243872Y-17262389D01*
X15243872Y-17262389D02*
X15234349Y-17243341D01*
X15234349Y-17243341D02*
X15215301Y-17233817D01*
X15215301Y-17233817D02*
X15186730Y-17233817D01*
X15186730Y-17233817D02*
X15167682Y-17224293D01*
X15167682Y-17224293D02*
X15158158Y-17205246D01*
X15158158Y-17205246D02*
X15158158Y-17195722D01*
X15158158Y-17195722D02*
X15167682Y-17176674D01*
X15167682Y-17176674D02*
X15186730Y-17167150D01*
X15186730Y-17167150D02*
X15215301Y-17167150D01*
X15215301Y-17167150D02*
X15234349Y-17176674D01*
X15310539Y-17376674D02*
X15320063Y-17367150D01*
X15320063Y-17367150D02*
X15339111Y-17338579D01*
X15339111Y-17338579D02*
X15348634Y-17319531D01*
X15348634Y-17319531D02*
X15358158Y-17290960D01*
X15358158Y-17290960D02*
X15367682Y-17243341D01*
X15367682Y-17243341D02*
X15367682Y-17205246D01*
X15367682Y-17205246D02*
X15358158Y-17157627D01*
X15358158Y-17157627D02*
X15348634Y-17129055D01*
X15348634Y-17129055D02*
X15339111Y-17110008D01*
X15339111Y-17110008D02*
X15320063Y-17081436D01*
X15320063Y-17081436D02*
X15310539Y-17071912D01*
D10*
X10295000Y-17423000D02*
X10295000Y-17523000D01*
X10245000Y-17473000D02*
X10345000Y-17473000D01*
D11*
X10710539Y-17564484D02*
X10596253Y-17564484D01*
X10653396Y-17564484D02*
X10653396Y-17364484D01*
X10653396Y-17364484D02*
X10634348Y-17393055D01*
X10634348Y-17393055D02*
X10615301Y-17412103D01*
X10615301Y-17412103D02*
X10596253Y-17421627D01*
X10796253Y-17545436D02*
X10805777Y-17554960D01*
X10805777Y-17554960D02*
X10796253Y-17564484D01*
X10796253Y-17564484D02*
X10786729Y-17554960D01*
X10786729Y-17554960D02*
X10796253Y-17545436D01*
X10796253Y-17545436D02*
X10796253Y-17564484D01*
X10929586Y-17364484D02*
X10948634Y-17364484D01*
X10948634Y-17364484D02*
X10967682Y-17374008D01*
X10967682Y-17374008D02*
X10977205Y-17383531D01*
X10977205Y-17383531D02*
X10986729Y-17402579D01*
X10986729Y-17402579D02*
X10996253Y-17440674D01*
X10996253Y-17440674D02*
X10996253Y-17488293D01*
X10996253Y-17488293D02*
X10986729Y-17526389D01*
X10986729Y-17526389D02*
X10977205Y-17545436D01*
X10977205Y-17545436D02*
X10967682Y-17554960D01*
X10967682Y-17554960D02*
X10948634Y-17564484D01*
X10948634Y-17564484D02*
X10929586Y-17564484D01*
X10929586Y-17564484D02*
X10910539Y-17554960D01*
X10910539Y-17554960D02*
X10901015Y-17545436D01*
X10901015Y-17545436D02*
X10891491Y-17526389D01*
X10891491Y-17526389D02*
X10881967Y-17488293D01*
X10881967Y-17488293D02*
X10881967Y-17440674D01*
X10881967Y-17440674D02*
X10891491Y-17402579D01*
X10891491Y-17402579D02*
X10901015Y-17383531D01*
X10901015Y-17383531D02*
X10910539Y-17374008D01*
X10910539Y-17374008D02*
X10929586Y-17364484D01*
X11120063Y-17364484D02*
X11139110Y-17364484D01*
X11139110Y-17364484D02*
X11158158Y-17374008D01*
X11158158Y-17374008D02*
X11167682Y-17383531D01*
X11167682Y-17383531D02*
X11177205Y-17402579D01*
X11177205Y-17402579D02*
X11186729Y-17440674D01*
X11186729Y-17440674D02*
X11186729Y-17488293D01*
X11186729Y-17488293D02*
X11177205Y-17526389D01*
X11177205Y-17526389D02*
X11167682Y-17545436D01*
X11167682Y-17545436D02*
X11158158Y-17554960D01*
X11158158Y-17554960D02*
X11139110Y-17564484D01*
X11139110Y-17564484D02*
X11120063Y-17564484D01*
X11120063Y-17564484D02*
X11101015Y-17554960D01*
X11101015Y-17554960D02*
X11091491Y-17545436D01*
X11091491Y-17545436D02*
X11081967Y-17526389D01*
X11081967Y-17526389D02*
X11072444Y-17488293D01*
X11072444Y-17488293D02*
X11072444Y-17440674D01*
X11072444Y-17440674D02*
X11081967Y-17402579D01*
X11081967Y-17402579D02*
X11091491Y-17383531D01*
X11091491Y-17383531D02*
X11101015Y-17374008D01*
X11101015Y-17374008D02*
X11120063Y-17364484D01*
X11310539Y-17364484D02*
X11329586Y-17364484D01*
X11329586Y-17364484D02*
X11348634Y-17374008D01*
X11348634Y-17374008D02*
X11358158Y-17383531D01*
X11358158Y-17383531D02*
X11367682Y-17402579D01*
X11367682Y-17402579D02*
X11377205Y-17440674D01*
X11377205Y-17440674D02*
X11377205Y-17488293D01*
X11377205Y-17488293D02*
X11367682Y-17526389D01*
X11367682Y-17526389D02*
X11358158Y-17545436D01*
X11358158Y-17545436D02*
X11348634Y-17554960D01*
X11348634Y-17554960D02*
X11329586Y-17564484D01*
X11329586Y-17564484D02*
X11310539Y-17564484D01*
X11310539Y-17564484D02*
X11291491Y-17554960D01*
X11291491Y-17554960D02*
X11281967Y-17545436D01*
X11281967Y-17545436D02*
X11272443Y-17526389D01*
X11272443Y-17526389D02*
X11262920Y-17488293D01*
X11262920Y-17488293D02*
X11262920Y-17440674D01*
X11262920Y-17440674D02*
X11272443Y-17402579D01*
X11272443Y-17402579D02*
X11281967Y-17383531D01*
X11281967Y-17383531D02*
X11291491Y-17374008D01*
X11291491Y-17374008D02*
X11310539Y-17364484D01*
X11462920Y-17564484D02*
X11462920Y-17431150D01*
X11462920Y-17450198D02*
X11472443Y-17440674D01*
X11472443Y-17440674D02*
X11491491Y-17431150D01*
X11491491Y-17431150D02*
X11520063Y-17431150D01*
X11520063Y-17431150D02*
X11539110Y-17440674D01*
X11539110Y-17440674D02*
X11548634Y-17459722D01*
X11548634Y-17459722D02*
X11548634Y-17564484D01*
X11548634Y-17459722D02*
X11558158Y-17440674D01*
X11558158Y-17440674D02*
X11577205Y-17431150D01*
X11577205Y-17431150D02*
X11605777Y-17431150D01*
X11605777Y-17431150D02*
X11624824Y-17440674D01*
X11624824Y-17440674D02*
X11634348Y-17459722D01*
X11634348Y-17459722D02*
X11634348Y-17564484D01*
X11729586Y-17564484D02*
X11729586Y-17431150D01*
X11729586Y-17450198D02*
X11739110Y-17440674D01*
X11739110Y-17440674D02*
X11758158Y-17431150D01*
X11758158Y-17431150D02*
X11786729Y-17431150D01*
X11786729Y-17431150D02*
X11805777Y-17440674D01*
X11805777Y-17440674D02*
X11815301Y-17459722D01*
X11815301Y-17459722D02*
X11815301Y-17564484D01*
X11815301Y-17459722D02*
X11824824Y-17440674D01*
X11824824Y-17440674D02*
X11843872Y-17431150D01*
X11843872Y-17431150D02*
X11872443Y-17431150D01*
X11872443Y-17431150D02*
X11891491Y-17440674D01*
X11891491Y-17440674D02*
X11901015Y-17459722D01*
X11901015Y-17459722D02*
X11901015Y-17564484D01*
X12291491Y-17354960D02*
X12120063Y-17612103D01*
X12548634Y-17364484D02*
X12567682Y-17364484D01*
X12567682Y-17364484D02*
X12586729Y-17374008D01*
X12586729Y-17374008D02*
X12596253Y-17383531D01*
X12596253Y-17383531D02*
X12605777Y-17402579D01*
X12605777Y-17402579D02*
X12615301Y-17440674D01*
X12615301Y-17440674D02*
X12615301Y-17488293D01*
X12615301Y-17488293D02*
X12605777Y-17526389D01*
X12605777Y-17526389D02*
X12596253Y-17545436D01*
X12596253Y-17545436D02*
X12586729Y-17554960D01*
X12586729Y-17554960D02*
X12567682Y-17564484D01*
X12567682Y-17564484D02*
X12548634Y-17564484D01*
X12548634Y-17564484D02*
X12529586Y-17554960D01*
X12529586Y-17554960D02*
X12520063Y-17545436D01*
X12520063Y-17545436D02*
X12510539Y-17526389D01*
X12510539Y-17526389D02*
X12501015Y-17488293D01*
X12501015Y-17488293D02*
X12501015Y-17440674D01*
X12501015Y-17440674D02*
X12510539Y-17402579D01*
X12510539Y-17402579D02*
X12520063Y-17383531D01*
X12520063Y-17383531D02*
X12529586Y-17374008D01*
X12529586Y-17374008D02*
X12548634Y-17364484D01*
X12701015Y-17545436D02*
X12710539Y-17554960D01*
X12710539Y-17554960D02*
X12701015Y-17564484D01*
X12701015Y-17564484D02*
X12691491Y-17554960D01*
X12691491Y-17554960D02*
X12701015Y-17545436D01*
X12701015Y-17545436D02*
X12701015Y-17564484D01*
X12834348Y-17364484D02*
X12853396Y-17364484D01*
X12853396Y-17364484D02*
X12872444Y-17374008D01*
X12872444Y-17374008D02*
X12881967Y-17383531D01*
X12881967Y-17383531D02*
X12891491Y-17402579D01*
X12891491Y-17402579D02*
X12901015Y-17440674D01*
X12901015Y-17440674D02*
X12901015Y-17488293D01*
X12901015Y-17488293D02*
X12891491Y-17526389D01*
X12891491Y-17526389D02*
X12881967Y-17545436D01*
X12881967Y-17545436D02*
X12872444Y-17554960D01*
X12872444Y-17554960D02*
X12853396Y-17564484D01*
X12853396Y-17564484D02*
X12834348Y-17564484D01*
X12834348Y-17564484D02*
X12815301Y-17554960D01*
X12815301Y-17554960D02*
X12805777Y-17545436D01*
X12805777Y-17545436D02*
X12796253Y-17526389D01*
X12796253Y-17526389D02*
X12786729Y-17488293D01*
X12786729Y-17488293D02*
X12786729Y-17440674D01*
X12786729Y-17440674D02*
X12796253Y-17402579D01*
X12796253Y-17402579D02*
X12805777Y-17383531D01*
X12805777Y-17383531D02*
X12815301Y-17374008D01*
X12815301Y-17374008D02*
X12834348Y-17364484D01*
X12967682Y-17364484D02*
X13091491Y-17364484D01*
X13091491Y-17364484D02*
X13024825Y-17440674D01*
X13024825Y-17440674D02*
X13053396Y-17440674D01*
X13053396Y-17440674D02*
X13072444Y-17450198D01*
X13072444Y-17450198D02*
X13081967Y-17459722D01*
X13081967Y-17459722D02*
X13091491Y-17478770D01*
X13091491Y-17478770D02*
X13091491Y-17526389D01*
X13091491Y-17526389D02*
X13081967Y-17545436D01*
X13081967Y-17545436D02*
X13072444Y-17554960D01*
X13072444Y-17554960D02*
X13053396Y-17564484D01*
X13053396Y-17564484D02*
X12996253Y-17564484D01*
X12996253Y-17564484D02*
X12977206Y-17554960D01*
X12977206Y-17554960D02*
X12967682Y-17545436D01*
X13186729Y-17564484D02*
X13224825Y-17564484D01*
X13224825Y-17564484D02*
X13243872Y-17554960D01*
X13243872Y-17554960D02*
X13253396Y-17545436D01*
X13253396Y-17545436D02*
X13272444Y-17516865D01*
X13272444Y-17516865D02*
X13281967Y-17478770D01*
X13281967Y-17478770D02*
X13281967Y-17402579D01*
X13281967Y-17402579D02*
X13272444Y-17383531D01*
X13272444Y-17383531D02*
X13262920Y-17374008D01*
X13262920Y-17374008D02*
X13243872Y-17364484D01*
X13243872Y-17364484D02*
X13205777Y-17364484D01*
X13205777Y-17364484D02*
X13186729Y-17374008D01*
X13186729Y-17374008D02*
X13177206Y-17383531D01*
X13177206Y-17383531D02*
X13167682Y-17402579D01*
X13167682Y-17402579D02*
X13167682Y-17450198D01*
X13167682Y-17450198D02*
X13177206Y-17469246D01*
X13177206Y-17469246D02*
X13186729Y-17478770D01*
X13186729Y-17478770D02*
X13205777Y-17488293D01*
X13205777Y-17488293D02*
X13243872Y-17488293D01*
X13243872Y-17488293D02*
X13262920Y-17478770D01*
X13262920Y-17478770D02*
X13272444Y-17469246D01*
X13272444Y-17469246D02*
X13281967Y-17450198D01*
X13453396Y-17431150D02*
X13453396Y-17564484D01*
X13405777Y-17354960D02*
X13358158Y-17497817D01*
X13358158Y-17497817D02*
X13481967Y-17497817D01*
X13548634Y-17364484D02*
X13548634Y-17402579D01*
X13624825Y-17364484D02*
X13624825Y-17402579D01*
X13920063Y-17640674D02*
X13910539Y-17631150D01*
X13910539Y-17631150D02*
X13891491Y-17602579D01*
X13891491Y-17602579D02*
X13881968Y-17583531D01*
X13881968Y-17583531D02*
X13872444Y-17554960D01*
X13872444Y-17554960D02*
X13862920Y-17507341D01*
X13862920Y-17507341D02*
X13862920Y-17469246D01*
X13862920Y-17469246D02*
X13872444Y-17421627D01*
X13872444Y-17421627D02*
X13881968Y-17393055D01*
X13881968Y-17393055D02*
X13891491Y-17374008D01*
X13891491Y-17374008D02*
X13910539Y-17345436D01*
X13910539Y-17345436D02*
X13920063Y-17335912D01*
X14024825Y-17450198D02*
X14005777Y-17440674D01*
X14005777Y-17440674D02*
X13996253Y-17431150D01*
X13996253Y-17431150D02*
X13986729Y-17412103D01*
X13986729Y-17412103D02*
X13986729Y-17402579D01*
X13986729Y-17402579D02*
X13996253Y-17383531D01*
X13996253Y-17383531D02*
X14005777Y-17374008D01*
X14005777Y-17374008D02*
X14024825Y-17364484D01*
X14024825Y-17364484D02*
X14062920Y-17364484D01*
X14062920Y-17364484D02*
X14081968Y-17374008D01*
X14081968Y-17374008D02*
X14091491Y-17383531D01*
X14091491Y-17383531D02*
X14101015Y-17402579D01*
X14101015Y-17402579D02*
X14101015Y-17412103D01*
X14101015Y-17412103D02*
X14091491Y-17431150D01*
X14091491Y-17431150D02*
X14081968Y-17440674D01*
X14081968Y-17440674D02*
X14062920Y-17450198D01*
X14062920Y-17450198D02*
X14024825Y-17450198D01*
X14024825Y-17450198D02*
X14005777Y-17459722D01*
X14005777Y-17459722D02*
X13996253Y-17469246D01*
X13996253Y-17469246D02*
X13986729Y-17488293D01*
X13986729Y-17488293D02*
X13986729Y-17526389D01*
X13986729Y-17526389D02*
X13996253Y-17545436D01*
X13996253Y-17545436D02*
X14005777Y-17554960D01*
X14005777Y-17554960D02*
X14024825Y-17564484D01*
X14024825Y-17564484D02*
X14062920Y-17564484D01*
X14062920Y-17564484D02*
X14081968Y-17554960D01*
X14081968Y-17554960D02*
X14091491Y-17545436D01*
X14091491Y-17545436D02*
X14101015Y-17526389D01*
X14101015Y-17526389D02*
X14101015Y-17488293D01*
X14101015Y-17488293D02*
X14091491Y-17469246D01*
X14091491Y-17469246D02*
X14081968Y-17459722D01*
X14081968Y-17459722D02*
X14062920Y-17450198D01*
X14339110Y-17564484D02*
X14339110Y-17364484D01*
X14424825Y-17564484D02*
X14424825Y-17459722D01*
X14424825Y-17459722D02*
X14415301Y-17440674D01*
X14415301Y-17440674D02*
X14396253Y-17431150D01*
X14396253Y-17431150D02*
X14367682Y-17431150D01*
X14367682Y-17431150D02*
X14348634Y-17440674D01*
X14348634Y-17440674D02*
X14339110Y-17450198D01*
X14548634Y-17564484D02*
X14529587Y-17554960D01*
X14529587Y-17554960D02*
X14520063Y-17545436D01*
X14520063Y-17545436D02*
X14510539Y-17526389D01*
X14510539Y-17526389D02*
X14510539Y-17469246D01*
X14510539Y-17469246D02*
X14520063Y-17450198D01*
X14520063Y-17450198D02*
X14529587Y-17440674D01*
X14529587Y-17440674D02*
X14548634Y-17431150D01*
X14548634Y-17431150D02*
X14577206Y-17431150D01*
X14577206Y-17431150D02*
X14596253Y-17440674D01*
X14596253Y-17440674D02*
X14605777Y-17450198D01*
X14605777Y-17450198D02*
X14615301Y-17469246D01*
X14615301Y-17469246D02*
X14615301Y-17526389D01*
X14615301Y-17526389D02*
X14605777Y-17545436D01*
X14605777Y-17545436D02*
X14596253Y-17554960D01*
X14596253Y-17554960D02*
X14577206Y-17564484D01*
X14577206Y-17564484D02*
X14548634Y-17564484D01*
X14729587Y-17564484D02*
X14710539Y-17554960D01*
X14710539Y-17554960D02*
X14701015Y-17535912D01*
X14701015Y-17535912D02*
X14701015Y-17364484D01*
X14881968Y-17554960D02*
X14862920Y-17564484D01*
X14862920Y-17564484D02*
X14824825Y-17564484D01*
X14824825Y-17564484D02*
X14805777Y-17554960D01*
X14805777Y-17554960D02*
X14796253Y-17535912D01*
X14796253Y-17535912D02*
X14796253Y-17459722D01*
X14796253Y-17459722D02*
X14805777Y-17440674D01*
X14805777Y-17440674D02*
X14824825Y-17431150D01*
X14824825Y-17431150D02*
X14862920Y-17431150D01*
X14862920Y-17431150D02*
X14881968Y-17440674D01*
X14881968Y-17440674D02*
X14891491Y-17459722D01*
X14891491Y-17459722D02*
X14891491Y-17478770D01*
X14891491Y-17478770D02*
X14796253Y-17497817D01*
X14967682Y-17554960D02*
X14986730Y-17564484D01*
X14986730Y-17564484D02*
X15024825Y-17564484D01*
X15024825Y-17564484D02*
X15043872Y-17554960D01*
X15043872Y-17554960D02*
X15053396Y-17535912D01*
X15053396Y-17535912D02*
X15053396Y-17526389D01*
X15053396Y-17526389D02*
X15043872Y-17507341D01*
X15043872Y-17507341D02*
X15024825Y-17497817D01*
X15024825Y-17497817D02*
X14996253Y-17497817D01*
X14996253Y-17497817D02*
X14977206Y-17488293D01*
X14977206Y-17488293D02*
X14967682Y-17469246D01*
X14967682Y-17469246D02*
X14967682Y-17459722D01*
X14967682Y-17459722D02*
X14977206Y-17440674D01*
X14977206Y-17440674D02*
X14996253Y-17431150D01*
X14996253Y-17431150D02*
X15024825Y-17431150D01*
X15024825Y-17431150D02*
X15043872Y-17440674D01*
X15291492Y-17488293D02*
X15443873Y-17488293D01*
X15367682Y-17564484D02*
X15367682Y-17412103D01*
X15672444Y-17364484D02*
X15796253Y-17364484D01*
X15796253Y-17364484D02*
X15729587Y-17440674D01*
X15729587Y-17440674D02*
X15758158Y-17440674D01*
X15758158Y-17440674D02*
X15777206Y-17450198D01*
X15777206Y-17450198D02*
X15786730Y-17459722D01*
X15786730Y-17459722D02*
X15796253Y-17478770D01*
X15796253Y-17478770D02*
X15796253Y-17526389D01*
X15796253Y-17526389D02*
X15786730Y-17545436D01*
X15786730Y-17545436D02*
X15777206Y-17554960D01*
X15777206Y-17554960D02*
X15758158Y-17564484D01*
X15758158Y-17564484D02*
X15701015Y-17564484D01*
X15701015Y-17564484D02*
X15681968Y-17554960D01*
X15681968Y-17554960D02*
X15672444Y-17545436D01*
X16024825Y-17554960D02*
X16043873Y-17564484D01*
X16043873Y-17564484D02*
X16081968Y-17564484D01*
X16081968Y-17564484D02*
X16101015Y-17554960D01*
X16101015Y-17554960D02*
X16110539Y-17535912D01*
X16110539Y-17535912D02*
X16110539Y-17526389D01*
X16110539Y-17526389D02*
X16101015Y-17507341D01*
X16101015Y-17507341D02*
X16081968Y-17497817D01*
X16081968Y-17497817D02*
X16053396Y-17497817D01*
X16053396Y-17497817D02*
X16034349Y-17488293D01*
X16034349Y-17488293D02*
X16024825Y-17469246D01*
X16024825Y-17469246D02*
X16024825Y-17459722D01*
X16024825Y-17459722D02*
X16034349Y-17440674D01*
X16034349Y-17440674D02*
X16053396Y-17431150D01*
X16053396Y-17431150D02*
X16081968Y-17431150D01*
X16081968Y-17431150D02*
X16101015Y-17440674D01*
X16224825Y-17564484D02*
X16205777Y-17554960D01*
X16205777Y-17554960D02*
X16196254Y-17535912D01*
X16196254Y-17535912D02*
X16196254Y-17364484D01*
X16329587Y-17564484D02*
X16310539Y-17554960D01*
X16310539Y-17554960D02*
X16301015Y-17545436D01*
X16301015Y-17545436D02*
X16291492Y-17526389D01*
X16291492Y-17526389D02*
X16291492Y-17469246D01*
X16291492Y-17469246D02*
X16301015Y-17450198D01*
X16301015Y-17450198D02*
X16310539Y-17440674D01*
X16310539Y-17440674D02*
X16329587Y-17431150D01*
X16329587Y-17431150D02*
X16358158Y-17431150D01*
X16358158Y-17431150D02*
X16377206Y-17440674D01*
X16377206Y-17440674D02*
X16386730Y-17450198D01*
X16386730Y-17450198D02*
X16396254Y-17469246D01*
X16396254Y-17469246D02*
X16396254Y-17526389D01*
X16396254Y-17526389D02*
X16386730Y-17545436D01*
X16386730Y-17545436D02*
X16377206Y-17554960D01*
X16377206Y-17554960D02*
X16358158Y-17564484D01*
X16358158Y-17564484D02*
X16329587Y-17564484D01*
X16453396Y-17431150D02*
X16529587Y-17431150D01*
X16481968Y-17364484D02*
X16481968Y-17535912D01*
X16481968Y-17535912D02*
X16491492Y-17554960D01*
X16491492Y-17554960D02*
X16510539Y-17564484D01*
X16510539Y-17564484D02*
X16529587Y-17564484D01*
X16586730Y-17554960D02*
X16605777Y-17564484D01*
X16605777Y-17564484D02*
X16643873Y-17564484D01*
X16643873Y-17564484D02*
X16662920Y-17554960D01*
X16662920Y-17554960D02*
X16672444Y-17535912D01*
X16672444Y-17535912D02*
X16672444Y-17526389D01*
X16672444Y-17526389D02*
X16662920Y-17507341D01*
X16662920Y-17507341D02*
X16643873Y-17497817D01*
X16643873Y-17497817D02*
X16615301Y-17497817D01*
X16615301Y-17497817D02*
X16596254Y-17488293D01*
X16596254Y-17488293D02*
X16586730Y-17469246D01*
X16586730Y-17469246D02*
X16586730Y-17459722D01*
X16586730Y-17459722D02*
X16596254Y-17440674D01*
X16596254Y-17440674D02*
X16615301Y-17431150D01*
X16615301Y-17431150D02*
X16643873Y-17431150D01*
X16643873Y-17431150D02*
X16662920Y-17440674D01*
X16739111Y-17640674D02*
X16748635Y-17631150D01*
X16748635Y-17631150D02*
X16767682Y-17602579D01*
X16767682Y-17602579D02*
X16777206Y-17583531D01*
X16777206Y-17583531D02*
X16786730Y-17554960D01*
X16786730Y-17554960D02*
X16796254Y-17507341D01*
X16796254Y-17507341D02*
X16796254Y-17469246D01*
X16796254Y-17469246D02*
X16786730Y-17421627D01*
X16786730Y-17421627D02*
X16777206Y-17393055D01*
X16777206Y-17393055D02*
X16767682Y-17374008D01*
X16767682Y-17374008D02*
X16748635Y-17345436D01*
X16748635Y-17345436D02*
X16739111Y-17335912D01*
D12*
X10328891Y-17775891D02*
X10328891Y-17698109D01*
X10251109Y-17698109D01*
X10251109Y-17775891D01*
X10328891Y-17775891D01*
D11*
X10710539Y-17828484D02*
X10596253Y-17828484D01*
X10653396Y-17828484D02*
X10653396Y-17628484D01*
X10653396Y-17628484D02*
X10634348Y-17657055D01*
X10634348Y-17657055D02*
X10615301Y-17676103D01*
X10615301Y-17676103D02*
X10596253Y-17685627D01*
X10796253Y-17809436D02*
X10805777Y-17818960D01*
X10805777Y-17818960D02*
X10796253Y-17828484D01*
X10796253Y-17828484D02*
X10786729Y-17818960D01*
X10786729Y-17818960D02*
X10796253Y-17809436D01*
X10796253Y-17809436D02*
X10796253Y-17828484D01*
X10996253Y-17828484D02*
X10881967Y-17828484D01*
X10939110Y-17828484D02*
X10939110Y-17628484D01*
X10939110Y-17628484D02*
X10920063Y-17657055D01*
X10920063Y-17657055D02*
X10901015Y-17676103D01*
X10901015Y-17676103D02*
X10881967Y-17685627D01*
X11120063Y-17628484D02*
X11139110Y-17628484D01*
X11139110Y-17628484D02*
X11158158Y-17638008D01*
X11158158Y-17638008D02*
X11167682Y-17647531D01*
X11167682Y-17647531D02*
X11177205Y-17666579D01*
X11177205Y-17666579D02*
X11186729Y-17704674D01*
X11186729Y-17704674D02*
X11186729Y-17752293D01*
X11186729Y-17752293D02*
X11177205Y-17790389D01*
X11177205Y-17790389D02*
X11167682Y-17809436D01*
X11167682Y-17809436D02*
X11158158Y-17818960D01*
X11158158Y-17818960D02*
X11139110Y-17828484D01*
X11139110Y-17828484D02*
X11120063Y-17828484D01*
X11120063Y-17828484D02*
X11101015Y-17818960D01*
X11101015Y-17818960D02*
X11091491Y-17809436D01*
X11091491Y-17809436D02*
X11081967Y-17790389D01*
X11081967Y-17790389D02*
X11072444Y-17752293D01*
X11072444Y-17752293D02*
X11072444Y-17704674D01*
X11072444Y-17704674D02*
X11081967Y-17666579D01*
X11081967Y-17666579D02*
X11091491Y-17647531D01*
X11091491Y-17647531D02*
X11101015Y-17638008D01*
X11101015Y-17638008D02*
X11120063Y-17628484D01*
X11310539Y-17628484D02*
X11329586Y-17628484D01*
X11329586Y-17628484D02*
X11348634Y-17638008D01*
X11348634Y-17638008D02*
X11358158Y-17647531D01*
X11358158Y-17647531D02*
X11367682Y-17666579D01*
X11367682Y-17666579D02*
X11377205Y-17704674D01*
X11377205Y-17704674D02*
X11377205Y-17752293D01*
X11377205Y-17752293D02*
X11367682Y-17790389D01*
X11367682Y-17790389D02*
X11358158Y-17809436D01*
X11358158Y-17809436D02*
X11348634Y-17818960D01*
X11348634Y-17818960D02*
X11329586Y-17828484D01*
X11329586Y-17828484D02*
X11310539Y-17828484D01*
X11310539Y-17828484D02*
X11291491Y-17818960D01*
X11291491Y-17818960D02*
X11281967Y-17809436D01*
X11281967Y-17809436D02*
X11272443Y-17790389D01*
X11272443Y-17790389D02*
X11262920Y-17752293D01*
X11262920Y-17752293D02*
X11262920Y-17704674D01*
X11262920Y-17704674D02*
X11272443Y-17666579D01*
X11272443Y-17666579D02*
X11281967Y-17647531D01*
X11281967Y-17647531D02*
X11291491Y-17638008D01*
X11291491Y-17638008D02*
X11310539Y-17628484D01*
X11462920Y-17828484D02*
X11462920Y-17695150D01*
X11462920Y-17714198D02*
X11472443Y-17704674D01*
X11472443Y-17704674D02*
X11491491Y-17695150D01*
X11491491Y-17695150D02*
X11520063Y-17695150D01*
X11520063Y-17695150D02*
X11539110Y-17704674D01*
X11539110Y-17704674D02*
X11548634Y-17723722D01*
X11548634Y-17723722D02*
X11548634Y-17828484D01*
X11548634Y-17723722D02*
X11558158Y-17704674D01*
X11558158Y-17704674D02*
X11577205Y-17695150D01*
X11577205Y-17695150D02*
X11605777Y-17695150D01*
X11605777Y-17695150D02*
X11624824Y-17704674D01*
X11624824Y-17704674D02*
X11634348Y-17723722D01*
X11634348Y-17723722D02*
X11634348Y-17828484D01*
X11729586Y-17828484D02*
X11729586Y-17695150D01*
X11729586Y-17714198D02*
X11739110Y-17704674D01*
X11739110Y-17704674D02*
X11758158Y-17695150D01*
X11758158Y-17695150D02*
X11786729Y-17695150D01*
X11786729Y-17695150D02*
X11805777Y-17704674D01*
X11805777Y-17704674D02*
X11815301Y-17723722D01*
X11815301Y-17723722D02*
X11815301Y-17828484D01*
X11815301Y-17723722D02*
X11824824Y-17704674D01*
X11824824Y-17704674D02*
X11843872Y-17695150D01*
X11843872Y-17695150D02*
X11872443Y-17695150D01*
X11872443Y-17695150D02*
X11891491Y-17704674D01*
X11891491Y-17704674D02*
X11901015Y-17723722D01*
X11901015Y-17723722D02*
X11901015Y-17828484D01*
X12291491Y-17618960D02*
X12120063Y-17876103D01*
X12548634Y-17628484D02*
X12567682Y-17628484D01*
X12567682Y-17628484D02*
X12586729Y-17638008D01*
X12586729Y-17638008D02*
X12596253Y-17647531D01*
X12596253Y-17647531D02*
X12605777Y-17666579D01*
X12605777Y-17666579D02*
X12615301Y-17704674D01*
X12615301Y-17704674D02*
X12615301Y-17752293D01*
X12615301Y-17752293D02*
X12605777Y-17790389D01*
X12605777Y-17790389D02*
X12596253Y-17809436D01*
X12596253Y-17809436D02*
X12586729Y-17818960D01*
X12586729Y-17818960D02*
X12567682Y-17828484D01*
X12567682Y-17828484D02*
X12548634Y-17828484D01*
X12548634Y-17828484D02*
X12529586Y-17818960D01*
X12529586Y-17818960D02*
X12520063Y-17809436D01*
X12520063Y-17809436D02*
X12510539Y-17790389D01*
X12510539Y-17790389D02*
X12501015Y-17752293D01*
X12501015Y-17752293D02*
X12501015Y-17704674D01*
X12501015Y-17704674D02*
X12510539Y-17666579D01*
X12510539Y-17666579D02*
X12520063Y-17647531D01*
X12520063Y-17647531D02*
X12529586Y-17638008D01*
X12529586Y-17638008D02*
X12548634Y-17628484D01*
X12701015Y-17809436D02*
X12710539Y-17818960D01*
X12710539Y-17818960D02*
X12701015Y-17828484D01*
X12701015Y-17828484D02*
X12691491Y-17818960D01*
X12691491Y-17818960D02*
X12701015Y-17809436D01*
X12701015Y-17809436D02*
X12701015Y-17828484D01*
X12834348Y-17628484D02*
X12853396Y-17628484D01*
X12853396Y-17628484D02*
X12872444Y-17638008D01*
X12872444Y-17638008D02*
X12881967Y-17647531D01*
X12881967Y-17647531D02*
X12891491Y-17666579D01*
X12891491Y-17666579D02*
X12901015Y-17704674D01*
X12901015Y-17704674D02*
X12901015Y-17752293D01*
X12901015Y-17752293D02*
X12891491Y-17790389D01*
X12891491Y-17790389D02*
X12881967Y-17809436D01*
X12881967Y-17809436D02*
X12872444Y-17818960D01*
X12872444Y-17818960D02*
X12853396Y-17828484D01*
X12853396Y-17828484D02*
X12834348Y-17828484D01*
X12834348Y-17828484D02*
X12815301Y-17818960D01*
X12815301Y-17818960D02*
X12805777Y-17809436D01*
X12805777Y-17809436D02*
X12796253Y-17790389D01*
X12796253Y-17790389D02*
X12786729Y-17752293D01*
X12786729Y-17752293D02*
X12786729Y-17704674D01*
X12786729Y-17704674D02*
X12796253Y-17666579D01*
X12796253Y-17666579D02*
X12805777Y-17647531D01*
X12805777Y-17647531D02*
X12815301Y-17638008D01*
X12815301Y-17638008D02*
X12834348Y-17628484D01*
X13072444Y-17695150D02*
X13072444Y-17828484D01*
X13024825Y-17618960D02*
X12977206Y-17761817D01*
X12977206Y-17761817D02*
X13101015Y-17761817D01*
X13158158Y-17628484D02*
X13281967Y-17628484D01*
X13281967Y-17628484D02*
X13215301Y-17704674D01*
X13215301Y-17704674D02*
X13243872Y-17704674D01*
X13243872Y-17704674D02*
X13262920Y-17714198D01*
X13262920Y-17714198D02*
X13272444Y-17723722D01*
X13272444Y-17723722D02*
X13281967Y-17742770D01*
X13281967Y-17742770D02*
X13281967Y-17790389D01*
X13281967Y-17790389D02*
X13272444Y-17809436D01*
X13272444Y-17809436D02*
X13262920Y-17818960D01*
X13262920Y-17818960D02*
X13243872Y-17828484D01*
X13243872Y-17828484D02*
X13186729Y-17828484D01*
X13186729Y-17828484D02*
X13167682Y-17818960D01*
X13167682Y-17818960D02*
X13158158Y-17809436D01*
X13348634Y-17628484D02*
X13472444Y-17628484D01*
X13472444Y-17628484D02*
X13405777Y-17704674D01*
X13405777Y-17704674D02*
X13434348Y-17704674D01*
X13434348Y-17704674D02*
X13453396Y-17714198D01*
X13453396Y-17714198D02*
X13462920Y-17723722D01*
X13462920Y-17723722D02*
X13472444Y-17742770D01*
X13472444Y-17742770D02*
X13472444Y-17790389D01*
X13472444Y-17790389D02*
X13462920Y-17809436D01*
X13462920Y-17809436D02*
X13453396Y-17818960D01*
X13453396Y-17818960D02*
X13434348Y-17828484D01*
X13434348Y-17828484D02*
X13377206Y-17828484D01*
X13377206Y-17828484D02*
X13358158Y-17818960D01*
X13358158Y-17818960D02*
X13348634Y-17809436D01*
X13548634Y-17628484D02*
X13548634Y-17666579D01*
X13624825Y-17628484D02*
X13624825Y-17666579D01*
X13920063Y-17904674D02*
X13910539Y-17895150D01*
X13910539Y-17895150D02*
X13891491Y-17866579D01*
X13891491Y-17866579D02*
X13881968Y-17847531D01*
X13881968Y-17847531D02*
X13872444Y-17818960D01*
X13872444Y-17818960D02*
X13862920Y-17771341D01*
X13862920Y-17771341D02*
X13862920Y-17733246D01*
X13862920Y-17733246D02*
X13872444Y-17685627D01*
X13872444Y-17685627D02*
X13881968Y-17657055D01*
X13881968Y-17657055D02*
X13891491Y-17638008D01*
X13891491Y-17638008D02*
X13910539Y-17609436D01*
X13910539Y-17609436D02*
X13920063Y-17599912D01*
X14005777Y-17828484D02*
X14043872Y-17828484D01*
X14043872Y-17828484D02*
X14062920Y-17818960D01*
X14062920Y-17818960D02*
X14072444Y-17809436D01*
X14072444Y-17809436D02*
X14091491Y-17780865D01*
X14091491Y-17780865D02*
X14101015Y-17742770D01*
X14101015Y-17742770D02*
X14101015Y-17666579D01*
X14101015Y-17666579D02*
X14091491Y-17647531D01*
X14091491Y-17647531D02*
X14081968Y-17638008D01*
X14081968Y-17638008D02*
X14062920Y-17628484D01*
X14062920Y-17628484D02*
X14024825Y-17628484D01*
X14024825Y-17628484D02*
X14005777Y-17638008D01*
X14005777Y-17638008D02*
X13996253Y-17647531D01*
X13996253Y-17647531D02*
X13986729Y-17666579D01*
X13986729Y-17666579D02*
X13986729Y-17714198D01*
X13986729Y-17714198D02*
X13996253Y-17733246D01*
X13996253Y-17733246D02*
X14005777Y-17742770D01*
X14005777Y-17742770D02*
X14024825Y-17752293D01*
X14024825Y-17752293D02*
X14062920Y-17752293D01*
X14062920Y-17752293D02*
X14081968Y-17742770D01*
X14081968Y-17742770D02*
X14091491Y-17733246D01*
X14091491Y-17733246D02*
X14101015Y-17714198D01*
X14339110Y-17828484D02*
X14339110Y-17628484D01*
X14424825Y-17828484D02*
X14424825Y-17723722D01*
X14424825Y-17723722D02*
X14415301Y-17704674D01*
X14415301Y-17704674D02*
X14396253Y-17695150D01*
X14396253Y-17695150D02*
X14367682Y-17695150D01*
X14367682Y-17695150D02*
X14348634Y-17704674D01*
X14348634Y-17704674D02*
X14339110Y-17714198D01*
X14548634Y-17828484D02*
X14529587Y-17818960D01*
X14529587Y-17818960D02*
X14520063Y-17809436D01*
X14520063Y-17809436D02*
X14510539Y-17790389D01*
X14510539Y-17790389D02*
X14510539Y-17733246D01*
X14510539Y-17733246D02*
X14520063Y-17714198D01*
X14520063Y-17714198D02*
X14529587Y-17704674D01*
X14529587Y-17704674D02*
X14548634Y-17695150D01*
X14548634Y-17695150D02*
X14577206Y-17695150D01*
X14577206Y-17695150D02*
X14596253Y-17704674D01*
X14596253Y-17704674D02*
X14605777Y-17714198D01*
X14605777Y-17714198D02*
X14615301Y-17733246D01*
X14615301Y-17733246D02*
X14615301Y-17790389D01*
X14615301Y-17790389D02*
X14605777Y-17809436D01*
X14605777Y-17809436D02*
X14596253Y-17818960D01*
X14596253Y-17818960D02*
X14577206Y-17828484D01*
X14577206Y-17828484D02*
X14548634Y-17828484D01*
X14729587Y-17828484D02*
X14710539Y-17818960D01*
X14710539Y-17818960D02*
X14701015Y-17799912D01*
X14701015Y-17799912D02*
X14701015Y-17628484D01*
X14881968Y-17818960D02*
X14862920Y-17828484D01*
X14862920Y-17828484D02*
X14824825Y-17828484D01*
X14824825Y-17828484D02*
X14805777Y-17818960D01*
X14805777Y-17818960D02*
X14796253Y-17799912D01*
X14796253Y-17799912D02*
X14796253Y-17723722D01*
X14796253Y-17723722D02*
X14805777Y-17704674D01*
X14805777Y-17704674D02*
X14824825Y-17695150D01*
X14824825Y-17695150D02*
X14862920Y-17695150D01*
X14862920Y-17695150D02*
X14881968Y-17704674D01*
X14881968Y-17704674D02*
X14891491Y-17723722D01*
X14891491Y-17723722D02*
X14891491Y-17742770D01*
X14891491Y-17742770D02*
X14796253Y-17761817D01*
X14967682Y-17818960D02*
X14986730Y-17828484D01*
X14986730Y-17828484D02*
X15024825Y-17828484D01*
X15024825Y-17828484D02*
X15043872Y-17818960D01*
X15043872Y-17818960D02*
X15053396Y-17799912D01*
X15053396Y-17799912D02*
X15053396Y-17790389D01*
X15053396Y-17790389D02*
X15043872Y-17771341D01*
X15043872Y-17771341D02*
X15024825Y-17761817D01*
X15024825Y-17761817D02*
X14996253Y-17761817D01*
X14996253Y-17761817D02*
X14977206Y-17752293D01*
X14977206Y-17752293D02*
X14967682Y-17733246D01*
X14967682Y-17733246D02*
X14967682Y-17723722D01*
X14967682Y-17723722D02*
X14977206Y-17704674D01*
X14977206Y-17704674D02*
X14996253Y-17695150D01*
X14996253Y-17695150D02*
X15024825Y-17695150D01*
X15024825Y-17695150D02*
X15043872Y-17704674D01*
X15120063Y-17904674D02*
X15129587Y-17895150D01*
X15129587Y-17895150D02*
X15148634Y-17866579D01*
X15148634Y-17866579D02*
X15158158Y-17847531D01*
X15158158Y-17847531D02*
X15167682Y-17818960D01*
X15167682Y-17818960D02*
X15177206Y-17771341D01*
X15177206Y-17771341D02*
X15177206Y-17733246D01*
X15177206Y-17733246D02*
X15167682Y-17685627D01*
X15167682Y-17685627D02*
X15158158Y-17657055D01*
X15158158Y-17657055D02*
X15148634Y-17638008D01*
X15148634Y-17638008D02*
X15129587Y-17609436D01*
X15129587Y-17609436D02*
X15120063Y-17599912D01*
D13*
X10275000Y-18071000D02*
X10345000Y-18001000D01*
X10275000Y-17931000D01*
X10205000Y-18001000D01*
X10275000Y-18071000D01*
D11*
X10710539Y-18092484D02*
X10596253Y-18092484D01*
X10653396Y-18092484D02*
X10653396Y-17892484D01*
X10653396Y-17892484D02*
X10634348Y-17921055D01*
X10634348Y-17921055D02*
X10615301Y-17940103D01*
X10615301Y-17940103D02*
X10596253Y-17949627D01*
X10796253Y-18073436D02*
X10805777Y-18082960D01*
X10805777Y-18082960D02*
X10796253Y-18092484D01*
X10796253Y-18092484D02*
X10786729Y-18082960D01*
X10786729Y-18082960D02*
X10796253Y-18073436D01*
X10796253Y-18073436D02*
X10796253Y-18092484D01*
X10977205Y-17959150D02*
X10977205Y-18092484D01*
X10929586Y-17882960D02*
X10881967Y-18025817D01*
X10881967Y-18025817D02*
X11005777Y-18025817D01*
X11120063Y-17892484D02*
X11139110Y-17892484D01*
X11139110Y-17892484D02*
X11158158Y-17902008D01*
X11158158Y-17902008D02*
X11167682Y-17911531D01*
X11167682Y-17911531D02*
X11177205Y-17930579D01*
X11177205Y-17930579D02*
X11186729Y-17968674D01*
X11186729Y-17968674D02*
X11186729Y-18016293D01*
X11186729Y-18016293D02*
X11177205Y-18054389D01*
X11177205Y-18054389D02*
X11167682Y-18073436D01*
X11167682Y-18073436D02*
X11158158Y-18082960D01*
X11158158Y-18082960D02*
X11139110Y-18092484D01*
X11139110Y-18092484D02*
X11120063Y-18092484D01*
X11120063Y-18092484D02*
X11101015Y-18082960D01*
X11101015Y-18082960D02*
X11091491Y-18073436D01*
X11091491Y-18073436D02*
X11081967Y-18054389D01*
X11081967Y-18054389D02*
X11072444Y-18016293D01*
X11072444Y-18016293D02*
X11072444Y-17968674D01*
X11072444Y-17968674D02*
X11081967Y-17930579D01*
X11081967Y-17930579D02*
X11091491Y-17911531D01*
X11091491Y-17911531D02*
X11101015Y-17902008D01*
X11101015Y-17902008D02*
X11120063Y-17892484D01*
X11310539Y-17892484D02*
X11329586Y-17892484D01*
X11329586Y-17892484D02*
X11348634Y-17902008D01*
X11348634Y-17902008D02*
X11358158Y-17911531D01*
X11358158Y-17911531D02*
X11367682Y-17930579D01*
X11367682Y-17930579D02*
X11377205Y-17968674D01*
X11377205Y-17968674D02*
X11377205Y-18016293D01*
X11377205Y-18016293D02*
X11367682Y-18054389D01*
X11367682Y-18054389D02*
X11358158Y-18073436D01*
X11358158Y-18073436D02*
X11348634Y-18082960D01*
X11348634Y-18082960D02*
X11329586Y-18092484D01*
X11329586Y-18092484D02*
X11310539Y-18092484D01*
X11310539Y-18092484D02*
X11291491Y-18082960D01*
X11291491Y-18082960D02*
X11281967Y-18073436D01*
X11281967Y-18073436D02*
X11272443Y-18054389D01*
X11272443Y-18054389D02*
X11262920Y-18016293D01*
X11262920Y-18016293D02*
X11262920Y-17968674D01*
X11262920Y-17968674D02*
X11272443Y-17930579D01*
X11272443Y-17930579D02*
X11281967Y-17911531D01*
X11281967Y-17911531D02*
X11291491Y-17902008D01*
X11291491Y-17902008D02*
X11310539Y-17892484D01*
X11462920Y-18092484D02*
X11462920Y-17959150D01*
X11462920Y-17978198D02*
X11472443Y-17968674D01*
X11472443Y-17968674D02*
X11491491Y-17959150D01*
X11491491Y-17959150D02*
X11520063Y-17959150D01*
X11520063Y-17959150D02*
X11539110Y-17968674D01*
X11539110Y-17968674D02*
X11548634Y-17987722D01*
X11548634Y-17987722D02*
X11548634Y-18092484D01*
X11548634Y-17987722D02*
X11558158Y-17968674D01*
X11558158Y-17968674D02*
X11577205Y-17959150D01*
X11577205Y-17959150D02*
X11605777Y-17959150D01*
X11605777Y-17959150D02*
X11624824Y-17968674D01*
X11624824Y-17968674D02*
X11634348Y-17987722D01*
X11634348Y-17987722D02*
X11634348Y-18092484D01*
X11729586Y-18092484D02*
X11729586Y-17959150D01*
X11729586Y-17978198D02*
X11739110Y-17968674D01*
X11739110Y-17968674D02*
X11758158Y-17959150D01*
X11758158Y-17959150D02*
X11786729Y-17959150D01*
X11786729Y-17959150D02*
X11805777Y-17968674D01*
X11805777Y-17968674D02*
X11815301Y-17987722D01*
X11815301Y-17987722D02*
X11815301Y-18092484D01*
X11815301Y-17987722D02*
X11824824Y-17968674D01*
X11824824Y-17968674D02*
X11843872Y-17959150D01*
X11843872Y-17959150D02*
X11872443Y-17959150D01*
X11872443Y-17959150D02*
X11891491Y-17968674D01*
X11891491Y-17968674D02*
X11901015Y-17987722D01*
X11901015Y-17987722D02*
X11901015Y-18092484D01*
X12291491Y-17882960D02*
X12120063Y-18140103D01*
X12548634Y-17892484D02*
X12567682Y-17892484D01*
X12567682Y-17892484D02*
X12586729Y-17902008D01*
X12586729Y-17902008D02*
X12596253Y-17911531D01*
X12596253Y-17911531D02*
X12605777Y-17930579D01*
X12605777Y-17930579D02*
X12615301Y-17968674D01*
X12615301Y-17968674D02*
X12615301Y-18016293D01*
X12615301Y-18016293D02*
X12605777Y-18054389D01*
X12605777Y-18054389D02*
X12596253Y-18073436D01*
X12596253Y-18073436D02*
X12586729Y-18082960D01*
X12586729Y-18082960D02*
X12567682Y-18092484D01*
X12567682Y-18092484D02*
X12548634Y-18092484D01*
X12548634Y-18092484D02*
X12529586Y-18082960D01*
X12529586Y-18082960D02*
X12520063Y-18073436D01*
X12520063Y-18073436D02*
X12510539Y-18054389D01*
X12510539Y-18054389D02*
X12501015Y-18016293D01*
X12501015Y-18016293D02*
X12501015Y-17968674D01*
X12501015Y-17968674D02*
X12510539Y-17930579D01*
X12510539Y-17930579D02*
X12520063Y-17911531D01*
X12520063Y-17911531D02*
X12529586Y-17902008D01*
X12529586Y-17902008D02*
X12548634Y-17892484D01*
X12701015Y-18073436D02*
X12710539Y-18082960D01*
X12710539Y-18082960D02*
X12701015Y-18092484D01*
X12701015Y-18092484D02*
X12691491Y-18082960D01*
X12691491Y-18082960D02*
X12701015Y-18073436D01*
X12701015Y-18073436D02*
X12701015Y-18092484D01*
X12834348Y-17892484D02*
X12853396Y-17892484D01*
X12853396Y-17892484D02*
X12872444Y-17902008D01*
X12872444Y-17902008D02*
X12881967Y-17911531D01*
X12881967Y-17911531D02*
X12891491Y-17930579D01*
X12891491Y-17930579D02*
X12901015Y-17968674D01*
X12901015Y-17968674D02*
X12901015Y-18016293D01*
X12901015Y-18016293D02*
X12891491Y-18054389D01*
X12891491Y-18054389D02*
X12881967Y-18073436D01*
X12881967Y-18073436D02*
X12872444Y-18082960D01*
X12872444Y-18082960D02*
X12853396Y-18092484D01*
X12853396Y-18092484D02*
X12834348Y-18092484D01*
X12834348Y-18092484D02*
X12815301Y-18082960D01*
X12815301Y-18082960D02*
X12805777Y-18073436D01*
X12805777Y-18073436D02*
X12796253Y-18054389D01*
X12796253Y-18054389D02*
X12786729Y-18016293D01*
X12786729Y-18016293D02*
X12786729Y-17968674D01*
X12786729Y-17968674D02*
X12796253Y-17930579D01*
X12796253Y-17930579D02*
X12805777Y-17911531D01*
X12805777Y-17911531D02*
X12815301Y-17902008D01*
X12815301Y-17902008D02*
X12834348Y-17892484D01*
X13081967Y-17892484D02*
X12986729Y-17892484D01*
X12986729Y-17892484D02*
X12977206Y-17987722D01*
X12977206Y-17987722D02*
X12986729Y-17978198D01*
X12986729Y-17978198D02*
X13005777Y-17968674D01*
X13005777Y-17968674D02*
X13053396Y-17968674D01*
X13053396Y-17968674D02*
X13072444Y-17978198D01*
X13072444Y-17978198D02*
X13081967Y-17987722D01*
X13081967Y-17987722D02*
X13091491Y-18006770D01*
X13091491Y-18006770D02*
X13091491Y-18054389D01*
X13091491Y-18054389D02*
X13081967Y-18073436D01*
X13081967Y-18073436D02*
X13072444Y-18082960D01*
X13072444Y-18082960D02*
X13053396Y-18092484D01*
X13053396Y-18092484D02*
X13005777Y-18092484D01*
X13005777Y-18092484D02*
X12986729Y-18082960D01*
X12986729Y-18082960D02*
X12977206Y-18073436D01*
X13272444Y-17892484D02*
X13177206Y-17892484D01*
X13177206Y-17892484D02*
X13167682Y-17987722D01*
X13167682Y-17987722D02*
X13177206Y-17978198D01*
X13177206Y-17978198D02*
X13196253Y-17968674D01*
X13196253Y-17968674D02*
X13243872Y-17968674D01*
X13243872Y-17968674D02*
X13262920Y-17978198D01*
X13262920Y-17978198D02*
X13272444Y-17987722D01*
X13272444Y-17987722D02*
X13281967Y-18006770D01*
X13281967Y-18006770D02*
X13281967Y-18054389D01*
X13281967Y-18054389D02*
X13272444Y-18073436D01*
X13272444Y-18073436D02*
X13262920Y-18082960D01*
X13262920Y-18082960D02*
X13243872Y-18092484D01*
X13243872Y-18092484D02*
X13196253Y-18092484D01*
X13196253Y-18092484D02*
X13177206Y-18082960D01*
X13177206Y-18082960D02*
X13167682Y-18073436D01*
X13472444Y-18092484D02*
X13358158Y-18092484D01*
X13415301Y-18092484D02*
X13415301Y-17892484D01*
X13415301Y-17892484D02*
X13396253Y-17921055D01*
X13396253Y-17921055D02*
X13377206Y-17940103D01*
X13377206Y-17940103D02*
X13358158Y-17949627D01*
X13548634Y-17892484D02*
X13548634Y-17930579D01*
X13624825Y-17892484D02*
X13624825Y-17930579D01*
X13920063Y-18168674D02*
X13910539Y-18159150D01*
X13910539Y-18159150D02*
X13891491Y-18130579D01*
X13891491Y-18130579D02*
X13881968Y-18111531D01*
X13881968Y-18111531D02*
X13872444Y-18082960D01*
X13872444Y-18082960D02*
X13862920Y-18035341D01*
X13862920Y-18035341D02*
X13862920Y-17997246D01*
X13862920Y-17997246D02*
X13872444Y-17949627D01*
X13872444Y-17949627D02*
X13881968Y-17921055D01*
X13881968Y-17921055D02*
X13891491Y-17902008D01*
X13891491Y-17902008D02*
X13910539Y-17873436D01*
X13910539Y-17873436D02*
X13920063Y-17863912D01*
X13986729Y-17911531D02*
X13996253Y-17902008D01*
X13996253Y-17902008D02*
X14015301Y-17892484D01*
X14015301Y-17892484D02*
X14062920Y-17892484D01*
X14062920Y-17892484D02*
X14081968Y-17902008D01*
X14081968Y-17902008D02*
X14091491Y-17911531D01*
X14091491Y-17911531D02*
X14101015Y-17930579D01*
X14101015Y-17930579D02*
X14101015Y-17949627D01*
X14101015Y-17949627D02*
X14091491Y-17978198D01*
X14091491Y-17978198D02*
X13977206Y-18092484D01*
X13977206Y-18092484D02*
X14101015Y-18092484D01*
X14339110Y-18092484D02*
X14339110Y-17892484D01*
X14424825Y-18092484D02*
X14424825Y-17987722D01*
X14424825Y-17987722D02*
X14415301Y-17968674D01*
X14415301Y-17968674D02*
X14396253Y-17959150D01*
X14396253Y-17959150D02*
X14367682Y-17959150D01*
X14367682Y-17959150D02*
X14348634Y-17968674D01*
X14348634Y-17968674D02*
X14339110Y-17978198D01*
X14548634Y-18092484D02*
X14529587Y-18082960D01*
X14529587Y-18082960D02*
X14520063Y-18073436D01*
X14520063Y-18073436D02*
X14510539Y-18054389D01*
X14510539Y-18054389D02*
X14510539Y-17997246D01*
X14510539Y-17997246D02*
X14520063Y-17978198D01*
X14520063Y-17978198D02*
X14529587Y-17968674D01*
X14529587Y-17968674D02*
X14548634Y-17959150D01*
X14548634Y-17959150D02*
X14577206Y-17959150D01*
X14577206Y-17959150D02*
X14596253Y-17968674D01*
X14596253Y-17968674D02*
X14605777Y-17978198D01*
X14605777Y-17978198D02*
X14615301Y-17997246D01*
X14615301Y-17997246D02*
X14615301Y-18054389D01*
X14615301Y-18054389D02*
X14605777Y-18073436D01*
X14605777Y-18073436D02*
X14596253Y-18082960D01*
X14596253Y-18082960D02*
X14577206Y-18092484D01*
X14577206Y-18092484D02*
X14548634Y-18092484D01*
X14729587Y-18092484D02*
X14710539Y-18082960D01*
X14710539Y-18082960D02*
X14701015Y-18063912D01*
X14701015Y-18063912D02*
X14701015Y-17892484D01*
X14881968Y-18082960D02*
X14862920Y-18092484D01*
X14862920Y-18092484D02*
X14824825Y-18092484D01*
X14824825Y-18092484D02*
X14805777Y-18082960D01*
X14805777Y-18082960D02*
X14796253Y-18063912D01*
X14796253Y-18063912D02*
X14796253Y-17987722D01*
X14796253Y-17987722D02*
X14805777Y-17968674D01*
X14805777Y-17968674D02*
X14824825Y-17959150D01*
X14824825Y-17959150D02*
X14862920Y-17959150D01*
X14862920Y-17959150D02*
X14881968Y-17968674D01*
X14881968Y-17968674D02*
X14891491Y-17987722D01*
X14891491Y-17987722D02*
X14891491Y-18006770D01*
X14891491Y-18006770D02*
X14796253Y-18025817D01*
X14967682Y-18082960D02*
X14986730Y-18092484D01*
X14986730Y-18092484D02*
X15024825Y-18092484D01*
X15024825Y-18092484D02*
X15043872Y-18082960D01*
X15043872Y-18082960D02*
X15053396Y-18063912D01*
X15053396Y-18063912D02*
X15053396Y-18054389D01*
X15053396Y-18054389D02*
X15043872Y-18035341D01*
X15043872Y-18035341D02*
X15024825Y-18025817D01*
X15024825Y-18025817D02*
X14996253Y-18025817D01*
X14996253Y-18025817D02*
X14977206Y-18016293D01*
X14977206Y-18016293D02*
X14967682Y-17997246D01*
X14967682Y-17997246D02*
X14967682Y-17987722D01*
X14967682Y-17987722D02*
X14977206Y-17968674D01*
X14977206Y-17968674D02*
X14996253Y-17959150D01*
X14996253Y-17959150D02*
X15024825Y-17959150D01*
X15024825Y-17959150D02*
X15043872Y-17968674D01*
X15120063Y-18168674D02*
X15129587Y-18159150D01*
X15129587Y-18159150D02*
X15148634Y-18130579D01*
X15148634Y-18130579D02*
X15158158Y-18111531D01*
X15158158Y-18111531D02*
X15167682Y-18082960D01*
X15167682Y-18082960D02*
X15177206Y-18035341D01*
X15177206Y-18035341D02*
X15177206Y-17997246D01*
X15177206Y-17997246D02*
X15167682Y-17949627D01*
X15167682Y-17949627D02*
X15158158Y-17921055D01*
X15158158Y-17921055D02*
X15148634Y-17902008D01*
X15148634Y-17902008D02*
X15129587Y-17873436D01*
X15129587Y-17873436D02*
X15120063Y-17863912D01*
X10145000Y-18165000D02*
X10345000Y-18365000D01*
X10345000Y-18165000D02*
X10145000Y-18365000D01*
X10345000Y-18265000D02*
G75*
G02*
X10145000Y-18265000I-100000J0D01*
G01*
X10145000Y-18265000D02*
G75*
G02*
X10345000Y-18265000I100000J0D01*
G01*
X10596253Y-18175531D02*
X10605777Y-18166008D01*
X10605777Y-18166008D02*
X10624824Y-18156484D01*
X10624824Y-18156484D02*
X10672444Y-18156484D01*
X10672444Y-18156484D02*
X10691491Y-18166008D01*
X10691491Y-18166008D02*
X10701015Y-18175531D01*
X10701015Y-18175531D02*
X10710539Y-18194579D01*
X10710539Y-18194579D02*
X10710539Y-18213627D01*
X10710539Y-18213627D02*
X10701015Y-18242198D01*
X10701015Y-18242198D02*
X10586729Y-18356484D01*
X10586729Y-18356484D02*
X10710539Y-18356484D01*
X10796253Y-18337436D02*
X10805777Y-18346960D01*
X10805777Y-18346960D02*
X10796253Y-18356484D01*
X10796253Y-18356484D02*
X10786729Y-18346960D01*
X10786729Y-18346960D02*
X10796253Y-18337436D01*
X10796253Y-18337436D02*
X10796253Y-18356484D01*
X10986729Y-18156484D02*
X10891491Y-18156484D01*
X10891491Y-18156484D02*
X10881967Y-18251722D01*
X10881967Y-18251722D02*
X10891491Y-18242198D01*
X10891491Y-18242198D02*
X10910539Y-18232674D01*
X10910539Y-18232674D02*
X10958158Y-18232674D01*
X10958158Y-18232674D02*
X10977205Y-18242198D01*
X10977205Y-18242198D02*
X10986729Y-18251722D01*
X10986729Y-18251722D02*
X10996253Y-18270770D01*
X10996253Y-18270770D02*
X10996253Y-18318389D01*
X10996253Y-18318389D02*
X10986729Y-18337436D01*
X10986729Y-18337436D02*
X10977205Y-18346960D01*
X10977205Y-18346960D02*
X10958158Y-18356484D01*
X10958158Y-18356484D02*
X10910539Y-18356484D01*
X10910539Y-18356484D02*
X10891491Y-18346960D01*
X10891491Y-18346960D02*
X10881967Y-18337436D01*
X11120063Y-18156484D02*
X11139110Y-18156484D01*
X11139110Y-18156484D02*
X11158158Y-18166008D01*
X11158158Y-18166008D02*
X11167682Y-18175531D01*
X11167682Y-18175531D02*
X11177205Y-18194579D01*
X11177205Y-18194579D02*
X11186729Y-18232674D01*
X11186729Y-18232674D02*
X11186729Y-18280293D01*
X11186729Y-18280293D02*
X11177205Y-18318389D01*
X11177205Y-18318389D02*
X11167682Y-18337436D01*
X11167682Y-18337436D02*
X11158158Y-18346960D01*
X11158158Y-18346960D02*
X11139110Y-18356484D01*
X11139110Y-18356484D02*
X11120063Y-18356484D01*
X11120063Y-18356484D02*
X11101015Y-18346960D01*
X11101015Y-18346960D02*
X11091491Y-18337436D01*
X11091491Y-18337436D02*
X11081967Y-18318389D01*
X11081967Y-18318389D02*
X11072444Y-18280293D01*
X11072444Y-18280293D02*
X11072444Y-18232674D01*
X11072444Y-18232674D02*
X11081967Y-18194579D01*
X11081967Y-18194579D02*
X11091491Y-18175531D01*
X11091491Y-18175531D02*
X11101015Y-18166008D01*
X11101015Y-18166008D02*
X11120063Y-18156484D01*
X11310539Y-18156484D02*
X11329586Y-18156484D01*
X11329586Y-18156484D02*
X11348634Y-18166008D01*
X11348634Y-18166008D02*
X11358158Y-18175531D01*
X11358158Y-18175531D02*
X11367682Y-18194579D01*
X11367682Y-18194579D02*
X11377205Y-18232674D01*
X11377205Y-18232674D02*
X11377205Y-18280293D01*
X11377205Y-18280293D02*
X11367682Y-18318389D01*
X11367682Y-18318389D02*
X11358158Y-18337436D01*
X11358158Y-18337436D02*
X11348634Y-18346960D01*
X11348634Y-18346960D02*
X11329586Y-18356484D01*
X11329586Y-18356484D02*
X11310539Y-18356484D01*
X11310539Y-18356484D02*
X11291491Y-18346960D01*
X11291491Y-18346960D02*
X11281967Y-18337436D01*
X11281967Y-18337436D02*
X11272443Y-18318389D01*
X11272443Y-18318389D02*
X11262920Y-18280293D01*
X11262920Y-18280293D02*
X11262920Y-18232674D01*
X11262920Y-18232674D02*
X11272443Y-18194579D01*
X11272443Y-18194579D02*
X11281967Y-18175531D01*
X11281967Y-18175531D02*
X11291491Y-18166008D01*
X11291491Y-18166008D02*
X11310539Y-18156484D01*
X11462920Y-18356484D02*
X11462920Y-18223150D01*
X11462920Y-18242198D02*
X11472443Y-18232674D01*
X11472443Y-18232674D02*
X11491491Y-18223150D01*
X11491491Y-18223150D02*
X11520063Y-18223150D01*
X11520063Y-18223150D02*
X11539110Y-18232674D01*
X11539110Y-18232674D02*
X11548634Y-18251722D01*
X11548634Y-18251722D02*
X11548634Y-18356484D01*
X11548634Y-18251722D02*
X11558158Y-18232674D01*
X11558158Y-18232674D02*
X11577205Y-18223150D01*
X11577205Y-18223150D02*
X11605777Y-18223150D01*
X11605777Y-18223150D02*
X11624824Y-18232674D01*
X11624824Y-18232674D02*
X11634348Y-18251722D01*
X11634348Y-18251722D02*
X11634348Y-18356484D01*
X11729586Y-18356484D02*
X11729586Y-18223150D01*
X11729586Y-18242198D02*
X11739110Y-18232674D01*
X11739110Y-18232674D02*
X11758158Y-18223150D01*
X11758158Y-18223150D02*
X11786729Y-18223150D01*
X11786729Y-18223150D02*
X11805777Y-18232674D01*
X11805777Y-18232674D02*
X11815301Y-18251722D01*
X11815301Y-18251722D02*
X11815301Y-18356484D01*
X11815301Y-18251722D02*
X11824824Y-18232674D01*
X11824824Y-18232674D02*
X11843872Y-18223150D01*
X11843872Y-18223150D02*
X11872443Y-18223150D01*
X11872443Y-18223150D02*
X11891491Y-18232674D01*
X11891491Y-18232674D02*
X11901015Y-18251722D01*
X11901015Y-18251722D02*
X11901015Y-18356484D01*
X12291491Y-18146960D02*
X12120063Y-18404103D01*
X12548634Y-18156484D02*
X12567682Y-18156484D01*
X12567682Y-18156484D02*
X12586729Y-18166008D01*
X12586729Y-18166008D02*
X12596253Y-18175531D01*
X12596253Y-18175531D02*
X12605777Y-18194579D01*
X12605777Y-18194579D02*
X12615301Y-18232674D01*
X12615301Y-18232674D02*
X12615301Y-18280293D01*
X12615301Y-18280293D02*
X12605777Y-18318389D01*
X12605777Y-18318389D02*
X12596253Y-18337436D01*
X12596253Y-18337436D02*
X12586729Y-18346960D01*
X12586729Y-18346960D02*
X12567682Y-18356484D01*
X12567682Y-18356484D02*
X12548634Y-18356484D01*
X12548634Y-18356484D02*
X12529586Y-18346960D01*
X12529586Y-18346960D02*
X12520063Y-18337436D01*
X12520063Y-18337436D02*
X12510539Y-18318389D01*
X12510539Y-18318389D02*
X12501015Y-18280293D01*
X12501015Y-18280293D02*
X12501015Y-18232674D01*
X12501015Y-18232674D02*
X12510539Y-18194579D01*
X12510539Y-18194579D02*
X12520063Y-18175531D01*
X12520063Y-18175531D02*
X12529586Y-18166008D01*
X12529586Y-18166008D02*
X12548634Y-18156484D01*
X12701015Y-18337436D02*
X12710539Y-18346960D01*
X12710539Y-18346960D02*
X12701015Y-18356484D01*
X12701015Y-18356484D02*
X12691491Y-18346960D01*
X12691491Y-18346960D02*
X12701015Y-18337436D01*
X12701015Y-18337436D02*
X12701015Y-18356484D01*
X12834348Y-18156484D02*
X12853396Y-18156484D01*
X12853396Y-18156484D02*
X12872444Y-18166008D01*
X12872444Y-18166008D02*
X12881967Y-18175531D01*
X12881967Y-18175531D02*
X12891491Y-18194579D01*
X12891491Y-18194579D02*
X12901015Y-18232674D01*
X12901015Y-18232674D02*
X12901015Y-18280293D01*
X12901015Y-18280293D02*
X12891491Y-18318389D01*
X12891491Y-18318389D02*
X12881967Y-18337436D01*
X12881967Y-18337436D02*
X12872444Y-18346960D01*
X12872444Y-18346960D02*
X12853396Y-18356484D01*
X12853396Y-18356484D02*
X12834348Y-18356484D01*
X12834348Y-18356484D02*
X12815301Y-18346960D01*
X12815301Y-18346960D02*
X12805777Y-18337436D01*
X12805777Y-18337436D02*
X12796253Y-18318389D01*
X12796253Y-18318389D02*
X12786729Y-18280293D01*
X12786729Y-18280293D02*
X12786729Y-18232674D01*
X12786729Y-18232674D02*
X12796253Y-18194579D01*
X12796253Y-18194579D02*
X12805777Y-18175531D01*
X12805777Y-18175531D02*
X12815301Y-18166008D01*
X12815301Y-18166008D02*
X12834348Y-18156484D01*
X12996253Y-18356484D02*
X13034348Y-18356484D01*
X13034348Y-18356484D02*
X13053396Y-18346960D01*
X13053396Y-18346960D02*
X13062920Y-18337436D01*
X13062920Y-18337436D02*
X13081967Y-18308865D01*
X13081967Y-18308865D02*
X13091491Y-18270770D01*
X13091491Y-18270770D02*
X13091491Y-18194579D01*
X13091491Y-18194579D02*
X13081967Y-18175531D01*
X13081967Y-18175531D02*
X13072444Y-18166008D01*
X13072444Y-18166008D02*
X13053396Y-18156484D01*
X13053396Y-18156484D02*
X13015301Y-18156484D01*
X13015301Y-18156484D02*
X12996253Y-18166008D01*
X12996253Y-18166008D02*
X12986729Y-18175531D01*
X12986729Y-18175531D02*
X12977206Y-18194579D01*
X12977206Y-18194579D02*
X12977206Y-18242198D01*
X12977206Y-18242198D02*
X12986729Y-18261246D01*
X12986729Y-18261246D02*
X12996253Y-18270770D01*
X12996253Y-18270770D02*
X13015301Y-18280293D01*
X13015301Y-18280293D02*
X13053396Y-18280293D01*
X13053396Y-18280293D02*
X13072444Y-18270770D01*
X13072444Y-18270770D02*
X13081967Y-18261246D01*
X13081967Y-18261246D02*
X13091491Y-18242198D01*
X13205777Y-18242198D02*
X13186729Y-18232674D01*
X13186729Y-18232674D02*
X13177206Y-18223150D01*
X13177206Y-18223150D02*
X13167682Y-18204103D01*
X13167682Y-18204103D02*
X13167682Y-18194579D01*
X13167682Y-18194579D02*
X13177206Y-18175531D01*
X13177206Y-18175531D02*
X13186729Y-18166008D01*
X13186729Y-18166008D02*
X13205777Y-18156484D01*
X13205777Y-18156484D02*
X13243872Y-18156484D01*
X13243872Y-18156484D02*
X13262920Y-18166008D01*
X13262920Y-18166008D02*
X13272444Y-18175531D01*
X13272444Y-18175531D02*
X13281967Y-18194579D01*
X13281967Y-18194579D02*
X13281967Y-18204103D01*
X13281967Y-18204103D02*
X13272444Y-18223150D01*
X13272444Y-18223150D02*
X13262920Y-18232674D01*
X13262920Y-18232674D02*
X13243872Y-18242198D01*
X13243872Y-18242198D02*
X13205777Y-18242198D01*
X13205777Y-18242198D02*
X13186729Y-18251722D01*
X13186729Y-18251722D02*
X13177206Y-18261246D01*
X13177206Y-18261246D02*
X13167682Y-18280293D01*
X13167682Y-18280293D02*
X13167682Y-18318389D01*
X13167682Y-18318389D02*
X13177206Y-18337436D01*
X13177206Y-18337436D02*
X13186729Y-18346960D01*
X13186729Y-18346960D02*
X13205777Y-18356484D01*
X13205777Y-18356484D02*
X13243872Y-18356484D01*
X13243872Y-18356484D02*
X13262920Y-18346960D01*
X13262920Y-18346960D02*
X13272444Y-18337436D01*
X13272444Y-18337436D02*
X13281967Y-18318389D01*
X13281967Y-18318389D02*
X13281967Y-18280293D01*
X13281967Y-18280293D02*
X13272444Y-18261246D01*
X13272444Y-18261246D02*
X13262920Y-18251722D01*
X13262920Y-18251722D02*
X13243872Y-18242198D01*
X13453396Y-18223150D02*
X13453396Y-18356484D01*
X13405777Y-18146960D02*
X13358158Y-18289817D01*
X13358158Y-18289817D02*
X13481967Y-18289817D01*
X13548634Y-18156484D02*
X13548634Y-18194579D01*
X13624825Y-18156484D02*
X13624825Y-18194579D01*
X13920063Y-18432674D02*
X13910539Y-18423150D01*
X13910539Y-18423150D02*
X13891491Y-18394579D01*
X13891491Y-18394579D02*
X13881968Y-18375531D01*
X13881968Y-18375531D02*
X13872444Y-18346960D01*
X13872444Y-18346960D02*
X13862920Y-18299341D01*
X13862920Y-18299341D02*
X13862920Y-18261246D01*
X13862920Y-18261246D02*
X13872444Y-18213627D01*
X13872444Y-18213627D02*
X13881968Y-18185055D01*
X13881968Y-18185055D02*
X13891491Y-18166008D01*
X13891491Y-18166008D02*
X13910539Y-18137436D01*
X13910539Y-18137436D02*
X13920063Y-18127912D01*
X14081968Y-18156484D02*
X14043872Y-18156484D01*
X14043872Y-18156484D02*
X14024825Y-18166008D01*
X14024825Y-18166008D02*
X14015301Y-18175531D01*
X14015301Y-18175531D02*
X13996253Y-18204103D01*
X13996253Y-18204103D02*
X13986729Y-18242198D01*
X13986729Y-18242198D02*
X13986729Y-18318389D01*
X13986729Y-18318389D02*
X13996253Y-18337436D01*
X13996253Y-18337436D02*
X14005777Y-18346960D01*
X14005777Y-18346960D02*
X14024825Y-18356484D01*
X14024825Y-18356484D02*
X14062920Y-18356484D01*
X14062920Y-18356484D02*
X14081968Y-18346960D01*
X14081968Y-18346960D02*
X14091491Y-18337436D01*
X14091491Y-18337436D02*
X14101015Y-18318389D01*
X14101015Y-18318389D02*
X14101015Y-18270770D01*
X14101015Y-18270770D02*
X14091491Y-18251722D01*
X14091491Y-18251722D02*
X14081968Y-18242198D01*
X14081968Y-18242198D02*
X14062920Y-18232674D01*
X14062920Y-18232674D02*
X14024825Y-18232674D01*
X14024825Y-18232674D02*
X14005777Y-18242198D01*
X14005777Y-18242198D02*
X13996253Y-18251722D01*
X13996253Y-18251722D02*
X13986729Y-18270770D01*
X14339110Y-18356484D02*
X14339110Y-18156484D01*
X14424825Y-18356484D02*
X14424825Y-18251722D01*
X14424825Y-18251722D02*
X14415301Y-18232674D01*
X14415301Y-18232674D02*
X14396253Y-18223150D01*
X14396253Y-18223150D02*
X14367682Y-18223150D01*
X14367682Y-18223150D02*
X14348634Y-18232674D01*
X14348634Y-18232674D02*
X14339110Y-18242198D01*
X14548634Y-18356484D02*
X14529587Y-18346960D01*
X14529587Y-18346960D02*
X14520063Y-18337436D01*
X14520063Y-18337436D02*
X14510539Y-18318389D01*
X14510539Y-18318389D02*
X14510539Y-18261246D01*
X14510539Y-18261246D02*
X14520063Y-18242198D01*
X14520063Y-18242198D02*
X14529587Y-18232674D01*
X14529587Y-18232674D02*
X14548634Y-18223150D01*
X14548634Y-18223150D02*
X14577206Y-18223150D01*
X14577206Y-18223150D02*
X14596253Y-18232674D01*
X14596253Y-18232674D02*
X14605777Y-18242198D01*
X14605777Y-18242198D02*
X14615301Y-18261246D01*
X14615301Y-18261246D02*
X14615301Y-18318389D01*
X14615301Y-18318389D02*
X14605777Y-18337436D01*
X14605777Y-18337436D02*
X14596253Y-18346960D01*
X14596253Y-18346960D02*
X14577206Y-18356484D01*
X14577206Y-18356484D02*
X14548634Y-18356484D01*
X14729587Y-18356484D02*
X14710539Y-18346960D01*
X14710539Y-18346960D02*
X14701015Y-18327912D01*
X14701015Y-18327912D02*
X14701015Y-18156484D01*
X14881968Y-18346960D02*
X14862920Y-18356484D01*
X14862920Y-18356484D02*
X14824825Y-18356484D01*
X14824825Y-18356484D02*
X14805777Y-18346960D01*
X14805777Y-18346960D02*
X14796253Y-18327912D01*
X14796253Y-18327912D02*
X14796253Y-18251722D01*
X14796253Y-18251722D02*
X14805777Y-18232674D01*
X14805777Y-18232674D02*
X14824825Y-18223150D01*
X14824825Y-18223150D02*
X14862920Y-18223150D01*
X14862920Y-18223150D02*
X14881968Y-18232674D01*
X14881968Y-18232674D02*
X14891491Y-18251722D01*
X14891491Y-18251722D02*
X14891491Y-18270770D01*
X14891491Y-18270770D02*
X14796253Y-18289817D01*
X14967682Y-18346960D02*
X14986730Y-18356484D01*
X14986730Y-18356484D02*
X15024825Y-18356484D01*
X15024825Y-18356484D02*
X15043872Y-18346960D01*
X15043872Y-18346960D02*
X15053396Y-18327912D01*
X15053396Y-18327912D02*
X15053396Y-18318389D01*
X15053396Y-18318389D02*
X15043872Y-18299341D01*
X15043872Y-18299341D02*
X15024825Y-18289817D01*
X15024825Y-18289817D02*
X14996253Y-18289817D01*
X14996253Y-18289817D02*
X14977206Y-18280293D01*
X14977206Y-18280293D02*
X14967682Y-18261246D01*
X14967682Y-18261246D02*
X14967682Y-18251722D01*
X14967682Y-18251722D02*
X14977206Y-18232674D01*
X14977206Y-18232674D02*
X14996253Y-18223150D01*
X14996253Y-18223150D02*
X15024825Y-18223150D01*
X15024825Y-18223150D02*
X15043872Y-18232674D01*
X15120063Y-18432674D02*
X15129587Y-18423150D01*
X15129587Y-18423150D02*
X15148634Y-18394579D01*
X15148634Y-18394579D02*
X15158158Y-18375531D01*
X15158158Y-18375531D02*
X15167682Y-18346960D01*
X15167682Y-18346960D02*
X15177206Y-18299341D01*
X15177206Y-18299341D02*
X15177206Y-18261246D01*
X15177206Y-18261246D02*
X15167682Y-18213627D01*
X15167682Y-18213627D02*
X15158158Y-18185055D01*
X15158158Y-18185055D02*
X15148634Y-18166008D01*
X15148634Y-18166008D02*
X15129587Y-18137436D01*
X15129587Y-18137436D02*
X15120063Y-18127912D01*
M02*
