M48
; DRILL file {KiCad 8.0.8-2.fc41} date 2025-02-25T20:52:42+0000
; FORMAT={-:-/ absolute / inch / decimal}
; #@! TF.CreationDate,2025-02-25T20:52:42+00:00
; #@! TF.GenerationSoftware,Kicad,Pcbnew,8.0.8-2.fc41
; #@! TF.FileFunction,Plated,1,2,PTH
FMAT,2
INCH
; #@! TA.AperFunction,Plated,PTH,ComponentDrill
T1C0.0354
; #@! TA.AperFunction,Plated,PTH,ViaDrill
T2C0.0394
; #@! TA.AperFunction,Plated,PTH,ComponentDrill
T3C0.0394
; #@! TA.AperFunction,Plated,PTH,ComponentDrill
T4C0.0433
; #@! TA.AperFunction,Plated,PTH,ComponentDrill
T5C0.0551
; #@! TA.AperFunction,Plated,PTH,ComponentDrill
T6C0.0984
%
G90
G05
T1
X5.6988Y-6.125
X5.7988Y-6.125
X6.8716Y-3.9008
X6.8716Y-3.9992
X6.97Y-3.9008
X6.97Y-3.9992
X7.0684Y-3.9008
X7.0684Y-3.9992
T2
X4.325Y-4.15
X4.325Y-4.25
X4.325Y-4.35
X4.325Y-4.45
X4.325Y-4.55
X5.25Y-5.05
X5.4Y-2.55
X5.4Y-5.5
X5.425Y-2.325
X5.5Y-2.9
X5.5Y-5.85
X5.6Y-2.375
X5.6Y-2.675
X5.65Y-5.525
X5.675Y-5.425
X5.9Y-2.525
X6.0Y-2.0
X6.075Y-2.575
X6.1Y-2.35
X6.475Y-4.55
X6.475Y-5.6
X6.475Y-5.8
X6.475Y-6.0
X6.475Y-6.2
X6.65Y-5.7
X6.65Y-6.0
X6.85Y-4.6
X6.85Y-4.9
X6.975Y-4.2
T3
X4.2Y-4.1488
X4.2Y-4.2488
X4.2Y-4.3488
X4.2Y-4.4488
X4.2Y-4.5488
X4.2Y-4.6488
X7.1207Y-4.7008
X7.1207Y-4.7992
T4
X4.8514Y-2.35
X4.8514Y-2.45
X4.8514Y-2.55
X4.8514Y-5.3
X4.8514Y-5.4
X4.8514Y-5.5
X6.6486Y-2.35
X6.6486Y-2.45
X6.6486Y-2.55
T5
X6.7417Y-4.0327
X7.1983Y-3.8673
T6
X4.7Y-1.95
X4.7Y-2.95
X4.7Y-4.9
X4.7Y-5.9
X6.8Y-1.95
X6.8Y-2.95
T3
G00X6.9138Y-3.5394
M15
G01X6.9138Y-3.4606
M16
G05
G00X7.0713Y-3.315
M15
G01X6.9925Y-3.315
M16
G05
G00X7.15Y-3.5394
M15
G01X7.15Y-3.4606
M16
G05
M30
