G04 #@! TF.GenerationSoftware,KiCad,Pcbnew,8.0.8-2.fc41*
G04 #@! TF.CreationDate,2025-02-23T14:09:50+00:00*
G04 #@! TF.ProjectId,Power_supply,506f7765-725f-4737-9570-706c792e6b69,rev?*
G04 #@! TF.SameCoordinates,Original*
G04 #@! TF.FileFunction,Legend,Bot*
G04 #@! TF.FilePolarity,Positive*
%FSLAX46Y46*%
G04 Gerber Fmt 4.6, Leading zero omitted, Abs format (unit mm)*
G04 Created by KiCad (PCBNEW 8.0.8-2.fc41) date 2025-02-23 14:09:50*
%MOMM*%
%LPD*%
G01*
G04 APERTURE LIST*
G04 Aperture macros list*
%AMRoundRect*
0 Rectangle with rounded corners*
0 $1 Rounding radius*
0 $2 $3 $4 $5 $6 $7 $8 $9 X,Y pos of 4 corners*
0 Add a 4 corners polygon primitive as box body*
4,1,4,$2,$3,$4,$5,$6,$7,$8,$9,$2,$3,0*
0 Add four circle primitives for the rounded corners*
1,1,$1+$1,$2,$3*
1,1,$1+$1,$4,$5*
1,1,$1+$1,$6,$7*
1,1,$1+$1,$8,$9*
0 Add four rect primitives between the rounded corners*
20,1,$1+$1,$2,$3,$4,$5,0*
20,1,$1+$1,$4,$5,$6,$7,0*
20,1,$1+$1,$6,$7,$8,$9,0*
20,1,$1+$1,$8,$9,$2,$3,0*%
G04 Aperture macros list end*
%ADD10RoundRect,0.250000X-0.750000X0.600000X-0.750000X-0.600000X0.750000X-0.600000X0.750000X0.600000X0*%
%ADD11O,2.000000X1.700000*%
%ADD12R,1.800000X1.800000*%
%ADD13C,1.800000*%
%ADD14R,1.700000X1.700000*%
%ADD15O,1.700000X1.700000*%
%ADD16C,3.200000*%
%ADD17R,2.000000X1.905000*%
%ADD18O,2.000000X1.905000*%
%ADD19C,6.000000*%
%ADD20R,3.500000X3.500000*%
%ADD21RoundRect,0.750000X0.750000X1.000000X-0.750000X1.000000X-0.750000X-1.000000X0.750000X-1.000000X0*%
%ADD22RoundRect,0.875000X0.875000X0.875000X-0.875000X0.875000X-0.875000X-0.875000X0.875000X-0.875000X0*%
%ADD23C,2.400000*%
%ADD24C,1.600000*%
G04 APERTURE END LIST*
%LPC*%
D10*
X180865000Y-119400000D03*
D11*
X180865000Y-121900000D03*
D12*
X142240000Y-155575000D03*
D13*
X144780000Y-155575000D03*
D14*
X106680000Y-105380000D03*
D15*
X106680000Y-107920000D03*
X106680000Y-110460000D03*
X106680000Y-113000000D03*
X106680000Y-115540000D03*
X106680000Y-118080000D03*
D16*
X107000000Y-39500000D03*
D17*
X123225000Y-139700000D03*
D18*
X123225000Y-137160000D03*
X123225000Y-134620000D03*
D17*
X123225000Y-64770000D03*
D18*
X123225000Y-62230000D03*
X123225000Y-59690000D03*
D19*
X119380000Y-149860000D03*
X119380000Y-124460000D03*
D16*
X182500000Y-39500000D03*
D17*
X168875000Y-59690000D03*
D18*
X168875000Y-62230000D03*
X168875000Y-64770000D03*
D16*
X107000000Y-159500000D03*
D19*
X119380000Y-74930000D03*
X119380000Y-49530000D03*
D20*
X175610000Y-88900000D03*
D21*
X181610000Y-88900000D03*
D22*
X178610000Y-84200000D03*
D16*
X182500000Y-159500000D03*
D19*
X172720000Y-49530000D03*
X172720000Y-74930000D03*
D23*
X171238000Y-102430000D03*
X182838000Y-98230000D03*
D24*
X174538000Y-101580000D03*
X177038000Y-101580000D03*
X179538000Y-101580000D03*
X174538000Y-99080000D03*
X177038000Y-99080000D03*
X179538000Y-99080000D03*
%LPD*%
M02*
