G04 #@! TF.GenerationSoftware,KiCad,Pcbnew,8.0.9-1.fc41*
G04 #@! TF.CreationDate,2025-02-27T22:12:54+00:00*
G04 #@! TF.ProjectId,SCART_switcher,53434152-545f-4737-9769-74636865722e,rev?*
G04 #@! TF.SameCoordinates,Original*
G04 #@! TF.FileFunction,Soldermask,Top*
G04 #@! TF.FilePolarity,Negative*
%FSLAX46Y46*%
G04 Gerber Fmt 4.6, Leading zero omitted, Abs format (unit mm)*
G04 Created by KiCad (PCBNEW 8.0.9-1.fc41) date 2025-02-27 22:12:54*
%MOMM*%
%LPD*%
G01*
G04 APERTURE LIST*
G04 Aperture macros list*
%AMRoundRect*
0 Rectangle with rounded corners*
0 $1 Rounding radius*
0 $2 $3 $4 $5 $6 $7 $8 $9 X,Y pos of 4 corners*
0 Add a 4 corners polygon primitive as box body*
4,1,4,$2,$3,$4,$5,$6,$7,$8,$9,$2,$3,0*
0 Add four circle primitives for the rounded corners*
1,1,$1+$1,$2,$3*
1,1,$1+$1,$4,$5*
1,1,$1+$1,$6,$7*
1,1,$1+$1,$8,$9*
0 Add four rect primitives between the rounded corners*
20,1,$1+$1,$2,$3,$4,$5,0*
20,1,$1+$1,$4,$5,$6,$7,0*
20,1,$1+$1,$6,$7,$8,$9,0*
20,1,$1+$1,$8,$9,$2,$3,0*%
G04 Aperture macros list end*
%ADD10RoundRect,0.250000X0.450000X-0.262500X0.450000X0.262500X-0.450000X0.262500X-0.450000X-0.262500X0*%
%ADD11RoundRect,0.250000X0.300000X-0.300000X0.300000X0.300000X-0.300000X0.300000X-0.300000X-0.300000X0*%
%ADD12RoundRect,0.250000X-0.262500X-0.450000X0.262500X-0.450000X0.262500X0.450000X-0.262500X0.450000X0*%
%ADD13C,5.500000*%
%ADD14RoundRect,0.150000X0.150000X-0.587500X0.150000X0.587500X-0.150000X0.587500X-0.150000X-0.587500X0*%
%ADD15RoundRect,0.250000X0.650000X-0.325000X0.650000X0.325000X-0.650000X0.325000X-0.650000X-0.325000X0*%
%ADD16RoundRect,0.100000X0.225000X0.100000X-0.225000X0.100000X-0.225000X-0.100000X0.225000X-0.100000X0*%
%ADD17RoundRect,0.100000X0.100000X-0.225000X0.100000X0.225000X-0.100000X0.225000X-0.100000X-0.225000X0*%
%ADD18RoundRect,0.250000X-0.450000X0.262500X-0.450000X-0.262500X0.450000X-0.262500X0.450000X0.262500X0*%
%ADD19RoundRect,0.150000X-0.512500X-0.150000X0.512500X-0.150000X0.512500X0.150000X-0.512500X0.150000X0*%
%ADD20RoundRect,0.225000X0.225000X0.250000X-0.225000X0.250000X-0.225000X-0.250000X0.225000X-0.250000X0*%
%ADD21RoundRect,0.225000X-0.250000X0.225000X-0.250000X-0.225000X0.250000X-0.225000X0.250000X0.225000X0*%
%ADD22RoundRect,0.150000X-0.587500X-0.150000X0.587500X-0.150000X0.587500X0.150000X-0.587500X0.150000X0*%
%ADD23RoundRect,0.150000X0.825000X0.150000X-0.825000X0.150000X-0.825000X-0.150000X0.825000X-0.150000X0*%
%ADD24RoundRect,0.225000X-0.225000X-0.250000X0.225000X-0.250000X0.225000X0.250000X-0.225000X0.250000X0*%
%ADD25R,1.800000X1.800000*%
%ADD26C,1.800000*%
%ADD27RoundRect,0.250000X0.262500X0.450000X-0.262500X0.450000X-0.262500X-0.450000X0.262500X-0.450000X0*%
%ADD28O,3.000000X2.000000*%
%ADD29RoundRect,0.150000X0.512500X0.150000X-0.512500X0.150000X-0.512500X-0.150000X0.512500X-0.150000X0*%
%ADD30RoundRect,0.250000X1.050000X0.550000X-1.050000X0.550000X-1.050000X-0.550000X1.050000X-0.550000X0*%
%ADD31RoundRect,0.250000X-0.300000X-0.300000X0.300000X-0.300000X0.300000X0.300000X-0.300000X0.300000X0*%
%ADD32RoundRect,0.150000X0.587500X0.150000X-0.587500X0.150000X-0.587500X-0.150000X0.587500X-0.150000X0*%
%ADD33O,3.500000X2.000000*%
%ADD34O,2.300000X3.500000*%
%ADD35R,1.700000X1.700000*%
%ADD36O,1.700000X1.700000*%
G04 APERTURE END LIST*
D10*
X81500000Y-151412500D03*
X81500000Y-149587500D03*
D11*
X150500000Y-151900000D03*
X150500000Y-149100000D03*
D10*
X218750000Y-151412500D03*
X218750000Y-149587500D03*
D12*
X65587500Y-149000000D03*
X67412500Y-149000000D03*
D13*
X164000000Y-83000000D03*
D14*
X36550000Y-70687500D03*
X38450000Y-70687500D03*
X37500000Y-68812500D03*
D15*
X194000000Y-84975000D03*
X194000000Y-82025000D03*
D16*
X189500000Y-53150000D03*
X189500000Y-52500000D03*
X189500000Y-51850000D03*
X187600000Y-51850000D03*
X187600000Y-53150000D03*
D17*
X141350000Y-54950000D03*
X142000000Y-54950000D03*
X142650000Y-54950000D03*
X142650000Y-53050000D03*
X141350000Y-53050000D03*
D18*
X198500000Y-126087500D03*
X198500000Y-127912500D03*
D19*
X238362500Y-43050000D03*
X238362500Y-44000000D03*
X238362500Y-44950000D03*
X240637500Y-44950000D03*
X240637500Y-43050000D03*
D16*
X159500000Y-53150000D03*
X159500000Y-52500000D03*
X159500000Y-51850000D03*
X157600000Y-51850000D03*
X157600000Y-53150000D03*
D18*
X15500000Y-146837500D03*
X15500000Y-148662500D03*
X198500000Y-137587500D03*
X198500000Y-139412500D03*
D20*
X202775000Y-71500000D03*
X201225000Y-71500000D03*
D21*
X109500000Y-53225000D03*
X109500000Y-54775000D03*
D10*
X38000000Y-154912500D03*
X38000000Y-153087500D03*
D11*
X90500000Y-151900000D03*
X90500000Y-149100000D03*
D18*
X244000000Y-151337500D03*
X244000000Y-153162500D03*
D11*
X120500000Y-151900000D03*
X120500000Y-149100000D03*
D10*
X84650000Y-154912500D03*
X84650000Y-153087500D03*
D16*
X129500000Y-53150000D03*
X129500000Y-52500000D03*
X129500000Y-51850000D03*
X127600000Y-51850000D03*
X127600000Y-53150000D03*
D11*
X60500000Y-151900000D03*
X60500000Y-149100000D03*
D22*
X63625000Y-151050000D03*
X63625000Y-152950000D03*
X65500000Y-152000000D03*
X53625000Y-149500000D03*
X53625000Y-151400000D03*
X55500000Y-150450000D03*
X183625000Y-151050000D03*
X183625000Y-152950000D03*
X185500000Y-152000000D03*
D18*
X225250000Y-149587500D03*
X225250000Y-151412500D03*
D12*
X35587500Y-149000000D03*
X37412500Y-149000000D03*
D10*
X184500000Y-70662500D03*
X184500000Y-68837500D03*
X28000000Y-148912500D03*
X28000000Y-147087500D03*
X88000000Y-148912500D03*
X88000000Y-147087500D03*
X54650000Y-154912500D03*
X54650000Y-153087500D03*
D13*
X44000000Y-83000000D03*
D18*
X15500000Y-150587500D03*
X15500000Y-152412500D03*
D23*
X205975000Y-128905000D03*
X205975000Y-127635000D03*
X205975000Y-126365000D03*
X205975000Y-125095000D03*
X201025000Y-125095000D03*
X201025000Y-126365000D03*
X201025000Y-127635000D03*
X201025000Y-128905000D03*
D16*
X99500000Y-53150000D03*
X99500000Y-52500000D03*
X99500000Y-51850000D03*
X97600000Y-51850000D03*
X97600000Y-53150000D03*
D10*
X178000000Y-148912500D03*
X178000000Y-147087500D03*
X174650000Y-154912500D03*
X174650000Y-153087500D03*
D24*
X187725000Y-55000000D03*
X189275000Y-55000000D03*
D13*
X164000000Y-141000000D03*
D10*
X158000000Y-154912500D03*
X158000000Y-153087500D03*
X24650000Y-154912500D03*
X24650000Y-153087500D03*
D11*
X30500000Y-151900000D03*
X30500000Y-149100000D03*
D17*
X81350000Y-54950000D03*
X82000000Y-54950000D03*
X82650000Y-54950000D03*
X82650000Y-53050000D03*
X81350000Y-53050000D03*
D10*
X154500000Y-70662500D03*
X154500000Y-68837500D03*
D21*
X49500000Y-53225000D03*
X49500000Y-54775000D03*
D25*
X30275000Y-68750000D03*
D26*
X27735000Y-68750000D03*
D18*
X253000000Y-75337500D03*
X253000000Y-77162500D03*
D10*
X196000000Y-139412500D03*
X196000000Y-137587500D03*
D14*
X66550000Y-70687500D03*
X68450000Y-70687500D03*
X67500000Y-68812500D03*
D27*
X241412500Y-155500000D03*
X239587500Y-155500000D03*
D22*
X33625000Y-151050000D03*
X33625000Y-152950000D03*
X35500000Y-152000000D03*
D10*
X114650000Y-154912500D03*
X114650000Y-153087500D03*
X68000000Y-154912500D03*
X68000000Y-153087500D03*
D22*
X113625000Y-149500000D03*
X113625000Y-151400000D03*
X115500000Y-150450000D03*
D28*
X25900707Y-130404293D03*
X32000707Y-128499293D03*
X25900707Y-126594293D03*
X32000707Y-124689293D03*
X25900707Y-122784293D03*
X32000707Y-120879293D03*
X25900707Y-118974293D03*
X32000707Y-117069293D03*
X25900707Y-115164293D03*
X32000707Y-113259293D03*
X25900707Y-111354293D03*
X32000707Y-109449293D03*
X25900707Y-107544293D03*
X32000707Y-105639293D03*
X25900707Y-103734293D03*
X32000707Y-101829293D03*
X25900707Y-99924293D03*
X32000707Y-98019293D03*
X25900707Y-96114293D03*
X32000707Y-94209293D03*
X25900707Y-92304293D03*
D19*
X257862500Y-75300000D03*
X257862500Y-77200000D03*
X260137500Y-76250000D03*
D22*
X173625000Y-149500000D03*
X173625000Y-151400000D03*
X175500000Y-150450000D03*
D15*
X206000000Y-84975000D03*
X206000000Y-82025000D03*
D16*
X69500000Y-53150000D03*
X69500000Y-52500000D03*
X69500000Y-51850000D03*
X67600000Y-51850000D03*
X67600000Y-53150000D03*
D28*
X55900707Y-130404293D03*
X62000707Y-128499293D03*
X55900707Y-126594293D03*
X62000707Y-124689293D03*
X55900707Y-122784293D03*
X62000707Y-120879293D03*
X55900707Y-118974293D03*
X62000707Y-117069293D03*
X55900707Y-115164293D03*
X62000707Y-113259293D03*
X55900707Y-111354293D03*
X62000707Y-109449293D03*
X55900707Y-107544293D03*
X62000707Y-105639293D03*
X55900707Y-103734293D03*
X62000707Y-101829293D03*
X55900707Y-99924293D03*
X62000707Y-98019293D03*
X55900707Y-96114293D03*
X62000707Y-94209293D03*
X55900707Y-92304293D03*
D29*
X241637500Y-153200000D03*
X241637500Y-151300000D03*
X239362500Y-152250000D03*
D14*
X126550000Y-70687500D03*
X128450000Y-70687500D03*
X127500000Y-68812500D03*
D13*
X256000000Y-90000000D03*
D25*
X180275000Y-68750000D03*
D26*
X177735000Y-68750000D03*
D12*
X155587500Y-149000000D03*
X157412500Y-149000000D03*
D17*
X51350000Y-54950000D03*
X52000000Y-54950000D03*
X52650000Y-54950000D03*
X52650000Y-53050000D03*
X51350000Y-53050000D03*
D18*
X208500000Y-127587500D03*
X208500000Y-129412500D03*
D24*
X97725000Y-55000000D03*
X99275000Y-55000000D03*
D28*
X175900707Y-130404293D03*
X182000707Y-128499293D03*
X175900707Y-126594293D03*
X182000707Y-124689293D03*
X175900707Y-122784293D03*
X182000707Y-120879293D03*
X175900707Y-118974293D03*
X182000707Y-117069293D03*
X175900707Y-115164293D03*
X182000707Y-113259293D03*
X175900707Y-111354293D03*
X182000707Y-109449293D03*
X175900707Y-107544293D03*
X182000707Y-105639293D03*
X175900707Y-103734293D03*
X182000707Y-101829293D03*
X175900707Y-99924293D03*
X182000707Y-98019293D03*
X175900707Y-96114293D03*
X182000707Y-94209293D03*
X175900707Y-92304293D03*
D10*
X128000000Y-154912500D03*
X128000000Y-153087500D03*
D18*
X40500000Y-68837500D03*
X40500000Y-70662500D03*
D25*
X60275000Y-68750000D03*
D26*
X57735000Y-68750000D03*
D18*
X130500000Y-68837500D03*
X130500000Y-70662500D03*
D10*
X118000000Y-148912500D03*
X118000000Y-147087500D03*
D14*
X96550000Y-70687500D03*
X98450000Y-70687500D03*
X97500000Y-68812500D03*
D22*
X23625000Y-149500000D03*
X23625000Y-151400000D03*
X25500000Y-150450000D03*
D17*
X171350000Y-54950000D03*
X172000000Y-54950000D03*
X172650000Y-54950000D03*
X172650000Y-53050000D03*
X171350000Y-53050000D03*
D13*
X104000000Y-140000000D03*
D24*
X67725000Y-55000000D03*
X69275000Y-55000000D03*
D10*
X98000000Y-154912500D03*
X98000000Y-153087500D03*
D12*
X185587500Y-149000000D03*
X187412500Y-149000000D03*
D18*
X208500000Y-151087500D03*
X208500000Y-152912500D03*
X190500000Y-68837500D03*
X190500000Y-70662500D03*
D10*
X16000000Y-57912500D03*
X16000000Y-56087500D03*
X255500000Y-77162500D03*
X255500000Y-75337500D03*
D18*
X70500000Y-68837500D03*
X70500000Y-70662500D03*
D22*
X83625000Y-149500000D03*
X83625000Y-151400000D03*
X85500000Y-150450000D03*
D10*
X21500000Y-151412500D03*
X21500000Y-149587500D03*
D21*
X19500000Y-53225000D03*
X19500000Y-54775000D03*
D30*
X203800000Y-67500000D03*
X200200000Y-67500000D03*
D31*
X235600000Y-40000000D03*
X238400000Y-40000000D03*
D14*
X156550000Y-70687500D03*
X158450000Y-70687500D03*
X157500000Y-68812500D03*
D10*
X211000000Y-140912500D03*
X211000000Y-139087500D03*
D18*
X100500000Y-68837500D03*
X100500000Y-70662500D03*
D10*
X58000000Y-148912500D03*
X58000000Y-147087500D03*
X166000000Y-57912500D03*
X166000000Y-56087500D03*
D25*
X150275000Y-68750000D03*
D26*
X147735000Y-68750000D03*
D18*
X198500000Y-149587500D03*
X198500000Y-151412500D03*
D10*
X106000000Y-57912500D03*
X106000000Y-56087500D03*
D22*
X123625000Y-151050000D03*
X123625000Y-152950000D03*
X125500000Y-152000000D03*
D12*
X95587500Y-149000000D03*
X97412500Y-149000000D03*
D10*
X141500000Y-151412500D03*
X141500000Y-149587500D03*
X34500000Y-70662500D03*
X34500000Y-68837500D03*
X51500000Y-151412500D03*
X51500000Y-149587500D03*
D17*
X111350000Y-54950000D03*
X112000000Y-54950000D03*
X112650000Y-54950000D03*
X112650000Y-53050000D03*
X111350000Y-53050000D03*
D10*
X211000000Y-129412500D03*
X211000000Y-127587500D03*
D22*
X153625000Y-151050000D03*
X153625000Y-152950000D03*
X155500000Y-152000000D03*
D21*
X139500000Y-53225000D03*
X139500000Y-54775000D03*
D13*
X104000000Y-83000000D03*
D23*
X205975000Y-140405000D03*
X205975000Y-139135000D03*
X205975000Y-137865000D03*
X205975000Y-136595000D03*
X201025000Y-136595000D03*
X201025000Y-137865000D03*
X201025000Y-139135000D03*
X201025000Y-140405000D03*
D32*
X222937500Y-151450000D03*
X222937500Y-149550000D03*
X221062500Y-150500000D03*
D10*
X196000000Y-127912500D03*
X196000000Y-126087500D03*
D28*
X85900707Y-130404293D03*
X92000707Y-128499293D03*
X85900707Y-126594293D03*
X92000707Y-124689293D03*
X85900707Y-122784293D03*
X92000707Y-120879293D03*
X85900707Y-118974293D03*
X92000707Y-117069293D03*
X85900707Y-115164293D03*
X92000707Y-113259293D03*
X85900707Y-111354293D03*
X92000707Y-109449293D03*
X85900707Y-107544293D03*
X92000707Y-105639293D03*
X85900707Y-103734293D03*
X92000707Y-101829293D03*
X85900707Y-99924293D03*
X92000707Y-98019293D03*
X85900707Y-96114293D03*
X92000707Y-94209293D03*
X85900707Y-92304293D03*
X115900707Y-130404293D03*
X122000707Y-128499293D03*
X115900707Y-126594293D03*
X122000707Y-124689293D03*
X115900707Y-122784293D03*
X122000707Y-120879293D03*
X115900707Y-118974293D03*
X122000707Y-117069293D03*
X115900707Y-115164293D03*
X122000707Y-113259293D03*
X115900707Y-111354293D03*
X122000707Y-109449293D03*
X115900707Y-107544293D03*
X122000707Y-105639293D03*
X115900707Y-103734293D03*
X122000707Y-101829293D03*
X115900707Y-99924293D03*
X122000707Y-98019293D03*
X115900707Y-96114293D03*
X122000707Y-94209293D03*
X115900707Y-92304293D03*
D16*
X39500000Y-53150000D03*
X39500000Y-52500000D03*
X39500000Y-51850000D03*
X37600000Y-51850000D03*
X37600000Y-53150000D03*
D33*
X207250707Y-118354293D03*
D34*
X198550707Y-118354293D03*
D24*
X37725000Y-55000000D03*
X39275000Y-55000000D03*
X157725000Y-55000000D03*
X159275000Y-55000000D03*
D10*
X124500000Y-70662500D03*
X124500000Y-68837500D03*
D18*
X208500000Y-139087500D03*
X208500000Y-140912500D03*
X15500000Y-77087500D03*
X15500000Y-78912500D03*
D10*
X171500000Y-151412500D03*
X171500000Y-149587500D03*
X111500000Y-151412500D03*
X111500000Y-149587500D03*
D27*
X242412500Y-40000000D03*
X240587500Y-40000000D03*
D11*
X180500000Y-151900000D03*
X180500000Y-149100000D03*
D12*
X125587500Y-149000000D03*
X127412500Y-149000000D03*
D21*
X79500000Y-53225000D03*
X79500000Y-54775000D03*
D13*
X256000000Y-134000000D03*
D33*
X207250707Y-104354293D03*
D34*
X198550707Y-104354293D03*
D17*
X21350000Y-54950000D03*
X22000000Y-54950000D03*
X22650000Y-54950000D03*
X22650000Y-53050000D03*
X21350000Y-53050000D03*
D10*
X64500000Y-70662500D03*
X64500000Y-68837500D03*
X144650000Y-154912500D03*
X144650000Y-153087500D03*
X94500000Y-70662500D03*
X94500000Y-68837500D03*
D14*
X186550000Y-70687500D03*
X188450000Y-70687500D03*
X187500000Y-68812500D03*
D18*
X160500000Y-68837500D03*
X160500000Y-70662500D03*
D13*
X44000000Y-140000000D03*
D28*
X225900707Y-130404293D03*
X232000707Y-128499293D03*
X225900707Y-126594293D03*
X232000707Y-124689293D03*
X225900707Y-122784293D03*
X232000707Y-120879293D03*
X225900707Y-118974293D03*
X232000707Y-117069293D03*
X225900707Y-115164293D03*
X232000707Y-113259293D03*
X225900707Y-111354293D03*
X232000707Y-109449293D03*
X225900707Y-107544293D03*
X232000707Y-105639293D03*
X225900707Y-103734293D03*
X232000707Y-101829293D03*
X225900707Y-99924293D03*
X232000707Y-98019293D03*
X225900707Y-96114293D03*
X232000707Y-94209293D03*
X225900707Y-92304293D03*
D23*
X205975000Y-152405000D03*
X205975000Y-151135000D03*
X205975000Y-149865000D03*
X205975000Y-148595000D03*
X201025000Y-148595000D03*
X201025000Y-149865000D03*
X201025000Y-151135000D03*
X201025000Y-152405000D03*
D25*
X120275000Y-68750000D03*
D26*
X117735000Y-68750000D03*
D10*
X76000000Y-57912500D03*
X76000000Y-56087500D03*
D15*
X218000000Y-84975000D03*
X218000000Y-82025000D03*
D10*
X246500000Y-153162500D03*
X246500000Y-151337500D03*
D30*
X227800000Y-67500000D03*
X224200000Y-67500000D03*
D25*
X90275000Y-68750000D03*
D26*
X87735000Y-68750000D03*
D28*
X145900707Y-130404293D03*
X152000707Y-128499293D03*
X145900707Y-126594293D03*
X152000707Y-124689293D03*
X145900707Y-122784293D03*
X152000707Y-120879293D03*
X145900707Y-118974293D03*
X152000707Y-117069293D03*
X145900707Y-115164293D03*
X152000707Y-113259293D03*
X145900707Y-111354293D03*
X152000707Y-109449293D03*
X145900707Y-107544293D03*
X152000707Y-105639293D03*
X145900707Y-103734293D03*
X152000707Y-101829293D03*
X145900707Y-99924293D03*
X152000707Y-98019293D03*
X145900707Y-96114293D03*
X152000707Y-94209293D03*
X145900707Y-92304293D03*
D10*
X188000000Y-154912500D03*
X188000000Y-153087500D03*
D20*
X226775000Y-71500000D03*
X225225000Y-71500000D03*
D12*
X258087500Y-73000000D03*
X259912500Y-73000000D03*
D21*
X169500000Y-53225000D03*
X169500000Y-54775000D03*
D22*
X93625000Y-151050000D03*
X93625000Y-152950000D03*
X95500000Y-152000000D03*
D21*
X242500000Y-43225000D03*
X242500000Y-44775000D03*
D24*
X127725000Y-55000000D03*
X129275000Y-55000000D03*
D10*
X46000000Y-57912500D03*
X46000000Y-56087500D03*
X148000000Y-148912500D03*
X148000000Y-147087500D03*
D22*
X143625000Y-149500000D03*
X143625000Y-151400000D03*
X145500000Y-150450000D03*
D10*
X136000000Y-57912500D03*
X136000000Y-56087500D03*
D35*
X264500000Y-105380000D03*
D36*
X264500000Y-107920000D03*
X264500000Y-110460000D03*
X264500000Y-113000000D03*
X264500000Y-115540000D03*
X264500000Y-118080000D03*
M02*
