M48
; DRILL file {KiCad 8.0.8-2.fc41} date 2025-02-07T13:19:25+0000
; FORMAT={-:-/ absolute / inch / decimal}
; #@! TF.CreationDate,2025-02-07T13:19:25+00:00
; #@! TF.GenerationSoftware,Kicad,Pcbnew,8.0.8-2.fc41
; #@! TF.FileFunction,Plated,1,4,PTH
FMAT,2
INCH
; #@! TA.AperFunction,Plated,PTH,ViaDrill
T1C0.0157
; #@! TA.AperFunction,Plated,PTH,ViaDrill
T2C0.0236
; #@! TA.AperFunction,Plated,PTH,ComponentDrill
T3C0.0354
; #@! TA.AperFunction,Plated,PTH,ComponentDrill
T4C0.0394
; #@! TA.AperFunction,Plated,PTH,ComponentDrill
T5C0.0512
%
G90
G05
T1
X0.5906Y-2.0472
X0.5906Y-2.0866
X0.6102Y-3.1496
X0.6102Y-5.9055
X0.689Y-5.5709
X0.7087Y-2.0472
X0.7087Y-2.1457
X0.7087Y-2.2047
X0.7087Y-2.2638
X0.7087Y-2.5
X0.7283Y-5.9055
X0.748Y-2.9134
X0.748Y-2.9528
X0.748Y-3.0906
X0.748Y-3.1693
X0.748Y-5.5906
X0.7677Y-1.6142
X0.7874Y-2.4213
X0.7874Y-5.8661
X0.8268Y-1.6535
X0.8268Y-2.2795
X0.8465Y-5.2559
X0.8465Y-6.0236
X0.8661Y-2.3622
X0.8858Y-1.6929
X0.9252Y-2.2835
X0.9252Y-2.4803
X0.9252Y-2.5394
X0.9252Y-2.8937
X0.9252Y-6.2402
X0.9449Y-1.7323
X0.9449Y-5.7677
X0.9646Y-2.185
X0.9646Y-2.2441
X0.9646Y-3.3071
X0.9646Y-6.2795
X1.0039Y-1.5551
X1.0039Y-1.7717
X1.0236Y-2.2835
X1.0236Y-2.4409
X1.0236Y-2.5
X1.063Y-1.811
X1.0827Y-5.6299
X1.1024Y-2.4213
X1.122Y-1.8504
X1.1417Y-2.2441
X1.1417Y-3.1102
X1.1417Y-3.3661
X1.1417Y-5.6102
X1.1614Y-6.0434
X1.1811Y-1.8898
X1.1811Y-2.3622
X1.2205Y-1.5551
X1.2402Y-1.9291
X1.2402Y-2.2835
X1.2402Y-2.4803
X1.2402Y-2.5394
X1.2795Y-2.2441
X1.2992Y-1.5551
X1.2992Y-6.1417
X1.3189Y-3.4646
X1.3386Y-2.0866
X1.3386Y-2.2835
X1.3386Y-2.4409
X1.3386Y-2.5
X1.3386Y-5.8465
X1.3583Y-2.8937
X1.3583Y-4.2323
X1.3976Y-2.1457
X1.3976Y-2.185
X1.3976Y-5.2559
X1.3976Y-6.0433
X1.4173Y-1.811
X1.437Y-1.9685
X1.437Y-2.2244
X1.437Y-2.4213
X1.4567Y-5.9843
X1.4764Y-5.7087
X1.4764Y-5.748
X1.4764Y-6.2795
X1.4961Y-1.5354
X1.5157Y-4.2126
X1.5157Y-4.3307
X1.5157Y-6.3189
X1.5354Y-2.7165
X1.5354Y-2.8937
X1.5354Y-2.9528
X1.5551Y-1.5354
X1.5551Y-2.2047
X1.5551Y-2.4803
X1.5551Y-2.5394
X1.5748Y-2.0079
X1.5945Y-2.6181
X1.6142Y-2.0866
X1.6142Y-2.3622
X1.7717Y-2.0472
X1.7717Y-2.0866
X1.8701Y-5.5709
X1.8898Y-2.0472
X1.8898Y-2.1457
X1.8898Y-2.2047
X1.8898Y-2.2638
X1.8898Y-2.5
X1.9094Y-5.9055
X1.9291Y-2.9134
X1.9291Y-2.9528
X1.9291Y-3.0906
X1.9291Y-3.1693
X1.9291Y-5.5906
X1.9488Y-1.6142
X1.9685Y-2.4213
X1.9685Y-5.8661
X2.0079Y-1.6535
X2.0079Y-2.2795
X2.0276Y-5.2559
X2.0276Y-6.0236
X2.0472Y-2.3622
X2.0669Y-1.6929
X2.1063Y-2.2835
X2.1063Y-2.4803
X2.1063Y-2.5394
X2.1063Y-2.8937
X2.1063Y-6.2402
X2.126Y-1.7323
X2.126Y-5.7677
X2.1457Y-2.185
X2.1457Y-2.2441
X2.1457Y-3.3071
X2.1457Y-6.2795
X2.185Y-1.5551
X2.185Y-1.7717
X2.2047Y-2.2835
X2.2047Y-2.4409
X2.2047Y-2.5
X2.2441Y-1.811
X2.2638Y-5.6299
X2.2835Y-1.5354
X2.2835Y-2.4213
X2.3031Y-1.8504
X2.3228Y-2.2441
X2.3228Y-3.1102
X2.3228Y-3.3661
X2.3228Y-5.6102
X2.3425Y-6.0434
X2.3622Y-1.8898
X2.3622Y-2.3622
X2.4016Y-1.5551
X2.4213Y-1.9291
X2.4213Y-2.2835
X2.4213Y-2.4803
X2.4213Y-2.5394
X2.4606Y-2.2441
X2.4803Y-1.5551
X2.4803Y-6.1417
X2.5Y-3.4646
X2.5197Y-2.0866
X2.5197Y-2.2835
X2.5197Y-2.4409
X2.5197Y-2.5
X2.5197Y-5.8465
X2.5394Y-2.8937
X2.5394Y-4.2323
X2.5782Y-1.5349
X2.5787Y-2.1457
X2.5787Y-2.185
X2.5787Y-5.2559
X2.5787Y-6.0433
X2.5984Y-1.811
X2.6181Y-1.9685
X2.6181Y-2.2244
X2.6181Y-2.4213
X2.6378Y-5.9843
X2.6575Y-5.7087
X2.6575Y-5.748
X2.6772Y-1.5354
X2.6969Y-4.2126
X2.6969Y-4.3307
X2.6969Y-6.3189
X2.7165Y-2.7165
X2.7165Y-2.8937
X2.7165Y-2.9528
X2.7362Y-1.5354
X2.7362Y-2.2047
X2.7362Y-2.4803
X2.7362Y-2.5394
X2.7362Y-6.2795
X2.7559Y-2.0079
X2.7756Y-2.6181
X2.7953Y-2.0866
X2.7953Y-2.3622
X2.9528Y-2.0472
X2.9528Y-2.0866
X3.0512Y-5.5709
X3.0709Y-2.0472
X3.0709Y-2.1457
X3.0709Y-2.2047
X3.0709Y-2.2638
X3.0709Y-2.5
X3.0906Y-5.9055
X3.1102Y-2.9134
X3.1102Y-2.9528
X3.1102Y-3.0906
X3.1102Y-3.1693
X3.1102Y-5.5906
X3.1299Y-1.6142
X3.1496Y-2.4213
X3.1496Y-5.8661
X3.189Y-1.6535
X3.189Y-2.2795
X3.2087Y-5.2559
X3.2087Y-6.0236
X3.2283Y-2.3622
X3.248Y-1.6929
X3.2874Y-2.2835
X3.2874Y-2.4803
X3.2874Y-2.5394
X3.2874Y-2.8937
X3.2874Y-6.2402
X3.3071Y-1.7323
X3.3071Y-5.7677
X3.3268Y-2.185
X3.3268Y-2.2441
X3.3268Y-3.3071
X3.3268Y-6.2795
X3.3661Y-1.5551
X3.3661Y-1.7717
X3.3858Y-2.2835
X3.3858Y-2.4409
X3.3858Y-2.5
X3.4252Y-1.811
X3.4449Y-5.6299
X3.4646Y-2.4213
X3.4651Y-1.536
X3.4843Y-1.8504
X3.5039Y-2.2441
X3.5039Y-3.1102
X3.5039Y-3.3661
X3.5039Y-5.6102
X3.5236Y-6.0434
X3.5433Y-1.8898
X3.5433Y-2.3622
X3.5827Y-1.5551
X3.6024Y-1.9291
X3.6024Y-2.2835
X3.6024Y-2.4803
X3.6024Y-2.5394
X3.6417Y-2.2441
X3.6614Y-1.5551
X3.6614Y-6.1417
X3.6811Y-3.4646
X3.7008Y-2.0866
X3.7008Y-2.2835
X3.7008Y-2.4409
X3.7008Y-2.5
X3.7008Y-5.8465
X3.7205Y-2.8937
X3.7205Y-4.2323
X3.7598Y-1.5354
X3.7598Y-2.1457
X3.7598Y-2.185
X3.7598Y-5.2559
X3.7598Y-6.0433
X3.7795Y-1.811
X3.7992Y-1.9685
X3.7992Y-2.2244
X3.7992Y-2.4213
X3.8189Y-5.9843
X3.8386Y-5.7087
X3.8386Y-5.748
X3.8583Y-1.5354
X3.878Y-4.2126
X3.878Y-4.3307
X3.878Y-6.3189
X3.8976Y-2.7165
X3.8976Y-2.8937
X3.8976Y-2.9528
X3.9173Y-1.5354
X3.9173Y-2.2047
X3.9173Y-2.4803
X3.9173Y-2.5394
X3.9173Y-6.2795
X3.937Y-2.0079
X3.9567Y-2.6181
X3.9764Y-2.0866
X3.9764Y-2.3622
X4.1339Y-2.0472
X4.1339Y-2.0866
X4.2323Y-5.5709
X4.252Y-2.0472
X4.252Y-2.1457
X4.252Y-2.2047
X4.252Y-2.2638
X4.252Y-2.5
X4.2717Y-5.9055
X4.2913Y-2.9134
X4.2913Y-2.9528
X4.2913Y-3.0906
X4.2913Y-3.1693
X4.2913Y-5.5906
X4.311Y-1.6142
X4.3307Y-2.4213
X4.3307Y-5.8661
X4.3701Y-1.6535
X4.3701Y-2.2795
X4.3898Y-5.2559
X4.3898Y-6.0236
X4.4094Y-2.3622
X4.4291Y-1.6929
X4.4685Y-2.2835
X4.4685Y-2.4803
X4.4685Y-2.5394
X4.4685Y-2.8937
X4.4685Y-6.2402
X4.4882Y-1.7323
X4.4882Y-5.7677
X4.5079Y-2.185
X4.5079Y-2.2441
X4.5079Y-3.3071
X4.5079Y-6.2795
X4.5472Y-1.5551
X4.5472Y-1.7717
X4.5669Y-2.2835
X4.5669Y-2.4409
X4.5669Y-2.5
X4.6063Y-1.811
X4.626Y-5.6299
X4.6457Y-2.4213
X4.6462Y-1.536
X4.6654Y-1.8504
X4.685Y-2.2441
X4.685Y-3.1102
X4.685Y-3.3661
X4.685Y-5.6102
X4.7047Y-6.0434
X4.7244Y-1.8898
X4.7244Y-2.3622
X4.7638Y-1.5551
X4.7835Y-1.9291
X4.7835Y-2.2835
X4.7835Y-2.4803
X4.7835Y-2.5394
X4.8228Y-2.2441
X4.8425Y-1.5551
X4.8425Y-6.1417
X4.8622Y-3.4646
X4.8819Y-2.0866
X4.8819Y-2.2835
X4.8819Y-2.4409
X4.8819Y-2.5
X4.8819Y-5.8465
X4.9016Y-2.8937
X4.9016Y-4.2323
X4.9409Y-1.5354
X4.9409Y-2.1457
X4.9409Y-2.185
X4.9409Y-5.2559
X4.9409Y-6.0433
X4.9606Y-1.811
X4.9803Y-1.9685
X4.9803Y-2.2244
X4.9803Y-2.4213
X5.0Y-5.9843
X5.0197Y-5.7087
X5.0197Y-5.748
X5.0394Y-1.5354
X5.0591Y-4.2126
X5.0591Y-4.3307
X5.0591Y-6.3189
X5.0787Y-2.7165
X5.0787Y-2.8937
X5.0787Y-2.9528
X5.0984Y-1.5354
X5.0984Y-2.2047
X5.0984Y-2.4803
X5.0984Y-2.5394
X5.0984Y-6.2795
X5.1181Y-2.0079
X5.1378Y-2.6181
X5.1575Y-2.0866
X5.1575Y-2.3622
X5.315Y-2.0472
X5.315Y-2.0866
X5.4134Y-5.5709
X5.4331Y-2.0472
X5.4331Y-2.1457
X5.4331Y-2.2047
X5.4331Y-2.2638
X5.4331Y-2.5
X5.4528Y-5.9055
X5.4724Y-2.9134
X5.4724Y-2.9528
X5.4724Y-3.0906
X5.4724Y-3.1693
X5.4724Y-5.5906
X5.4921Y-1.6142
X5.5118Y-2.4213
X5.5118Y-5.8661
X5.5512Y-1.6535
X5.5512Y-2.2795
X5.5709Y-5.2559
X5.5709Y-6.0236
X5.5906Y-2.3622
X5.6102Y-1.6929
X5.6496Y-2.2835
X5.6496Y-2.4803
X5.6496Y-2.5394
X5.6496Y-2.8937
X5.6496Y-6.2402
X5.6693Y-1.7323
X5.6693Y-5.7677
X5.689Y-2.185
X5.689Y-2.2441
X5.689Y-3.3071
X5.689Y-6.2795
X5.7283Y-1.5551
X5.7283Y-1.7717
X5.748Y-2.2835
X5.748Y-2.4409
X5.748Y-2.5
X5.7874Y-1.811
X5.8071Y-5.6299
X5.8268Y-2.4213
X5.8273Y-1.536
X5.8465Y-1.8504
X5.8661Y-2.2441
X5.8661Y-3.1102
X5.8661Y-3.3661
X5.8661Y-5.6102
X5.8858Y-6.0434
X5.9055Y-1.8898
X5.9055Y-2.3622
X5.9449Y-1.5551
X5.9646Y-1.9291
X5.9646Y-2.2835
X5.9646Y-2.4803
X5.9646Y-2.5394
X6.0039Y-2.2441
X6.0236Y-1.5551
X6.0236Y-6.1417
X6.0433Y-3.4646
X6.063Y-2.0866
X6.063Y-2.2835
X6.063Y-2.4409
X6.063Y-2.5
X6.063Y-5.8465
X6.0827Y-2.8937
X6.0827Y-4.2323
X6.122Y-1.5354
X6.122Y-2.1457
X6.122Y-2.185
X6.122Y-5.2559
X6.122Y-6.0433
X6.1417Y-1.811
X6.1614Y-1.9685
X6.1614Y-2.2244
X6.1614Y-2.4213
X6.1811Y-5.9843
X6.2008Y-5.7087
X6.2008Y-5.748
X6.2205Y-1.5354
X6.2402Y-4.2126
X6.2402Y-4.3307
X6.2402Y-6.3189
X6.2598Y-2.7165
X6.2598Y-2.8937
X6.2598Y-2.9528
X6.2795Y-1.5354
X6.2795Y-2.2047
X6.2795Y-2.4803
X6.2795Y-2.5394
X6.2795Y-6.2795
X6.2992Y-2.0079
X6.3189Y-2.6181
X6.3386Y-2.0866
X6.3386Y-2.3622
X6.4961Y-2.0472
X6.4961Y-2.0866
X6.5945Y-5.5709
X6.6142Y-2.0472
X6.6142Y-2.1457
X6.6142Y-2.2047
X6.6142Y-2.2638
X6.6142Y-2.5
X6.6339Y-5.9055
X6.6535Y-2.9134
X6.6535Y-2.9528
X6.6535Y-3.0906
X6.6535Y-3.1693
X6.6535Y-5.5906
X6.6732Y-1.6142
X6.6929Y-2.4213
X6.6929Y-5.8661
X6.7323Y-1.6535
X6.7323Y-2.2795
X6.752Y-5.2559
X6.752Y-6.0236
X6.7717Y-2.3622
X6.7913Y-1.6929
X6.8307Y-2.2835
X6.8307Y-2.4803
X6.8307Y-2.5394
X6.8307Y-2.8937
X6.8307Y-6.2402
X6.8504Y-1.7323
X6.8504Y-5.7677
X6.8701Y-2.185
X6.8701Y-2.2441
X6.8701Y-3.3071
X6.8701Y-6.2795
X6.9094Y-1.5551
X6.9094Y-1.7717
X6.9291Y-2.2835
X6.9291Y-2.4409
X6.9291Y-2.5
X6.9685Y-1.811
X6.9882Y-5.6299
X7.0079Y-2.4213
X7.0084Y-1.536
X7.0276Y-1.8504
X7.0472Y-2.2441
X7.0472Y-3.1102
X7.0472Y-3.3661
X7.0472Y-5.6102
X7.0669Y-6.0434
X7.0866Y-1.8898
X7.0866Y-2.3622
X7.126Y-1.5551
X7.1457Y-1.9291
X7.1457Y-2.2835
X7.1457Y-2.4803
X7.1457Y-2.5394
X7.185Y-2.2441
X7.2047Y-1.5551
X7.2047Y-6.1417
X7.2244Y-3.4646
X7.2441Y-2.0866
X7.2441Y-2.2835
X7.2441Y-2.4409
X7.2441Y-2.5
X7.2441Y-5.8465
X7.2638Y-2.8937
X7.2638Y-4.2323
X7.3031Y-1.5354
X7.3031Y-2.1457
X7.3031Y-2.185
X7.3031Y-5.2559
X7.3031Y-6.0433
X7.3228Y-1.811
X7.3425Y-1.9685
X7.3425Y-2.2244
X7.3425Y-2.4213
X7.3622Y-5.9843
X7.3819Y-5.7087
X7.3819Y-5.748
X7.4016Y-1.5354
X7.4213Y-4.2126
X7.4213Y-4.3307
X7.4213Y-6.3189
X7.4409Y-2.7165
X7.4409Y-2.8937
X7.4409Y-2.9528
X7.4606Y-1.5354
X7.4606Y-2.2047
X7.4606Y-2.4803
X7.4606Y-2.5394
X7.4606Y-6.2795
X7.4803Y-2.0079
X7.5Y-2.6181
X7.5197Y-2.0866
X7.5197Y-2.3622
X7.6378Y-3.1693
X7.6378Y-3.4055
X7.6969Y-5.8858
X7.7165Y-5.6102
X7.7559Y-5.8858
X7.7559Y-6.3189
X7.7756Y-1.5354
X7.7756Y-2.3228
X7.7756Y-2.3819
X7.7953Y-4.4291
X7.7953Y-6.2795
X7.815Y-5.0787
X7.815Y-5.5512
X7.8346Y-1.5748
X7.8937Y-1.6142
X7.9134Y-4.8425
X7.9528Y-1.6535
X7.9724Y-4.8228
X7.9921Y-5.0591
X8.0118Y-1.6929
X8.0709Y-1.7323
X8.1102Y-3.1693
X8.1102Y-3.4055
X8.1299Y-1.6142
X8.1496Y-2.2638
X8.1496Y-5.1378
X8.189Y-1.6535
X8.2087Y-2.0866
X8.2087Y-5.6102
X8.248Y-2.3228
X8.2677Y-2.0866
X8.2677Y-5.9449
X8.2677Y-6.2402
X8.3071Y-4.7244
X8.3071Y-5.6102
X8.3071Y-6.2795
X8.3268Y-5.9449
X8.3465Y-1.6929
X8.3661Y-2.2638
X8.4055Y-1.7323
X8.4252Y-2.0866
X8.4646Y-2.3228
X8.4843Y-2.0866
X8.4843Y-5.7677
X8.5433Y-5.8465
X8.563Y-1.7717
X8.5827Y-2.2638
X8.5827Y-3.1693
X8.5827Y-3.4055
X8.622Y-1.811
X8.6417Y-2.0866
X8.6417Y-5.7283
X8.6811Y-2.3228
X8.7008Y-2.0866
X8.7205Y-6.2402
X8.7598Y-6.2795
X8.7697Y-5.3445
X8.7697Y-5.5807
X8.7795Y-6.0433
X8.8386Y-1.7717
X8.8386Y-6.2795
X8.878Y-6.3189
X8.8976Y-1.811
X8.9173Y-6.1417
X8.937Y-6.0039
X8.9567Y-1.8504
X9.0157Y-1.8898
X9.0157Y-5.7677
X9.0748Y-1.9291
X9.0945Y-2.2638
X9.1535Y-2.0866
X9.1929Y-2.3228
X9.2126Y-1.5748
X9.2126Y-2.0866
X9.252Y-2.2047
X9.252Y-5.8858
X9.2913Y-1.8504
X9.311Y-2.2638
X9.3307Y-1.7323
X9.3701Y-2.0866
X9.3898Y-6.122
X9.4094Y-2.3228
X9.4291Y-2.0866
X9.4488Y-5.9055
X9.4882Y-1.8307
X9.4882Y-5.7677
X9.4882Y-6.3386
X9.5472Y-1.811
X9.5866Y-5.8661
X9.626Y-2.3425
X9.626Y-2.5
X9.6457Y-5.689
X9.7047Y-6.2402
X9.7244Y-2.2835
X9.7244Y-6.0827
X9.7835Y-2.3819
X9.8425Y-2.3425
X9.8425Y-2.5
X9.9409Y-2.3228
X9.9409Y-2.9134
X9.9606Y-2.7559
X10.0Y-2.3819
X10.0197Y-3.3071
X10.0787Y-3.1299
X10.1772Y-2.7264
X10.1772Y-3.2283
X10.2165Y-3.0906
X10.2756Y-2.874
T2
X7.5787Y-6.122
X7.7756Y-2.7953
X7.8346Y-6.122
X7.9134Y-5.5709
X7.9134Y-6.0433
X7.9528Y-3.0118
X8.0118Y-5.315
X8.0118Y-5.7874
X8.0709Y-6.0827
X8.1299Y-2.7953
X8.1496Y-5.315
X8.1496Y-5.7874
X8.1693Y-4.8622
X8.4055Y-2.9528
X8.7205Y-2.7953
X8.8976Y-3.0118
X9.0748Y-2.7953
X9.2913Y-2.9528
X9.2913Y-4.0551
X9.2913Y-4.4882
X9.6654Y-4.2323
X9.6654Y-4.5079
X9.685Y-3.7598
X9.8228Y-4.4094
T3
X1.0919Y-2.7067
X1.1919Y-2.7067
X2.273Y-2.7067
X2.373Y-2.7067
X3.4541Y-2.7067
X3.5541Y-2.7067
X4.6352Y-2.7067
X4.7352Y-2.7067
X5.8163Y-2.7067
X5.9163Y-2.7067
X6.9974Y-2.7067
X7.0974Y-2.7067
T4
X10.2756Y-4.1488
X10.2756Y-4.2488
X10.2756Y-4.3488
X10.2756Y-4.4488
X10.2756Y-4.5488
X10.2756Y-4.6488
T5
X1.0394Y-3.634
X1.0394Y-3.784
X1.0394Y-3.934
X1.0394Y-4.084
X1.0394Y-4.234
X1.0394Y-4.384
X1.0394Y-4.534
X1.0394Y-4.684
X1.0394Y-4.834
X1.0394Y-4.984
X1.0394Y-5.134
X1.2402Y-3.709
X1.2402Y-3.859
X1.2402Y-4.009
X1.2402Y-4.159
X1.2402Y-4.309
X1.2402Y-4.459
X1.2402Y-4.609
X1.2402Y-4.759
X1.2402Y-4.909
X1.2402Y-5.059
X2.2205Y-3.634
X2.2205Y-3.784
X2.2205Y-3.934
X2.2205Y-4.084
X2.2205Y-4.234
X2.2205Y-4.384
X2.2205Y-4.534
X2.2205Y-4.684
X2.2205Y-4.834
X2.2205Y-4.984
X2.2205Y-5.134
X2.4213Y-3.709
X2.4213Y-3.859
X2.4213Y-4.009
X2.4213Y-4.159
X2.4213Y-4.309
X2.4213Y-4.459
X2.4213Y-4.609
X2.4213Y-4.759
X2.4213Y-4.909
X2.4213Y-5.059
X3.4016Y-3.634
X3.4016Y-3.784
X3.4016Y-3.934
X3.4016Y-4.084
X3.4016Y-4.234
X3.4016Y-4.384
X3.4016Y-4.534
X3.4016Y-4.684
X3.4016Y-4.834
X3.4016Y-4.984
X3.4016Y-5.134
X3.6024Y-3.709
X3.6024Y-3.859
X3.6024Y-4.009
X3.6024Y-4.159
X3.6024Y-4.309
X3.6024Y-4.459
X3.6024Y-4.609
X3.6024Y-4.759
X3.6024Y-4.909
X3.6024Y-5.059
X4.5827Y-3.634
X4.5827Y-3.784
X4.5827Y-3.934
X4.5827Y-4.084
X4.5827Y-4.234
X4.5827Y-4.384
X4.5827Y-4.534
X4.5827Y-4.684
X4.5827Y-4.834
X4.5827Y-4.984
X4.5827Y-5.134
X4.7835Y-3.709
X4.7835Y-3.859
X4.7835Y-4.009
X4.7835Y-4.159
X4.7835Y-4.309
X4.7835Y-4.459
X4.7835Y-4.609
X4.7835Y-4.759
X4.7835Y-4.909
X4.7835Y-5.059
X5.7638Y-3.634
X5.7638Y-3.784
X5.7638Y-3.934
X5.7638Y-4.084
X5.7638Y-4.234
X5.7638Y-4.384
X5.7638Y-4.534
X5.7638Y-4.684
X5.7638Y-4.834
X5.7638Y-4.984
X5.7638Y-5.134
X5.9646Y-3.709
X5.9646Y-3.859
X5.9646Y-4.009
X5.9646Y-4.159
X5.9646Y-4.309
X5.9646Y-4.459
X5.9646Y-4.609
X5.9646Y-4.759
X5.9646Y-4.909
X5.9646Y-5.059
X6.9449Y-3.634
X6.9449Y-3.784
X6.9449Y-3.934
X6.9449Y-4.084
X6.9449Y-4.234
X6.9449Y-4.384
X6.9449Y-4.534
X6.9449Y-4.684
X6.9449Y-4.834
X6.9449Y-4.984
X6.9449Y-5.134
X7.1457Y-3.709
X7.1457Y-3.859
X7.1457Y-4.009
X7.1457Y-4.159
X7.1457Y-4.309
X7.1457Y-4.459
X7.1457Y-4.609
X7.1457Y-4.759
X7.1457Y-4.909
X7.1457Y-5.059
X8.9134Y-3.634
X8.9134Y-3.784
X8.9134Y-3.934
X8.9134Y-4.084
X8.9134Y-4.234
X8.9134Y-4.384
X8.9134Y-4.534
X8.9134Y-4.684
X8.9134Y-4.834
X8.9134Y-4.984
X8.9134Y-5.134
X9.1142Y-3.709
X9.1142Y-3.859
X9.1142Y-4.009
X9.1142Y-4.159
X9.1142Y-4.309
X9.1142Y-4.459
X9.1142Y-4.609
X9.1142Y-4.759
X9.1142Y-4.909
X9.1142Y-5.059
T4
G00X8.189Y-4.1084
M15
G01X8.1299Y-4.1084
M16
G05
G00X8.189Y-4.6596
M15
G01X8.1299Y-4.6596
M16
G05
T5
G00X7.817Y-4.0848
M15
G01X7.817Y-4.1321
M16
G05
G00X7.817Y-4.636
M15
G01X7.817Y-4.6832
M16
G05
M30
