%TF.GenerationSoftware,KiCad,Pcbnew,8.0.8-2.fc41*%
%TF.CreationDate,2025-02-07T13:19:26+00:00*%
%TF.ProjectId,SCART_switcher,53434152-545f-4737-9769-74636865722e,rev?*%
%TF.SameCoordinates,Original*%
%TF.FileFunction,Drillmap*%
%TF.FilePolarity,Positive*%
%FSLAX45Y45*%
G04 Gerber Fmt 4.5, Leading zero omitted, Abs format (unit mm)*
G04 Created by KiCad (PCBNEW 8.0.8-2.fc41) date 2025-02-07 13:19:26*
%MOMM*%
%LPD*%
G01*
G04 APERTURE LIST*
%ADD10C,0.100000*%
%ADD11C,0.200000*%
%ADD12C,0.550000*%
G04 APERTURE END LIST*
D10*
X1250000Y-3800000D02*
X1250000Y-16100000D01*
X26550000Y-3600000D02*
X1450000Y-3600000D01*
X26750000Y-16100000D02*
X26750000Y-3800000D01*
X1450000Y-16300000D02*
X26550000Y-16300000D01*
X1450000Y-16300000D02*
G75*
G02*
X1250000Y-16100000I0J200000D01*
G01*
X1250000Y-3800000D02*
G75*
G02*
X1450000Y-3600000I200000J0D01*
G01*
X26750000Y-16100000D02*
G75*
G02*
X26550000Y-16300000I-200000J0D01*
G01*
X26550000Y-3600000D02*
G75*
G02*
X26750000Y-3800000I0J-200000D01*
G01*
D11*
D12*
X4125000Y-8025000D02*
X4675000Y-8575000D01*
X4675000Y-8025000D02*
X4125000Y-8575000D01*
X4125000Y-13725000D02*
X4675000Y-14275000D01*
X4675000Y-13725000D02*
X4125000Y-14275000D01*
X10125000Y-8025000D02*
X10675000Y-8575000D01*
X10675000Y-8025000D02*
X10125000Y-8575000D01*
X10125000Y-13725000D02*
X10675000Y-14275000D01*
X10675000Y-13725000D02*
X10125000Y-14275000D01*
X16125000Y-8025000D02*
X16675000Y-8575000D01*
X16675000Y-8025000D02*
X16125000Y-8575000D01*
X16125000Y-13825000D02*
X16675000Y-14375000D01*
X16675000Y-13825000D02*
X16125000Y-14375000D01*
X25325000Y-8725000D02*
X25875000Y-9275000D01*
X25875000Y-8725000D02*
X25325000Y-9275000D01*
X25325000Y-13125000D02*
X25875000Y-13675000D01*
X25875000Y-13125000D02*
X25325000Y-13675000D01*
D11*
X1505777Y-16616484D02*
X1505777Y-16416484D01*
X1505777Y-16416484D02*
X1553396Y-16416484D01*
X1553396Y-16416484D02*
X1581967Y-16426007D01*
X1581967Y-16426007D02*
X1601015Y-16445055D01*
X1601015Y-16445055D02*
X1610539Y-16464103D01*
X1610539Y-16464103D02*
X1620063Y-16502198D01*
X1620063Y-16502198D02*
X1620063Y-16530769D01*
X1620063Y-16530769D02*
X1610539Y-16568865D01*
X1610539Y-16568865D02*
X1601015Y-16587912D01*
X1601015Y-16587912D02*
X1581967Y-16606960D01*
X1581967Y-16606960D02*
X1553396Y-16616484D01*
X1553396Y-16616484D02*
X1505777Y-16616484D01*
X1705777Y-16616484D02*
X1705777Y-16483150D01*
X1705777Y-16521246D02*
X1715301Y-16502198D01*
X1715301Y-16502198D02*
X1724824Y-16492674D01*
X1724824Y-16492674D02*
X1743872Y-16483150D01*
X1743872Y-16483150D02*
X1762920Y-16483150D01*
X1829586Y-16616484D02*
X1829586Y-16483150D01*
X1829586Y-16416484D02*
X1820063Y-16426007D01*
X1820063Y-16426007D02*
X1829586Y-16435531D01*
X1829586Y-16435531D02*
X1839110Y-16426007D01*
X1839110Y-16426007D02*
X1829586Y-16416484D01*
X1829586Y-16416484D02*
X1829586Y-16435531D01*
X1953396Y-16616484D02*
X1934348Y-16606960D01*
X1934348Y-16606960D02*
X1924824Y-16587912D01*
X1924824Y-16587912D02*
X1924824Y-16416484D01*
X2058158Y-16616484D02*
X2039110Y-16606960D01*
X2039110Y-16606960D02*
X2029586Y-16587912D01*
X2029586Y-16587912D02*
X2029586Y-16416484D01*
X2286729Y-16616484D02*
X2286729Y-16416484D01*
X2286729Y-16416484D02*
X2353396Y-16559341D01*
X2353396Y-16559341D02*
X2420063Y-16416484D01*
X2420063Y-16416484D02*
X2420063Y-16616484D01*
X2601015Y-16616484D02*
X2601015Y-16511722D01*
X2601015Y-16511722D02*
X2591491Y-16492674D01*
X2591491Y-16492674D02*
X2572444Y-16483150D01*
X2572444Y-16483150D02*
X2534348Y-16483150D01*
X2534348Y-16483150D02*
X2515301Y-16492674D01*
X2601015Y-16606960D02*
X2581967Y-16616484D01*
X2581967Y-16616484D02*
X2534348Y-16616484D01*
X2534348Y-16616484D02*
X2515301Y-16606960D01*
X2515301Y-16606960D02*
X2505777Y-16587912D01*
X2505777Y-16587912D02*
X2505777Y-16568865D01*
X2505777Y-16568865D02*
X2515301Y-16549817D01*
X2515301Y-16549817D02*
X2534348Y-16540293D01*
X2534348Y-16540293D02*
X2581967Y-16540293D01*
X2581967Y-16540293D02*
X2601015Y-16530769D01*
X2696253Y-16483150D02*
X2696253Y-16683150D01*
X2696253Y-16492674D02*
X2715301Y-16483150D01*
X2715301Y-16483150D02*
X2753396Y-16483150D01*
X2753396Y-16483150D02*
X2772444Y-16492674D01*
X2772444Y-16492674D02*
X2781967Y-16502198D01*
X2781967Y-16502198D02*
X2791491Y-16521246D01*
X2791491Y-16521246D02*
X2791491Y-16578388D01*
X2791491Y-16578388D02*
X2781967Y-16597436D01*
X2781967Y-16597436D02*
X2772444Y-16606960D01*
X2772444Y-16606960D02*
X2753396Y-16616484D01*
X2753396Y-16616484D02*
X2715301Y-16616484D01*
X2715301Y-16616484D02*
X2696253Y-16606960D01*
X2877205Y-16597436D02*
X2886729Y-16606960D01*
X2886729Y-16606960D02*
X2877205Y-16616484D01*
X2877205Y-16616484D02*
X2867682Y-16606960D01*
X2867682Y-16606960D02*
X2877205Y-16597436D01*
X2877205Y-16597436D02*
X2877205Y-16616484D01*
X2877205Y-16492674D02*
X2886729Y-16502198D01*
X2886729Y-16502198D02*
X2877205Y-16511722D01*
X2877205Y-16511722D02*
X2867682Y-16502198D01*
X2867682Y-16502198D02*
X2877205Y-16492674D01*
X2877205Y-16492674D02*
X2877205Y-16511722D01*
X1045000Y-16845000D02*
X1245000Y-17045000D01*
X1245000Y-16845000D02*
X1045000Y-17045000D01*
X1601015Y-16836484D02*
X1505777Y-16836484D01*
X1505777Y-16836484D02*
X1496253Y-16931722D01*
X1496253Y-16931722D02*
X1505777Y-16922198D01*
X1505777Y-16922198D02*
X1524824Y-16912674D01*
X1524824Y-16912674D02*
X1572444Y-16912674D01*
X1572444Y-16912674D02*
X1591491Y-16922198D01*
X1591491Y-16922198D02*
X1601015Y-16931722D01*
X1601015Y-16931722D02*
X1610539Y-16950769D01*
X1610539Y-16950769D02*
X1610539Y-16998388D01*
X1610539Y-16998388D02*
X1601015Y-17017436D01*
X1601015Y-17017436D02*
X1591491Y-17026960D01*
X1591491Y-17026960D02*
X1572444Y-17036484D01*
X1572444Y-17036484D02*
X1524824Y-17036484D01*
X1524824Y-17036484D02*
X1505777Y-17026960D01*
X1505777Y-17026960D02*
X1496253Y-17017436D01*
X1696253Y-17017436D02*
X1705777Y-17026960D01*
X1705777Y-17026960D02*
X1696253Y-17036484D01*
X1696253Y-17036484D02*
X1686729Y-17026960D01*
X1686729Y-17026960D02*
X1696253Y-17017436D01*
X1696253Y-17017436D02*
X1696253Y-17036484D01*
X1886729Y-16836484D02*
X1791491Y-16836484D01*
X1791491Y-16836484D02*
X1781967Y-16931722D01*
X1781967Y-16931722D02*
X1791491Y-16922198D01*
X1791491Y-16922198D02*
X1810539Y-16912674D01*
X1810539Y-16912674D02*
X1858158Y-16912674D01*
X1858158Y-16912674D02*
X1877205Y-16922198D01*
X1877205Y-16922198D02*
X1886729Y-16931722D01*
X1886729Y-16931722D02*
X1896253Y-16950769D01*
X1896253Y-16950769D02*
X1896253Y-16998388D01*
X1896253Y-16998388D02*
X1886729Y-17017436D01*
X1886729Y-17017436D02*
X1877205Y-17026960D01*
X1877205Y-17026960D02*
X1858158Y-17036484D01*
X1858158Y-17036484D02*
X1810539Y-17036484D01*
X1810539Y-17036484D02*
X1791491Y-17026960D01*
X1791491Y-17026960D02*
X1781967Y-17017436D01*
X2020063Y-16836484D02*
X2039110Y-16836484D01*
X2039110Y-16836484D02*
X2058158Y-16846008D01*
X2058158Y-16846008D02*
X2067682Y-16855531D01*
X2067682Y-16855531D02*
X2077205Y-16874579D01*
X2077205Y-16874579D02*
X2086729Y-16912674D01*
X2086729Y-16912674D02*
X2086729Y-16960293D01*
X2086729Y-16960293D02*
X2077205Y-16998388D01*
X2077205Y-16998388D02*
X2067682Y-17017436D01*
X2067682Y-17017436D02*
X2058158Y-17026960D01*
X2058158Y-17026960D02*
X2039110Y-17036484D01*
X2039110Y-17036484D02*
X2020063Y-17036484D01*
X2020063Y-17036484D02*
X2001015Y-17026960D01*
X2001015Y-17026960D02*
X1991491Y-17017436D01*
X1991491Y-17017436D02*
X1981967Y-16998388D01*
X1981967Y-16998388D02*
X1972444Y-16960293D01*
X1972444Y-16960293D02*
X1972444Y-16912674D01*
X1972444Y-16912674D02*
X1981967Y-16874579D01*
X1981967Y-16874579D02*
X1991491Y-16855531D01*
X1991491Y-16855531D02*
X2001015Y-16846008D01*
X2001015Y-16846008D02*
X2020063Y-16836484D01*
X2210539Y-16836484D02*
X2229587Y-16836484D01*
X2229587Y-16836484D02*
X2248634Y-16846008D01*
X2248634Y-16846008D02*
X2258158Y-16855531D01*
X2258158Y-16855531D02*
X2267682Y-16874579D01*
X2267682Y-16874579D02*
X2277206Y-16912674D01*
X2277206Y-16912674D02*
X2277206Y-16960293D01*
X2277206Y-16960293D02*
X2267682Y-16998388D01*
X2267682Y-16998388D02*
X2258158Y-17017436D01*
X2258158Y-17017436D02*
X2248634Y-17026960D01*
X2248634Y-17026960D02*
X2229587Y-17036484D01*
X2229587Y-17036484D02*
X2210539Y-17036484D01*
X2210539Y-17036484D02*
X2191491Y-17026960D01*
X2191491Y-17026960D02*
X2181967Y-17017436D01*
X2181967Y-17017436D02*
X2172444Y-16998388D01*
X2172444Y-16998388D02*
X2162920Y-16960293D01*
X2162920Y-16960293D02*
X2162920Y-16912674D01*
X2162920Y-16912674D02*
X2172444Y-16874579D01*
X2172444Y-16874579D02*
X2181967Y-16855531D01*
X2181967Y-16855531D02*
X2191491Y-16846008D01*
X2191491Y-16846008D02*
X2210539Y-16836484D01*
X2362920Y-17036484D02*
X2362920Y-16903150D01*
X2362920Y-16922198D02*
X2372444Y-16912674D01*
X2372444Y-16912674D02*
X2391491Y-16903150D01*
X2391491Y-16903150D02*
X2420063Y-16903150D01*
X2420063Y-16903150D02*
X2439110Y-16912674D01*
X2439110Y-16912674D02*
X2448634Y-16931722D01*
X2448634Y-16931722D02*
X2448634Y-17036484D01*
X2448634Y-16931722D02*
X2458158Y-16912674D01*
X2458158Y-16912674D02*
X2477206Y-16903150D01*
X2477206Y-16903150D02*
X2505777Y-16903150D01*
X2505777Y-16903150D02*
X2524825Y-16912674D01*
X2524825Y-16912674D02*
X2534348Y-16931722D01*
X2534348Y-16931722D02*
X2534348Y-17036484D01*
X2629587Y-17036484D02*
X2629587Y-16903150D01*
X2629587Y-16922198D02*
X2639110Y-16912674D01*
X2639110Y-16912674D02*
X2658158Y-16903150D01*
X2658158Y-16903150D02*
X2686729Y-16903150D01*
X2686729Y-16903150D02*
X2705777Y-16912674D01*
X2705777Y-16912674D02*
X2715301Y-16931722D01*
X2715301Y-16931722D02*
X2715301Y-17036484D01*
X2715301Y-16931722D02*
X2724825Y-16912674D01*
X2724825Y-16912674D02*
X2743872Y-16903150D01*
X2743872Y-16903150D02*
X2772444Y-16903150D01*
X2772444Y-16903150D02*
X2791491Y-16912674D01*
X2791491Y-16912674D02*
X2801015Y-16931722D01*
X2801015Y-16931722D02*
X2801015Y-17036484D01*
X3191491Y-16826960D02*
X3020063Y-17084103D01*
X3448634Y-16836484D02*
X3467682Y-16836484D01*
X3467682Y-16836484D02*
X3486729Y-16846008D01*
X3486729Y-16846008D02*
X3496253Y-16855531D01*
X3496253Y-16855531D02*
X3505777Y-16874579D01*
X3505777Y-16874579D02*
X3515301Y-16912674D01*
X3515301Y-16912674D02*
X3515301Y-16960293D01*
X3515301Y-16960293D02*
X3505777Y-16998388D01*
X3505777Y-16998388D02*
X3496253Y-17017436D01*
X3496253Y-17017436D02*
X3486729Y-17026960D01*
X3486729Y-17026960D02*
X3467682Y-17036484D01*
X3467682Y-17036484D02*
X3448634Y-17036484D01*
X3448634Y-17036484D02*
X3429587Y-17026960D01*
X3429587Y-17026960D02*
X3420063Y-17017436D01*
X3420063Y-17017436D02*
X3410539Y-16998388D01*
X3410539Y-16998388D02*
X3401015Y-16960293D01*
X3401015Y-16960293D02*
X3401015Y-16912674D01*
X3401015Y-16912674D02*
X3410539Y-16874579D01*
X3410539Y-16874579D02*
X3420063Y-16855531D01*
X3420063Y-16855531D02*
X3429587Y-16846008D01*
X3429587Y-16846008D02*
X3448634Y-16836484D01*
X3601015Y-17017436D02*
X3610539Y-17026960D01*
X3610539Y-17026960D02*
X3601015Y-17036484D01*
X3601015Y-17036484D02*
X3591491Y-17026960D01*
X3591491Y-17026960D02*
X3601015Y-17017436D01*
X3601015Y-17017436D02*
X3601015Y-17036484D01*
X3686729Y-16855531D02*
X3696253Y-16846008D01*
X3696253Y-16846008D02*
X3715301Y-16836484D01*
X3715301Y-16836484D02*
X3762920Y-16836484D01*
X3762920Y-16836484D02*
X3781968Y-16846008D01*
X3781968Y-16846008D02*
X3791491Y-16855531D01*
X3791491Y-16855531D02*
X3801015Y-16874579D01*
X3801015Y-16874579D02*
X3801015Y-16893627D01*
X3801015Y-16893627D02*
X3791491Y-16922198D01*
X3791491Y-16922198D02*
X3677206Y-17036484D01*
X3677206Y-17036484D02*
X3801015Y-17036484D01*
X3991491Y-17036484D02*
X3877206Y-17036484D01*
X3934348Y-17036484D02*
X3934348Y-16836484D01*
X3934348Y-16836484D02*
X3915301Y-16865055D01*
X3915301Y-16865055D02*
X3896253Y-16884103D01*
X3896253Y-16884103D02*
X3877206Y-16893627D01*
X4162920Y-16836484D02*
X4124825Y-16836484D01*
X4124825Y-16836484D02*
X4105777Y-16846008D01*
X4105777Y-16846008D02*
X4096253Y-16855531D01*
X4096253Y-16855531D02*
X4077206Y-16884103D01*
X4077206Y-16884103D02*
X4067682Y-16922198D01*
X4067682Y-16922198D02*
X4067682Y-16998388D01*
X4067682Y-16998388D02*
X4077206Y-17017436D01*
X4077206Y-17017436D02*
X4086729Y-17026960D01*
X4086729Y-17026960D02*
X4105777Y-17036484D01*
X4105777Y-17036484D02*
X4143872Y-17036484D01*
X4143872Y-17036484D02*
X4162920Y-17026960D01*
X4162920Y-17026960D02*
X4172444Y-17017436D01*
X4172444Y-17017436D02*
X4181968Y-16998388D01*
X4181968Y-16998388D02*
X4181968Y-16950769D01*
X4181968Y-16950769D02*
X4172444Y-16931722D01*
X4172444Y-16931722D02*
X4162920Y-16922198D01*
X4162920Y-16922198D02*
X4143872Y-16912674D01*
X4143872Y-16912674D02*
X4105777Y-16912674D01*
X4105777Y-16912674D02*
X4086729Y-16922198D01*
X4086729Y-16922198D02*
X4077206Y-16931722D01*
X4077206Y-16931722D02*
X4067682Y-16950769D01*
X4362920Y-16836484D02*
X4267682Y-16836484D01*
X4267682Y-16836484D02*
X4258158Y-16931722D01*
X4258158Y-16931722D02*
X4267682Y-16922198D01*
X4267682Y-16922198D02*
X4286730Y-16912674D01*
X4286730Y-16912674D02*
X4334349Y-16912674D01*
X4334349Y-16912674D02*
X4353396Y-16922198D01*
X4353396Y-16922198D02*
X4362920Y-16931722D01*
X4362920Y-16931722D02*
X4372444Y-16950769D01*
X4372444Y-16950769D02*
X4372444Y-16998388D01*
X4372444Y-16998388D02*
X4362920Y-17017436D01*
X4362920Y-17017436D02*
X4353396Y-17026960D01*
X4353396Y-17026960D02*
X4334349Y-17036484D01*
X4334349Y-17036484D02*
X4286730Y-17036484D01*
X4286730Y-17036484D02*
X4267682Y-17026960D01*
X4267682Y-17026960D02*
X4258158Y-17017436D01*
X4448634Y-16836484D02*
X4448634Y-16874579D01*
X4524825Y-16836484D02*
X4524825Y-16874579D01*
X4820063Y-17112674D02*
X4810539Y-17103150D01*
X4810539Y-17103150D02*
X4791492Y-17074579D01*
X4791492Y-17074579D02*
X4781968Y-17055531D01*
X4781968Y-17055531D02*
X4772444Y-17026960D01*
X4772444Y-17026960D02*
X4762920Y-16979341D01*
X4762920Y-16979341D02*
X4762920Y-16941246D01*
X4762920Y-16941246D02*
X4772444Y-16893627D01*
X4772444Y-16893627D02*
X4781968Y-16865055D01*
X4781968Y-16865055D02*
X4791492Y-16846008D01*
X4791492Y-16846008D02*
X4810539Y-16817436D01*
X4810539Y-16817436D02*
X4820063Y-16807912D01*
X4924825Y-16922198D02*
X4905777Y-16912674D01*
X4905777Y-16912674D02*
X4896253Y-16903150D01*
X4896253Y-16903150D02*
X4886730Y-16884103D01*
X4886730Y-16884103D02*
X4886730Y-16874579D01*
X4886730Y-16874579D02*
X4896253Y-16855531D01*
X4896253Y-16855531D02*
X4905777Y-16846008D01*
X4905777Y-16846008D02*
X4924825Y-16836484D01*
X4924825Y-16836484D02*
X4962920Y-16836484D01*
X4962920Y-16836484D02*
X4981968Y-16846008D01*
X4981968Y-16846008D02*
X4991492Y-16855531D01*
X4991492Y-16855531D02*
X5001015Y-16874579D01*
X5001015Y-16874579D02*
X5001015Y-16884103D01*
X5001015Y-16884103D02*
X4991492Y-16903150D01*
X4991492Y-16903150D02*
X4981968Y-16912674D01*
X4981968Y-16912674D02*
X4962920Y-16922198D01*
X4962920Y-16922198D02*
X4924825Y-16922198D01*
X4924825Y-16922198D02*
X4905777Y-16931722D01*
X4905777Y-16931722D02*
X4896253Y-16941246D01*
X4896253Y-16941246D02*
X4886730Y-16960293D01*
X4886730Y-16960293D02*
X4886730Y-16998388D01*
X4886730Y-16998388D02*
X4896253Y-17017436D01*
X4896253Y-17017436D02*
X4905777Y-17026960D01*
X4905777Y-17026960D02*
X4924825Y-17036484D01*
X4924825Y-17036484D02*
X4962920Y-17036484D01*
X4962920Y-17036484D02*
X4981968Y-17026960D01*
X4981968Y-17026960D02*
X4991492Y-17017436D01*
X4991492Y-17017436D02*
X5001015Y-16998388D01*
X5001015Y-16998388D02*
X5001015Y-16960293D01*
X5001015Y-16960293D02*
X4991492Y-16941246D01*
X4991492Y-16941246D02*
X4981968Y-16931722D01*
X4981968Y-16931722D02*
X4962920Y-16922198D01*
X5239111Y-17036484D02*
X5239111Y-16836484D01*
X5324825Y-17036484D02*
X5324825Y-16931722D01*
X5324825Y-16931722D02*
X5315301Y-16912674D01*
X5315301Y-16912674D02*
X5296254Y-16903150D01*
X5296254Y-16903150D02*
X5267682Y-16903150D01*
X5267682Y-16903150D02*
X5248634Y-16912674D01*
X5248634Y-16912674D02*
X5239111Y-16922198D01*
X5448634Y-17036484D02*
X5429587Y-17026960D01*
X5429587Y-17026960D02*
X5420063Y-17017436D01*
X5420063Y-17017436D02*
X5410539Y-16998388D01*
X5410539Y-16998388D02*
X5410539Y-16941246D01*
X5410539Y-16941246D02*
X5420063Y-16922198D01*
X5420063Y-16922198D02*
X5429587Y-16912674D01*
X5429587Y-16912674D02*
X5448634Y-16903150D01*
X5448634Y-16903150D02*
X5477206Y-16903150D01*
X5477206Y-16903150D02*
X5496254Y-16912674D01*
X5496254Y-16912674D02*
X5505777Y-16922198D01*
X5505777Y-16922198D02*
X5515301Y-16941246D01*
X5515301Y-16941246D02*
X5515301Y-16998388D01*
X5515301Y-16998388D02*
X5505777Y-17017436D01*
X5505777Y-17017436D02*
X5496254Y-17026960D01*
X5496254Y-17026960D02*
X5477206Y-17036484D01*
X5477206Y-17036484D02*
X5448634Y-17036484D01*
X5629587Y-17036484D02*
X5610539Y-17026960D01*
X5610539Y-17026960D02*
X5601015Y-17007912D01*
X5601015Y-17007912D02*
X5601015Y-16836484D01*
X5781968Y-17026960D02*
X5762920Y-17036484D01*
X5762920Y-17036484D02*
X5724825Y-17036484D01*
X5724825Y-17036484D02*
X5705777Y-17026960D01*
X5705777Y-17026960D02*
X5696253Y-17007912D01*
X5696253Y-17007912D02*
X5696253Y-16931722D01*
X5696253Y-16931722D02*
X5705777Y-16912674D01*
X5705777Y-16912674D02*
X5724825Y-16903150D01*
X5724825Y-16903150D02*
X5762920Y-16903150D01*
X5762920Y-16903150D02*
X5781968Y-16912674D01*
X5781968Y-16912674D02*
X5791492Y-16931722D01*
X5791492Y-16931722D02*
X5791492Y-16950769D01*
X5791492Y-16950769D02*
X5696253Y-16969817D01*
X5867682Y-17026960D02*
X5886730Y-17036484D01*
X5886730Y-17036484D02*
X5924825Y-17036484D01*
X5924825Y-17036484D02*
X5943873Y-17026960D01*
X5943873Y-17026960D02*
X5953396Y-17007912D01*
X5953396Y-17007912D02*
X5953396Y-16998388D01*
X5953396Y-16998388D02*
X5943873Y-16979341D01*
X5943873Y-16979341D02*
X5924825Y-16969817D01*
X5924825Y-16969817D02*
X5896253Y-16969817D01*
X5896253Y-16969817D02*
X5877206Y-16960293D01*
X5877206Y-16960293D02*
X5867682Y-16941246D01*
X5867682Y-16941246D02*
X5867682Y-16931722D01*
X5867682Y-16931722D02*
X5877206Y-16912674D01*
X5877206Y-16912674D02*
X5896253Y-16903150D01*
X5896253Y-16903150D02*
X5924825Y-16903150D01*
X5924825Y-16903150D02*
X5943873Y-16912674D01*
X6020063Y-17112674D02*
X6029587Y-17103150D01*
X6029587Y-17103150D02*
X6048634Y-17074579D01*
X6048634Y-17074579D02*
X6058158Y-17055531D01*
X6058158Y-17055531D02*
X6067682Y-17026960D01*
X6067682Y-17026960D02*
X6077206Y-16979341D01*
X6077206Y-16979341D02*
X6077206Y-16941246D01*
X6077206Y-16941246D02*
X6067682Y-16893627D01*
X6067682Y-16893627D02*
X6058158Y-16865055D01*
X6058158Y-16865055D02*
X6048634Y-16846008D01*
X6048634Y-16846008D02*
X6029587Y-16817436D01*
X6029587Y-16817436D02*
X6020063Y-16807912D01*
X6381968Y-17112674D02*
X6372444Y-17103150D01*
X6372444Y-17103150D02*
X6353396Y-17074579D01*
X6353396Y-17074579D02*
X6343873Y-17055531D01*
X6343873Y-17055531D02*
X6334349Y-17026960D01*
X6334349Y-17026960D02*
X6324825Y-16979341D01*
X6324825Y-16979341D02*
X6324825Y-16941246D01*
X6324825Y-16941246D02*
X6334349Y-16893627D01*
X6334349Y-16893627D02*
X6343873Y-16865055D01*
X6343873Y-16865055D02*
X6353396Y-16846008D01*
X6353396Y-16846008D02*
X6372444Y-16817436D01*
X6372444Y-16817436D02*
X6381968Y-16807912D01*
X6458158Y-16903150D02*
X6458158Y-17036484D01*
X6458158Y-16922198D02*
X6467682Y-16912674D01*
X6467682Y-16912674D02*
X6486730Y-16903150D01*
X6486730Y-16903150D02*
X6515301Y-16903150D01*
X6515301Y-16903150D02*
X6534349Y-16912674D01*
X6534349Y-16912674D02*
X6543873Y-16931722D01*
X6543873Y-16931722D02*
X6543873Y-17036484D01*
X6667682Y-17036484D02*
X6648634Y-17026960D01*
X6648634Y-17026960D02*
X6639111Y-17017436D01*
X6639111Y-17017436D02*
X6629587Y-16998388D01*
X6629587Y-16998388D02*
X6629587Y-16941246D01*
X6629587Y-16941246D02*
X6639111Y-16922198D01*
X6639111Y-16922198D02*
X6648634Y-16912674D01*
X6648634Y-16912674D02*
X6667682Y-16903150D01*
X6667682Y-16903150D02*
X6696254Y-16903150D01*
X6696254Y-16903150D02*
X6715301Y-16912674D01*
X6715301Y-16912674D02*
X6724825Y-16922198D01*
X6724825Y-16922198D02*
X6734349Y-16941246D01*
X6734349Y-16941246D02*
X6734349Y-16998388D01*
X6734349Y-16998388D02*
X6724825Y-17017436D01*
X6724825Y-17017436D02*
X6715301Y-17026960D01*
X6715301Y-17026960D02*
X6696254Y-17036484D01*
X6696254Y-17036484D02*
X6667682Y-17036484D01*
X6791492Y-16903150D02*
X6867682Y-16903150D01*
X6820063Y-16836484D02*
X6820063Y-17007912D01*
X6820063Y-17007912D02*
X6829587Y-17026960D01*
X6829587Y-17026960D02*
X6848634Y-17036484D01*
X6848634Y-17036484D02*
X6867682Y-17036484D01*
X7086730Y-16903150D02*
X7086730Y-17103150D01*
X7086730Y-16912674D02*
X7105777Y-16903150D01*
X7105777Y-16903150D02*
X7143873Y-16903150D01*
X7143873Y-16903150D02*
X7162920Y-16912674D01*
X7162920Y-16912674D02*
X7172444Y-16922198D01*
X7172444Y-16922198D02*
X7181968Y-16941246D01*
X7181968Y-16941246D02*
X7181968Y-16998388D01*
X7181968Y-16998388D02*
X7172444Y-17017436D01*
X7172444Y-17017436D02*
X7162920Y-17026960D01*
X7162920Y-17026960D02*
X7143873Y-17036484D01*
X7143873Y-17036484D02*
X7105777Y-17036484D01*
X7105777Y-17036484D02*
X7086730Y-17026960D01*
X7296254Y-17036484D02*
X7277206Y-17026960D01*
X7277206Y-17026960D02*
X7267682Y-17007912D01*
X7267682Y-17007912D02*
X7267682Y-16836484D01*
X7458158Y-17036484D02*
X7458158Y-16931722D01*
X7458158Y-16931722D02*
X7448635Y-16912674D01*
X7448635Y-16912674D02*
X7429587Y-16903150D01*
X7429587Y-16903150D02*
X7391492Y-16903150D01*
X7391492Y-16903150D02*
X7372444Y-16912674D01*
X7458158Y-17026960D02*
X7439111Y-17036484D01*
X7439111Y-17036484D02*
X7391492Y-17036484D01*
X7391492Y-17036484D02*
X7372444Y-17026960D01*
X7372444Y-17026960D02*
X7362920Y-17007912D01*
X7362920Y-17007912D02*
X7362920Y-16988865D01*
X7362920Y-16988865D02*
X7372444Y-16969817D01*
X7372444Y-16969817D02*
X7391492Y-16960293D01*
X7391492Y-16960293D02*
X7439111Y-16960293D01*
X7439111Y-16960293D02*
X7458158Y-16950769D01*
X7524825Y-16903150D02*
X7601015Y-16903150D01*
X7553396Y-16836484D02*
X7553396Y-17007912D01*
X7553396Y-17007912D02*
X7562920Y-17026960D01*
X7562920Y-17026960D02*
X7581968Y-17036484D01*
X7581968Y-17036484D02*
X7601015Y-17036484D01*
X7743873Y-17026960D02*
X7724825Y-17036484D01*
X7724825Y-17036484D02*
X7686730Y-17036484D01*
X7686730Y-17036484D02*
X7667682Y-17026960D01*
X7667682Y-17026960D02*
X7658158Y-17007912D01*
X7658158Y-17007912D02*
X7658158Y-16931722D01*
X7658158Y-16931722D02*
X7667682Y-16912674D01*
X7667682Y-16912674D02*
X7686730Y-16903150D01*
X7686730Y-16903150D02*
X7724825Y-16903150D01*
X7724825Y-16903150D02*
X7743873Y-16912674D01*
X7743873Y-16912674D02*
X7753396Y-16931722D01*
X7753396Y-16931722D02*
X7753396Y-16950769D01*
X7753396Y-16950769D02*
X7658158Y-16969817D01*
X7924825Y-17036484D02*
X7924825Y-16836484D01*
X7924825Y-17026960D02*
X7905777Y-17036484D01*
X7905777Y-17036484D02*
X7867682Y-17036484D01*
X7867682Y-17036484D02*
X7848635Y-17026960D01*
X7848635Y-17026960D02*
X7839111Y-17017436D01*
X7839111Y-17017436D02*
X7829587Y-16998388D01*
X7829587Y-16998388D02*
X7829587Y-16941246D01*
X7829587Y-16941246D02*
X7839111Y-16922198D01*
X7839111Y-16922198D02*
X7848635Y-16912674D01*
X7848635Y-16912674D02*
X7867682Y-16903150D01*
X7867682Y-16903150D02*
X7905777Y-16903150D01*
X7905777Y-16903150D02*
X7924825Y-16912674D01*
X8001016Y-17112674D02*
X8010539Y-17103150D01*
X8010539Y-17103150D02*
X8029587Y-17074579D01*
X8029587Y-17074579D02*
X8039111Y-17055531D01*
X8039111Y-17055531D02*
X8048635Y-17026960D01*
X8048635Y-17026960D02*
X8058158Y-16979341D01*
X8058158Y-16979341D02*
X8058158Y-16941246D01*
X8058158Y-16941246D02*
X8048635Y-16893627D01*
X8048635Y-16893627D02*
X8039111Y-16865055D01*
X8039111Y-16865055D02*
X8029587Y-16846008D01*
X8029587Y-16846008D02*
X8010539Y-16817436D01*
X8010539Y-16817436D02*
X8001016Y-16807912D01*
M02*
