G04 #@! TF.GenerationSoftware,KiCad,Pcbnew,8.0.8-2.fc41*
G04 #@! TF.CreationDate,2025-02-07T13:19:22+00:00*
G04 #@! TF.ProjectId,SCART_switcher,53434152-545f-4737-9769-74636865722e,rev?*
G04 #@! TF.SameCoordinates,Original*
G04 #@! TF.FileFunction,Paste,Bot*
G04 #@! TF.FilePolarity,Positive*
%FSLAX46Y46*%
G04 Gerber Fmt 4.6, Leading zero omitted, Abs format (unit mm)*
G04 Created by KiCad (PCBNEW 8.0.8-2.fc41) date 2025-02-07 13:19:22*
%MOMM*%
%LPD*%
G01*
G04 APERTURE LIST*
G04 Aperture macros list*
%AMRoundRect*
0 Rectangle with rounded corners*
0 $1 Rounding radius*
0 $2 $3 $4 $5 $6 $7 $8 $9 X,Y pos of 4 corners*
0 Add a 4 corners polygon primitive as box body*
4,1,4,$2,$3,$4,$5,$6,$7,$8,$9,$2,$3,0*
0 Add four circle primitives for the rounded corners*
1,1,$1+$1,$2,$3*
1,1,$1+$1,$4,$5*
1,1,$1+$1,$6,$7*
1,1,$1+$1,$8,$9*
0 Add four rect primitives between the rounded corners*
20,1,$1+$1,$2,$3,$4,$5,0*
20,1,$1+$1,$4,$5,$6,$7,0*
20,1,$1+$1,$6,$7,$8,$9,0*
20,1,$1+$1,$8,$9,$2,$3,0*%
G04 Aperture macros list end*
%ADD10RoundRect,0.250000X-0.262500X-0.450000X0.262500X-0.450000X0.262500X0.450000X-0.262500X0.450000X0*%
%ADD11RoundRect,0.250000X-1.075000X0.312500X-1.075000X-0.312500X1.075000X-0.312500X1.075000X0.312500X0*%
%ADD12RoundRect,0.225000X0.250000X-0.225000X0.250000X0.225000X-0.250000X0.225000X-0.250000X-0.225000X0*%
%ADD13RoundRect,0.250000X0.262500X0.450000X-0.262500X0.450000X-0.262500X-0.450000X0.262500X-0.450000X0*%
%ADD14RoundRect,0.250000X-0.550000X1.050000X-0.550000X-1.050000X0.550000X-1.050000X0.550000X1.050000X0*%
%ADD15RoundRect,0.250000X0.300000X0.300000X-0.300000X0.300000X-0.300000X-0.300000X0.300000X-0.300000X0*%
%ADD16RoundRect,0.100000X-0.100000X0.225000X-0.100000X-0.225000X0.100000X-0.225000X0.100000X0.225000X0*%
%ADD17RoundRect,0.250000X-1.000000X1.950000X-1.000000X-1.950000X1.000000X-1.950000X1.000000X1.950000X0*%
%ADD18RoundRect,0.100000X-0.225000X-0.100000X0.225000X-0.100000X0.225000X0.100000X-0.225000X0.100000X0*%
%ADD19RoundRect,0.250000X0.300000X-0.300000X0.300000X0.300000X-0.300000X0.300000X-0.300000X-0.300000X0*%
%ADD20RoundRect,0.250000X0.450000X-0.262500X0.450000X0.262500X-0.450000X0.262500X-0.450000X-0.262500X0*%
%ADD21RoundRect,0.250000X0.550000X-1.050000X0.550000X1.050000X-0.550000X1.050000X-0.550000X-1.050000X0*%
%ADD22RoundRect,0.200000X-0.200000X0.250000X-0.200000X-0.250000X0.200000X-0.250000X0.200000X0.250000X0*%
%ADD23RoundRect,0.250000X0.550000X-1.250000X0.550000X1.250000X-0.550000X1.250000X-0.550000X-1.250000X0*%
%ADD24RoundRect,0.100000X0.225000X0.100000X-0.225000X0.100000X-0.225000X-0.100000X0.225000X-0.100000X0*%
%ADD25RoundRect,0.250000X-0.300000X-0.300000X0.300000X-0.300000X0.300000X0.300000X-0.300000X0.300000X0*%
%ADD26RoundRect,0.225000X0.225000X0.250000X-0.225000X0.250000X-0.225000X-0.250000X0.225000X-0.250000X0*%
%ADD27RoundRect,0.250000X0.250000X0.475000X-0.250000X0.475000X-0.250000X-0.475000X0.250000X-0.475000X0*%
%ADD28RoundRect,0.225000X-0.250000X0.225000X-0.250000X-0.225000X0.250000X-0.225000X0.250000X0.225000X0*%
%ADD29RoundRect,0.150000X0.825000X0.150000X-0.825000X0.150000X-0.825000X-0.150000X0.825000X-0.150000X0*%
%ADD30RoundRect,0.250000X-0.450000X0.262500X-0.450000X-0.262500X0.450000X-0.262500X0.450000X0.262500X0*%
%ADD31RoundRect,0.150000X0.150000X-0.587500X0.150000X0.587500X-0.150000X0.587500X-0.150000X-0.587500X0*%
%ADD32RoundRect,0.250000X-0.300000X0.300000X-0.300000X-0.300000X0.300000X-0.300000X0.300000X0.300000X0*%
%ADD33RoundRect,0.225000X-0.225000X-0.250000X0.225000X-0.250000X0.225000X0.250000X-0.225000X0.250000X0*%
%ADD34RoundRect,0.150000X-0.150000X0.587500X-0.150000X-0.587500X0.150000X-0.587500X0.150000X0.587500X0*%
%ADD35RoundRect,0.150000X-0.825000X-0.150000X0.825000X-0.150000X0.825000X0.150000X-0.825000X0.150000X0*%
%ADD36RoundRect,0.250000X0.650000X-0.325000X0.650000X0.325000X-0.650000X0.325000X-0.650000X-0.325000X0*%
G04 APERTURE END LIST*
D10*
X186337500Y-76500000D03*
X188162500Y-76500000D03*
X219587500Y-135750000D03*
X221412500Y-135750000D03*
D11*
X35750000Y-102337500D03*
X35750000Y-105262500D03*
D12*
X176750000Y-41775000D03*
X176750000Y-40225000D03*
D13*
X175162500Y-133500000D03*
X173337500Y-133500000D03*
D14*
X66250000Y-79200000D03*
X66250000Y-82800000D03*
D15*
X181650000Y-83500000D03*
X178850000Y-83500000D03*
D13*
X114662500Y-71000000D03*
X112837500Y-71000000D03*
D16*
X19100000Y-62550000D03*
X19750000Y-62550000D03*
X20400000Y-62550000D03*
X20400000Y-64450000D03*
X19750000Y-64450000D03*
X19100000Y-64450000D03*
D15*
X156150000Y-86000000D03*
X153350000Y-86000000D03*
D10*
X94837500Y-128500000D03*
X96662500Y-128500000D03*
D14*
X85750000Y-73700000D03*
X85750000Y-77300000D03*
D17*
X232000000Y-79300000D03*
X232000000Y-87700000D03*
D18*
X219050000Y-57650000D03*
X219050000Y-57000000D03*
X219050000Y-56350000D03*
X220950000Y-56350000D03*
X220950000Y-57000000D03*
X220950000Y-57650000D03*
D19*
X64750000Y-114800000D03*
X64750000Y-112000000D03*
D12*
X172250000Y-64275000D03*
X172250000Y-62725000D03*
D10*
X184837500Y-120900000D03*
X186662500Y-120900000D03*
D20*
X244250000Y-95412500D03*
X244250000Y-93587500D03*
D12*
X146750000Y-41775000D03*
X146750000Y-40225000D03*
D21*
X196000000Y-140300000D03*
X196000000Y-136700000D03*
D16*
X112600000Y-59050000D03*
X113250000Y-59050000D03*
X113900000Y-59050000D03*
X113900000Y-60950000D03*
X113250000Y-60950000D03*
X112600000Y-60950000D03*
D22*
X154800000Y-147300000D03*
X156700000Y-147300000D03*
X155750000Y-149700000D03*
D13*
X55162500Y-133500000D03*
X53337500Y-133500000D03*
D16*
X117100000Y-62550000D03*
X117750000Y-62550000D03*
X118400000Y-62550000D03*
X118400000Y-64450000D03*
X117750000Y-64450000D03*
X117100000Y-64450000D03*
D10*
X182837500Y-71000000D03*
X184662500Y-71000000D03*
D13*
X62162500Y-144500000D03*
X60337500Y-144500000D03*
D10*
X34837500Y-117000000D03*
X36662500Y-117000000D03*
D14*
X55750000Y-73700000D03*
X55750000Y-77300000D03*
D11*
X81750000Y-111837500D03*
X81750000Y-114762500D03*
D13*
X145162500Y-133500000D03*
X143337500Y-133500000D03*
D23*
X55250000Y-141200000D03*
X55250000Y-136800000D03*
D24*
X189200000Y-53850000D03*
X189200000Y-54500000D03*
X189200000Y-55150000D03*
X187300000Y-55150000D03*
X187300000Y-53850000D03*
D12*
X150250000Y-64275000D03*
X150250000Y-62725000D03*
D25*
X51350000Y-86000000D03*
X54150000Y-86000000D03*
D10*
X62337500Y-133500000D03*
X64162500Y-133500000D03*
D12*
X30250000Y-64275000D03*
X30250000Y-62725000D03*
D13*
X53162500Y-144500000D03*
X51337500Y-144500000D03*
D10*
X64837500Y-120900000D03*
X66662500Y-120900000D03*
X122337500Y-133500000D03*
X124162500Y-133500000D03*
X154337500Y-144500000D03*
X156162500Y-144500000D03*
D11*
X21750000Y-104037500D03*
X21750000Y-106962500D03*
X141750000Y-119337500D03*
X141750000Y-122262500D03*
D10*
X62837500Y-71000000D03*
X64662500Y-71000000D03*
D13*
X111162500Y-76500000D03*
X109337500Y-76500000D03*
D23*
X62250000Y-141200000D03*
X62250000Y-136800000D03*
D26*
X121525000Y-156000000D03*
X119975000Y-156000000D03*
D12*
X22250000Y-64275000D03*
X22250000Y-62725000D03*
D14*
X151750000Y-73700000D03*
X151750000Y-77300000D03*
D13*
X209912500Y-61000000D03*
X208087500Y-61000000D03*
D16*
X150600000Y-59050000D03*
X151250000Y-59050000D03*
X151900000Y-59050000D03*
X151900000Y-60950000D03*
X151250000Y-60950000D03*
X150600000Y-60950000D03*
D13*
X239412500Y-114000000D03*
X237587500Y-114000000D03*
X173162500Y-144500000D03*
X171337500Y-144500000D03*
D18*
X97300000Y-48150000D03*
X97300000Y-47500000D03*
X97300000Y-46850000D03*
X99200000Y-46850000D03*
X99200000Y-48150000D03*
D13*
X243912500Y-105000000D03*
X242087500Y-105000000D03*
X152162500Y-144500000D03*
X150337500Y-144500000D03*
D27*
X156700000Y-125700000D03*
X154800000Y-125700000D03*
D28*
X241000000Y-147500000D03*
X241000000Y-149050000D03*
D12*
X184250000Y-41775000D03*
X184250000Y-40225000D03*
D18*
X187300000Y-48150000D03*
X187300000Y-47500000D03*
X187300000Y-46850000D03*
X189200000Y-46850000D03*
X189200000Y-48150000D03*
D13*
X51162500Y-76500000D03*
X49337500Y-76500000D03*
D14*
X141250000Y-79200000D03*
X141250000Y-82800000D03*
D23*
X115250000Y-141200000D03*
X115250000Y-136800000D03*
X122250000Y-141200000D03*
X122250000Y-136800000D03*
D14*
X121750000Y-73700000D03*
X121750000Y-77300000D03*
D29*
X228475000Y-67190000D03*
X228475000Y-68460000D03*
X228475000Y-69730000D03*
X228475000Y-71000000D03*
X228475000Y-72270000D03*
X228475000Y-73540000D03*
X228475000Y-74810000D03*
X223525000Y-74810000D03*
X223525000Y-73540000D03*
X223525000Y-72270000D03*
X223525000Y-71000000D03*
X223525000Y-69730000D03*
X223525000Y-68460000D03*
X223525000Y-67190000D03*
D16*
X30600000Y-59050000D03*
X31250000Y-59050000D03*
X31900000Y-59050000D03*
X31900000Y-60950000D03*
X31250000Y-60950000D03*
X30600000Y-60950000D03*
D13*
X24662500Y-71000000D03*
X22837500Y-71000000D03*
D20*
X97750000Y-113412500D03*
X97750000Y-111587500D03*
D26*
X61525000Y-156000000D03*
X59975000Y-156000000D03*
D16*
X65100000Y-62550000D03*
X65750000Y-62550000D03*
X66400000Y-62550000D03*
X66400000Y-64450000D03*
X65750000Y-64450000D03*
X65100000Y-64450000D03*
D20*
X187500000Y-59912500D03*
X187500000Y-58087500D03*
D19*
X34750000Y-114800000D03*
X34750000Y-112000000D03*
D16*
X96100000Y-40000000D03*
X96750000Y-40000000D03*
X97400000Y-40000000D03*
X97400000Y-41900000D03*
X96100000Y-41900000D03*
D10*
X94837500Y-117000000D03*
X96662500Y-117000000D03*
D26*
X233775000Y-54500000D03*
X232225000Y-54500000D03*
D13*
X171162500Y-76500000D03*
X169337500Y-76500000D03*
X239412500Y-61000000D03*
X237587500Y-61000000D03*
D12*
X128250000Y-64275000D03*
X128250000Y-62725000D03*
D16*
X126100000Y-40000000D03*
X126750000Y-40000000D03*
X127400000Y-40000000D03*
X127400000Y-41900000D03*
X126100000Y-41900000D03*
D23*
X25250000Y-141200000D03*
X25250000Y-136800000D03*
D30*
X231500000Y-73087500D03*
X231500000Y-74912500D03*
X196500000Y-67587500D03*
X196500000Y-69412500D03*
D31*
X186700000Y-109437500D03*
X184800000Y-109437500D03*
X185750000Y-107562500D03*
D15*
X151650000Y-83500000D03*
X148850000Y-83500000D03*
D31*
X96700000Y-109437500D03*
X94800000Y-109437500D03*
X95750000Y-107562500D03*
D10*
X145250000Y-144500000D03*
X147075000Y-144500000D03*
D27*
X66700000Y-125700000D03*
X64800000Y-125700000D03*
X186700000Y-125700000D03*
X184800000Y-125700000D03*
D12*
X258500000Y-80775000D03*
X258500000Y-79225000D03*
X188250000Y-64275000D03*
X188250000Y-62725000D03*
D17*
X208000000Y-79300000D03*
X208000000Y-87700000D03*
D20*
X127750000Y-113412500D03*
X127750000Y-111587500D03*
D12*
X90250000Y-64275000D03*
X90250000Y-62725000D03*
D10*
X34337500Y-144500000D03*
X36162500Y-144500000D03*
X194587500Y-110000000D03*
X196412500Y-110000000D03*
D16*
X109100000Y-62550000D03*
X109750000Y-62550000D03*
X110400000Y-62550000D03*
X110400000Y-64450000D03*
X109750000Y-64450000D03*
X109100000Y-64450000D03*
D10*
X126337500Y-76500000D03*
X128162500Y-76500000D03*
D12*
X250000000Y-62275000D03*
X250000000Y-60725000D03*
D16*
X172600000Y-59050000D03*
X173250000Y-59050000D03*
X173900000Y-59050000D03*
X173900000Y-60950000D03*
X173250000Y-60950000D03*
X172600000Y-60950000D03*
D11*
X65750000Y-102337500D03*
X65750000Y-105262500D03*
D10*
X34837500Y-120900000D03*
X36662500Y-120900000D03*
D17*
X220000000Y-79300000D03*
X220000000Y-87700000D03*
D20*
X182750000Y-68912500D03*
X182750000Y-67087500D03*
D14*
X81250000Y-79200000D03*
X81250000Y-82800000D03*
D10*
X219587500Y-133500000D03*
X221412500Y-133500000D03*
D12*
X25750000Y-60775000D03*
X25750000Y-59225000D03*
D31*
X156700000Y-109437500D03*
X154800000Y-109437500D03*
X155750000Y-107562500D03*
D22*
X184800000Y-147300000D03*
X186700000Y-147300000D03*
X185750000Y-149700000D03*
D10*
X94837500Y-120900000D03*
X96662500Y-120900000D03*
D16*
X87100000Y-62550000D03*
X87750000Y-62550000D03*
X88400000Y-62550000D03*
X88400000Y-64450000D03*
X87750000Y-64450000D03*
X87100000Y-64450000D03*
D13*
X84662500Y-71000000D03*
X82837500Y-71000000D03*
D32*
X38750000Y-67600000D03*
X38750000Y-70400000D03*
D31*
X36700000Y-109437500D03*
X34800000Y-109437500D03*
X35750000Y-107562500D03*
D11*
X95750000Y-94837500D03*
X95750000Y-97762500D03*
D13*
X247912500Y-112000000D03*
X246087500Y-112000000D03*
D10*
X32337500Y-133500000D03*
X34162500Y-133500000D03*
D15*
X31650000Y-83500000D03*
X28850000Y-83500000D03*
D10*
X203587500Y-65000000D03*
X205412500Y-65000000D03*
X124837500Y-117000000D03*
X126662500Y-117000000D03*
X175250000Y-144500000D03*
X177075000Y-144500000D03*
D11*
X171750000Y-111837500D03*
X171750000Y-114762500D03*
D22*
X110800000Y-147300000D03*
X112700000Y-147300000D03*
X111750000Y-149700000D03*
D21*
X254500000Y-81800000D03*
X254500000Y-78200000D03*
D32*
X158750000Y-67600000D03*
X158750000Y-70400000D03*
D10*
X152837500Y-71000000D03*
X154662500Y-71000000D03*
D12*
X68250000Y-64275000D03*
X68250000Y-62725000D03*
D10*
X34837500Y-128500000D03*
X36662500Y-128500000D03*
D27*
X66700000Y-123700000D03*
X64800000Y-123700000D03*
D16*
X95100000Y-62550000D03*
X95750000Y-62550000D03*
X96400000Y-62550000D03*
X96400000Y-64450000D03*
X95750000Y-64450000D03*
X95100000Y-64450000D03*
D11*
X236000000Y-91037500D03*
X236000000Y-93962500D03*
D16*
X120600000Y-59050000D03*
X121250000Y-59050000D03*
X121900000Y-59050000D03*
X121900000Y-60950000D03*
X121250000Y-60950000D03*
X120600000Y-60950000D03*
D30*
X220500000Y-73175000D03*
X220500000Y-75000000D03*
D12*
X142250000Y-64275000D03*
X142250000Y-62725000D03*
D11*
X35750000Y-94837500D03*
X35750000Y-97762500D03*
D10*
X64337500Y-144500000D03*
X66162500Y-144500000D03*
D20*
X140750000Y-74412500D03*
X140750000Y-72587500D03*
D13*
X243912500Y-112000000D03*
X242087500Y-112000000D03*
D11*
X125750000Y-94837500D03*
X125750000Y-97762500D03*
D10*
X227587500Y-65000000D03*
X229412500Y-65000000D03*
D20*
X186750000Y-74412500D03*
X186750000Y-72587500D03*
X37750000Y-113412500D03*
X37750000Y-111587500D03*
D13*
X217412500Y-152500000D03*
X215587500Y-152500000D03*
D11*
X111750000Y-104037500D03*
X111750000Y-106962500D03*
D15*
X36150000Y-86000000D03*
X33350000Y-86000000D03*
D20*
X187750000Y-113412500D03*
X187750000Y-111587500D03*
D12*
X112250000Y-64275000D03*
X112250000Y-62725000D03*
D13*
X182162500Y-144500000D03*
X180337500Y-144500000D03*
D18*
X213550000Y-57650000D03*
X213550000Y-57000000D03*
X213550000Y-56350000D03*
X215450000Y-56350000D03*
X215450000Y-57000000D03*
X215450000Y-57650000D03*
D16*
X169100000Y-62550000D03*
X169750000Y-62550000D03*
X170400000Y-62550000D03*
X170400000Y-64450000D03*
X169750000Y-64450000D03*
X169100000Y-64450000D03*
D26*
X99025000Y-50000000D03*
X97475000Y-50000000D03*
D20*
X80750000Y-74412500D03*
X80750000Y-72587500D03*
D14*
X25750000Y-73700000D03*
X25750000Y-77300000D03*
D26*
X31525000Y-156000000D03*
X29975000Y-156000000D03*
D12*
X26750000Y-41775000D03*
X26750000Y-40225000D03*
D20*
X67750000Y-113412500D03*
X67750000Y-111587500D03*
D16*
X88600000Y-40050000D03*
X89250000Y-40050000D03*
X89900000Y-40050000D03*
X89900000Y-41950000D03*
X88600000Y-41950000D03*
D30*
X241750000Y-93587500D03*
X241750000Y-95412500D03*
D21*
X211000000Y-126800000D03*
X211000000Y-123200000D03*
D14*
X61750000Y-73700000D03*
X61750000Y-77300000D03*
D13*
X115162500Y-133500000D03*
X113337500Y-133500000D03*
D26*
X220775000Y-54500000D03*
X219225000Y-54500000D03*
D16*
X35100000Y-62550000D03*
X35750000Y-62550000D03*
X36400000Y-62550000D03*
X36400000Y-64450000D03*
X35750000Y-64450000D03*
X35100000Y-64450000D03*
D33*
X67475000Y-52000000D03*
X69025000Y-52000000D03*
D23*
X145250000Y-141200000D03*
X145250000Y-136800000D03*
X92250000Y-141200000D03*
X92250000Y-136800000D03*
D11*
X81750000Y-119337500D03*
X81750000Y-122262500D03*
D14*
X51250000Y-79200000D03*
X51250000Y-82800000D03*
D21*
X205000000Y-140300000D03*
X205000000Y-136700000D03*
D26*
X181525000Y-156000000D03*
X179975000Y-156000000D03*
D20*
X157750000Y-113412500D03*
X157750000Y-111587500D03*
D21*
X254500000Y-73300000D03*
X254500000Y-69700000D03*
D20*
X20750000Y-74412500D03*
X20750000Y-72587500D03*
D13*
X32162500Y-144500000D03*
X30337500Y-144500000D03*
D34*
X242050000Y-107562500D03*
X243950000Y-107562500D03*
X243000000Y-109437500D03*
D13*
X143162500Y-144500000D03*
X141337500Y-144500000D03*
D27*
X186700000Y-123700000D03*
X184800000Y-123700000D03*
D35*
X56275000Y-154310000D03*
X56275000Y-153040000D03*
X56275000Y-151770000D03*
X56275000Y-150500000D03*
X56275000Y-149230000D03*
X56275000Y-147960000D03*
X56275000Y-146690000D03*
X61225000Y-146690000D03*
X61225000Y-147960000D03*
X61225000Y-149230000D03*
X61225000Y-150500000D03*
X61225000Y-151770000D03*
X61225000Y-153040000D03*
X61225000Y-154310000D03*
D25*
X145850000Y-80500000D03*
X148650000Y-80500000D03*
D18*
X37300000Y-48150000D03*
X37300000Y-47500000D03*
X37300000Y-46850000D03*
X39200000Y-46850000D03*
X39200000Y-48150000D03*
D24*
X159200000Y-53850000D03*
X159200000Y-54500000D03*
X159200000Y-55150000D03*
X157300000Y-55150000D03*
X157300000Y-53850000D03*
D20*
X144750000Y-68912500D03*
X144750000Y-67087500D03*
D16*
X28600000Y-40050000D03*
X29250000Y-40050000D03*
X29900000Y-40050000D03*
X29900000Y-41950000D03*
X28600000Y-41950000D03*
D10*
X25250000Y-144500000D03*
X27075000Y-144500000D03*
D16*
X27100000Y-62550000D03*
X27750000Y-62550000D03*
X28400000Y-62550000D03*
X28400000Y-64450000D03*
X27750000Y-64450000D03*
X27100000Y-64450000D03*
D13*
X25162500Y-133500000D03*
X23337500Y-133500000D03*
D22*
X20800000Y-147300000D03*
X22700000Y-147300000D03*
X21750000Y-149700000D03*
D12*
X145750000Y-60775000D03*
X145750000Y-59225000D03*
D26*
X209775000Y-54500000D03*
X208225000Y-54500000D03*
D25*
X175850000Y-80500000D03*
X178650000Y-80500000D03*
D12*
X116750000Y-41775000D03*
X116750000Y-40225000D03*
D16*
X185100000Y-62550000D03*
X185750000Y-62550000D03*
X186400000Y-62550000D03*
X186400000Y-64450000D03*
X185750000Y-64450000D03*
X185100000Y-64450000D03*
D20*
X110750000Y-74412500D03*
X110750000Y-72587500D03*
D15*
X126150000Y-86000000D03*
X123350000Y-86000000D03*
D20*
X152750000Y-68912500D03*
X152750000Y-67087500D03*
D32*
X128750000Y-67600000D03*
X128750000Y-70400000D03*
D14*
X175750000Y-73700000D03*
X175750000Y-77300000D03*
D18*
X157300000Y-48150000D03*
X157300000Y-47500000D03*
X157300000Y-46850000D03*
X159200000Y-46850000D03*
X159200000Y-48150000D03*
D20*
X126750000Y-74412500D03*
X126750000Y-72587500D03*
D15*
X91650000Y-83500000D03*
X88850000Y-83500000D03*
D10*
X184837500Y-117000000D03*
X186662500Y-117000000D03*
D13*
X214412500Y-120000000D03*
X212587500Y-120000000D03*
D10*
X55250000Y-144500000D03*
X57075000Y-144500000D03*
D13*
X23162500Y-144500000D03*
X21337500Y-144500000D03*
D14*
X156250000Y-79200000D03*
X156250000Y-82800000D03*
D10*
X64837500Y-128500000D03*
X66662500Y-128500000D03*
D11*
X21750000Y-119337500D03*
X21750000Y-122262500D03*
D16*
X125100000Y-62550000D03*
X125750000Y-62550000D03*
X126400000Y-62550000D03*
X126400000Y-64450000D03*
X125750000Y-64450000D03*
X125100000Y-64450000D03*
D19*
X124750000Y-114800000D03*
X124750000Y-112000000D03*
D25*
X25850000Y-80500000D03*
X28650000Y-80500000D03*
D18*
X127300000Y-48150000D03*
X127300000Y-47500000D03*
X127300000Y-46850000D03*
X129200000Y-46850000D03*
X129200000Y-48150000D03*
D33*
X187475000Y-52000000D03*
X189025000Y-52000000D03*
D10*
X152337500Y-133500000D03*
X154162500Y-133500000D03*
D16*
X58600000Y-40050000D03*
X59250000Y-40050000D03*
X59900000Y-40050000D03*
X59900000Y-41950000D03*
X58600000Y-41950000D03*
D20*
X157500000Y-59912500D03*
X157500000Y-58087500D03*
D16*
X139100000Y-62550000D03*
X139750000Y-62550000D03*
X140400000Y-62550000D03*
X140400000Y-64450000D03*
X139750000Y-64450000D03*
X139100000Y-64450000D03*
D12*
X158250000Y-64275000D03*
X158250000Y-62725000D03*
D11*
X185750000Y-94837500D03*
X185750000Y-97762500D03*
D22*
X170800000Y-147300000D03*
X172700000Y-147300000D03*
X171750000Y-149700000D03*
D26*
X189025000Y-50000000D03*
X187475000Y-50000000D03*
D23*
X182250000Y-141200000D03*
X182250000Y-136800000D03*
D25*
X141350000Y-86000000D03*
X144150000Y-86000000D03*
D22*
X94800000Y-147300000D03*
X96700000Y-147300000D03*
X95750000Y-149700000D03*
D18*
X67300000Y-48150000D03*
X67300000Y-47500000D03*
X67300000Y-46850000D03*
X69200000Y-46850000D03*
X69200000Y-48150000D03*
D33*
X127475000Y-52000000D03*
X129025000Y-52000000D03*
D25*
X171350000Y-86000000D03*
X174150000Y-86000000D03*
D16*
X60600000Y-59050000D03*
X61250000Y-59050000D03*
X61900000Y-59050000D03*
X61900000Y-60950000D03*
X61250000Y-60950000D03*
X60600000Y-60950000D03*
D26*
X69025000Y-50000000D03*
X67475000Y-50000000D03*
D35*
X176275000Y-154310000D03*
X176275000Y-153040000D03*
X176275000Y-151770000D03*
X176275000Y-150500000D03*
X176275000Y-149230000D03*
X176275000Y-147960000D03*
X176275000Y-146690000D03*
X181225000Y-146690000D03*
X181225000Y-147960000D03*
X181225000Y-149230000D03*
X181225000Y-150500000D03*
X181225000Y-151770000D03*
X181225000Y-153040000D03*
X181225000Y-154310000D03*
D13*
X144662500Y-71000000D03*
X142837500Y-71000000D03*
D20*
X67500000Y-59912500D03*
X67500000Y-58087500D03*
D33*
X157475000Y-52000000D03*
X159025000Y-52000000D03*
D10*
X32837500Y-71000000D03*
X34662500Y-71000000D03*
D16*
X148600000Y-40050000D03*
X149250000Y-40050000D03*
X149900000Y-40050000D03*
X149900000Y-41950000D03*
X148600000Y-41950000D03*
D14*
X96250000Y-79200000D03*
X96250000Y-82800000D03*
D15*
X66150000Y-86000000D03*
X63350000Y-86000000D03*
D10*
X219587500Y-139500000D03*
X221412500Y-139500000D03*
D22*
X34800000Y-147300000D03*
X36700000Y-147300000D03*
X35750000Y-149700000D03*
D11*
X81750000Y-104037500D03*
X81750000Y-106962500D03*
X111750000Y-119337500D03*
X111750000Y-122262500D03*
D10*
X124337500Y-144500000D03*
X126162500Y-144500000D03*
D16*
X118600000Y-40050000D03*
X119250000Y-40050000D03*
X119900000Y-40050000D03*
X119900000Y-41950000D03*
X118600000Y-41950000D03*
D15*
X186150000Y-86000000D03*
X183350000Y-86000000D03*
D11*
X125750000Y-102337500D03*
X125750000Y-105262500D03*
D12*
X64250000Y-41775000D03*
X64250000Y-40225000D03*
D20*
X66750000Y-74412500D03*
X66750000Y-72587500D03*
D13*
X200412500Y-65000000D03*
X198587500Y-65000000D03*
D20*
X127500000Y-59912500D03*
X127500000Y-58087500D03*
D10*
X194587500Y-112500000D03*
X196412500Y-112500000D03*
D13*
X220912500Y-61000000D03*
X219087500Y-61000000D03*
D24*
X39200000Y-53850000D03*
X39200000Y-54500000D03*
X39200000Y-55150000D03*
X37300000Y-55150000D03*
X37300000Y-53850000D03*
D21*
X205000000Y-126800000D03*
X205000000Y-123200000D03*
D11*
X155750000Y-102337500D03*
X155750000Y-105262500D03*
D27*
X126700000Y-125700000D03*
X124800000Y-125700000D03*
D14*
X171250000Y-79200000D03*
X171250000Y-82800000D03*
D33*
X37475000Y-52000000D03*
X39025000Y-52000000D03*
D36*
X239000000Y-84975000D03*
X239000000Y-82025000D03*
D16*
X49100000Y-62550000D03*
X49750000Y-62550000D03*
X50400000Y-62550000D03*
X50400000Y-64450000D03*
X49750000Y-64450000D03*
X49100000Y-64450000D03*
D13*
X21162500Y-76500000D03*
X19337500Y-76500000D03*
D20*
X174750000Y-68912500D03*
X174750000Y-67087500D03*
D10*
X154837500Y-117000000D03*
X156662500Y-117000000D03*
D12*
X52250000Y-64275000D03*
X52250000Y-62725000D03*
D20*
X96750000Y-74412500D03*
X96750000Y-72587500D03*
D12*
X60250000Y-64275000D03*
X60250000Y-62725000D03*
D11*
X111750000Y-111837500D03*
X111750000Y-114762500D03*
D10*
X124837500Y-128500000D03*
X126662500Y-128500000D03*
D30*
X207500000Y-73087500D03*
X207500000Y-74912500D03*
D11*
X171750000Y-104037500D03*
X171750000Y-106962500D03*
D14*
X245000000Y-146700000D03*
X245000000Y-150300000D03*
D16*
X82600000Y-59050000D03*
X83250000Y-59050000D03*
X83900000Y-59050000D03*
X83900000Y-60950000D03*
X83250000Y-60950000D03*
X82600000Y-60950000D03*
D12*
X85750000Y-60775000D03*
X85750000Y-59225000D03*
D20*
X170750000Y-74412500D03*
X170750000Y-72587500D03*
D34*
X242050000Y-114562500D03*
X243950000Y-114562500D03*
X243000000Y-116437500D03*
D27*
X96700000Y-125700000D03*
X94800000Y-125700000D03*
D25*
X81350000Y-86000000D03*
X84150000Y-86000000D03*
D30*
X196500000Y-73087500D03*
X196500000Y-74912500D03*
D27*
X156700000Y-123700000D03*
X154800000Y-123700000D03*
D11*
X21750000Y-111837500D03*
X21750000Y-114762500D03*
D23*
X85250000Y-141200000D03*
X85250000Y-136800000D03*
D14*
X36250000Y-79200000D03*
X36250000Y-82800000D03*
D12*
X183750000Y-60775000D03*
X183750000Y-59225000D03*
D10*
X154837500Y-128500000D03*
X156662500Y-128500000D03*
D18*
X208050000Y-57650000D03*
X208050000Y-57000000D03*
X208050000Y-56350000D03*
X209950000Y-56350000D03*
X209950000Y-57000000D03*
X209950000Y-57650000D03*
D25*
X55850000Y-80500000D03*
X58650000Y-80500000D03*
D20*
X114750000Y-68912500D03*
X114750000Y-67087500D03*
D22*
X140800000Y-147300000D03*
X142700000Y-147300000D03*
X141750000Y-149700000D03*
D27*
X36700000Y-123700000D03*
X34800000Y-123700000D03*
D23*
X152250000Y-141200000D03*
X152250000Y-136800000D03*
D13*
X92162500Y-144500000D03*
X90337500Y-144500000D03*
D20*
X122750000Y-68912500D03*
X122750000Y-67087500D03*
D14*
X245000000Y-155200000D03*
X245000000Y-158800000D03*
D16*
X66100000Y-40000000D03*
X66750000Y-40000000D03*
X67400000Y-40000000D03*
X67400000Y-41900000D03*
X66100000Y-41900000D03*
D25*
X115850000Y-80500000D03*
X118650000Y-80500000D03*
D22*
X80800000Y-147300000D03*
X82700000Y-147300000D03*
X81750000Y-149700000D03*
D30*
X258500000Y-70587500D03*
X258500000Y-72412500D03*
D35*
X146275000Y-154310000D03*
X146275000Y-153040000D03*
X146275000Y-151770000D03*
X146275000Y-150500000D03*
X146275000Y-149230000D03*
X146275000Y-147960000D03*
X146275000Y-146690000D03*
X151225000Y-146690000D03*
X151225000Y-147960000D03*
X151225000Y-149230000D03*
X151225000Y-150500000D03*
X151225000Y-151770000D03*
X151225000Y-153040000D03*
X151225000Y-154310000D03*
D23*
X175250000Y-141200000D03*
X175250000Y-136800000D03*
D13*
X113162500Y-144500000D03*
X111337500Y-144500000D03*
D18*
X237550000Y-57650000D03*
X237550000Y-57000000D03*
X237550000Y-56350000D03*
X239450000Y-56350000D03*
X239450000Y-57000000D03*
X239450000Y-57650000D03*
D12*
X244500000Y-62275000D03*
X244500000Y-60725000D03*
D26*
X129025000Y-50000000D03*
X127475000Y-50000000D03*
X159025000Y-50000000D03*
X157475000Y-50000000D03*
D12*
X38250000Y-64275000D03*
X38250000Y-62725000D03*
D11*
X51750000Y-104037500D03*
X51750000Y-106962500D03*
D27*
X96700000Y-123700000D03*
X94800000Y-123700000D03*
D14*
X21250000Y-79200000D03*
X21250000Y-82800000D03*
D11*
X141750000Y-111837500D03*
X141750000Y-114762500D03*
D10*
X219587500Y-141750000D03*
X221412500Y-141750000D03*
D12*
X120250000Y-64275000D03*
X120250000Y-62725000D03*
D25*
X21350000Y-86000000D03*
X24150000Y-86000000D03*
D20*
X62750000Y-68912500D03*
X62750000Y-67087500D03*
D16*
X52600000Y-59050000D03*
X53250000Y-59050000D03*
X53900000Y-59050000D03*
X53900000Y-60950000D03*
X53250000Y-60950000D03*
X52600000Y-60950000D03*
D35*
X86275000Y-154310000D03*
X86275000Y-153040000D03*
X86275000Y-151770000D03*
X86275000Y-150500000D03*
X86275000Y-149230000D03*
X86275000Y-147960000D03*
X86275000Y-146690000D03*
X91225000Y-146690000D03*
X91225000Y-147960000D03*
X91225000Y-149230000D03*
X91225000Y-150500000D03*
X91225000Y-151770000D03*
X91225000Y-153040000D03*
X91225000Y-154310000D03*
D21*
X196000000Y-126800000D03*
X196000000Y-123200000D03*
D29*
X204475000Y-67190000D03*
X204475000Y-68460000D03*
X204475000Y-69730000D03*
X204475000Y-71000000D03*
X204475000Y-72270000D03*
X204475000Y-73540000D03*
X204475000Y-74810000D03*
X199525000Y-74810000D03*
X199525000Y-73540000D03*
X199525000Y-72270000D03*
X199525000Y-71000000D03*
X199525000Y-69730000D03*
X199525000Y-68460000D03*
X199525000Y-67190000D03*
D20*
X36750000Y-74412500D03*
X36750000Y-72587500D03*
D21*
X211000000Y-140300000D03*
X211000000Y-136700000D03*
D12*
X86750000Y-41775000D03*
X86750000Y-40225000D03*
D10*
X115250000Y-144500000D03*
X117075000Y-144500000D03*
D26*
X39025000Y-50000000D03*
X37475000Y-50000000D03*
D12*
X154250000Y-41775000D03*
X154250000Y-40225000D03*
X201000000Y-151275000D03*
X201000000Y-149725000D03*
D25*
X85850000Y-80500000D03*
X88650000Y-80500000D03*
D20*
X37500000Y-59912500D03*
X37500000Y-58087500D03*
D26*
X151525000Y-156000000D03*
X149975000Y-156000000D03*
D16*
X156100000Y-40000000D03*
X156750000Y-40000000D03*
X157400000Y-40000000D03*
X157400000Y-41900000D03*
X156100000Y-41900000D03*
X90600000Y-59050000D03*
X91250000Y-59050000D03*
X91900000Y-59050000D03*
X91900000Y-60950000D03*
X91250000Y-60950000D03*
X90600000Y-60950000D03*
X180600000Y-59050000D03*
X181250000Y-59050000D03*
X181900000Y-59050000D03*
X181900000Y-60950000D03*
X181250000Y-60950000D03*
X180600000Y-60950000D03*
D26*
X215275000Y-54500000D03*
X213725000Y-54500000D03*
D22*
X124800000Y-147300000D03*
X126700000Y-147300000D03*
X125750000Y-149700000D03*
D10*
X154837500Y-120900000D03*
X156662500Y-120900000D03*
X66337500Y-76500000D03*
X68162500Y-76500000D03*
X156337500Y-76500000D03*
X158162500Y-76500000D03*
D13*
X174662500Y-71000000D03*
X172837500Y-71000000D03*
D26*
X91525000Y-156000000D03*
X89975000Y-156000000D03*
D12*
X94250000Y-41775000D03*
X94250000Y-40225000D03*
D11*
X222000000Y-100537500D03*
X222000000Y-103462500D03*
D22*
X64800000Y-147300000D03*
X66700000Y-147300000D03*
X65750000Y-149700000D03*
D12*
X175750000Y-60775000D03*
X175750000Y-59225000D03*
D24*
X99200000Y-53850000D03*
X99200000Y-54500000D03*
X99200000Y-55150000D03*
X97300000Y-55150000D03*
X97300000Y-53850000D03*
D16*
X142600000Y-59050000D03*
X143250000Y-59050000D03*
X143900000Y-59050000D03*
X143900000Y-60950000D03*
X143250000Y-60950000D03*
X142600000Y-60950000D03*
D23*
X32250000Y-141200000D03*
X32250000Y-136800000D03*
D13*
X85162500Y-133500000D03*
X83337500Y-133500000D03*
D12*
X153750000Y-60775000D03*
X153750000Y-59225000D03*
X180250000Y-64275000D03*
X180250000Y-62725000D03*
D10*
X85250000Y-144500000D03*
X87075000Y-144500000D03*
D16*
X155100000Y-62550000D03*
X155750000Y-62550000D03*
X156400000Y-62550000D03*
X156400000Y-64450000D03*
X155750000Y-64450000D03*
X155100000Y-64450000D03*
X246350000Y-60550000D03*
X247000000Y-60550000D03*
X247650000Y-60550000D03*
X247650000Y-62450000D03*
X246350000Y-62450000D03*
D11*
X51750000Y-111837500D03*
X51750000Y-114762500D03*
D19*
X94750000Y-114800000D03*
X94750000Y-112000000D03*
D18*
X232050000Y-57650000D03*
X232050000Y-57000000D03*
X232050000Y-56350000D03*
X233950000Y-56350000D03*
X233950000Y-57000000D03*
X233950000Y-57650000D03*
D20*
X156750000Y-74412500D03*
X156750000Y-72587500D03*
D33*
X97475000Y-52000000D03*
X99025000Y-52000000D03*
D30*
X207500000Y-67587500D03*
X207500000Y-69412500D03*
D13*
X239412500Y-116500000D03*
X237587500Y-116500000D03*
X239412500Y-103000000D03*
X237587500Y-103000000D03*
D14*
X31750000Y-73700000D03*
X31750000Y-77300000D03*
D10*
X64837500Y-117000000D03*
X66662500Y-117000000D03*
D12*
X98250000Y-64275000D03*
X98250000Y-62725000D03*
D17*
X196000000Y-79300000D03*
X196000000Y-87700000D03*
D11*
X185750000Y-102337500D03*
X185750000Y-105262500D03*
D14*
X115750000Y-73700000D03*
X115750000Y-77300000D03*
D20*
X54750000Y-68912500D03*
X54750000Y-67087500D03*
D21*
X205000000Y-152300000D03*
X205000000Y-148700000D03*
D12*
X63750000Y-60775000D03*
X63750000Y-59225000D03*
D10*
X184337500Y-144500000D03*
X186162500Y-144500000D03*
D16*
X36100000Y-40000000D03*
X36750000Y-40000000D03*
X37400000Y-40000000D03*
X37400000Y-41900000D03*
X36100000Y-41900000D03*
X22600000Y-59050000D03*
X23250000Y-59050000D03*
X23900000Y-59050000D03*
X23900000Y-60950000D03*
X23250000Y-60950000D03*
X22600000Y-60950000D03*
D10*
X94337500Y-144500000D03*
X96162500Y-144500000D03*
D19*
X184750000Y-114800000D03*
X184750000Y-112000000D03*
D20*
X92750000Y-68912500D03*
X92750000Y-67087500D03*
D16*
X177100000Y-62550000D03*
X177750000Y-62550000D03*
X178400000Y-62550000D03*
X178400000Y-64450000D03*
X177750000Y-64450000D03*
X177100000Y-64450000D03*
D11*
X222000000Y-116037500D03*
X222000000Y-118962500D03*
X141750000Y-104037500D03*
X141750000Y-106962500D03*
D35*
X26275000Y-154310000D03*
X26275000Y-153040000D03*
X26275000Y-151770000D03*
X26275000Y-150500000D03*
X26275000Y-149230000D03*
X26275000Y-147960000D03*
X26275000Y-146690000D03*
X31225000Y-146690000D03*
X31225000Y-147960000D03*
X31225000Y-149230000D03*
X31225000Y-150500000D03*
X31225000Y-151770000D03*
X31225000Y-153040000D03*
X31225000Y-154310000D03*
D12*
X33750000Y-60775000D03*
X33750000Y-59225000D03*
X34250000Y-41775000D03*
X34250000Y-40225000D03*
X124250000Y-41775000D03*
X124250000Y-40225000D03*
D15*
X96150000Y-86000000D03*
X93350000Y-86000000D03*
D20*
X24750000Y-68912500D03*
X24750000Y-67087500D03*
D10*
X237587500Y-100500000D03*
X239412500Y-100500000D03*
D32*
X68750000Y-67600000D03*
X68750000Y-70400000D03*
D11*
X65750000Y-94837500D03*
X65750000Y-97762500D03*
D13*
X122162500Y-144500000D03*
X120337500Y-144500000D03*
D11*
X171750000Y-119337500D03*
X171750000Y-122262500D03*
D14*
X91750000Y-73700000D03*
X91750000Y-77300000D03*
D32*
X188750000Y-67600000D03*
X188750000Y-70400000D03*
D16*
X147100000Y-62550000D03*
X147750000Y-62550000D03*
X148400000Y-62550000D03*
X148400000Y-64450000D03*
X147750000Y-64450000D03*
X147100000Y-64450000D03*
D11*
X51750000Y-119337500D03*
X51750000Y-122262500D03*
D30*
X231500000Y-67587500D03*
X231500000Y-69412500D03*
D14*
X126250000Y-79200000D03*
X126250000Y-82800000D03*
D13*
X54662500Y-71000000D03*
X52837500Y-71000000D03*
D16*
X186100000Y-40000000D03*
X186750000Y-40000000D03*
X187400000Y-40000000D03*
X187400000Y-41900000D03*
X186100000Y-41900000D03*
D15*
X61650000Y-83500000D03*
X58850000Y-83500000D03*
D10*
X36337500Y-76500000D03*
X38162500Y-76500000D03*
D30*
X220500000Y-67587500D03*
X220500000Y-69412500D03*
D34*
X242050000Y-98062500D03*
X243950000Y-98062500D03*
X243000000Y-99937500D03*
D12*
X82250000Y-64275000D03*
X82250000Y-62725000D03*
D31*
X66700000Y-109437500D03*
X64800000Y-109437500D03*
X65750000Y-107562500D03*
D13*
X81162500Y-76500000D03*
X79337500Y-76500000D03*
D12*
X201000000Y-139275000D03*
X201000000Y-137725000D03*
D13*
X214412500Y-117500000D03*
X212587500Y-117500000D03*
D20*
X32750000Y-68912500D03*
X32750000Y-67087500D03*
D19*
X154750000Y-114800000D03*
X154750000Y-112000000D03*
D27*
X36700000Y-125700000D03*
X34800000Y-125700000D03*
D12*
X56750000Y-41775000D03*
X56750000Y-40225000D03*
D13*
X224412500Y-65000000D03*
X222587500Y-65000000D03*
D12*
X201000000Y-125775000D03*
X201000000Y-124225000D03*
D13*
X141162500Y-76500000D03*
X139337500Y-76500000D03*
D12*
X55750000Y-60775000D03*
X55750000Y-59225000D03*
X93750000Y-60775000D03*
X93750000Y-59225000D03*
D10*
X92837500Y-71000000D03*
X94662500Y-71000000D03*
D31*
X126700000Y-109437500D03*
X124800000Y-109437500D03*
X125750000Y-107562500D03*
D26*
X239275000Y-54500000D03*
X237725000Y-54500000D03*
X225025000Y-156000000D03*
X223475000Y-156000000D03*
D16*
X251850000Y-60550000D03*
X252500000Y-60550000D03*
X253150000Y-60550000D03*
X253150000Y-62450000D03*
X251850000Y-62450000D03*
D14*
X181750000Y-73700000D03*
X181750000Y-77300000D03*
D10*
X227087500Y-148500000D03*
X228912500Y-148500000D03*
D20*
X50750000Y-74412500D03*
X50750000Y-72587500D03*
D25*
X111350000Y-86000000D03*
X114150000Y-86000000D03*
D20*
X241000000Y-157912500D03*
X241000000Y-156087500D03*
D12*
X123750000Y-60775000D03*
X123750000Y-59225000D03*
D10*
X96337500Y-76500000D03*
X98162500Y-76500000D03*
D11*
X222000000Y-108537500D03*
X222000000Y-111462500D03*
D35*
X116275000Y-154310000D03*
X116275000Y-153040000D03*
X116275000Y-151770000D03*
X116275000Y-150500000D03*
X116275000Y-149230000D03*
X116275000Y-147960000D03*
X116275000Y-146690000D03*
X121225000Y-146690000D03*
X121225000Y-147960000D03*
X121225000Y-149230000D03*
X121225000Y-150500000D03*
X121225000Y-151770000D03*
X121225000Y-153040000D03*
X121225000Y-154310000D03*
D16*
X178600000Y-40050000D03*
X179250000Y-40050000D03*
X179900000Y-40050000D03*
X179900000Y-41950000D03*
X178600000Y-41950000D03*
D24*
X129200000Y-53850000D03*
X129200000Y-54500000D03*
X129200000Y-55150000D03*
X127300000Y-55150000D03*
X127300000Y-53850000D03*
D32*
X98750000Y-67600000D03*
X98750000Y-70400000D03*
D16*
X57100000Y-62550000D03*
X57750000Y-62550000D03*
X58400000Y-62550000D03*
X58400000Y-64450000D03*
X57750000Y-64450000D03*
X57100000Y-64450000D03*
D10*
X184837500Y-128500000D03*
X186662500Y-128500000D03*
D27*
X126700000Y-123700000D03*
X124800000Y-123700000D03*
D24*
X69200000Y-53850000D03*
X69200000Y-54500000D03*
X69200000Y-55150000D03*
X67300000Y-55150000D03*
X67300000Y-53850000D03*
D10*
X182337500Y-133500000D03*
X184162500Y-133500000D03*
D11*
X95750000Y-102337500D03*
X95750000Y-105262500D03*
D15*
X121650000Y-83500000D03*
X118850000Y-83500000D03*
D10*
X92337500Y-133500000D03*
X94162500Y-133500000D03*
D14*
X186250000Y-79200000D03*
X186250000Y-82800000D03*
D20*
X84750000Y-68912500D03*
X84750000Y-67087500D03*
D13*
X83162500Y-144500000D03*
X81337500Y-144500000D03*
D16*
X79100000Y-62550000D03*
X79750000Y-62550000D03*
X80400000Y-62550000D03*
X80400000Y-64450000D03*
X79750000Y-64450000D03*
X79100000Y-64450000D03*
D14*
X145750000Y-73700000D03*
X145750000Y-77300000D03*
D22*
X50800000Y-147300000D03*
X52700000Y-147300000D03*
X51750000Y-149700000D03*
D13*
X215412500Y-61000000D03*
X213587500Y-61000000D03*
D11*
X155750000Y-94837500D03*
X155750000Y-97762500D03*
D10*
X122837500Y-71000000D03*
X124662500Y-71000000D03*
D35*
X219775000Y-154310000D03*
X219775000Y-153040000D03*
X219775000Y-151770000D03*
X219775000Y-150500000D03*
X219775000Y-149230000D03*
X219775000Y-147960000D03*
X219775000Y-146690000D03*
X224725000Y-146690000D03*
X224725000Y-147960000D03*
X224725000Y-149230000D03*
X224725000Y-150500000D03*
X224725000Y-151770000D03*
X224725000Y-153040000D03*
X224725000Y-154310000D03*
D14*
X111250000Y-79200000D03*
X111250000Y-82800000D03*
D10*
X124837500Y-120900000D03*
X126662500Y-120900000D03*
D20*
X97500000Y-59912500D03*
X97500000Y-58087500D03*
D12*
X115750000Y-60775000D03*
X115750000Y-59225000D03*
M02*
