%TF.GenerationSoftware,KiCad,Pcbnew,8.0.8-2.fc41*%
%TF.CreationDate,2025-02-07T13:19:26+00:00*%
%TF.ProjectId,SCART_switcher,53434152-545f-4737-9769-74636865722e,rev?*%
%TF.SameCoordinates,Original*%
%TF.FileFunction,Drillmap*%
%TF.FilePolarity,Positive*%
%FSLAX45Y45*%
G04 Gerber Fmt 4.5, Leading zero omitted, Abs format (unit mm)*
G04 Created by KiCad (PCBNEW 8.0.8-2.fc41) date 2025-02-07 13:19:26*
%MOMM*%
%LPD*%
G01*
G04 APERTURE LIST*
%ADD10C,0.100000*%
%ADD11C,0.200000*%
%ADD12C,0.130000*%
G04 APERTURE END LIST*
D10*
X1250000Y-3800000D02*
X1250000Y-16100000D01*
X26550000Y-3600000D02*
X1450000Y-3600000D01*
X26750000Y-16100000D02*
X26750000Y-3800000D01*
X1450000Y-16300000D02*
X26550000Y-16300000D01*
X1450000Y-16300000D02*
G75*
G02*
X1250000Y-16100000I0J200000D01*
G01*
X1250000Y-3800000D02*
G75*
G02*
X1450000Y-3600000I200000J0D01*
G01*
X26750000Y-16100000D02*
G75*
G02*
X26550000Y-16300000I-200000J0D01*
G01*
X26550000Y-3600000D02*
G75*
G02*
X26750000Y-3800000I0J-200000D01*
G01*
D11*
D10*
X1480000Y-5180000D02*
X1520000Y-5220000D01*
X1520000Y-5180000D02*
X1480000Y-5220000D01*
X1480000Y-5280000D02*
X1520000Y-5320000D01*
X1520000Y-5280000D02*
X1480000Y-5320000D01*
X1530000Y-7980000D02*
X1570000Y-8020000D01*
X1570000Y-7980000D02*
X1530000Y-8020000D01*
X1530000Y-14980000D02*
X1570000Y-15020000D01*
X1570000Y-14980000D02*
X1530000Y-15020000D01*
X1730000Y-14130000D02*
X1770000Y-14170000D01*
X1770000Y-14130000D02*
X1730000Y-14170000D01*
X1780000Y-5180000D02*
X1820000Y-5220000D01*
X1820000Y-5180000D02*
X1780000Y-5220000D01*
X1780000Y-5430000D02*
X1820000Y-5470000D01*
X1820000Y-5430000D02*
X1780000Y-5470000D01*
X1780000Y-5580000D02*
X1820000Y-5620000D01*
X1820000Y-5580000D02*
X1780000Y-5620000D01*
X1780000Y-5730000D02*
X1820000Y-5770000D01*
X1820000Y-5730000D02*
X1780000Y-5770000D01*
X1780000Y-6330000D02*
X1820000Y-6370000D01*
X1820000Y-6330000D02*
X1780000Y-6370000D01*
X1830000Y-14980000D02*
X1870000Y-15020000D01*
X1870000Y-14980000D02*
X1830000Y-15020000D01*
X1880000Y-7380000D02*
X1920000Y-7420000D01*
X1920000Y-7380000D02*
X1880000Y-7420000D01*
X1880000Y-7480000D02*
X1920000Y-7520000D01*
X1920000Y-7480000D02*
X1880000Y-7520000D01*
X1880000Y-7830000D02*
X1920000Y-7870000D01*
X1920000Y-7830000D02*
X1880000Y-7870000D01*
X1880000Y-8030000D02*
X1920000Y-8070000D01*
X1920000Y-8030000D02*
X1880000Y-8070000D01*
X1880000Y-14180000D02*
X1920000Y-14220000D01*
X1920000Y-14180000D02*
X1880000Y-14220000D01*
X1930000Y-4080000D02*
X1970000Y-4120000D01*
X1970000Y-4080000D02*
X1930000Y-4120000D01*
X1980000Y-6130000D02*
X2020000Y-6170000D01*
X2020000Y-6130000D02*
X1980000Y-6170000D01*
X1980000Y-14880000D02*
X2020000Y-14920000D01*
X2020000Y-14880000D02*
X1980000Y-14920000D01*
X2080000Y-4180000D02*
X2120000Y-4220000D01*
X2120000Y-4180000D02*
X2080000Y-4220000D01*
X2080000Y-5770000D02*
X2120000Y-5810000D01*
X2120000Y-5770000D02*
X2080000Y-5810000D01*
X2130000Y-13330000D02*
X2170000Y-13370000D01*
X2170000Y-13330000D02*
X2130000Y-13370000D01*
X2130000Y-15280000D02*
X2170000Y-15320000D01*
X2170000Y-15280000D02*
X2130000Y-15320000D01*
X2180000Y-5980000D02*
X2220000Y-6020000D01*
X2220000Y-5980000D02*
X2180000Y-6020000D01*
X2230000Y-4280000D02*
X2270000Y-4320000D01*
X2270000Y-4280000D02*
X2230000Y-4320000D01*
X2330000Y-5780000D02*
X2370000Y-5820000D01*
X2370000Y-5780000D02*
X2330000Y-5820000D01*
X2330000Y-6280000D02*
X2370000Y-6320000D01*
X2370000Y-6280000D02*
X2330000Y-6320000D01*
X2330000Y-6430000D02*
X2370000Y-6470000D01*
X2370000Y-6430000D02*
X2330000Y-6470000D01*
X2330000Y-7330000D02*
X2370000Y-7370000D01*
X2370000Y-7330000D02*
X2330000Y-7370000D01*
X2330000Y-15830000D02*
X2370000Y-15870000D01*
X2370000Y-15830000D02*
X2330000Y-15870000D01*
X2380000Y-4380000D02*
X2420000Y-4420000D01*
X2420000Y-4380000D02*
X2380000Y-4420000D01*
X2380000Y-14630000D02*
X2420000Y-14670000D01*
X2420000Y-14630000D02*
X2380000Y-14670000D01*
X2430000Y-5530000D02*
X2470000Y-5570000D01*
X2470000Y-5530000D02*
X2430000Y-5570000D01*
X2430000Y-5680000D02*
X2470000Y-5720000D01*
X2470000Y-5680000D02*
X2430000Y-5720000D01*
X2430000Y-8380000D02*
X2470000Y-8420000D01*
X2470000Y-8380000D02*
X2430000Y-8420000D01*
X2430000Y-15930000D02*
X2470000Y-15970000D01*
X2470000Y-15930000D02*
X2430000Y-15970000D01*
X2530000Y-3930000D02*
X2570000Y-3970000D01*
X2570000Y-3930000D02*
X2530000Y-3970000D01*
X2530000Y-4480000D02*
X2570000Y-4520000D01*
X2570000Y-4480000D02*
X2530000Y-4520000D01*
X2580000Y-5780000D02*
X2620000Y-5820000D01*
X2620000Y-5780000D02*
X2580000Y-5820000D01*
X2580000Y-6180000D02*
X2620000Y-6220000D01*
X2620000Y-6180000D02*
X2580000Y-6220000D01*
X2580000Y-6330000D02*
X2620000Y-6370000D01*
X2620000Y-6330000D02*
X2580000Y-6370000D01*
X2680000Y-4580000D02*
X2720000Y-4620000D01*
X2720000Y-4580000D02*
X2680000Y-4620000D01*
X2730000Y-14280000D02*
X2770000Y-14320000D01*
X2770000Y-14280000D02*
X2730000Y-14320000D01*
X2780000Y-6130000D02*
X2820000Y-6170000D01*
X2820000Y-6130000D02*
X2780000Y-6170000D01*
X2830000Y-4680000D02*
X2870000Y-4720000D01*
X2870000Y-4680000D02*
X2830000Y-4720000D01*
X2880000Y-5680000D02*
X2920000Y-5720000D01*
X2920000Y-5680000D02*
X2880000Y-5720000D01*
X2880000Y-7880000D02*
X2920000Y-7920000D01*
X2920000Y-7880000D02*
X2880000Y-7920000D01*
X2880000Y-8530000D02*
X2920000Y-8570000D01*
X2920000Y-8530000D02*
X2880000Y-8570000D01*
X2880000Y-14230000D02*
X2920000Y-14270000D01*
X2920000Y-14230000D02*
X2880000Y-14270000D01*
X2930000Y-15330353D02*
X2970000Y-15370353D01*
X2970000Y-15330353D02*
X2930000Y-15370353D01*
X2980000Y-4780000D02*
X3020000Y-4820000D01*
X3020000Y-4780000D02*
X2980000Y-4820000D01*
X2980000Y-5980000D02*
X3020000Y-6020000D01*
X3020000Y-5980000D02*
X2980000Y-6020000D01*
X3080000Y-3930000D02*
X3120000Y-3970000D01*
X3120000Y-3930000D02*
X3080000Y-3970000D01*
X3130000Y-4880000D02*
X3170000Y-4920000D01*
X3170000Y-4880000D02*
X3130000Y-4920000D01*
X3130000Y-5780000D02*
X3170000Y-5820000D01*
X3170000Y-5780000D02*
X3130000Y-5820000D01*
X3130000Y-6280000D02*
X3170000Y-6320000D01*
X3170000Y-6280000D02*
X3130000Y-6320000D01*
X3130000Y-6430000D02*
X3170000Y-6470000D01*
X3170000Y-6430000D02*
X3130000Y-6470000D01*
X3230000Y-5680000D02*
X3270000Y-5720000D01*
X3270000Y-5680000D02*
X3230000Y-5720000D01*
X3280000Y-3930000D02*
X3320000Y-3970000D01*
X3320000Y-3930000D02*
X3280000Y-3970000D01*
X3280000Y-15580000D02*
X3320000Y-15620000D01*
X3320000Y-15580000D02*
X3280000Y-15620000D01*
X3330000Y-8780000D02*
X3370000Y-8820000D01*
X3370000Y-8780000D02*
X3330000Y-8820000D01*
X3380000Y-5280000D02*
X3420000Y-5320000D01*
X3420000Y-5280000D02*
X3380000Y-5320000D01*
X3380000Y-5780000D02*
X3420000Y-5820000D01*
X3420000Y-5780000D02*
X3380000Y-5820000D01*
X3380000Y-6180000D02*
X3420000Y-6220000D01*
X3420000Y-6180000D02*
X3380000Y-6220000D01*
X3380000Y-6330000D02*
X3420000Y-6370000D01*
X3420000Y-6330000D02*
X3380000Y-6370000D01*
X3380000Y-14830000D02*
X3420000Y-14870000D01*
X3420000Y-14830000D02*
X3380000Y-14870000D01*
X3430000Y-7330000D02*
X3470000Y-7370000D01*
X3470000Y-7330000D02*
X3430000Y-7370000D01*
X3430000Y-10730000D02*
X3470000Y-10770000D01*
X3470000Y-10730000D02*
X3430000Y-10770000D01*
X3530000Y-5430000D02*
X3570000Y-5470000D01*
X3570000Y-5430000D02*
X3530000Y-5470000D01*
X3530000Y-5530000D02*
X3570000Y-5570000D01*
X3570000Y-5530000D02*
X3530000Y-5570000D01*
X3530000Y-13330000D02*
X3570000Y-13370000D01*
X3570000Y-13330000D02*
X3530000Y-13370000D01*
X3530000Y-15330000D02*
X3570000Y-15370000D01*
X3570000Y-15330000D02*
X3530000Y-15370000D01*
X3580000Y-4580000D02*
X3620000Y-4620000D01*
X3620000Y-4580000D02*
X3580000Y-4620000D01*
X3630000Y-4980000D02*
X3670000Y-5020000D01*
X3670000Y-4980000D02*
X3630000Y-5020000D01*
X3630000Y-5630000D02*
X3670000Y-5670000D01*
X3670000Y-5630000D02*
X3630000Y-5670000D01*
X3630000Y-6130000D02*
X3670000Y-6170000D01*
X3670000Y-6130000D02*
X3630000Y-6170000D01*
X3680000Y-15180000D02*
X3720000Y-15220000D01*
X3720000Y-15180000D02*
X3680000Y-15220000D01*
X3730000Y-14480000D02*
X3770000Y-14520000D01*
X3770000Y-14480000D02*
X3730000Y-14520000D01*
X3730000Y-14580000D02*
X3770000Y-14620000D01*
X3770000Y-14580000D02*
X3730000Y-14620000D01*
X3730000Y-15930000D02*
X3770000Y-15970000D01*
X3770000Y-15930000D02*
X3730000Y-15970000D01*
X3780000Y-3880000D02*
X3820000Y-3920000D01*
X3820000Y-3880000D02*
X3780000Y-3920000D01*
X3830000Y-10680000D02*
X3870000Y-10720000D01*
X3870000Y-10680000D02*
X3830000Y-10720000D01*
X3830000Y-10980000D02*
X3870000Y-11020000D01*
X3870000Y-10980000D02*
X3830000Y-11020000D01*
X3830000Y-16030000D02*
X3870000Y-16070000D01*
X3870000Y-16030000D02*
X3830000Y-16070000D01*
X3880000Y-6880000D02*
X3920000Y-6920000D01*
X3920000Y-6880000D02*
X3880000Y-6920000D01*
X3880000Y-7330000D02*
X3920000Y-7370000D01*
X3920000Y-7330000D02*
X3880000Y-7370000D01*
X3880000Y-7480000D02*
X3920000Y-7520000D01*
X3920000Y-7480000D02*
X3880000Y-7520000D01*
X3930000Y-3880000D02*
X3970000Y-3920000D01*
X3970000Y-3880000D02*
X3930000Y-3920000D01*
X3930000Y-5580000D02*
X3970000Y-5620000D01*
X3970000Y-5580000D02*
X3930000Y-5620000D01*
X3930000Y-6280000D02*
X3970000Y-6320000D01*
X3970000Y-6280000D02*
X3930000Y-6320000D01*
X3930000Y-6430000D02*
X3970000Y-6470000D01*
X3970000Y-6430000D02*
X3930000Y-6470000D01*
X3980000Y-5080000D02*
X4020000Y-5120000D01*
X4020000Y-5080000D02*
X3980000Y-5120000D01*
X4030000Y-6630000D02*
X4070000Y-6670000D01*
X4070000Y-6630000D02*
X4030000Y-6670000D01*
X4080000Y-5280000D02*
X4120000Y-5320000D01*
X4120000Y-5280000D02*
X4080000Y-5320000D01*
X4080000Y-5980000D02*
X4120000Y-6020000D01*
X4120000Y-5980000D02*
X4080000Y-6020000D01*
X4480000Y-5180000D02*
X4520000Y-5220000D01*
X4520000Y-5180000D02*
X4480000Y-5220000D01*
X4480000Y-5280000D02*
X4520000Y-5320000D01*
X4520000Y-5280000D02*
X4480000Y-5320000D01*
X4730000Y-14130000D02*
X4770000Y-14170000D01*
X4770000Y-14130000D02*
X4730000Y-14170000D01*
X4780000Y-5180000D02*
X4820000Y-5220000D01*
X4820000Y-5180000D02*
X4780000Y-5220000D01*
X4780000Y-5430000D02*
X4820000Y-5470000D01*
X4820000Y-5430000D02*
X4780000Y-5470000D01*
X4780000Y-5580000D02*
X4820000Y-5620000D01*
X4820000Y-5580000D02*
X4780000Y-5620000D01*
X4780000Y-5730000D02*
X4820000Y-5770000D01*
X4820000Y-5730000D02*
X4780000Y-5770000D01*
X4780000Y-6330000D02*
X4820000Y-6370000D01*
X4820000Y-6330000D02*
X4780000Y-6370000D01*
X4830000Y-14980000D02*
X4870000Y-15020000D01*
X4870000Y-14980000D02*
X4830000Y-15020000D01*
X4880000Y-7380000D02*
X4920000Y-7420000D01*
X4920000Y-7380000D02*
X4880000Y-7420000D01*
X4880000Y-7480000D02*
X4920000Y-7520000D01*
X4920000Y-7480000D02*
X4880000Y-7520000D01*
X4880000Y-7830000D02*
X4920000Y-7870000D01*
X4920000Y-7830000D02*
X4880000Y-7870000D01*
X4880000Y-8030000D02*
X4920000Y-8070000D01*
X4920000Y-8030000D02*
X4880000Y-8070000D01*
X4880000Y-14180000D02*
X4920000Y-14220000D01*
X4920000Y-14180000D02*
X4880000Y-14220000D01*
X4930000Y-4080000D02*
X4970000Y-4120000D01*
X4970000Y-4080000D02*
X4930000Y-4120000D01*
X4980000Y-6130000D02*
X5020000Y-6170000D01*
X5020000Y-6130000D02*
X4980000Y-6170000D01*
X4980000Y-14880000D02*
X5020000Y-14920000D01*
X5020000Y-14880000D02*
X4980000Y-14920000D01*
X5080000Y-4180000D02*
X5120000Y-4220000D01*
X5120000Y-4180000D02*
X5080000Y-4220000D01*
X5080000Y-5770000D02*
X5120000Y-5810000D01*
X5120000Y-5770000D02*
X5080000Y-5810000D01*
X5130000Y-13330000D02*
X5170000Y-13370000D01*
X5170000Y-13330000D02*
X5130000Y-13370000D01*
X5130000Y-15280000D02*
X5170000Y-15320000D01*
X5170000Y-15280000D02*
X5130000Y-15320000D01*
X5180000Y-5980000D02*
X5220000Y-6020000D01*
X5220000Y-5980000D02*
X5180000Y-6020000D01*
X5230000Y-4280000D02*
X5270000Y-4320000D01*
X5270000Y-4280000D02*
X5230000Y-4320000D01*
X5330000Y-5780000D02*
X5370000Y-5820000D01*
X5370000Y-5780000D02*
X5330000Y-5820000D01*
X5330000Y-6280000D02*
X5370000Y-6320000D01*
X5370000Y-6280000D02*
X5330000Y-6320000D01*
X5330000Y-6430000D02*
X5370000Y-6470000D01*
X5370000Y-6430000D02*
X5330000Y-6470000D01*
X5330000Y-7330000D02*
X5370000Y-7370000D01*
X5370000Y-7330000D02*
X5330000Y-7370000D01*
X5330000Y-15830000D02*
X5370000Y-15870000D01*
X5370000Y-15830000D02*
X5330000Y-15870000D01*
X5380000Y-4380000D02*
X5420000Y-4420000D01*
X5420000Y-4380000D02*
X5380000Y-4420000D01*
X5380000Y-14630000D02*
X5420000Y-14670000D01*
X5420000Y-14630000D02*
X5380000Y-14670000D01*
X5430000Y-5530000D02*
X5470000Y-5570000D01*
X5470000Y-5530000D02*
X5430000Y-5570000D01*
X5430000Y-5680000D02*
X5470000Y-5720000D01*
X5470000Y-5680000D02*
X5430000Y-5720000D01*
X5430000Y-8380000D02*
X5470000Y-8420000D01*
X5470000Y-8380000D02*
X5430000Y-8420000D01*
X5430000Y-15930000D02*
X5470000Y-15970000D01*
X5470000Y-15930000D02*
X5430000Y-15970000D01*
X5530000Y-3930000D02*
X5570000Y-3970000D01*
X5570000Y-3930000D02*
X5530000Y-3970000D01*
X5530000Y-4480000D02*
X5570000Y-4520000D01*
X5570000Y-4480000D02*
X5530000Y-4520000D01*
X5580000Y-5780000D02*
X5620000Y-5820000D01*
X5620000Y-5780000D02*
X5580000Y-5820000D01*
X5580000Y-6180000D02*
X5620000Y-6220000D01*
X5620000Y-6180000D02*
X5580000Y-6220000D01*
X5580000Y-6330000D02*
X5620000Y-6370000D01*
X5620000Y-6330000D02*
X5580000Y-6370000D01*
X5680000Y-4580000D02*
X5720000Y-4620000D01*
X5720000Y-4580000D02*
X5680000Y-4620000D01*
X5730000Y-14280000D02*
X5770000Y-14320000D01*
X5770000Y-14280000D02*
X5730000Y-14320000D01*
X5780000Y-3880000D02*
X5820000Y-3920000D01*
X5820000Y-3880000D02*
X5780000Y-3920000D01*
X5780000Y-6130000D02*
X5820000Y-6170000D01*
X5820000Y-6130000D02*
X5780000Y-6170000D01*
X5830000Y-4680000D02*
X5870000Y-4720000D01*
X5870000Y-4680000D02*
X5830000Y-4720000D01*
X5880000Y-5680000D02*
X5920000Y-5720000D01*
X5920000Y-5680000D02*
X5880000Y-5720000D01*
X5880000Y-7880000D02*
X5920000Y-7920000D01*
X5920000Y-7880000D02*
X5880000Y-7920000D01*
X5880000Y-8530000D02*
X5920000Y-8570000D01*
X5920000Y-8530000D02*
X5880000Y-8570000D01*
X5880000Y-14230000D02*
X5920000Y-14270000D01*
X5920000Y-14230000D02*
X5880000Y-14270000D01*
X5930000Y-15330353D02*
X5970000Y-15370353D01*
X5970000Y-15330353D02*
X5930000Y-15370353D01*
X5980000Y-4780000D02*
X6020000Y-4820000D01*
X6020000Y-4780000D02*
X5980000Y-4820000D01*
X5980000Y-5980000D02*
X6020000Y-6020000D01*
X6020000Y-5980000D02*
X5980000Y-6020000D01*
X6080000Y-3930000D02*
X6120000Y-3970000D01*
X6120000Y-3930000D02*
X6080000Y-3970000D01*
X6130000Y-4880000D02*
X6170000Y-4920000D01*
X6170000Y-4880000D02*
X6130000Y-4920000D01*
X6130000Y-5780000D02*
X6170000Y-5820000D01*
X6170000Y-5780000D02*
X6130000Y-5820000D01*
X6130000Y-6280000D02*
X6170000Y-6320000D01*
X6170000Y-6280000D02*
X6130000Y-6320000D01*
X6130000Y-6430000D02*
X6170000Y-6470000D01*
X6170000Y-6430000D02*
X6130000Y-6470000D01*
X6230000Y-5680000D02*
X6270000Y-5720000D01*
X6270000Y-5680000D02*
X6230000Y-5720000D01*
X6280000Y-3930000D02*
X6320000Y-3970000D01*
X6320000Y-3930000D02*
X6280000Y-3970000D01*
X6280000Y-15580000D02*
X6320000Y-15620000D01*
X6320000Y-15580000D02*
X6280000Y-15620000D01*
X6330000Y-8780000D02*
X6370000Y-8820000D01*
X6370000Y-8780000D02*
X6330000Y-8820000D01*
X6380000Y-5280000D02*
X6420000Y-5320000D01*
X6420000Y-5280000D02*
X6380000Y-5320000D01*
X6380000Y-5780000D02*
X6420000Y-5820000D01*
X6420000Y-5780000D02*
X6380000Y-5820000D01*
X6380000Y-6180000D02*
X6420000Y-6220000D01*
X6420000Y-6180000D02*
X6380000Y-6220000D01*
X6380000Y-6330000D02*
X6420000Y-6370000D01*
X6420000Y-6330000D02*
X6380000Y-6370000D01*
X6380000Y-14830000D02*
X6420000Y-14870000D01*
X6420000Y-14830000D02*
X6380000Y-14870000D01*
X6430000Y-7330000D02*
X6470000Y-7370000D01*
X6470000Y-7330000D02*
X6430000Y-7370000D01*
X6430000Y-10730000D02*
X6470000Y-10770000D01*
X6470000Y-10730000D02*
X6430000Y-10770000D01*
X6528683Y-3878551D02*
X6568683Y-3918551D01*
X6568683Y-3878551D02*
X6528683Y-3918551D01*
X6530000Y-5430000D02*
X6570000Y-5470000D01*
X6570000Y-5430000D02*
X6530000Y-5470000D01*
X6530000Y-5530000D02*
X6570000Y-5570000D01*
X6570000Y-5530000D02*
X6530000Y-5570000D01*
X6530000Y-13330000D02*
X6570000Y-13370000D01*
X6570000Y-13330000D02*
X6530000Y-13370000D01*
X6530000Y-15330000D02*
X6570000Y-15370000D01*
X6570000Y-15330000D02*
X6530000Y-15370000D01*
X6580000Y-4580000D02*
X6620000Y-4620000D01*
X6620000Y-4580000D02*
X6580000Y-4620000D01*
X6630000Y-4980000D02*
X6670000Y-5020000D01*
X6670000Y-4980000D02*
X6630000Y-5020000D01*
X6630000Y-5630000D02*
X6670000Y-5670000D01*
X6670000Y-5630000D02*
X6630000Y-5670000D01*
X6630000Y-6130000D02*
X6670000Y-6170000D01*
X6670000Y-6130000D02*
X6630000Y-6170000D01*
X6680000Y-15180000D02*
X6720000Y-15220000D01*
X6720000Y-15180000D02*
X6680000Y-15220000D01*
X6730000Y-14480000D02*
X6770000Y-14520000D01*
X6770000Y-14480000D02*
X6730000Y-14520000D01*
X6730000Y-14580000D02*
X6770000Y-14620000D01*
X6770000Y-14580000D02*
X6730000Y-14620000D01*
X6780000Y-3880000D02*
X6820000Y-3920000D01*
X6820000Y-3880000D02*
X6780000Y-3920000D01*
X6830000Y-10680000D02*
X6870000Y-10720000D01*
X6870000Y-10680000D02*
X6830000Y-10720000D01*
X6830000Y-10980000D02*
X6870000Y-11020000D01*
X6870000Y-10980000D02*
X6830000Y-11020000D01*
X6830000Y-16030000D02*
X6870000Y-16070000D01*
X6870000Y-16030000D02*
X6830000Y-16070000D01*
X6880000Y-6880000D02*
X6920000Y-6920000D01*
X6920000Y-6880000D02*
X6880000Y-6920000D01*
X6880000Y-7330000D02*
X6920000Y-7370000D01*
X6920000Y-7330000D02*
X6880000Y-7370000D01*
X6880000Y-7480000D02*
X6920000Y-7520000D01*
X6920000Y-7480000D02*
X6880000Y-7520000D01*
X6930000Y-3880000D02*
X6970000Y-3920000D01*
X6970000Y-3880000D02*
X6930000Y-3920000D01*
X6930000Y-5580000D02*
X6970000Y-5620000D01*
X6970000Y-5580000D02*
X6930000Y-5620000D01*
X6930000Y-6280000D02*
X6970000Y-6320000D01*
X6970000Y-6280000D02*
X6930000Y-6320000D01*
X6930000Y-6430000D02*
X6970000Y-6470000D01*
X6970000Y-6430000D02*
X6930000Y-6470000D01*
X6930000Y-15930000D02*
X6970000Y-15970000D01*
X6970000Y-15930000D02*
X6930000Y-15970000D01*
X6980000Y-5080000D02*
X7020000Y-5120000D01*
X7020000Y-5080000D02*
X6980000Y-5120000D01*
X7030000Y-6630000D02*
X7070000Y-6670000D01*
X7070000Y-6630000D02*
X7030000Y-6670000D01*
X7080000Y-5280000D02*
X7120000Y-5320000D01*
X7120000Y-5280000D02*
X7080000Y-5320000D01*
X7080000Y-5980000D02*
X7120000Y-6020000D01*
X7120000Y-5980000D02*
X7080000Y-6020000D01*
X7480000Y-5180000D02*
X7520000Y-5220000D01*
X7520000Y-5180000D02*
X7480000Y-5220000D01*
X7480000Y-5280000D02*
X7520000Y-5320000D01*
X7520000Y-5280000D02*
X7480000Y-5320000D01*
X7730000Y-14130000D02*
X7770000Y-14170000D01*
X7770000Y-14130000D02*
X7730000Y-14170000D01*
X7780000Y-5180000D02*
X7820000Y-5220000D01*
X7820000Y-5180000D02*
X7780000Y-5220000D01*
X7780000Y-5430000D02*
X7820000Y-5470000D01*
X7820000Y-5430000D02*
X7780000Y-5470000D01*
X7780000Y-5580000D02*
X7820000Y-5620000D01*
X7820000Y-5580000D02*
X7780000Y-5620000D01*
X7780000Y-5730000D02*
X7820000Y-5770000D01*
X7820000Y-5730000D02*
X7780000Y-5770000D01*
X7780000Y-6330000D02*
X7820000Y-6370000D01*
X7820000Y-6330000D02*
X7780000Y-6370000D01*
X7830000Y-14980000D02*
X7870000Y-15020000D01*
X7870000Y-14980000D02*
X7830000Y-15020000D01*
X7880000Y-7380000D02*
X7920000Y-7420000D01*
X7920000Y-7380000D02*
X7880000Y-7420000D01*
X7880000Y-7480000D02*
X7920000Y-7520000D01*
X7920000Y-7480000D02*
X7880000Y-7520000D01*
X7880000Y-7830000D02*
X7920000Y-7870000D01*
X7920000Y-7830000D02*
X7880000Y-7870000D01*
X7880000Y-8030000D02*
X7920000Y-8070000D01*
X7920000Y-8030000D02*
X7880000Y-8070000D01*
X7880000Y-14180000D02*
X7920000Y-14220000D01*
X7920000Y-14180000D02*
X7880000Y-14220000D01*
X7930000Y-4080000D02*
X7970000Y-4120000D01*
X7970000Y-4080000D02*
X7930000Y-4120000D01*
X7980000Y-6130000D02*
X8020000Y-6170000D01*
X8020000Y-6130000D02*
X7980000Y-6170000D01*
X7980000Y-14880000D02*
X8020000Y-14920000D01*
X8020000Y-14880000D02*
X7980000Y-14920000D01*
X8080000Y-4180000D02*
X8120000Y-4220000D01*
X8120000Y-4180000D02*
X8080000Y-4220000D01*
X8080000Y-5770000D02*
X8120000Y-5810000D01*
X8120000Y-5770000D02*
X8080000Y-5810000D01*
X8130000Y-13330000D02*
X8170000Y-13370000D01*
X8170000Y-13330000D02*
X8130000Y-13370000D01*
X8130000Y-15280000D02*
X8170000Y-15320000D01*
X8170000Y-15280000D02*
X8130000Y-15320000D01*
X8180000Y-5980000D02*
X8220000Y-6020000D01*
X8220000Y-5980000D02*
X8180000Y-6020000D01*
X8230000Y-4280000D02*
X8270000Y-4320000D01*
X8270000Y-4280000D02*
X8230000Y-4320000D01*
X8330000Y-5780000D02*
X8370000Y-5820000D01*
X8370000Y-5780000D02*
X8330000Y-5820000D01*
X8330000Y-6280000D02*
X8370000Y-6320000D01*
X8370000Y-6280000D02*
X8330000Y-6320000D01*
X8330000Y-6430000D02*
X8370000Y-6470000D01*
X8370000Y-6430000D02*
X8330000Y-6470000D01*
X8330000Y-7330000D02*
X8370000Y-7370000D01*
X8370000Y-7330000D02*
X8330000Y-7370000D01*
X8330000Y-15830000D02*
X8370000Y-15870000D01*
X8370000Y-15830000D02*
X8330000Y-15870000D01*
X8380000Y-4380000D02*
X8420000Y-4420000D01*
X8420000Y-4380000D02*
X8380000Y-4420000D01*
X8380000Y-14630000D02*
X8420000Y-14670000D01*
X8420000Y-14630000D02*
X8380000Y-14670000D01*
X8430000Y-5530000D02*
X8470000Y-5570000D01*
X8470000Y-5530000D02*
X8430000Y-5570000D01*
X8430000Y-5680000D02*
X8470000Y-5720000D01*
X8470000Y-5680000D02*
X8430000Y-5720000D01*
X8430000Y-8380000D02*
X8470000Y-8420000D01*
X8470000Y-8380000D02*
X8430000Y-8420000D01*
X8430000Y-15930000D02*
X8470000Y-15970000D01*
X8470000Y-15930000D02*
X8430000Y-15970000D01*
X8530000Y-3930000D02*
X8570000Y-3970000D01*
X8570000Y-3930000D02*
X8530000Y-3970000D01*
X8530000Y-4480000D02*
X8570000Y-4520000D01*
X8570000Y-4480000D02*
X8530000Y-4520000D01*
X8580000Y-5780000D02*
X8620000Y-5820000D01*
X8620000Y-5780000D02*
X8580000Y-5820000D01*
X8580000Y-6180000D02*
X8620000Y-6220000D01*
X8620000Y-6180000D02*
X8580000Y-6220000D01*
X8580000Y-6330000D02*
X8620000Y-6370000D01*
X8620000Y-6330000D02*
X8580000Y-6370000D01*
X8680000Y-4580000D02*
X8720000Y-4620000D01*
X8720000Y-4580000D02*
X8680000Y-4620000D01*
X8730000Y-14280000D02*
X8770000Y-14320000D01*
X8770000Y-14280000D02*
X8730000Y-14320000D01*
X8780000Y-6130000D02*
X8820000Y-6170000D01*
X8820000Y-6130000D02*
X8780000Y-6170000D01*
X8781317Y-3881449D02*
X8821317Y-3921449D01*
X8821317Y-3881449D02*
X8781317Y-3921449D01*
X8830000Y-4680000D02*
X8870000Y-4720000D01*
X8870000Y-4680000D02*
X8830000Y-4720000D01*
X8880000Y-5680000D02*
X8920000Y-5720000D01*
X8920000Y-5680000D02*
X8880000Y-5720000D01*
X8880000Y-7880000D02*
X8920000Y-7920000D01*
X8920000Y-7880000D02*
X8880000Y-7920000D01*
X8880000Y-8530000D02*
X8920000Y-8570000D01*
X8920000Y-8530000D02*
X8880000Y-8570000D01*
X8880000Y-14230000D02*
X8920000Y-14270000D01*
X8920000Y-14230000D02*
X8880000Y-14270000D01*
X8930000Y-15330353D02*
X8970000Y-15370353D01*
X8970000Y-15330353D02*
X8930000Y-15370353D01*
X8980000Y-4780000D02*
X9020000Y-4820000D01*
X9020000Y-4780000D02*
X8980000Y-4820000D01*
X8980000Y-5980000D02*
X9020000Y-6020000D01*
X9020000Y-5980000D02*
X8980000Y-6020000D01*
X9080000Y-3930000D02*
X9120000Y-3970000D01*
X9120000Y-3930000D02*
X9080000Y-3970000D01*
X9130000Y-4880000D02*
X9170000Y-4920000D01*
X9170000Y-4880000D02*
X9130000Y-4920000D01*
X9130000Y-5780000D02*
X9170000Y-5820000D01*
X9170000Y-5780000D02*
X9130000Y-5820000D01*
X9130000Y-6280000D02*
X9170000Y-6320000D01*
X9170000Y-6280000D02*
X9130000Y-6320000D01*
X9130000Y-6430000D02*
X9170000Y-6470000D01*
X9170000Y-6430000D02*
X9130000Y-6470000D01*
X9230000Y-5680000D02*
X9270000Y-5720000D01*
X9270000Y-5680000D02*
X9230000Y-5720000D01*
X9280000Y-3930000D02*
X9320000Y-3970000D01*
X9320000Y-3930000D02*
X9280000Y-3970000D01*
X9280000Y-15580000D02*
X9320000Y-15620000D01*
X9320000Y-15580000D02*
X9280000Y-15620000D01*
X9330000Y-8780000D02*
X9370000Y-8820000D01*
X9370000Y-8780000D02*
X9330000Y-8820000D01*
X9380000Y-5280000D02*
X9420000Y-5320000D01*
X9420000Y-5280000D02*
X9380000Y-5320000D01*
X9380000Y-5780000D02*
X9420000Y-5820000D01*
X9420000Y-5780000D02*
X9380000Y-5820000D01*
X9380000Y-6180000D02*
X9420000Y-6220000D01*
X9420000Y-6180000D02*
X9380000Y-6220000D01*
X9380000Y-6330000D02*
X9420000Y-6370000D01*
X9420000Y-6330000D02*
X9380000Y-6370000D01*
X9380000Y-14830000D02*
X9420000Y-14870000D01*
X9420000Y-14830000D02*
X9380000Y-14870000D01*
X9430000Y-7330000D02*
X9470000Y-7370000D01*
X9470000Y-7330000D02*
X9430000Y-7370000D01*
X9430000Y-10730000D02*
X9470000Y-10770000D01*
X9470000Y-10730000D02*
X9430000Y-10770000D01*
X9530000Y-3880000D02*
X9570000Y-3920000D01*
X9570000Y-3880000D02*
X9530000Y-3920000D01*
X9530000Y-5430000D02*
X9570000Y-5470000D01*
X9570000Y-5430000D02*
X9530000Y-5470000D01*
X9530000Y-5530000D02*
X9570000Y-5570000D01*
X9570000Y-5530000D02*
X9530000Y-5570000D01*
X9530000Y-13330000D02*
X9570000Y-13370000D01*
X9570000Y-13330000D02*
X9530000Y-13370000D01*
X9530000Y-15330000D02*
X9570000Y-15370000D01*
X9570000Y-15330000D02*
X9530000Y-15370000D01*
X9580000Y-4580000D02*
X9620000Y-4620000D01*
X9620000Y-4580000D02*
X9580000Y-4620000D01*
X9630000Y-4980000D02*
X9670000Y-5020000D01*
X9670000Y-4980000D02*
X9630000Y-5020000D01*
X9630000Y-5630000D02*
X9670000Y-5670000D01*
X9670000Y-5630000D02*
X9630000Y-5670000D01*
X9630000Y-6130000D02*
X9670000Y-6170000D01*
X9670000Y-6130000D02*
X9630000Y-6170000D01*
X9680000Y-15180000D02*
X9720000Y-15220000D01*
X9720000Y-15180000D02*
X9680000Y-15220000D01*
X9730000Y-14480000D02*
X9770000Y-14520000D01*
X9770000Y-14480000D02*
X9730000Y-14520000D01*
X9730000Y-14580000D02*
X9770000Y-14620000D01*
X9770000Y-14580000D02*
X9730000Y-14620000D01*
X9780000Y-3880000D02*
X9820000Y-3920000D01*
X9820000Y-3880000D02*
X9780000Y-3920000D01*
X9830000Y-10680000D02*
X9870000Y-10720000D01*
X9870000Y-10680000D02*
X9830000Y-10720000D01*
X9830000Y-10980000D02*
X9870000Y-11020000D01*
X9870000Y-10980000D02*
X9830000Y-11020000D01*
X9830000Y-16030000D02*
X9870000Y-16070000D01*
X9870000Y-16030000D02*
X9830000Y-16070000D01*
X9880000Y-6880000D02*
X9920000Y-6920000D01*
X9920000Y-6880000D02*
X9880000Y-6920000D01*
X9880000Y-7330000D02*
X9920000Y-7370000D01*
X9920000Y-7330000D02*
X9880000Y-7370000D01*
X9880000Y-7480000D02*
X9920000Y-7520000D01*
X9920000Y-7480000D02*
X9880000Y-7520000D01*
X9930000Y-3880000D02*
X9970000Y-3920000D01*
X9970000Y-3880000D02*
X9930000Y-3920000D01*
X9930000Y-5580000D02*
X9970000Y-5620000D01*
X9970000Y-5580000D02*
X9930000Y-5620000D01*
X9930000Y-6280000D02*
X9970000Y-6320000D01*
X9970000Y-6280000D02*
X9930000Y-6320000D01*
X9930000Y-6430000D02*
X9970000Y-6470000D01*
X9970000Y-6430000D02*
X9930000Y-6470000D01*
X9930000Y-15930000D02*
X9970000Y-15970000D01*
X9970000Y-15930000D02*
X9930000Y-15970000D01*
X9980000Y-5080000D02*
X10020000Y-5120000D01*
X10020000Y-5080000D02*
X9980000Y-5120000D01*
X10030000Y-6630000D02*
X10070000Y-6670000D01*
X10070000Y-6630000D02*
X10030000Y-6670000D01*
X10080000Y-5280000D02*
X10120000Y-5320000D01*
X10120000Y-5280000D02*
X10080000Y-5320000D01*
X10080000Y-5980000D02*
X10120000Y-6020000D01*
X10120000Y-5980000D02*
X10080000Y-6020000D01*
X10480000Y-5180000D02*
X10520000Y-5220000D01*
X10520000Y-5180000D02*
X10480000Y-5220000D01*
X10480000Y-5280000D02*
X10520000Y-5320000D01*
X10520000Y-5280000D02*
X10480000Y-5320000D01*
X10730000Y-14130000D02*
X10770000Y-14170000D01*
X10770000Y-14130000D02*
X10730000Y-14170000D01*
X10780000Y-5180000D02*
X10820000Y-5220000D01*
X10820000Y-5180000D02*
X10780000Y-5220000D01*
X10780000Y-5430000D02*
X10820000Y-5470000D01*
X10820000Y-5430000D02*
X10780000Y-5470000D01*
X10780000Y-5580000D02*
X10820000Y-5620000D01*
X10820000Y-5580000D02*
X10780000Y-5620000D01*
X10780000Y-5730000D02*
X10820000Y-5770000D01*
X10820000Y-5730000D02*
X10780000Y-5770000D01*
X10780000Y-6330000D02*
X10820000Y-6370000D01*
X10820000Y-6330000D02*
X10780000Y-6370000D01*
X10830000Y-14980000D02*
X10870000Y-15020000D01*
X10870000Y-14980000D02*
X10830000Y-15020000D01*
X10880000Y-7380000D02*
X10920000Y-7420000D01*
X10920000Y-7380000D02*
X10880000Y-7420000D01*
X10880000Y-7480000D02*
X10920000Y-7520000D01*
X10920000Y-7480000D02*
X10880000Y-7520000D01*
X10880000Y-7830000D02*
X10920000Y-7870000D01*
X10920000Y-7830000D02*
X10880000Y-7870000D01*
X10880000Y-8030000D02*
X10920000Y-8070000D01*
X10920000Y-8030000D02*
X10880000Y-8070000D01*
X10880000Y-14180000D02*
X10920000Y-14220000D01*
X10920000Y-14180000D02*
X10880000Y-14220000D01*
X10930000Y-4080000D02*
X10970000Y-4120000D01*
X10970000Y-4080000D02*
X10930000Y-4120000D01*
X10980000Y-6130000D02*
X11020000Y-6170000D01*
X11020000Y-6130000D02*
X10980000Y-6170000D01*
X10980000Y-14880000D02*
X11020000Y-14920000D01*
X11020000Y-14880000D02*
X10980000Y-14920000D01*
X11080000Y-4180000D02*
X11120000Y-4220000D01*
X11120000Y-4180000D02*
X11080000Y-4220000D01*
X11080000Y-5770000D02*
X11120000Y-5810000D01*
X11120000Y-5770000D02*
X11080000Y-5810000D01*
X11130000Y-13330000D02*
X11170000Y-13370000D01*
X11170000Y-13330000D02*
X11130000Y-13370000D01*
X11130000Y-15280000D02*
X11170000Y-15320000D01*
X11170000Y-15280000D02*
X11130000Y-15320000D01*
X11180000Y-5980000D02*
X11220000Y-6020000D01*
X11220000Y-5980000D02*
X11180000Y-6020000D01*
X11230000Y-4280000D02*
X11270000Y-4320000D01*
X11270000Y-4280000D02*
X11230000Y-4320000D01*
X11330000Y-5780000D02*
X11370000Y-5820000D01*
X11370000Y-5780000D02*
X11330000Y-5820000D01*
X11330000Y-6280000D02*
X11370000Y-6320000D01*
X11370000Y-6280000D02*
X11330000Y-6320000D01*
X11330000Y-6430000D02*
X11370000Y-6470000D01*
X11370000Y-6430000D02*
X11330000Y-6470000D01*
X11330000Y-7330000D02*
X11370000Y-7370000D01*
X11370000Y-7330000D02*
X11330000Y-7370000D01*
X11330000Y-15830000D02*
X11370000Y-15870000D01*
X11370000Y-15830000D02*
X11330000Y-15870000D01*
X11380000Y-4380000D02*
X11420000Y-4420000D01*
X11420000Y-4380000D02*
X11380000Y-4420000D01*
X11380000Y-14630000D02*
X11420000Y-14670000D01*
X11420000Y-14630000D02*
X11380000Y-14670000D01*
X11430000Y-5530000D02*
X11470000Y-5570000D01*
X11470000Y-5530000D02*
X11430000Y-5570000D01*
X11430000Y-5680000D02*
X11470000Y-5720000D01*
X11470000Y-5680000D02*
X11430000Y-5720000D01*
X11430000Y-8380000D02*
X11470000Y-8420000D01*
X11470000Y-8380000D02*
X11430000Y-8420000D01*
X11430000Y-15930000D02*
X11470000Y-15970000D01*
X11470000Y-15930000D02*
X11430000Y-15970000D01*
X11530000Y-3930000D02*
X11570000Y-3970000D01*
X11570000Y-3930000D02*
X11530000Y-3970000D01*
X11530000Y-4480000D02*
X11570000Y-4520000D01*
X11570000Y-4480000D02*
X11530000Y-4520000D01*
X11580000Y-5780000D02*
X11620000Y-5820000D01*
X11620000Y-5780000D02*
X11580000Y-5820000D01*
X11580000Y-6180000D02*
X11620000Y-6220000D01*
X11620000Y-6180000D02*
X11580000Y-6220000D01*
X11580000Y-6330000D02*
X11620000Y-6370000D01*
X11620000Y-6330000D02*
X11580000Y-6370000D01*
X11680000Y-4580000D02*
X11720000Y-4620000D01*
X11720000Y-4580000D02*
X11680000Y-4620000D01*
X11730000Y-14280000D02*
X11770000Y-14320000D01*
X11770000Y-14280000D02*
X11730000Y-14320000D01*
X11780000Y-6130000D02*
X11820000Y-6170000D01*
X11820000Y-6130000D02*
X11780000Y-6170000D01*
X11781317Y-3881449D02*
X11821317Y-3921449D01*
X11821317Y-3881449D02*
X11781317Y-3921449D01*
X11830000Y-4680000D02*
X11870000Y-4720000D01*
X11870000Y-4680000D02*
X11830000Y-4720000D01*
X11880000Y-5680000D02*
X11920000Y-5720000D01*
X11920000Y-5680000D02*
X11880000Y-5720000D01*
X11880000Y-7880000D02*
X11920000Y-7920000D01*
X11920000Y-7880000D02*
X11880000Y-7920000D01*
X11880000Y-8530000D02*
X11920000Y-8570000D01*
X11920000Y-8530000D02*
X11880000Y-8570000D01*
X11880000Y-14230000D02*
X11920000Y-14270000D01*
X11920000Y-14230000D02*
X11880000Y-14270000D01*
X11930000Y-15330353D02*
X11970000Y-15370353D01*
X11970000Y-15330353D02*
X11930000Y-15370353D01*
X11980000Y-4780000D02*
X12020000Y-4820000D01*
X12020000Y-4780000D02*
X11980000Y-4820000D01*
X11980000Y-5980000D02*
X12020000Y-6020000D01*
X12020000Y-5980000D02*
X11980000Y-6020000D01*
X12080000Y-3930000D02*
X12120000Y-3970000D01*
X12120000Y-3930000D02*
X12080000Y-3970000D01*
X12130000Y-4880000D02*
X12170000Y-4920000D01*
X12170000Y-4880000D02*
X12130000Y-4920000D01*
X12130000Y-5780000D02*
X12170000Y-5820000D01*
X12170000Y-5780000D02*
X12130000Y-5820000D01*
X12130000Y-6280000D02*
X12170000Y-6320000D01*
X12170000Y-6280000D02*
X12130000Y-6320000D01*
X12130000Y-6430000D02*
X12170000Y-6470000D01*
X12170000Y-6430000D02*
X12130000Y-6470000D01*
X12230000Y-5680000D02*
X12270000Y-5720000D01*
X12270000Y-5680000D02*
X12230000Y-5720000D01*
X12280000Y-3930000D02*
X12320000Y-3970000D01*
X12320000Y-3930000D02*
X12280000Y-3970000D01*
X12280000Y-15580000D02*
X12320000Y-15620000D01*
X12320000Y-15580000D02*
X12280000Y-15620000D01*
X12330000Y-8780000D02*
X12370000Y-8820000D01*
X12370000Y-8780000D02*
X12330000Y-8820000D01*
X12380000Y-5280000D02*
X12420000Y-5320000D01*
X12420000Y-5280000D02*
X12380000Y-5320000D01*
X12380000Y-5780000D02*
X12420000Y-5820000D01*
X12420000Y-5780000D02*
X12380000Y-5820000D01*
X12380000Y-6180000D02*
X12420000Y-6220000D01*
X12420000Y-6180000D02*
X12380000Y-6220000D01*
X12380000Y-6330000D02*
X12420000Y-6370000D01*
X12420000Y-6330000D02*
X12380000Y-6370000D01*
X12380000Y-14830000D02*
X12420000Y-14870000D01*
X12420000Y-14830000D02*
X12380000Y-14870000D01*
X12430000Y-7330000D02*
X12470000Y-7370000D01*
X12470000Y-7330000D02*
X12430000Y-7370000D01*
X12430000Y-10730000D02*
X12470000Y-10770000D01*
X12470000Y-10730000D02*
X12430000Y-10770000D01*
X12530000Y-3880000D02*
X12570000Y-3920000D01*
X12570000Y-3880000D02*
X12530000Y-3920000D01*
X12530000Y-5430000D02*
X12570000Y-5470000D01*
X12570000Y-5430000D02*
X12530000Y-5470000D01*
X12530000Y-5530000D02*
X12570000Y-5570000D01*
X12570000Y-5530000D02*
X12530000Y-5570000D01*
X12530000Y-13330000D02*
X12570000Y-13370000D01*
X12570000Y-13330000D02*
X12530000Y-13370000D01*
X12530000Y-15330000D02*
X12570000Y-15370000D01*
X12570000Y-15330000D02*
X12530000Y-15370000D01*
X12580000Y-4580000D02*
X12620000Y-4620000D01*
X12620000Y-4580000D02*
X12580000Y-4620000D01*
X12630000Y-4980000D02*
X12670000Y-5020000D01*
X12670000Y-4980000D02*
X12630000Y-5020000D01*
X12630000Y-5630000D02*
X12670000Y-5670000D01*
X12670000Y-5630000D02*
X12630000Y-5670000D01*
X12630000Y-6130000D02*
X12670000Y-6170000D01*
X12670000Y-6130000D02*
X12630000Y-6170000D01*
X12680000Y-15180000D02*
X12720000Y-15220000D01*
X12720000Y-15180000D02*
X12680000Y-15220000D01*
X12730000Y-14480000D02*
X12770000Y-14520000D01*
X12770000Y-14480000D02*
X12730000Y-14520000D01*
X12730000Y-14580000D02*
X12770000Y-14620000D01*
X12770000Y-14580000D02*
X12730000Y-14620000D01*
X12780000Y-3880000D02*
X12820000Y-3920000D01*
X12820000Y-3880000D02*
X12780000Y-3920000D01*
X12830000Y-10680000D02*
X12870000Y-10720000D01*
X12870000Y-10680000D02*
X12830000Y-10720000D01*
X12830000Y-10980000D02*
X12870000Y-11020000D01*
X12870000Y-10980000D02*
X12830000Y-11020000D01*
X12830000Y-16030000D02*
X12870000Y-16070000D01*
X12870000Y-16030000D02*
X12830000Y-16070000D01*
X12880000Y-6880000D02*
X12920000Y-6920000D01*
X12920000Y-6880000D02*
X12880000Y-6920000D01*
X12880000Y-7330000D02*
X12920000Y-7370000D01*
X12920000Y-7330000D02*
X12880000Y-7370000D01*
X12880000Y-7480000D02*
X12920000Y-7520000D01*
X12920000Y-7480000D02*
X12880000Y-7520000D01*
X12930000Y-3880000D02*
X12970000Y-3920000D01*
X12970000Y-3880000D02*
X12930000Y-3920000D01*
X12930000Y-5580000D02*
X12970000Y-5620000D01*
X12970000Y-5580000D02*
X12930000Y-5620000D01*
X12930000Y-6280000D02*
X12970000Y-6320000D01*
X12970000Y-6280000D02*
X12930000Y-6320000D01*
X12930000Y-6430000D02*
X12970000Y-6470000D01*
X12970000Y-6430000D02*
X12930000Y-6470000D01*
X12930000Y-15930000D02*
X12970000Y-15970000D01*
X12970000Y-15930000D02*
X12930000Y-15970000D01*
X12980000Y-5080000D02*
X13020000Y-5120000D01*
X13020000Y-5080000D02*
X12980000Y-5120000D01*
X13030000Y-6630000D02*
X13070000Y-6670000D01*
X13070000Y-6630000D02*
X13030000Y-6670000D01*
X13080000Y-5280000D02*
X13120000Y-5320000D01*
X13120000Y-5280000D02*
X13080000Y-5320000D01*
X13080000Y-5980000D02*
X13120000Y-6020000D01*
X13120000Y-5980000D02*
X13080000Y-6020000D01*
X13480000Y-5180000D02*
X13520000Y-5220000D01*
X13520000Y-5180000D02*
X13480000Y-5220000D01*
X13480000Y-5280000D02*
X13520000Y-5320000D01*
X13520000Y-5280000D02*
X13480000Y-5320000D01*
X13730000Y-14130000D02*
X13770000Y-14170000D01*
X13770000Y-14130000D02*
X13730000Y-14170000D01*
X13780000Y-5180000D02*
X13820000Y-5220000D01*
X13820000Y-5180000D02*
X13780000Y-5220000D01*
X13780000Y-5430000D02*
X13820000Y-5470000D01*
X13820000Y-5430000D02*
X13780000Y-5470000D01*
X13780000Y-5580000D02*
X13820000Y-5620000D01*
X13820000Y-5580000D02*
X13780000Y-5620000D01*
X13780000Y-5730000D02*
X13820000Y-5770000D01*
X13820000Y-5730000D02*
X13780000Y-5770000D01*
X13780000Y-6330000D02*
X13820000Y-6370000D01*
X13820000Y-6330000D02*
X13780000Y-6370000D01*
X13830000Y-14980000D02*
X13870000Y-15020000D01*
X13870000Y-14980000D02*
X13830000Y-15020000D01*
X13880000Y-7380000D02*
X13920000Y-7420000D01*
X13920000Y-7380000D02*
X13880000Y-7420000D01*
X13880000Y-7480000D02*
X13920000Y-7520000D01*
X13920000Y-7480000D02*
X13880000Y-7520000D01*
X13880000Y-7830000D02*
X13920000Y-7870000D01*
X13920000Y-7830000D02*
X13880000Y-7870000D01*
X13880000Y-8030000D02*
X13920000Y-8070000D01*
X13920000Y-8030000D02*
X13880000Y-8070000D01*
X13880000Y-14180000D02*
X13920000Y-14220000D01*
X13920000Y-14180000D02*
X13880000Y-14220000D01*
X13930000Y-4080000D02*
X13970000Y-4120000D01*
X13970000Y-4080000D02*
X13930000Y-4120000D01*
X13980000Y-6130000D02*
X14020000Y-6170000D01*
X14020000Y-6130000D02*
X13980000Y-6170000D01*
X13980000Y-14880000D02*
X14020000Y-14920000D01*
X14020000Y-14880000D02*
X13980000Y-14920000D01*
X14080000Y-4180000D02*
X14120000Y-4220000D01*
X14120000Y-4180000D02*
X14080000Y-4220000D01*
X14080000Y-5770000D02*
X14120000Y-5810000D01*
X14120000Y-5770000D02*
X14080000Y-5810000D01*
X14130000Y-13330000D02*
X14170000Y-13370000D01*
X14170000Y-13330000D02*
X14130000Y-13370000D01*
X14130000Y-15280000D02*
X14170000Y-15320000D01*
X14170000Y-15280000D02*
X14130000Y-15320000D01*
X14180000Y-5980000D02*
X14220000Y-6020000D01*
X14220000Y-5980000D02*
X14180000Y-6020000D01*
X14230000Y-4280000D02*
X14270000Y-4320000D01*
X14270000Y-4280000D02*
X14230000Y-4320000D01*
X14330000Y-5780000D02*
X14370000Y-5820000D01*
X14370000Y-5780000D02*
X14330000Y-5820000D01*
X14330000Y-6280000D02*
X14370000Y-6320000D01*
X14370000Y-6280000D02*
X14330000Y-6320000D01*
X14330000Y-6430000D02*
X14370000Y-6470000D01*
X14370000Y-6430000D02*
X14330000Y-6470000D01*
X14330000Y-7330000D02*
X14370000Y-7370000D01*
X14370000Y-7330000D02*
X14330000Y-7370000D01*
X14330000Y-15830000D02*
X14370000Y-15870000D01*
X14370000Y-15830000D02*
X14330000Y-15870000D01*
X14380000Y-4380000D02*
X14420000Y-4420000D01*
X14420000Y-4380000D02*
X14380000Y-4420000D01*
X14380000Y-14630000D02*
X14420000Y-14670000D01*
X14420000Y-14630000D02*
X14380000Y-14670000D01*
X14430000Y-5530000D02*
X14470000Y-5570000D01*
X14470000Y-5530000D02*
X14430000Y-5570000D01*
X14430000Y-5680000D02*
X14470000Y-5720000D01*
X14470000Y-5680000D02*
X14430000Y-5720000D01*
X14430000Y-8380000D02*
X14470000Y-8420000D01*
X14470000Y-8380000D02*
X14430000Y-8420000D01*
X14430000Y-15930000D02*
X14470000Y-15970000D01*
X14470000Y-15930000D02*
X14430000Y-15970000D01*
X14530000Y-3930000D02*
X14570000Y-3970000D01*
X14570000Y-3930000D02*
X14530000Y-3970000D01*
X14530000Y-4480000D02*
X14570000Y-4520000D01*
X14570000Y-4480000D02*
X14530000Y-4520000D01*
X14580000Y-5780000D02*
X14620000Y-5820000D01*
X14620000Y-5780000D02*
X14580000Y-5820000D01*
X14580000Y-6180000D02*
X14620000Y-6220000D01*
X14620000Y-6180000D02*
X14580000Y-6220000D01*
X14580000Y-6330000D02*
X14620000Y-6370000D01*
X14620000Y-6330000D02*
X14580000Y-6370000D01*
X14680000Y-4580000D02*
X14720000Y-4620000D01*
X14720000Y-4580000D02*
X14680000Y-4620000D01*
X14730000Y-14280000D02*
X14770000Y-14320000D01*
X14770000Y-14280000D02*
X14730000Y-14320000D01*
X14780000Y-6130000D02*
X14820000Y-6170000D01*
X14820000Y-6130000D02*
X14780000Y-6170000D01*
X14781317Y-3881449D02*
X14821317Y-3921449D01*
X14821317Y-3881449D02*
X14781317Y-3921449D01*
X14830000Y-4680000D02*
X14870000Y-4720000D01*
X14870000Y-4680000D02*
X14830000Y-4720000D01*
X14880000Y-5680000D02*
X14920000Y-5720000D01*
X14920000Y-5680000D02*
X14880000Y-5720000D01*
X14880000Y-7880000D02*
X14920000Y-7920000D01*
X14920000Y-7880000D02*
X14880000Y-7920000D01*
X14880000Y-8530000D02*
X14920000Y-8570000D01*
X14920000Y-8530000D02*
X14880000Y-8570000D01*
X14880000Y-14230000D02*
X14920000Y-14270000D01*
X14920000Y-14230000D02*
X14880000Y-14270000D01*
X14930000Y-15330353D02*
X14970000Y-15370353D01*
X14970000Y-15330353D02*
X14930000Y-15370353D01*
X14980000Y-4780000D02*
X15020000Y-4820000D01*
X15020000Y-4780000D02*
X14980000Y-4820000D01*
X14980000Y-5980000D02*
X15020000Y-6020000D01*
X15020000Y-5980000D02*
X14980000Y-6020000D01*
X15080000Y-3930000D02*
X15120000Y-3970000D01*
X15120000Y-3930000D02*
X15080000Y-3970000D01*
X15130000Y-4880000D02*
X15170000Y-4920000D01*
X15170000Y-4880000D02*
X15130000Y-4920000D01*
X15130000Y-5780000D02*
X15170000Y-5820000D01*
X15170000Y-5780000D02*
X15130000Y-5820000D01*
X15130000Y-6280000D02*
X15170000Y-6320000D01*
X15170000Y-6280000D02*
X15130000Y-6320000D01*
X15130000Y-6430000D02*
X15170000Y-6470000D01*
X15170000Y-6430000D02*
X15130000Y-6470000D01*
X15230000Y-5680000D02*
X15270000Y-5720000D01*
X15270000Y-5680000D02*
X15230000Y-5720000D01*
X15280000Y-3930000D02*
X15320000Y-3970000D01*
X15320000Y-3930000D02*
X15280000Y-3970000D01*
X15280000Y-15580000D02*
X15320000Y-15620000D01*
X15320000Y-15580000D02*
X15280000Y-15620000D01*
X15330000Y-8780000D02*
X15370000Y-8820000D01*
X15370000Y-8780000D02*
X15330000Y-8820000D01*
X15380000Y-5280000D02*
X15420000Y-5320000D01*
X15420000Y-5280000D02*
X15380000Y-5320000D01*
X15380000Y-5780000D02*
X15420000Y-5820000D01*
X15420000Y-5780000D02*
X15380000Y-5820000D01*
X15380000Y-6180000D02*
X15420000Y-6220000D01*
X15420000Y-6180000D02*
X15380000Y-6220000D01*
X15380000Y-6330000D02*
X15420000Y-6370000D01*
X15420000Y-6330000D02*
X15380000Y-6370000D01*
X15380000Y-14830000D02*
X15420000Y-14870000D01*
X15420000Y-14830000D02*
X15380000Y-14870000D01*
X15430000Y-7330000D02*
X15470000Y-7370000D01*
X15470000Y-7330000D02*
X15430000Y-7370000D01*
X15430000Y-10730000D02*
X15470000Y-10770000D01*
X15470000Y-10730000D02*
X15430000Y-10770000D01*
X15530000Y-3880000D02*
X15570000Y-3920000D01*
X15570000Y-3880000D02*
X15530000Y-3920000D01*
X15530000Y-5430000D02*
X15570000Y-5470000D01*
X15570000Y-5430000D02*
X15530000Y-5470000D01*
X15530000Y-5530000D02*
X15570000Y-5570000D01*
X15570000Y-5530000D02*
X15530000Y-5570000D01*
X15530000Y-13330000D02*
X15570000Y-13370000D01*
X15570000Y-13330000D02*
X15530000Y-13370000D01*
X15530000Y-15330000D02*
X15570000Y-15370000D01*
X15570000Y-15330000D02*
X15530000Y-15370000D01*
X15580000Y-4580000D02*
X15620000Y-4620000D01*
X15620000Y-4580000D02*
X15580000Y-4620000D01*
X15630000Y-4980000D02*
X15670000Y-5020000D01*
X15670000Y-4980000D02*
X15630000Y-5020000D01*
X15630000Y-5630000D02*
X15670000Y-5670000D01*
X15670000Y-5630000D02*
X15630000Y-5670000D01*
X15630000Y-6130000D02*
X15670000Y-6170000D01*
X15670000Y-6130000D02*
X15630000Y-6170000D01*
X15680000Y-15180000D02*
X15720000Y-15220000D01*
X15720000Y-15180000D02*
X15680000Y-15220000D01*
X15730000Y-14480000D02*
X15770000Y-14520000D01*
X15770000Y-14480000D02*
X15730000Y-14520000D01*
X15730000Y-14580000D02*
X15770000Y-14620000D01*
X15770000Y-14580000D02*
X15730000Y-14620000D01*
X15780000Y-3880000D02*
X15820000Y-3920000D01*
X15820000Y-3880000D02*
X15780000Y-3920000D01*
X15830000Y-10680000D02*
X15870000Y-10720000D01*
X15870000Y-10680000D02*
X15830000Y-10720000D01*
X15830000Y-10980000D02*
X15870000Y-11020000D01*
X15870000Y-10980000D02*
X15830000Y-11020000D01*
X15830000Y-16030000D02*
X15870000Y-16070000D01*
X15870000Y-16030000D02*
X15830000Y-16070000D01*
X15880000Y-6880000D02*
X15920000Y-6920000D01*
X15920000Y-6880000D02*
X15880000Y-6920000D01*
X15880000Y-7330000D02*
X15920000Y-7370000D01*
X15920000Y-7330000D02*
X15880000Y-7370000D01*
X15880000Y-7480000D02*
X15920000Y-7520000D01*
X15920000Y-7480000D02*
X15880000Y-7520000D01*
X15930000Y-3880000D02*
X15970000Y-3920000D01*
X15970000Y-3880000D02*
X15930000Y-3920000D01*
X15930000Y-5580000D02*
X15970000Y-5620000D01*
X15970000Y-5580000D02*
X15930000Y-5620000D01*
X15930000Y-6280000D02*
X15970000Y-6320000D01*
X15970000Y-6280000D02*
X15930000Y-6320000D01*
X15930000Y-6430000D02*
X15970000Y-6470000D01*
X15970000Y-6430000D02*
X15930000Y-6470000D01*
X15930000Y-15930000D02*
X15970000Y-15970000D01*
X15970000Y-15930000D02*
X15930000Y-15970000D01*
X15980000Y-5080000D02*
X16020000Y-5120000D01*
X16020000Y-5080000D02*
X15980000Y-5120000D01*
X16030000Y-6630000D02*
X16070000Y-6670000D01*
X16070000Y-6630000D02*
X16030000Y-6670000D01*
X16080000Y-5280000D02*
X16120000Y-5320000D01*
X16120000Y-5280000D02*
X16080000Y-5320000D01*
X16080000Y-5980000D02*
X16120000Y-6020000D01*
X16120000Y-5980000D02*
X16080000Y-6020000D01*
X16480000Y-5180000D02*
X16520000Y-5220000D01*
X16520000Y-5180000D02*
X16480000Y-5220000D01*
X16480000Y-5280000D02*
X16520000Y-5320000D01*
X16520000Y-5280000D02*
X16480000Y-5320000D01*
X16730000Y-14130000D02*
X16770000Y-14170000D01*
X16770000Y-14130000D02*
X16730000Y-14170000D01*
X16780000Y-5180000D02*
X16820000Y-5220000D01*
X16820000Y-5180000D02*
X16780000Y-5220000D01*
X16780000Y-5430000D02*
X16820000Y-5470000D01*
X16820000Y-5430000D02*
X16780000Y-5470000D01*
X16780000Y-5580000D02*
X16820000Y-5620000D01*
X16820000Y-5580000D02*
X16780000Y-5620000D01*
X16780000Y-5730000D02*
X16820000Y-5770000D01*
X16820000Y-5730000D02*
X16780000Y-5770000D01*
X16780000Y-6330000D02*
X16820000Y-6370000D01*
X16820000Y-6330000D02*
X16780000Y-6370000D01*
X16830000Y-14980000D02*
X16870000Y-15020000D01*
X16870000Y-14980000D02*
X16830000Y-15020000D01*
X16880000Y-7380000D02*
X16920000Y-7420000D01*
X16920000Y-7380000D02*
X16880000Y-7420000D01*
X16880000Y-7480000D02*
X16920000Y-7520000D01*
X16920000Y-7480000D02*
X16880000Y-7520000D01*
X16880000Y-7830000D02*
X16920000Y-7870000D01*
X16920000Y-7830000D02*
X16880000Y-7870000D01*
X16880000Y-8030000D02*
X16920000Y-8070000D01*
X16920000Y-8030000D02*
X16880000Y-8070000D01*
X16880000Y-14180000D02*
X16920000Y-14220000D01*
X16920000Y-14180000D02*
X16880000Y-14220000D01*
X16930000Y-4080000D02*
X16970000Y-4120000D01*
X16970000Y-4080000D02*
X16930000Y-4120000D01*
X16980000Y-6130000D02*
X17020000Y-6170000D01*
X17020000Y-6130000D02*
X16980000Y-6170000D01*
X16980000Y-14880000D02*
X17020000Y-14920000D01*
X17020000Y-14880000D02*
X16980000Y-14920000D01*
X17080000Y-4180000D02*
X17120000Y-4220000D01*
X17120000Y-4180000D02*
X17080000Y-4220000D01*
X17080000Y-5770000D02*
X17120000Y-5810000D01*
X17120000Y-5770000D02*
X17080000Y-5810000D01*
X17130000Y-13330000D02*
X17170000Y-13370000D01*
X17170000Y-13330000D02*
X17130000Y-13370000D01*
X17130000Y-15280000D02*
X17170000Y-15320000D01*
X17170000Y-15280000D02*
X17130000Y-15320000D01*
X17180000Y-5980000D02*
X17220000Y-6020000D01*
X17220000Y-5980000D02*
X17180000Y-6020000D01*
X17230000Y-4280000D02*
X17270000Y-4320000D01*
X17270000Y-4280000D02*
X17230000Y-4320000D01*
X17330000Y-5780000D02*
X17370000Y-5820000D01*
X17370000Y-5780000D02*
X17330000Y-5820000D01*
X17330000Y-6280000D02*
X17370000Y-6320000D01*
X17370000Y-6280000D02*
X17330000Y-6320000D01*
X17330000Y-6430000D02*
X17370000Y-6470000D01*
X17370000Y-6430000D02*
X17330000Y-6470000D01*
X17330000Y-7330000D02*
X17370000Y-7370000D01*
X17370000Y-7330000D02*
X17330000Y-7370000D01*
X17330000Y-15830000D02*
X17370000Y-15870000D01*
X17370000Y-15830000D02*
X17330000Y-15870000D01*
X17380000Y-4380000D02*
X17420000Y-4420000D01*
X17420000Y-4380000D02*
X17380000Y-4420000D01*
X17380000Y-14630000D02*
X17420000Y-14670000D01*
X17420000Y-14630000D02*
X17380000Y-14670000D01*
X17430000Y-5530000D02*
X17470000Y-5570000D01*
X17470000Y-5530000D02*
X17430000Y-5570000D01*
X17430000Y-5680000D02*
X17470000Y-5720000D01*
X17470000Y-5680000D02*
X17430000Y-5720000D01*
X17430000Y-8380000D02*
X17470000Y-8420000D01*
X17470000Y-8380000D02*
X17430000Y-8420000D01*
X17430000Y-15930000D02*
X17470000Y-15970000D01*
X17470000Y-15930000D02*
X17430000Y-15970000D01*
X17530000Y-3930000D02*
X17570000Y-3970000D01*
X17570000Y-3930000D02*
X17530000Y-3970000D01*
X17530000Y-4480000D02*
X17570000Y-4520000D01*
X17570000Y-4480000D02*
X17530000Y-4520000D01*
X17580000Y-5780000D02*
X17620000Y-5820000D01*
X17620000Y-5780000D02*
X17580000Y-5820000D01*
X17580000Y-6180000D02*
X17620000Y-6220000D01*
X17620000Y-6180000D02*
X17580000Y-6220000D01*
X17580000Y-6330000D02*
X17620000Y-6370000D01*
X17620000Y-6330000D02*
X17580000Y-6370000D01*
X17680000Y-4580000D02*
X17720000Y-4620000D01*
X17720000Y-4580000D02*
X17680000Y-4620000D01*
X17730000Y-14280000D02*
X17770000Y-14320000D01*
X17770000Y-14280000D02*
X17730000Y-14320000D01*
X17780000Y-6130000D02*
X17820000Y-6170000D01*
X17820000Y-6130000D02*
X17780000Y-6170000D01*
X17781317Y-3881449D02*
X17821317Y-3921449D01*
X17821317Y-3881449D02*
X17781317Y-3921449D01*
X17830000Y-4680000D02*
X17870000Y-4720000D01*
X17870000Y-4680000D02*
X17830000Y-4720000D01*
X17880000Y-5680000D02*
X17920000Y-5720000D01*
X17920000Y-5680000D02*
X17880000Y-5720000D01*
X17880000Y-7880000D02*
X17920000Y-7920000D01*
X17920000Y-7880000D02*
X17880000Y-7920000D01*
X17880000Y-8530000D02*
X17920000Y-8570000D01*
X17920000Y-8530000D02*
X17880000Y-8570000D01*
X17880000Y-14230000D02*
X17920000Y-14270000D01*
X17920000Y-14230000D02*
X17880000Y-14270000D01*
X17930000Y-15330353D02*
X17970000Y-15370353D01*
X17970000Y-15330353D02*
X17930000Y-15370353D01*
X17980000Y-4780000D02*
X18020000Y-4820000D01*
X18020000Y-4780000D02*
X17980000Y-4820000D01*
X17980000Y-5980000D02*
X18020000Y-6020000D01*
X18020000Y-5980000D02*
X17980000Y-6020000D01*
X18080000Y-3930000D02*
X18120000Y-3970000D01*
X18120000Y-3930000D02*
X18080000Y-3970000D01*
X18130000Y-4880000D02*
X18170000Y-4920000D01*
X18170000Y-4880000D02*
X18130000Y-4920000D01*
X18130000Y-5780000D02*
X18170000Y-5820000D01*
X18170000Y-5780000D02*
X18130000Y-5820000D01*
X18130000Y-6280000D02*
X18170000Y-6320000D01*
X18170000Y-6280000D02*
X18130000Y-6320000D01*
X18130000Y-6430000D02*
X18170000Y-6470000D01*
X18170000Y-6430000D02*
X18130000Y-6470000D01*
X18230000Y-5680000D02*
X18270000Y-5720000D01*
X18270000Y-5680000D02*
X18230000Y-5720000D01*
X18280000Y-3930000D02*
X18320000Y-3970000D01*
X18320000Y-3930000D02*
X18280000Y-3970000D01*
X18280000Y-15580000D02*
X18320000Y-15620000D01*
X18320000Y-15580000D02*
X18280000Y-15620000D01*
X18330000Y-8780000D02*
X18370000Y-8820000D01*
X18370000Y-8780000D02*
X18330000Y-8820000D01*
X18380000Y-5280000D02*
X18420000Y-5320000D01*
X18420000Y-5280000D02*
X18380000Y-5320000D01*
X18380000Y-5780000D02*
X18420000Y-5820000D01*
X18420000Y-5780000D02*
X18380000Y-5820000D01*
X18380000Y-6180000D02*
X18420000Y-6220000D01*
X18420000Y-6180000D02*
X18380000Y-6220000D01*
X18380000Y-6330000D02*
X18420000Y-6370000D01*
X18420000Y-6330000D02*
X18380000Y-6370000D01*
X18380000Y-14830000D02*
X18420000Y-14870000D01*
X18420000Y-14830000D02*
X18380000Y-14870000D01*
X18430000Y-7330000D02*
X18470000Y-7370000D01*
X18470000Y-7330000D02*
X18430000Y-7370000D01*
X18430000Y-10730000D02*
X18470000Y-10770000D01*
X18470000Y-10730000D02*
X18430000Y-10770000D01*
X18530000Y-3880000D02*
X18570000Y-3920000D01*
X18570000Y-3880000D02*
X18530000Y-3920000D01*
X18530000Y-5430000D02*
X18570000Y-5470000D01*
X18570000Y-5430000D02*
X18530000Y-5470000D01*
X18530000Y-5530000D02*
X18570000Y-5570000D01*
X18570000Y-5530000D02*
X18530000Y-5570000D01*
X18530000Y-13330000D02*
X18570000Y-13370000D01*
X18570000Y-13330000D02*
X18530000Y-13370000D01*
X18530000Y-15330000D02*
X18570000Y-15370000D01*
X18570000Y-15330000D02*
X18530000Y-15370000D01*
X18580000Y-4580000D02*
X18620000Y-4620000D01*
X18620000Y-4580000D02*
X18580000Y-4620000D01*
X18630000Y-4980000D02*
X18670000Y-5020000D01*
X18670000Y-4980000D02*
X18630000Y-5020000D01*
X18630000Y-5630000D02*
X18670000Y-5670000D01*
X18670000Y-5630000D02*
X18630000Y-5670000D01*
X18630000Y-6130000D02*
X18670000Y-6170000D01*
X18670000Y-6130000D02*
X18630000Y-6170000D01*
X18680000Y-15180000D02*
X18720000Y-15220000D01*
X18720000Y-15180000D02*
X18680000Y-15220000D01*
X18730000Y-14480000D02*
X18770000Y-14520000D01*
X18770000Y-14480000D02*
X18730000Y-14520000D01*
X18730000Y-14580000D02*
X18770000Y-14620000D01*
X18770000Y-14580000D02*
X18730000Y-14620000D01*
X18780000Y-3880000D02*
X18820000Y-3920000D01*
X18820000Y-3880000D02*
X18780000Y-3920000D01*
X18830000Y-10680000D02*
X18870000Y-10720000D01*
X18870000Y-10680000D02*
X18830000Y-10720000D01*
X18830000Y-10980000D02*
X18870000Y-11020000D01*
X18870000Y-10980000D02*
X18830000Y-11020000D01*
X18830000Y-16030000D02*
X18870000Y-16070000D01*
X18870000Y-16030000D02*
X18830000Y-16070000D01*
X18880000Y-6880000D02*
X18920000Y-6920000D01*
X18920000Y-6880000D02*
X18880000Y-6920000D01*
X18880000Y-7330000D02*
X18920000Y-7370000D01*
X18920000Y-7330000D02*
X18880000Y-7370000D01*
X18880000Y-7480000D02*
X18920000Y-7520000D01*
X18920000Y-7480000D02*
X18880000Y-7520000D01*
X18930000Y-3880000D02*
X18970000Y-3920000D01*
X18970000Y-3880000D02*
X18930000Y-3920000D01*
X18930000Y-5580000D02*
X18970000Y-5620000D01*
X18970000Y-5580000D02*
X18930000Y-5620000D01*
X18930000Y-6280000D02*
X18970000Y-6320000D01*
X18970000Y-6280000D02*
X18930000Y-6320000D01*
X18930000Y-6430000D02*
X18970000Y-6470000D01*
X18970000Y-6430000D02*
X18930000Y-6470000D01*
X18930000Y-15930000D02*
X18970000Y-15970000D01*
X18970000Y-15930000D02*
X18930000Y-15970000D01*
X18980000Y-5080000D02*
X19020000Y-5120000D01*
X19020000Y-5080000D02*
X18980000Y-5120000D01*
X19030000Y-6630000D02*
X19070000Y-6670000D01*
X19070000Y-6630000D02*
X19030000Y-6670000D01*
X19080000Y-5280000D02*
X19120000Y-5320000D01*
X19120000Y-5280000D02*
X19080000Y-5320000D01*
X19080000Y-5980000D02*
X19120000Y-6020000D01*
X19120000Y-5980000D02*
X19080000Y-6020000D01*
X19380000Y-8030000D02*
X19420000Y-8070000D01*
X19420000Y-8030000D02*
X19380000Y-8070000D01*
X19380000Y-8630000D02*
X19420000Y-8670000D01*
X19420000Y-8630000D02*
X19380000Y-8670000D01*
X19530000Y-14930000D02*
X19570000Y-14970000D01*
X19570000Y-14930000D02*
X19530000Y-14970000D01*
X19580000Y-14230000D02*
X19620000Y-14270000D01*
X19620000Y-14230000D02*
X19580000Y-14270000D01*
X19680000Y-14930000D02*
X19720000Y-14970000D01*
X19720000Y-14930000D02*
X19680000Y-14970000D01*
X19680000Y-16030000D02*
X19720000Y-16070000D01*
X19720000Y-16030000D02*
X19680000Y-16070000D01*
X19730000Y-3880000D02*
X19770000Y-3920000D01*
X19770000Y-3880000D02*
X19730000Y-3920000D01*
X19730000Y-5880000D02*
X19770000Y-5920000D01*
X19770000Y-5880000D02*
X19730000Y-5920000D01*
X19730000Y-6030000D02*
X19770000Y-6070000D01*
X19770000Y-6030000D02*
X19730000Y-6070000D01*
X19780000Y-11230000D02*
X19820000Y-11270000D01*
X19820000Y-11230000D02*
X19780000Y-11270000D01*
X19780000Y-15930000D02*
X19820000Y-15970000D01*
X19820000Y-15930000D02*
X19780000Y-15970000D01*
X19830000Y-12880000D02*
X19870000Y-12920000D01*
X19870000Y-12880000D02*
X19830000Y-12920000D01*
X19830000Y-14080000D02*
X19870000Y-14120000D01*
X19870000Y-14080000D02*
X19830000Y-14120000D01*
X19880000Y-3980000D02*
X19920000Y-4020000D01*
X19920000Y-3980000D02*
X19880000Y-4020000D01*
X20030000Y-4080000D02*
X20070000Y-4120000D01*
X20070000Y-4080000D02*
X20030000Y-4120000D01*
X20080000Y-12280000D02*
X20120000Y-12320000D01*
X20120000Y-12280000D02*
X20080000Y-12320000D01*
X20180000Y-4180000D02*
X20220000Y-4220000D01*
X20220000Y-4180000D02*
X20180000Y-4220000D01*
X20230000Y-12230000D02*
X20270000Y-12270000D01*
X20270000Y-12230000D02*
X20230000Y-12270000D01*
X20280000Y-12830000D02*
X20320000Y-12870000D01*
X20320000Y-12830000D02*
X20280000Y-12870000D01*
X20330000Y-4280000D02*
X20370000Y-4320000D01*
X20370000Y-4280000D02*
X20330000Y-4320000D01*
X20480000Y-4380000D02*
X20520000Y-4420000D01*
X20520000Y-4380000D02*
X20480000Y-4420000D01*
X20580000Y-8030000D02*
X20620000Y-8070000D01*
X20620000Y-8030000D02*
X20580000Y-8070000D01*
X20580000Y-8630000D02*
X20620000Y-8670000D01*
X20620000Y-8630000D02*
X20580000Y-8670000D01*
X20630000Y-4080000D02*
X20670000Y-4120000D01*
X20670000Y-4080000D02*
X20630000Y-4120000D01*
X20680000Y-5730000D02*
X20720000Y-5770000D01*
X20720000Y-5730000D02*
X20680000Y-5770000D01*
X20680000Y-13030000D02*
X20720000Y-13070000D01*
X20720000Y-13030000D02*
X20680000Y-13070000D01*
X20780000Y-4180000D02*
X20820000Y-4220000D01*
X20820000Y-4180000D02*
X20780000Y-4220000D01*
X20830000Y-5280000D02*
X20870000Y-5320000D01*
X20870000Y-5280000D02*
X20830000Y-5320000D01*
X20830000Y-14230000D02*
X20870000Y-14270000D01*
X20870000Y-14230000D02*
X20830000Y-14270000D01*
X20930000Y-5880000D02*
X20970000Y-5920000D01*
X20970000Y-5880000D02*
X20930000Y-5920000D01*
X20980000Y-5280000D02*
X21020000Y-5320000D01*
X21020000Y-5280000D02*
X20980000Y-5320000D01*
X20980000Y-15080000D02*
X21020000Y-15120000D01*
X21020000Y-15080000D02*
X20980000Y-15120000D01*
X20980000Y-15830000D02*
X21020000Y-15870000D01*
X21020000Y-15830000D02*
X20980000Y-15870000D01*
X21080000Y-11980000D02*
X21120000Y-12020000D01*
X21120000Y-11980000D02*
X21080000Y-12020000D01*
X21080000Y-14230000D02*
X21120000Y-14270000D01*
X21120000Y-14230000D02*
X21080000Y-14270000D01*
X21080000Y-15930000D02*
X21120000Y-15970000D01*
X21120000Y-15930000D02*
X21080000Y-15970000D01*
X21130000Y-15080000D02*
X21170000Y-15120000D01*
X21170000Y-15080000D02*
X21130000Y-15120000D01*
X21180000Y-4280000D02*
X21220000Y-4320000D01*
X21220000Y-4280000D02*
X21180000Y-4320000D01*
X21230000Y-5730000D02*
X21270000Y-5770000D01*
X21270000Y-5730000D02*
X21230000Y-5770000D01*
X21330000Y-4380000D02*
X21370000Y-4420000D01*
X21370000Y-4380000D02*
X21330000Y-4420000D01*
X21380000Y-5280000D02*
X21420000Y-5320000D01*
X21420000Y-5280000D02*
X21380000Y-5320000D01*
X21480000Y-5880000D02*
X21520000Y-5920000D01*
X21520000Y-5880000D02*
X21480000Y-5920000D01*
X21530000Y-5280000D02*
X21570000Y-5320000D01*
X21570000Y-5280000D02*
X21530000Y-5320000D01*
X21530000Y-14630000D02*
X21570000Y-14670000D01*
X21570000Y-14630000D02*
X21530000Y-14670000D01*
X21680000Y-14830000D02*
X21720000Y-14870000D01*
X21720000Y-14830000D02*
X21680000Y-14870000D01*
X21730000Y-4480000D02*
X21770000Y-4520000D01*
X21770000Y-4480000D02*
X21730000Y-4520000D01*
X21780000Y-5730000D02*
X21820000Y-5770000D01*
X21820000Y-5730000D02*
X21780000Y-5770000D01*
X21780000Y-8030000D02*
X21820000Y-8070000D01*
X21820000Y-8030000D02*
X21780000Y-8070000D01*
X21780000Y-8630000D02*
X21820000Y-8670000D01*
X21820000Y-8630000D02*
X21780000Y-8670000D01*
X21880000Y-4580000D02*
X21920000Y-4620000D01*
X21920000Y-4580000D02*
X21880000Y-4620000D01*
X21930000Y-5280000D02*
X21970000Y-5320000D01*
X21970000Y-5280000D02*
X21930000Y-5320000D01*
X21930000Y-14530000D02*
X21970000Y-14570000D01*
X21970000Y-14530000D02*
X21930000Y-14570000D01*
X22030000Y-5880000D02*
X22070000Y-5920000D01*
X22070000Y-5880000D02*
X22030000Y-5920000D01*
X22080000Y-5280000D02*
X22120000Y-5320000D01*
X22120000Y-5280000D02*
X22080000Y-5320000D01*
X22130000Y-15830000D02*
X22170000Y-15870000D01*
X22170000Y-15830000D02*
X22130000Y-15870000D01*
X22230000Y-15930000D02*
X22270000Y-15970000D01*
X22270000Y-15930000D02*
X22230000Y-15970000D01*
X22255000Y-13555000D02*
X22295000Y-13595000D01*
X22295000Y-13555000D02*
X22255000Y-13595000D01*
X22255000Y-14155000D02*
X22295000Y-14195000D01*
X22295000Y-14155000D02*
X22255000Y-14195000D01*
X22280000Y-15330000D02*
X22320000Y-15370000D01*
X22320000Y-15330000D02*
X22280000Y-15370000D01*
X22430000Y-4480000D02*
X22470000Y-4520000D01*
X22470000Y-4480000D02*
X22430000Y-4520000D01*
X22430000Y-15930000D02*
X22470000Y-15970000D01*
X22470000Y-15930000D02*
X22430000Y-15970000D01*
X22530000Y-16030000D02*
X22570000Y-16070000D01*
X22570000Y-16030000D02*
X22530000Y-16070000D01*
X22580000Y-4580000D02*
X22620000Y-4620000D01*
X22620000Y-4580000D02*
X22580000Y-4620000D01*
X22630000Y-15580000D02*
X22670000Y-15620000D01*
X22670000Y-15580000D02*
X22630000Y-15620000D01*
X22680000Y-15230000D02*
X22720000Y-15270000D01*
X22720000Y-15230000D02*
X22680000Y-15270000D01*
X22730000Y-4680000D02*
X22770000Y-4720000D01*
X22770000Y-4680000D02*
X22730000Y-4720000D01*
X22880000Y-4780000D02*
X22920000Y-4820000D01*
X22920000Y-4780000D02*
X22880000Y-4820000D01*
X22880000Y-14630000D02*
X22920000Y-14670000D01*
X22920000Y-14630000D02*
X22880000Y-14670000D01*
X23030000Y-4880000D02*
X23070000Y-4920000D01*
X23070000Y-4880000D02*
X23030000Y-4920000D01*
X23080000Y-5730000D02*
X23120000Y-5770000D01*
X23120000Y-5730000D02*
X23080000Y-5770000D01*
X23230000Y-5280000D02*
X23270000Y-5320000D01*
X23270000Y-5280000D02*
X23230000Y-5320000D01*
X23330000Y-5880000D02*
X23370000Y-5920000D01*
X23370000Y-5880000D02*
X23330000Y-5920000D01*
X23380000Y-3980000D02*
X23420000Y-4020000D01*
X23420000Y-3980000D02*
X23380000Y-4020000D01*
X23380000Y-5280000D02*
X23420000Y-5320000D01*
X23420000Y-5280000D02*
X23380000Y-5320000D01*
X23480000Y-5580000D02*
X23520000Y-5620000D01*
X23520000Y-5580000D02*
X23480000Y-5620000D01*
X23480000Y-14930000D02*
X23520000Y-14970000D01*
X23520000Y-14930000D02*
X23480000Y-14970000D01*
X23580000Y-4680000D02*
X23620000Y-4720000D01*
X23620000Y-4680000D02*
X23580000Y-4720000D01*
X23630000Y-5730000D02*
X23670000Y-5770000D01*
X23670000Y-5730000D02*
X23630000Y-5770000D01*
X23680000Y-4380000D02*
X23720000Y-4420000D01*
X23720000Y-4380000D02*
X23680000Y-4420000D01*
X23780000Y-5280000D02*
X23820000Y-5320000D01*
X23820000Y-5280000D02*
X23780000Y-5320000D01*
X23830000Y-15530000D02*
X23870000Y-15570000D01*
X23870000Y-15530000D02*
X23830000Y-15570000D01*
X23880000Y-5880000D02*
X23920000Y-5920000D01*
X23920000Y-5880000D02*
X23880000Y-5920000D01*
X23930000Y-5280000D02*
X23970000Y-5320000D01*
X23970000Y-5280000D02*
X23930000Y-5320000D01*
X23980000Y-14980000D02*
X24020000Y-15020000D01*
X24020000Y-14980000D02*
X23980000Y-15020000D01*
X24080000Y-4630000D02*
X24120000Y-4670000D01*
X24120000Y-4630000D02*
X24080000Y-4670000D01*
X24080000Y-14630000D02*
X24120000Y-14670000D01*
X24120000Y-14630000D02*
X24080000Y-14670000D01*
X24080000Y-16080000D02*
X24120000Y-16120000D01*
X24120000Y-16080000D02*
X24080000Y-16120000D01*
X24230000Y-4580000D02*
X24270000Y-4620000D01*
X24270000Y-4580000D02*
X24230000Y-4620000D01*
X24330000Y-14880000D02*
X24370000Y-14920000D01*
X24370000Y-14880000D02*
X24330000Y-14920000D01*
X24430000Y-5930000D02*
X24470000Y-5970000D01*
X24470000Y-5930000D02*
X24430000Y-5970000D01*
X24430000Y-6330000D02*
X24470000Y-6370000D01*
X24470000Y-6330000D02*
X24430000Y-6370000D01*
X24480000Y-14430000D02*
X24520000Y-14470000D01*
X24520000Y-14430000D02*
X24480000Y-14470000D01*
X24630000Y-15830000D02*
X24670000Y-15870000D01*
X24670000Y-15830000D02*
X24630000Y-15870000D01*
X24680000Y-5780000D02*
X24720000Y-5820000D01*
X24720000Y-5780000D02*
X24680000Y-5820000D01*
X24680000Y-15430000D02*
X24720000Y-15470000D01*
X24720000Y-15430000D02*
X24680000Y-15470000D01*
X24830000Y-6030000D02*
X24870000Y-6070000D01*
X24870000Y-6030000D02*
X24830000Y-6070000D01*
X24980000Y-5930000D02*
X25020000Y-5970000D01*
X25020000Y-5930000D02*
X24980000Y-5970000D01*
X24980000Y-6330000D02*
X25020000Y-6370000D01*
X25020000Y-6330000D02*
X24980000Y-6370000D01*
X25230000Y-5880000D02*
X25270000Y-5920000D01*
X25270000Y-5880000D02*
X25230000Y-5920000D01*
X25230000Y-7380000D02*
X25270000Y-7420000D01*
X25270000Y-7380000D02*
X25230000Y-7420000D01*
X25280000Y-6980000D02*
X25320000Y-7020000D01*
X25320000Y-6980000D02*
X25280000Y-7020000D01*
X25380000Y-6030000D02*
X25420000Y-6070000D01*
X25420000Y-6030000D02*
X25380000Y-6070000D01*
X25430000Y-8380000D02*
X25470000Y-8420000D01*
X25470000Y-8380000D02*
X25430000Y-8420000D01*
X25580000Y-7930000D02*
X25620000Y-7970000D01*
X25620000Y-7930000D02*
X25580000Y-7970000D01*
X25830000Y-6905000D02*
X25870000Y-6945000D01*
X25870000Y-6905000D02*
X25830000Y-6945000D01*
X25830000Y-8180000D02*
X25870000Y-8220000D01*
X25870000Y-8180000D02*
X25830000Y-8220000D01*
X25930000Y-7830000D02*
X25970000Y-7870000D01*
X25970000Y-7830000D02*
X25930000Y-7870000D01*
X26080000Y-7280000D02*
X26120000Y-7320000D01*
X26120000Y-7280000D02*
X26080000Y-7320000D01*
X19280000Y-15550000D02*
G75*
G02*
X19220000Y-15550000I-30000J0D01*
G01*
X19220000Y-15550000D02*
G75*
G02*
X19280000Y-15550000I30000J0D01*
G01*
X19780000Y-7100000D02*
G75*
G02*
X19720000Y-7100000I-30000J0D01*
G01*
X19720000Y-7100000D02*
G75*
G02*
X19780000Y-7100000I30000J0D01*
G01*
X19930000Y-15550000D02*
G75*
G02*
X19870000Y-15550000I-30000J0D01*
G01*
X19870000Y-15550000D02*
G75*
G02*
X19930000Y-15550000I30000J0D01*
G01*
X20130000Y-14150000D02*
G75*
G02*
X20070000Y-14150000I-30000J0D01*
G01*
X20070000Y-14150000D02*
G75*
G02*
X20130000Y-14150000I30000J0D01*
G01*
X20130000Y-15350000D02*
G75*
G02*
X20070000Y-15350000I-30000J0D01*
G01*
X20070000Y-15350000D02*
G75*
G02*
X20130000Y-15350000I30000J0D01*
G01*
X20230000Y-7650000D02*
G75*
G02*
X20170000Y-7650000I-30000J0D01*
G01*
X20170000Y-7650000D02*
G75*
G02*
X20230000Y-7650000I30000J0D01*
G01*
X20380000Y-13500000D02*
G75*
G02*
X20320000Y-13500000I-30000J0D01*
G01*
X20320000Y-13500000D02*
G75*
G02*
X20380000Y-13500000I30000J0D01*
G01*
X20380000Y-14700000D02*
G75*
G02*
X20320000Y-14700000I-30000J0D01*
G01*
X20320000Y-14700000D02*
G75*
G02*
X20380000Y-14700000I30000J0D01*
G01*
X20530000Y-15450000D02*
G75*
G02*
X20470000Y-15450000I-30000J0D01*
G01*
X20470000Y-15450000D02*
G75*
G02*
X20530000Y-15450000I30000J0D01*
G01*
X20680000Y-7100000D02*
G75*
G02*
X20620000Y-7100000I-30000J0D01*
G01*
X20620000Y-7100000D02*
G75*
G02*
X20680000Y-7100000I30000J0D01*
G01*
X20730000Y-13500000D02*
G75*
G02*
X20670000Y-13500000I-30000J0D01*
G01*
X20670000Y-13500000D02*
G75*
G02*
X20730000Y-13500000I30000J0D01*
G01*
X20730000Y-14700000D02*
G75*
G02*
X20670000Y-14700000I-30000J0D01*
G01*
X20670000Y-14700000D02*
G75*
G02*
X20730000Y-14700000I30000J0D01*
G01*
X20780000Y-12350000D02*
G75*
G02*
X20720000Y-12350000I-30000J0D01*
G01*
X20720000Y-12350000D02*
G75*
G02*
X20780000Y-12350000I30000J0D01*
G01*
X21380000Y-7500000D02*
G75*
G02*
X21320000Y-7500000I-30000J0D01*
G01*
X21320000Y-7500000D02*
G75*
G02*
X21380000Y-7500000I30000J0D01*
G01*
X22180000Y-7100000D02*
G75*
G02*
X22120000Y-7100000I-30000J0D01*
G01*
X22120000Y-7100000D02*
G75*
G02*
X22180000Y-7100000I30000J0D01*
G01*
X22630000Y-7650000D02*
G75*
G02*
X22570000Y-7650000I-30000J0D01*
G01*
X22570000Y-7650000D02*
G75*
G02*
X22630000Y-7650000I30000J0D01*
G01*
X23080000Y-7100000D02*
G75*
G02*
X23020000Y-7100000I-30000J0D01*
G01*
X23020000Y-7100000D02*
G75*
G02*
X23080000Y-7100000I30000J0D01*
G01*
X23630000Y-7500000D02*
G75*
G02*
X23570000Y-7500000I-30000J0D01*
G01*
X23570000Y-7500000D02*
G75*
G02*
X23630000Y-7500000I30000J0D01*
G01*
X23630000Y-10300000D02*
G75*
G02*
X23570000Y-10300000I-30000J0D01*
G01*
X23570000Y-10300000D02*
G75*
G02*
X23630000Y-10300000I30000J0D01*
G01*
X23630000Y-11400000D02*
G75*
G02*
X23570000Y-11400000I-30000J0D01*
G01*
X23570000Y-11400000D02*
G75*
G02*
X23630000Y-11400000I30000J0D01*
G01*
X24580000Y-10750000D02*
G75*
G02*
X24520000Y-10750000I-30000J0D01*
G01*
X24520000Y-10750000D02*
G75*
G02*
X24580000Y-10750000I30000J0D01*
G01*
X24580000Y-11450000D02*
G75*
G02*
X24520000Y-11450000I-30000J0D01*
G01*
X24520000Y-11450000D02*
G75*
G02*
X24580000Y-11450000I30000J0D01*
G01*
X24630000Y-9550000D02*
G75*
G02*
X24570000Y-9550000I-30000J0D01*
G01*
X24570000Y-9550000D02*
G75*
G02*
X24630000Y-9550000I30000J0D01*
G01*
X24980000Y-11200000D02*
G75*
G02*
X24920000Y-11200000I-30000J0D01*
G01*
X24920000Y-11200000D02*
G75*
G02*
X24980000Y-11200000I30000J0D01*
G01*
X2773500Y-6830000D02*
X2773500Y-6920000D01*
X2728500Y-6875000D02*
X2818500Y-6875000D01*
X3027500Y-6830000D02*
X3027500Y-6920000D01*
X2982500Y-6875000D02*
X3072500Y-6875000D01*
X5773500Y-6830000D02*
X5773500Y-6920000D01*
X5728500Y-6875000D02*
X5818500Y-6875000D01*
X6027500Y-6830000D02*
X6027500Y-6920000D01*
X5982500Y-6875000D02*
X6072500Y-6875000D01*
X8773500Y-6830000D02*
X8773500Y-6920000D01*
X8728500Y-6875000D02*
X8818500Y-6875000D01*
X9027500Y-6830000D02*
X9027500Y-6920000D01*
X8982500Y-6875000D02*
X9072500Y-6875000D01*
X11773500Y-6830000D02*
X11773500Y-6920000D01*
X11728500Y-6875000D02*
X11818500Y-6875000D01*
X12027500Y-6830000D02*
X12027500Y-6920000D01*
X11982500Y-6875000D02*
X12072500Y-6875000D01*
X14773500Y-6830000D02*
X14773500Y-6920000D01*
X14728500Y-6875000D02*
X14818500Y-6875000D01*
X15027500Y-6830000D02*
X15027500Y-6920000D01*
X14982500Y-6875000D02*
X15072500Y-6875000D01*
X17773500Y-6830000D02*
X17773500Y-6920000D01*
X17728500Y-6875000D02*
X17818500Y-6875000D01*
X18027500Y-6830000D02*
X18027500Y-6920000D01*
X17982500Y-6875000D02*
X18072500Y-6875000D01*
X20760426Y-10470785D02*
X20760426Y-10400074D01*
X20689715Y-10400074D01*
X20689715Y-10470785D01*
X20760426Y-10470785D01*
X20800071Y-10385429D02*
X20650071Y-10385429D01*
X20650071Y-10485429D02*
G75*
G02*
X20650071Y-10385429I0J50000D01*
G01*
X20650071Y-10485429D02*
X20800071Y-10485429D01*
X20800071Y-10485429D02*
G75*
G03*
X20800071Y-10385429I0J50000D01*
G01*
X20760426Y-11870785D02*
X20760426Y-11800074D01*
X20689715Y-11800074D01*
X20689715Y-11870785D01*
X20760426Y-11870785D01*
X20800071Y-11785429D02*
X20650071Y-11785429D01*
X20650071Y-11885429D02*
G75*
G02*
X20650071Y-11785429I0J50000D01*
G01*
X20650071Y-11885429D02*
X20800071Y-11885429D01*
X20800071Y-11885429D02*
G75*
G03*
X20800071Y-11785429I0J50000D01*
G01*
X26135356Y-10573356D02*
X26135356Y-10502644D01*
X26064644Y-10502644D01*
X26064644Y-10573356D01*
X26135356Y-10573356D01*
X26135356Y-10827356D02*
X26135356Y-10756644D01*
X26064644Y-10756644D01*
X26064644Y-10827356D01*
X26135356Y-10827356D01*
X26135356Y-11081356D02*
X26135356Y-11010644D01*
X26064644Y-11010644D01*
X26064644Y-11081356D01*
X26135356Y-11081356D01*
X26135356Y-11335356D02*
X26135356Y-11264644D01*
X26064644Y-11264644D01*
X26064644Y-11335356D01*
X26135356Y-11335356D01*
X26135356Y-11589356D02*
X26135356Y-11518644D01*
X26064644Y-11518644D01*
X26064644Y-11589356D01*
X26135356Y-11589356D01*
X26135356Y-11843356D02*
X26135356Y-11772644D01*
X26064644Y-11772644D01*
X26064644Y-11843356D01*
X26135356Y-11843356D01*
D12*
X2640071Y-9295429D02*
X2705071Y-9230429D01*
X2640071Y-9165429D01*
X2575071Y-9230429D01*
X2640071Y-9295429D01*
X2640071Y-9676429D02*
X2705071Y-9611429D01*
X2640071Y-9546429D01*
X2575071Y-9611429D01*
X2640071Y-9676429D01*
X2640071Y-10057429D02*
X2705071Y-9992429D01*
X2640071Y-9927429D01*
X2575071Y-9992429D01*
X2640071Y-10057429D01*
X2640071Y-10438429D02*
X2705071Y-10373429D01*
X2640071Y-10308429D01*
X2575071Y-10373429D01*
X2640071Y-10438429D01*
X2640071Y-10819429D02*
X2705071Y-10754429D01*
X2640071Y-10689429D01*
X2575071Y-10754429D01*
X2640071Y-10819429D01*
X2640071Y-11200429D02*
X2705071Y-11135429D01*
X2640071Y-11070429D01*
X2575071Y-11135429D01*
X2640071Y-11200429D01*
X2640071Y-11581429D02*
X2705071Y-11516429D01*
X2640071Y-11451429D01*
X2575071Y-11516429D01*
X2640071Y-11581429D01*
X2640071Y-11962429D02*
X2705071Y-11897429D01*
X2640071Y-11832429D01*
X2575071Y-11897429D01*
X2640071Y-11962429D01*
X2640071Y-12343429D02*
X2705071Y-12278429D01*
X2640071Y-12213429D01*
X2575071Y-12278429D01*
X2640071Y-12343429D01*
X2640071Y-12724429D02*
X2705071Y-12659429D01*
X2640071Y-12594429D01*
X2575071Y-12659429D01*
X2640071Y-12724429D01*
X2640071Y-13105429D02*
X2705071Y-13040429D01*
X2640071Y-12975429D01*
X2575071Y-13040429D01*
X2640071Y-13105429D01*
X3150071Y-9485929D02*
X3215071Y-9420929D01*
X3150071Y-9355929D01*
X3085071Y-9420929D01*
X3150071Y-9485929D01*
X3150071Y-9866929D02*
X3215071Y-9801929D01*
X3150071Y-9736929D01*
X3085071Y-9801929D01*
X3150071Y-9866929D01*
X3150071Y-10247929D02*
X3215071Y-10182929D01*
X3150071Y-10117929D01*
X3085071Y-10182929D01*
X3150071Y-10247929D01*
X3150071Y-10628929D02*
X3215071Y-10563929D01*
X3150071Y-10498929D01*
X3085071Y-10563929D01*
X3150071Y-10628929D01*
X3150071Y-11009929D02*
X3215071Y-10944929D01*
X3150071Y-10879929D01*
X3085071Y-10944929D01*
X3150071Y-11009929D01*
X3150071Y-11390929D02*
X3215071Y-11325929D01*
X3150071Y-11260929D01*
X3085071Y-11325929D01*
X3150071Y-11390929D01*
X3150071Y-11771929D02*
X3215071Y-11706929D01*
X3150071Y-11641929D01*
X3085071Y-11706929D01*
X3150071Y-11771929D01*
X3150071Y-12152929D02*
X3215071Y-12087929D01*
X3150071Y-12022929D01*
X3085071Y-12087929D01*
X3150071Y-12152929D01*
X3150071Y-12533929D02*
X3215071Y-12468929D01*
X3150071Y-12403929D01*
X3085071Y-12468929D01*
X3150071Y-12533929D01*
X3150071Y-12914929D02*
X3215071Y-12849929D01*
X3150071Y-12784929D01*
X3085071Y-12849929D01*
X3150071Y-12914929D01*
X5640071Y-9295429D02*
X5705071Y-9230429D01*
X5640071Y-9165429D01*
X5575071Y-9230429D01*
X5640071Y-9295429D01*
X5640071Y-9676429D02*
X5705071Y-9611429D01*
X5640071Y-9546429D01*
X5575071Y-9611429D01*
X5640071Y-9676429D01*
X5640071Y-10057429D02*
X5705071Y-9992429D01*
X5640071Y-9927429D01*
X5575071Y-9992429D01*
X5640071Y-10057429D01*
X5640071Y-10438429D02*
X5705071Y-10373429D01*
X5640071Y-10308429D01*
X5575071Y-10373429D01*
X5640071Y-10438429D01*
X5640071Y-10819429D02*
X5705071Y-10754429D01*
X5640071Y-10689429D01*
X5575071Y-10754429D01*
X5640071Y-10819429D01*
X5640071Y-11200429D02*
X5705071Y-11135429D01*
X5640071Y-11070429D01*
X5575071Y-11135429D01*
X5640071Y-11200429D01*
X5640071Y-11581429D02*
X5705071Y-11516429D01*
X5640071Y-11451429D01*
X5575071Y-11516429D01*
X5640071Y-11581429D01*
X5640071Y-11962429D02*
X5705071Y-11897429D01*
X5640071Y-11832429D01*
X5575071Y-11897429D01*
X5640071Y-11962429D01*
X5640071Y-12343429D02*
X5705071Y-12278429D01*
X5640071Y-12213429D01*
X5575071Y-12278429D01*
X5640071Y-12343429D01*
X5640071Y-12724429D02*
X5705071Y-12659429D01*
X5640071Y-12594429D01*
X5575071Y-12659429D01*
X5640071Y-12724429D01*
X5640071Y-13105429D02*
X5705071Y-13040429D01*
X5640071Y-12975429D01*
X5575071Y-13040429D01*
X5640071Y-13105429D01*
X6150071Y-9485929D02*
X6215071Y-9420929D01*
X6150071Y-9355929D01*
X6085071Y-9420929D01*
X6150071Y-9485929D01*
X6150071Y-9866929D02*
X6215071Y-9801929D01*
X6150071Y-9736929D01*
X6085071Y-9801929D01*
X6150071Y-9866929D01*
X6150071Y-10247929D02*
X6215071Y-10182929D01*
X6150071Y-10117929D01*
X6085071Y-10182929D01*
X6150071Y-10247929D01*
X6150071Y-10628929D02*
X6215071Y-10563929D01*
X6150071Y-10498929D01*
X6085071Y-10563929D01*
X6150071Y-10628929D01*
X6150071Y-11009929D02*
X6215071Y-10944929D01*
X6150071Y-10879929D01*
X6085071Y-10944929D01*
X6150071Y-11009929D01*
X6150071Y-11390929D02*
X6215071Y-11325929D01*
X6150071Y-11260929D01*
X6085071Y-11325929D01*
X6150071Y-11390929D01*
X6150071Y-11771929D02*
X6215071Y-11706929D01*
X6150071Y-11641929D01*
X6085071Y-11706929D01*
X6150071Y-11771929D01*
X6150071Y-12152929D02*
X6215071Y-12087929D01*
X6150071Y-12022929D01*
X6085071Y-12087929D01*
X6150071Y-12152929D01*
X6150071Y-12533929D02*
X6215071Y-12468929D01*
X6150071Y-12403929D01*
X6085071Y-12468929D01*
X6150071Y-12533929D01*
X6150071Y-12914929D02*
X6215071Y-12849929D01*
X6150071Y-12784929D01*
X6085071Y-12849929D01*
X6150071Y-12914929D01*
X8640071Y-9295429D02*
X8705071Y-9230429D01*
X8640071Y-9165429D01*
X8575071Y-9230429D01*
X8640071Y-9295429D01*
X8640071Y-9676429D02*
X8705071Y-9611429D01*
X8640071Y-9546429D01*
X8575071Y-9611429D01*
X8640071Y-9676429D01*
X8640071Y-10057429D02*
X8705071Y-9992429D01*
X8640071Y-9927429D01*
X8575071Y-9992429D01*
X8640071Y-10057429D01*
X8640071Y-10438429D02*
X8705071Y-10373429D01*
X8640071Y-10308429D01*
X8575071Y-10373429D01*
X8640071Y-10438429D01*
X8640071Y-10819429D02*
X8705071Y-10754429D01*
X8640071Y-10689429D01*
X8575071Y-10754429D01*
X8640071Y-10819429D01*
X8640071Y-11200429D02*
X8705071Y-11135429D01*
X8640071Y-11070429D01*
X8575071Y-11135429D01*
X8640071Y-11200429D01*
X8640071Y-11581429D02*
X8705071Y-11516429D01*
X8640071Y-11451429D01*
X8575071Y-11516429D01*
X8640071Y-11581429D01*
X8640071Y-11962429D02*
X8705071Y-11897429D01*
X8640071Y-11832429D01*
X8575071Y-11897429D01*
X8640071Y-11962429D01*
X8640071Y-12343429D02*
X8705071Y-12278429D01*
X8640071Y-12213429D01*
X8575071Y-12278429D01*
X8640071Y-12343429D01*
X8640071Y-12724429D02*
X8705071Y-12659429D01*
X8640071Y-12594429D01*
X8575071Y-12659429D01*
X8640071Y-12724429D01*
X8640071Y-13105429D02*
X8705071Y-13040429D01*
X8640071Y-12975429D01*
X8575071Y-13040429D01*
X8640071Y-13105429D01*
X9150071Y-9485929D02*
X9215071Y-9420929D01*
X9150071Y-9355929D01*
X9085071Y-9420929D01*
X9150071Y-9485929D01*
X9150071Y-9866929D02*
X9215071Y-9801929D01*
X9150071Y-9736929D01*
X9085071Y-9801929D01*
X9150071Y-9866929D01*
X9150071Y-10247929D02*
X9215071Y-10182929D01*
X9150071Y-10117929D01*
X9085071Y-10182929D01*
X9150071Y-10247929D01*
X9150071Y-10628929D02*
X9215071Y-10563929D01*
X9150071Y-10498929D01*
X9085071Y-10563929D01*
X9150071Y-10628929D01*
X9150071Y-11009929D02*
X9215071Y-10944929D01*
X9150071Y-10879929D01*
X9085071Y-10944929D01*
X9150071Y-11009929D01*
X9150071Y-11390929D02*
X9215071Y-11325929D01*
X9150071Y-11260929D01*
X9085071Y-11325929D01*
X9150071Y-11390929D01*
X9150071Y-11771929D02*
X9215071Y-11706929D01*
X9150071Y-11641929D01*
X9085071Y-11706929D01*
X9150071Y-11771929D01*
X9150071Y-12152929D02*
X9215071Y-12087929D01*
X9150071Y-12022929D01*
X9085071Y-12087929D01*
X9150071Y-12152929D01*
X9150071Y-12533929D02*
X9215071Y-12468929D01*
X9150071Y-12403929D01*
X9085071Y-12468929D01*
X9150071Y-12533929D01*
X9150071Y-12914929D02*
X9215071Y-12849929D01*
X9150071Y-12784929D01*
X9085071Y-12849929D01*
X9150071Y-12914929D01*
X11640071Y-9295429D02*
X11705071Y-9230429D01*
X11640071Y-9165429D01*
X11575071Y-9230429D01*
X11640071Y-9295429D01*
X11640071Y-9676429D02*
X11705071Y-9611429D01*
X11640071Y-9546429D01*
X11575071Y-9611429D01*
X11640071Y-9676429D01*
X11640071Y-10057429D02*
X11705071Y-9992429D01*
X11640071Y-9927429D01*
X11575071Y-9992429D01*
X11640071Y-10057429D01*
X11640071Y-10438429D02*
X11705071Y-10373429D01*
X11640071Y-10308429D01*
X11575071Y-10373429D01*
X11640071Y-10438429D01*
X11640071Y-10819429D02*
X11705071Y-10754429D01*
X11640071Y-10689429D01*
X11575071Y-10754429D01*
X11640071Y-10819429D01*
X11640071Y-11200429D02*
X11705071Y-11135429D01*
X11640071Y-11070429D01*
X11575071Y-11135429D01*
X11640071Y-11200429D01*
X11640071Y-11581429D02*
X11705071Y-11516429D01*
X11640071Y-11451429D01*
X11575071Y-11516429D01*
X11640071Y-11581429D01*
X11640071Y-11962429D02*
X11705071Y-11897429D01*
X11640071Y-11832429D01*
X11575071Y-11897429D01*
X11640071Y-11962429D01*
X11640071Y-12343429D02*
X11705071Y-12278429D01*
X11640071Y-12213429D01*
X11575071Y-12278429D01*
X11640071Y-12343429D01*
X11640071Y-12724429D02*
X11705071Y-12659429D01*
X11640071Y-12594429D01*
X11575071Y-12659429D01*
X11640071Y-12724429D01*
X11640071Y-13105429D02*
X11705071Y-13040429D01*
X11640071Y-12975429D01*
X11575071Y-13040429D01*
X11640071Y-13105429D01*
X12150071Y-9485929D02*
X12215071Y-9420929D01*
X12150071Y-9355929D01*
X12085071Y-9420929D01*
X12150071Y-9485929D01*
X12150071Y-9866929D02*
X12215071Y-9801929D01*
X12150071Y-9736929D01*
X12085071Y-9801929D01*
X12150071Y-9866929D01*
X12150071Y-10247929D02*
X12215071Y-10182929D01*
X12150071Y-10117929D01*
X12085071Y-10182929D01*
X12150071Y-10247929D01*
X12150071Y-10628929D02*
X12215071Y-10563929D01*
X12150071Y-10498929D01*
X12085071Y-10563929D01*
X12150071Y-10628929D01*
X12150071Y-11009929D02*
X12215071Y-10944929D01*
X12150071Y-10879929D01*
X12085071Y-10944929D01*
X12150071Y-11009929D01*
X12150071Y-11390929D02*
X12215071Y-11325929D01*
X12150071Y-11260929D01*
X12085071Y-11325929D01*
X12150071Y-11390929D01*
X12150071Y-11771929D02*
X12215071Y-11706929D01*
X12150071Y-11641929D01*
X12085071Y-11706929D01*
X12150071Y-11771929D01*
X12150071Y-12152929D02*
X12215071Y-12087929D01*
X12150071Y-12022929D01*
X12085071Y-12087929D01*
X12150071Y-12152929D01*
X12150071Y-12533929D02*
X12215071Y-12468929D01*
X12150071Y-12403929D01*
X12085071Y-12468929D01*
X12150071Y-12533929D01*
X12150071Y-12914929D02*
X12215071Y-12849929D01*
X12150071Y-12784929D01*
X12085071Y-12849929D01*
X12150071Y-12914929D01*
X14640071Y-9295429D02*
X14705071Y-9230429D01*
X14640071Y-9165429D01*
X14575071Y-9230429D01*
X14640071Y-9295429D01*
X14640071Y-9676429D02*
X14705071Y-9611429D01*
X14640071Y-9546429D01*
X14575071Y-9611429D01*
X14640071Y-9676429D01*
X14640071Y-10057429D02*
X14705071Y-9992429D01*
X14640071Y-9927429D01*
X14575071Y-9992429D01*
X14640071Y-10057429D01*
X14640071Y-10438429D02*
X14705071Y-10373429D01*
X14640071Y-10308429D01*
X14575071Y-10373429D01*
X14640071Y-10438429D01*
X14640071Y-10819429D02*
X14705071Y-10754429D01*
X14640071Y-10689429D01*
X14575071Y-10754429D01*
X14640071Y-10819429D01*
X14640071Y-11200429D02*
X14705071Y-11135429D01*
X14640071Y-11070429D01*
X14575071Y-11135429D01*
X14640071Y-11200429D01*
X14640071Y-11581429D02*
X14705071Y-11516429D01*
X14640071Y-11451429D01*
X14575071Y-11516429D01*
X14640071Y-11581429D01*
X14640071Y-11962429D02*
X14705071Y-11897429D01*
X14640071Y-11832429D01*
X14575071Y-11897429D01*
X14640071Y-11962429D01*
X14640071Y-12343429D02*
X14705071Y-12278429D01*
X14640071Y-12213429D01*
X14575071Y-12278429D01*
X14640071Y-12343429D01*
X14640071Y-12724429D02*
X14705071Y-12659429D01*
X14640071Y-12594429D01*
X14575071Y-12659429D01*
X14640071Y-12724429D01*
X14640071Y-13105429D02*
X14705071Y-13040429D01*
X14640071Y-12975429D01*
X14575071Y-13040429D01*
X14640071Y-13105429D01*
X15150071Y-9485929D02*
X15215071Y-9420929D01*
X15150071Y-9355929D01*
X15085071Y-9420929D01*
X15150071Y-9485929D01*
X15150071Y-9866929D02*
X15215071Y-9801929D01*
X15150071Y-9736929D01*
X15085071Y-9801929D01*
X15150071Y-9866929D01*
X15150071Y-10247929D02*
X15215071Y-10182929D01*
X15150071Y-10117929D01*
X15085071Y-10182929D01*
X15150071Y-10247929D01*
X15150071Y-10628929D02*
X15215071Y-10563929D01*
X15150071Y-10498929D01*
X15085071Y-10563929D01*
X15150071Y-10628929D01*
X15150071Y-11009929D02*
X15215071Y-10944929D01*
X15150071Y-10879929D01*
X15085071Y-10944929D01*
X15150071Y-11009929D01*
X15150071Y-11390929D02*
X15215071Y-11325929D01*
X15150071Y-11260929D01*
X15085071Y-11325929D01*
X15150071Y-11390929D01*
X15150071Y-11771929D02*
X15215071Y-11706929D01*
X15150071Y-11641929D01*
X15085071Y-11706929D01*
X15150071Y-11771929D01*
X15150071Y-12152929D02*
X15215071Y-12087929D01*
X15150071Y-12022929D01*
X15085071Y-12087929D01*
X15150071Y-12152929D01*
X15150071Y-12533929D02*
X15215071Y-12468929D01*
X15150071Y-12403929D01*
X15085071Y-12468929D01*
X15150071Y-12533929D01*
X15150071Y-12914929D02*
X15215071Y-12849929D01*
X15150071Y-12784929D01*
X15085071Y-12849929D01*
X15150071Y-12914929D01*
X17640071Y-9295429D02*
X17705071Y-9230429D01*
X17640071Y-9165429D01*
X17575071Y-9230429D01*
X17640071Y-9295429D01*
X17640071Y-9676429D02*
X17705071Y-9611429D01*
X17640071Y-9546429D01*
X17575071Y-9611429D01*
X17640071Y-9676429D01*
X17640071Y-10057429D02*
X17705071Y-9992429D01*
X17640071Y-9927429D01*
X17575071Y-9992429D01*
X17640071Y-10057429D01*
X17640071Y-10438429D02*
X17705071Y-10373429D01*
X17640071Y-10308429D01*
X17575071Y-10373429D01*
X17640071Y-10438429D01*
X17640071Y-10819429D02*
X17705071Y-10754429D01*
X17640071Y-10689429D01*
X17575071Y-10754429D01*
X17640071Y-10819429D01*
X17640071Y-11200429D02*
X17705071Y-11135429D01*
X17640071Y-11070429D01*
X17575071Y-11135429D01*
X17640071Y-11200429D01*
X17640071Y-11581429D02*
X17705071Y-11516429D01*
X17640071Y-11451429D01*
X17575071Y-11516429D01*
X17640071Y-11581429D01*
X17640071Y-11962429D02*
X17705071Y-11897429D01*
X17640071Y-11832429D01*
X17575071Y-11897429D01*
X17640071Y-11962429D01*
X17640071Y-12343429D02*
X17705071Y-12278429D01*
X17640071Y-12213429D01*
X17575071Y-12278429D01*
X17640071Y-12343429D01*
X17640071Y-12724429D02*
X17705071Y-12659429D01*
X17640071Y-12594429D01*
X17575071Y-12659429D01*
X17640071Y-12724429D01*
X17640071Y-13105429D02*
X17705071Y-13040429D01*
X17640071Y-12975429D01*
X17575071Y-13040429D01*
X17640071Y-13105429D01*
X18150071Y-9485929D02*
X18215071Y-9420929D01*
X18150071Y-9355929D01*
X18085071Y-9420929D01*
X18150071Y-9485929D01*
X18150071Y-9866929D02*
X18215071Y-9801929D01*
X18150071Y-9736929D01*
X18085071Y-9801929D01*
X18150071Y-9866929D01*
X18150071Y-10247929D02*
X18215071Y-10182929D01*
X18150071Y-10117929D01*
X18085071Y-10182929D01*
X18150071Y-10247929D01*
X18150071Y-10628929D02*
X18215071Y-10563929D01*
X18150071Y-10498929D01*
X18085071Y-10563929D01*
X18150071Y-10628929D01*
X18150071Y-11009929D02*
X18215071Y-10944929D01*
X18150071Y-10879929D01*
X18085071Y-10944929D01*
X18150071Y-11009929D01*
X18150071Y-11390929D02*
X18215071Y-11325929D01*
X18150071Y-11260929D01*
X18085071Y-11325929D01*
X18150071Y-11390929D01*
X18150071Y-11771929D02*
X18215071Y-11706929D01*
X18150071Y-11641929D01*
X18085071Y-11706929D01*
X18150071Y-11771929D01*
X18150071Y-12152929D02*
X18215071Y-12087929D01*
X18150071Y-12022929D01*
X18085071Y-12087929D01*
X18150071Y-12152929D01*
X18150071Y-12533929D02*
X18215071Y-12468929D01*
X18150071Y-12403929D01*
X18085071Y-12468929D01*
X18150071Y-12533929D01*
X18150071Y-12914929D02*
X18215071Y-12849929D01*
X18150071Y-12784929D01*
X18085071Y-12849929D01*
X18150071Y-12914929D01*
X19855071Y-10500429D02*
X19920071Y-10435429D01*
X19855071Y-10370429D01*
X19790071Y-10435429D01*
X19855071Y-10500429D01*
D10*
X19790071Y-10375429D02*
X19790071Y-10495429D01*
X19920071Y-10495429D02*
G75*
G02*
X19790071Y-10495429I-65000J0D01*
G01*
X19920071Y-10495429D02*
X19920071Y-10375429D01*
X19920071Y-10375429D02*
G75*
G03*
X19790071Y-10375429I-65000J0D01*
G01*
D12*
X19855071Y-11900429D02*
X19920071Y-11835429D01*
X19855071Y-11770429D01*
X19790071Y-11835429D01*
X19855071Y-11900429D01*
D10*
X19790071Y-11775429D02*
X19790071Y-11895429D01*
X19920071Y-11895429D02*
G75*
G02*
X19790071Y-11895429I-65000J0D01*
G01*
X19920071Y-11895429D02*
X19920071Y-11775429D01*
X19920071Y-11775429D02*
G75*
G03*
X19790071Y-11775429I-65000J0D01*
G01*
D12*
X22640071Y-9295429D02*
X22705071Y-9230429D01*
X22640071Y-9165429D01*
X22575071Y-9230429D01*
X22640071Y-9295429D01*
X22640071Y-9676429D02*
X22705071Y-9611429D01*
X22640071Y-9546429D01*
X22575071Y-9611429D01*
X22640071Y-9676429D01*
X22640071Y-10057429D02*
X22705071Y-9992429D01*
X22640071Y-9927429D01*
X22575071Y-9992429D01*
X22640071Y-10057429D01*
X22640071Y-10438429D02*
X22705071Y-10373429D01*
X22640071Y-10308429D01*
X22575071Y-10373429D01*
X22640071Y-10438429D01*
X22640071Y-10819429D02*
X22705071Y-10754429D01*
X22640071Y-10689429D01*
X22575071Y-10754429D01*
X22640071Y-10819429D01*
X22640071Y-11200429D02*
X22705071Y-11135429D01*
X22640071Y-11070429D01*
X22575071Y-11135429D01*
X22640071Y-11200429D01*
X22640071Y-11581429D02*
X22705071Y-11516429D01*
X22640071Y-11451429D01*
X22575071Y-11516429D01*
X22640071Y-11581429D01*
X22640071Y-11962429D02*
X22705071Y-11897429D01*
X22640071Y-11832429D01*
X22575071Y-11897429D01*
X22640071Y-11962429D01*
X22640071Y-12343429D02*
X22705071Y-12278429D01*
X22640071Y-12213429D01*
X22575071Y-12278429D01*
X22640071Y-12343429D01*
X22640071Y-12724429D02*
X22705071Y-12659429D01*
X22640071Y-12594429D01*
X22575071Y-12659429D01*
X22640071Y-12724429D01*
X22640071Y-13105429D02*
X22705071Y-13040429D01*
X22640071Y-12975429D01*
X22575071Y-13040429D01*
X22640071Y-13105429D01*
X23150071Y-9485929D02*
X23215071Y-9420929D01*
X23150071Y-9355929D01*
X23085071Y-9420929D01*
X23150071Y-9485929D01*
X23150071Y-9866929D02*
X23215071Y-9801929D01*
X23150071Y-9736929D01*
X23085071Y-9801929D01*
X23150071Y-9866929D01*
X23150071Y-10247929D02*
X23215071Y-10182929D01*
X23150071Y-10117929D01*
X23085071Y-10182929D01*
X23150071Y-10247929D01*
X23150071Y-10628929D02*
X23215071Y-10563929D01*
X23150071Y-10498929D01*
X23085071Y-10563929D01*
X23150071Y-10628929D01*
X23150071Y-11009929D02*
X23215071Y-10944929D01*
X23150071Y-10879929D01*
X23085071Y-10944929D01*
X23150071Y-11009929D01*
X23150071Y-11390929D02*
X23215071Y-11325929D01*
X23150071Y-11260929D01*
X23085071Y-11325929D01*
X23150071Y-11390929D01*
X23150071Y-11771929D02*
X23215071Y-11706929D01*
X23150071Y-11641929D01*
X23085071Y-11706929D01*
X23150071Y-11771929D01*
X23150071Y-12152929D02*
X23215071Y-12087929D01*
X23150071Y-12022929D01*
X23085071Y-12087929D01*
X23150071Y-12152929D01*
X23150071Y-12533929D02*
X23215071Y-12468929D01*
X23150071Y-12403929D01*
X23085071Y-12468929D01*
X23150071Y-12533929D01*
X23150071Y-12914929D02*
X23215071Y-12849929D01*
X23150071Y-12784929D01*
X23085071Y-12849929D01*
X23150071Y-12914929D01*
D11*
X1505777Y-16616484D02*
X1505777Y-16416484D01*
X1505777Y-16416484D02*
X1553396Y-16416484D01*
X1553396Y-16416484D02*
X1581967Y-16426007D01*
X1581967Y-16426007D02*
X1601015Y-16445055D01*
X1601015Y-16445055D02*
X1610539Y-16464103D01*
X1610539Y-16464103D02*
X1620063Y-16502198D01*
X1620063Y-16502198D02*
X1620063Y-16530769D01*
X1620063Y-16530769D02*
X1610539Y-16568865D01*
X1610539Y-16568865D02*
X1601015Y-16587912D01*
X1601015Y-16587912D02*
X1581967Y-16606960D01*
X1581967Y-16606960D02*
X1553396Y-16616484D01*
X1553396Y-16616484D02*
X1505777Y-16616484D01*
X1705777Y-16616484D02*
X1705777Y-16483150D01*
X1705777Y-16521246D02*
X1715301Y-16502198D01*
X1715301Y-16502198D02*
X1724824Y-16492674D01*
X1724824Y-16492674D02*
X1743872Y-16483150D01*
X1743872Y-16483150D02*
X1762920Y-16483150D01*
X1829586Y-16616484D02*
X1829586Y-16483150D01*
X1829586Y-16416484D02*
X1820063Y-16426007D01*
X1820063Y-16426007D02*
X1829586Y-16435531D01*
X1829586Y-16435531D02*
X1839110Y-16426007D01*
X1839110Y-16426007D02*
X1829586Y-16416484D01*
X1829586Y-16416484D02*
X1829586Y-16435531D01*
X1953396Y-16616484D02*
X1934348Y-16606960D01*
X1934348Y-16606960D02*
X1924824Y-16587912D01*
X1924824Y-16587912D02*
X1924824Y-16416484D01*
X2058158Y-16616484D02*
X2039110Y-16606960D01*
X2039110Y-16606960D02*
X2029586Y-16587912D01*
X2029586Y-16587912D02*
X2029586Y-16416484D01*
X2286729Y-16616484D02*
X2286729Y-16416484D01*
X2286729Y-16416484D02*
X2353396Y-16559341D01*
X2353396Y-16559341D02*
X2420063Y-16416484D01*
X2420063Y-16416484D02*
X2420063Y-16616484D01*
X2601015Y-16616484D02*
X2601015Y-16511722D01*
X2601015Y-16511722D02*
X2591491Y-16492674D01*
X2591491Y-16492674D02*
X2572444Y-16483150D01*
X2572444Y-16483150D02*
X2534348Y-16483150D01*
X2534348Y-16483150D02*
X2515301Y-16492674D01*
X2601015Y-16606960D02*
X2581967Y-16616484D01*
X2581967Y-16616484D02*
X2534348Y-16616484D01*
X2534348Y-16616484D02*
X2515301Y-16606960D01*
X2515301Y-16606960D02*
X2505777Y-16587912D01*
X2505777Y-16587912D02*
X2505777Y-16568865D01*
X2505777Y-16568865D02*
X2515301Y-16549817D01*
X2515301Y-16549817D02*
X2534348Y-16540293D01*
X2534348Y-16540293D02*
X2581967Y-16540293D01*
X2581967Y-16540293D02*
X2601015Y-16530769D01*
X2696253Y-16483150D02*
X2696253Y-16683150D01*
X2696253Y-16492674D02*
X2715301Y-16483150D01*
X2715301Y-16483150D02*
X2753396Y-16483150D01*
X2753396Y-16483150D02*
X2772444Y-16492674D01*
X2772444Y-16492674D02*
X2781967Y-16502198D01*
X2781967Y-16502198D02*
X2791491Y-16521246D01*
X2791491Y-16521246D02*
X2791491Y-16578388D01*
X2791491Y-16578388D02*
X2781967Y-16597436D01*
X2781967Y-16597436D02*
X2772444Y-16606960D01*
X2772444Y-16606960D02*
X2753396Y-16616484D01*
X2753396Y-16616484D02*
X2715301Y-16616484D01*
X2715301Y-16616484D02*
X2696253Y-16606960D01*
X2877205Y-16597436D02*
X2886729Y-16606960D01*
X2886729Y-16606960D02*
X2877205Y-16616484D01*
X2877205Y-16616484D02*
X2867682Y-16606960D01*
X2867682Y-16606960D02*
X2877205Y-16597436D01*
X2877205Y-16597436D02*
X2877205Y-16616484D01*
X2877205Y-16492674D02*
X2886729Y-16502198D01*
X2886729Y-16502198D02*
X2877205Y-16511722D01*
X2877205Y-16511722D02*
X2867682Y-16502198D01*
X2867682Y-16502198D02*
X2877205Y-16492674D01*
X2877205Y-16492674D02*
X2877205Y-16511722D01*
D10*
X1205000Y-16925000D02*
X1245000Y-16965000D01*
X1245000Y-16925000D02*
X1205000Y-16965000D01*
D11*
X1543872Y-16836484D02*
X1562920Y-16836484D01*
X1562920Y-16836484D02*
X1581967Y-16846008D01*
X1581967Y-16846008D02*
X1591491Y-16855531D01*
X1591491Y-16855531D02*
X1601015Y-16874579D01*
X1601015Y-16874579D02*
X1610539Y-16912674D01*
X1610539Y-16912674D02*
X1610539Y-16960293D01*
X1610539Y-16960293D02*
X1601015Y-16998388D01*
X1601015Y-16998388D02*
X1591491Y-17017436D01*
X1591491Y-17017436D02*
X1581967Y-17026960D01*
X1581967Y-17026960D02*
X1562920Y-17036484D01*
X1562920Y-17036484D02*
X1543872Y-17036484D01*
X1543872Y-17036484D02*
X1524824Y-17026960D01*
X1524824Y-17026960D02*
X1515301Y-17017436D01*
X1515301Y-17017436D02*
X1505777Y-16998388D01*
X1505777Y-16998388D02*
X1496253Y-16960293D01*
X1496253Y-16960293D02*
X1496253Y-16912674D01*
X1496253Y-16912674D02*
X1505777Y-16874579D01*
X1505777Y-16874579D02*
X1515301Y-16855531D01*
X1515301Y-16855531D02*
X1524824Y-16846008D01*
X1524824Y-16846008D02*
X1543872Y-16836484D01*
X1696253Y-17017436D02*
X1705777Y-17026960D01*
X1705777Y-17026960D02*
X1696253Y-17036484D01*
X1696253Y-17036484D02*
X1686729Y-17026960D01*
X1686729Y-17026960D02*
X1696253Y-17017436D01*
X1696253Y-17017436D02*
X1696253Y-17036484D01*
X1877205Y-16903150D02*
X1877205Y-17036484D01*
X1829586Y-16826960D02*
X1781967Y-16969817D01*
X1781967Y-16969817D02*
X1905777Y-16969817D01*
X2020063Y-16836484D02*
X2039110Y-16836484D01*
X2039110Y-16836484D02*
X2058158Y-16846008D01*
X2058158Y-16846008D02*
X2067682Y-16855531D01*
X2067682Y-16855531D02*
X2077205Y-16874579D01*
X2077205Y-16874579D02*
X2086729Y-16912674D01*
X2086729Y-16912674D02*
X2086729Y-16960293D01*
X2086729Y-16960293D02*
X2077205Y-16998388D01*
X2077205Y-16998388D02*
X2067682Y-17017436D01*
X2067682Y-17017436D02*
X2058158Y-17026960D01*
X2058158Y-17026960D02*
X2039110Y-17036484D01*
X2039110Y-17036484D02*
X2020063Y-17036484D01*
X2020063Y-17036484D02*
X2001015Y-17026960D01*
X2001015Y-17026960D02*
X1991491Y-17017436D01*
X1991491Y-17017436D02*
X1981967Y-16998388D01*
X1981967Y-16998388D02*
X1972444Y-16960293D01*
X1972444Y-16960293D02*
X1972444Y-16912674D01*
X1972444Y-16912674D02*
X1981967Y-16874579D01*
X1981967Y-16874579D02*
X1991491Y-16855531D01*
X1991491Y-16855531D02*
X2001015Y-16846008D01*
X2001015Y-16846008D02*
X2020063Y-16836484D01*
X2210539Y-16836484D02*
X2229587Y-16836484D01*
X2229587Y-16836484D02*
X2248634Y-16846008D01*
X2248634Y-16846008D02*
X2258158Y-16855531D01*
X2258158Y-16855531D02*
X2267682Y-16874579D01*
X2267682Y-16874579D02*
X2277206Y-16912674D01*
X2277206Y-16912674D02*
X2277206Y-16960293D01*
X2277206Y-16960293D02*
X2267682Y-16998388D01*
X2267682Y-16998388D02*
X2258158Y-17017436D01*
X2258158Y-17017436D02*
X2248634Y-17026960D01*
X2248634Y-17026960D02*
X2229587Y-17036484D01*
X2229587Y-17036484D02*
X2210539Y-17036484D01*
X2210539Y-17036484D02*
X2191491Y-17026960D01*
X2191491Y-17026960D02*
X2181967Y-17017436D01*
X2181967Y-17017436D02*
X2172444Y-16998388D01*
X2172444Y-16998388D02*
X2162920Y-16960293D01*
X2162920Y-16960293D02*
X2162920Y-16912674D01*
X2162920Y-16912674D02*
X2172444Y-16874579D01*
X2172444Y-16874579D02*
X2181967Y-16855531D01*
X2181967Y-16855531D02*
X2191491Y-16846008D01*
X2191491Y-16846008D02*
X2210539Y-16836484D01*
X2362920Y-17036484D02*
X2362920Y-16903150D01*
X2362920Y-16922198D02*
X2372444Y-16912674D01*
X2372444Y-16912674D02*
X2391491Y-16903150D01*
X2391491Y-16903150D02*
X2420063Y-16903150D01*
X2420063Y-16903150D02*
X2439110Y-16912674D01*
X2439110Y-16912674D02*
X2448634Y-16931722D01*
X2448634Y-16931722D02*
X2448634Y-17036484D01*
X2448634Y-16931722D02*
X2458158Y-16912674D01*
X2458158Y-16912674D02*
X2477206Y-16903150D01*
X2477206Y-16903150D02*
X2505777Y-16903150D01*
X2505777Y-16903150D02*
X2524825Y-16912674D01*
X2524825Y-16912674D02*
X2534348Y-16931722D01*
X2534348Y-16931722D02*
X2534348Y-17036484D01*
X2629587Y-17036484D02*
X2629587Y-16903150D01*
X2629587Y-16922198D02*
X2639110Y-16912674D01*
X2639110Y-16912674D02*
X2658158Y-16903150D01*
X2658158Y-16903150D02*
X2686729Y-16903150D01*
X2686729Y-16903150D02*
X2705777Y-16912674D01*
X2705777Y-16912674D02*
X2715301Y-16931722D01*
X2715301Y-16931722D02*
X2715301Y-17036484D01*
X2715301Y-16931722D02*
X2724825Y-16912674D01*
X2724825Y-16912674D02*
X2743872Y-16903150D01*
X2743872Y-16903150D02*
X2772444Y-16903150D01*
X2772444Y-16903150D02*
X2791491Y-16912674D01*
X2791491Y-16912674D02*
X2801015Y-16931722D01*
X2801015Y-16931722D02*
X2801015Y-17036484D01*
X3191491Y-16826960D02*
X3020063Y-17084103D01*
X3448634Y-16836484D02*
X3467682Y-16836484D01*
X3467682Y-16836484D02*
X3486729Y-16846008D01*
X3486729Y-16846008D02*
X3496253Y-16855531D01*
X3496253Y-16855531D02*
X3505777Y-16874579D01*
X3505777Y-16874579D02*
X3515301Y-16912674D01*
X3515301Y-16912674D02*
X3515301Y-16960293D01*
X3515301Y-16960293D02*
X3505777Y-16998388D01*
X3505777Y-16998388D02*
X3496253Y-17017436D01*
X3496253Y-17017436D02*
X3486729Y-17026960D01*
X3486729Y-17026960D02*
X3467682Y-17036484D01*
X3467682Y-17036484D02*
X3448634Y-17036484D01*
X3448634Y-17036484D02*
X3429587Y-17026960D01*
X3429587Y-17026960D02*
X3420063Y-17017436D01*
X3420063Y-17017436D02*
X3410539Y-16998388D01*
X3410539Y-16998388D02*
X3401015Y-16960293D01*
X3401015Y-16960293D02*
X3401015Y-16912674D01*
X3401015Y-16912674D02*
X3410539Y-16874579D01*
X3410539Y-16874579D02*
X3420063Y-16855531D01*
X3420063Y-16855531D02*
X3429587Y-16846008D01*
X3429587Y-16846008D02*
X3448634Y-16836484D01*
X3601015Y-17017436D02*
X3610539Y-17026960D01*
X3610539Y-17026960D02*
X3601015Y-17036484D01*
X3601015Y-17036484D02*
X3591491Y-17026960D01*
X3591491Y-17026960D02*
X3601015Y-17017436D01*
X3601015Y-17017436D02*
X3601015Y-17036484D01*
X3734348Y-16836484D02*
X3753396Y-16836484D01*
X3753396Y-16836484D02*
X3772444Y-16846008D01*
X3772444Y-16846008D02*
X3781968Y-16855531D01*
X3781968Y-16855531D02*
X3791491Y-16874579D01*
X3791491Y-16874579D02*
X3801015Y-16912674D01*
X3801015Y-16912674D02*
X3801015Y-16960293D01*
X3801015Y-16960293D02*
X3791491Y-16998388D01*
X3791491Y-16998388D02*
X3781968Y-17017436D01*
X3781968Y-17017436D02*
X3772444Y-17026960D01*
X3772444Y-17026960D02*
X3753396Y-17036484D01*
X3753396Y-17036484D02*
X3734348Y-17036484D01*
X3734348Y-17036484D02*
X3715301Y-17026960D01*
X3715301Y-17026960D02*
X3705777Y-17017436D01*
X3705777Y-17017436D02*
X3696253Y-16998388D01*
X3696253Y-16998388D02*
X3686729Y-16960293D01*
X3686729Y-16960293D02*
X3686729Y-16912674D01*
X3686729Y-16912674D02*
X3696253Y-16874579D01*
X3696253Y-16874579D02*
X3705777Y-16855531D01*
X3705777Y-16855531D02*
X3715301Y-16846008D01*
X3715301Y-16846008D02*
X3734348Y-16836484D01*
X3991491Y-17036484D02*
X3877206Y-17036484D01*
X3934348Y-17036484D02*
X3934348Y-16836484D01*
X3934348Y-16836484D02*
X3915301Y-16865055D01*
X3915301Y-16865055D02*
X3896253Y-16884103D01*
X3896253Y-16884103D02*
X3877206Y-16893627D01*
X4172444Y-16836484D02*
X4077206Y-16836484D01*
X4077206Y-16836484D02*
X4067682Y-16931722D01*
X4067682Y-16931722D02*
X4077206Y-16922198D01*
X4077206Y-16922198D02*
X4096253Y-16912674D01*
X4096253Y-16912674D02*
X4143872Y-16912674D01*
X4143872Y-16912674D02*
X4162920Y-16922198D01*
X4162920Y-16922198D02*
X4172444Y-16931722D01*
X4172444Y-16931722D02*
X4181968Y-16950769D01*
X4181968Y-16950769D02*
X4181968Y-16998388D01*
X4181968Y-16998388D02*
X4172444Y-17017436D01*
X4172444Y-17017436D02*
X4162920Y-17026960D01*
X4162920Y-17026960D02*
X4143872Y-17036484D01*
X4143872Y-17036484D02*
X4096253Y-17036484D01*
X4096253Y-17036484D02*
X4077206Y-17026960D01*
X4077206Y-17026960D02*
X4067682Y-17017436D01*
X4248634Y-16836484D02*
X4381968Y-16836484D01*
X4381968Y-16836484D02*
X4296253Y-17036484D01*
X4448634Y-16836484D02*
X4448634Y-16874579D01*
X4524825Y-16836484D02*
X4524825Y-16874579D01*
X4820063Y-17112674D02*
X4810539Y-17103150D01*
X4810539Y-17103150D02*
X4791492Y-17074579D01*
X4791492Y-17074579D02*
X4781968Y-17055531D01*
X4781968Y-17055531D02*
X4772444Y-17026960D01*
X4772444Y-17026960D02*
X4762920Y-16979341D01*
X4762920Y-16979341D02*
X4762920Y-16941246D01*
X4762920Y-16941246D02*
X4772444Y-16893627D01*
X4772444Y-16893627D02*
X4781968Y-16865055D01*
X4781968Y-16865055D02*
X4791492Y-16846008D01*
X4791492Y-16846008D02*
X4810539Y-16817436D01*
X4810539Y-16817436D02*
X4820063Y-16807912D01*
X4981968Y-16836484D02*
X4943872Y-16836484D01*
X4943872Y-16836484D02*
X4924825Y-16846008D01*
X4924825Y-16846008D02*
X4915301Y-16855531D01*
X4915301Y-16855531D02*
X4896253Y-16884103D01*
X4896253Y-16884103D02*
X4886730Y-16922198D01*
X4886730Y-16922198D02*
X4886730Y-16998388D01*
X4886730Y-16998388D02*
X4896253Y-17017436D01*
X4896253Y-17017436D02*
X4905777Y-17026960D01*
X4905777Y-17026960D02*
X4924825Y-17036484D01*
X4924825Y-17036484D02*
X4962920Y-17036484D01*
X4962920Y-17036484D02*
X4981968Y-17026960D01*
X4981968Y-17026960D02*
X4991492Y-17017436D01*
X4991492Y-17017436D02*
X5001015Y-16998388D01*
X5001015Y-16998388D02*
X5001015Y-16950769D01*
X5001015Y-16950769D02*
X4991492Y-16931722D01*
X4991492Y-16931722D02*
X4981968Y-16922198D01*
X4981968Y-16922198D02*
X4962920Y-16912674D01*
X4962920Y-16912674D02*
X4924825Y-16912674D01*
X4924825Y-16912674D02*
X4905777Y-16922198D01*
X4905777Y-16922198D02*
X4896253Y-16931722D01*
X4896253Y-16931722D02*
X4886730Y-16950769D01*
X5067682Y-16836484D02*
X5201015Y-16836484D01*
X5201015Y-16836484D02*
X5115301Y-17036484D01*
X5305777Y-16922198D02*
X5286730Y-16912674D01*
X5286730Y-16912674D02*
X5277206Y-16903150D01*
X5277206Y-16903150D02*
X5267682Y-16884103D01*
X5267682Y-16884103D02*
X5267682Y-16874579D01*
X5267682Y-16874579D02*
X5277206Y-16855531D01*
X5277206Y-16855531D02*
X5286730Y-16846008D01*
X5286730Y-16846008D02*
X5305777Y-16836484D01*
X5305777Y-16836484D02*
X5343873Y-16836484D01*
X5343873Y-16836484D02*
X5362920Y-16846008D01*
X5362920Y-16846008D02*
X5372444Y-16855531D01*
X5372444Y-16855531D02*
X5381968Y-16874579D01*
X5381968Y-16874579D02*
X5381968Y-16884103D01*
X5381968Y-16884103D02*
X5372444Y-16903150D01*
X5372444Y-16903150D02*
X5362920Y-16912674D01*
X5362920Y-16912674D02*
X5343873Y-16922198D01*
X5343873Y-16922198D02*
X5305777Y-16922198D01*
X5305777Y-16922198D02*
X5286730Y-16931722D01*
X5286730Y-16931722D02*
X5277206Y-16941246D01*
X5277206Y-16941246D02*
X5267682Y-16960293D01*
X5267682Y-16960293D02*
X5267682Y-16998388D01*
X5267682Y-16998388D02*
X5277206Y-17017436D01*
X5277206Y-17017436D02*
X5286730Y-17026960D01*
X5286730Y-17026960D02*
X5305777Y-17036484D01*
X5305777Y-17036484D02*
X5343873Y-17036484D01*
X5343873Y-17036484D02*
X5362920Y-17026960D01*
X5362920Y-17026960D02*
X5372444Y-17017436D01*
X5372444Y-17017436D02*
X5381968Y-16998388D01*
X5381968Y-16998388D02*
X5381968Y-16960293D01*
X5381968Y-16960293D02*
X5372444Y-16941246D01*
X5372444Y-16941246D02*
X5362920Y-16931722D01*
X5362920Y-16931722D02*
X5343873Y-16922198D01*
X5620063Y-17036484D02*
X5620063Y-16836484D01*
X5705777Y-17036484D02*
X5705777Y-16931722D01*
X5705777Y-16931722D02*
X5696253Y-16912674D01*
X5696253Y-16912674D02*
X5677206Y-16903150D01*
X5677206Y-16903150D02*
X5648634Y-16903150D01*
X5648634Y-16903150D02*
X5629587Y-16912674D01*
X5629587Y-16912674D02*
X5620063Y-16922198D01*
X5829587Y-17036484D02*
X5810539Y-17026960D01*
X5810539Y-17026960D02*
X5801015Y-17017436D01*
X5801015Y-17017436D02*
X5791492Y-16998388D01*
X5791492Y-16998388D02*
X5791492Y-16941246D01*
X5791492Y-16941246D02*
X5801015Y-16922198D01*
X5801015Y-16922198D02*
X5810539Y-16912674D01*
X5810539Y-16912674D02*
X5829587Y-16903150D01*
X5829587Y-16903150D02*
X5858158Y-16903150D01*
X5858158Y-16903150D02*
X5877206Y-16912674D01*
X5877206Y-16912674D02*
X5886730Y-16922198D01*
X5886730Y-16922198D02*
X5896253Y-16941246D01*
X5896253Y-16941246D02*
X5896253Y-16998388D01*
X5896253Y-16998388D02*
X5886730Y-17017436D01*
X5886730Y-17017436D02*
X5877206Y-17026960D01*
X5877206Y-17026960D02*
X5858158Y-17036484D01*
X5858158Y-17036484D02*
X5829587Y-17036484D01*
X6010539Y-17036484D02*
X5991492Y-17026960D01*
X5991492Y-17026960D02*
X5981968Y-17007912D01*
X5981968Y-17007912D02*
X5981968Y-16836484D01*
X6162920Y-17026960D02*
X6143873Y-17036484D01*
X6143873Y-17036484D02*
X6105777Y-17036484D01*
X6105777Y-17036484D02*
X6086730Y-17026960D01*
X6086730Y-17026960D02*
X6077206Y-17007912D01*
X6077206Y-17007912D02*
X6077206Y-16931722D01*
X6077206Y-16931722D02*
X6086730Y-16912674D01*
X6086730Y-16912674D02*
X6105777Y-16903150D01*
X6105777Y-16903150D02*
X6143873Y-16903150D01*
X6143873Y-16903150D02*
X6162920Y-16912674D01*
X6162920Y-16912674D02*
X6172444Y-16931722D01*
X6172444Y-16931722D02*
X6172444Y-16950769D01*
X6172444Y-16950769D02*
X6077206Y-16969817D01*
X6248634Y-17026960D02*
X6267682Y-17036484D01*
X6267682Y-17036484D02*
X6305777Y-17036484D01*
X6305777Y-17036484D02*
X6324825Y-17026960D01*
X6324825Y-17026960D02*
X6334349Y-17007912D01*
X6334349Y-17007912D02*
X6334349Y-16998388D01*
X6334349Y-16998388D02*
X6324825Y-16979341D01*
X6324825Y-16979341D02*
X6305777Y-16969817D01*
X6305777Y-16969817D02*
X6277206Y-16969817D01*
X6277206Y-16969817D02*
X6258158Y-16960293D01*
X6258158Y-16960293D02*
X6248634Y-16941246D01*
X6248634Y-16941246D02*
X6248634Y-16931722D01*
X6248634Y-16931722D02*
X6258158Y-16912674D01*
X6258158Y-16912674D02*
X6277206Y-16903150D01*
X6277206Y-16903150D02*
X6305777Y-16903150D01*
X6305777Y-16903150D02*
X6324825Y-16912674D01*
X6401015Y-17112674D02*
X6410539Y-17103150D01*
X6410539Y-17103150D02*
X6429587Y-17074579D01*
X6429587Y-17074579D02*
X6439111Y-17055531D01*
X6439111Y-17055531D02*
X6448634Y-17026960D01*
X6448634Y-17026960D02*
X6458158Y-16979341D01*
X6458158Y-16979341D02*
X6458158Y-16941246D01*
X6458158Y-16941246D02*
X6448634Y-16893627D01*
X6448634Y-16893627D02*
X6439111Y-16865055D01*
X6439111Y-16865055D02*
X6429587Y-16846008D01*
X6429587Y-16846008D02*
X6410539Y-16817436D01*
X6410539Y-16817436D02*
X6401015Y-16807912D01*
D10*
X1245000Y-17209000D02*
G75*
G02*
X1185000Y-17209000I-30000J0D01*
G01*
X1185000Y-17209000D02*
G75*
G02*
X1245000Y-17209000I30000J0D01*
G01*
D11*
X1543872Y-17100484D02*
X1562920Y-17100484D01*
X1562920Y-17100484D02*
X1581967Y-17110008D01*
X1581967Y-17110008D02*
X1591491Y-17119531D01*
X1591491Y-17119531D02*
X1601015Y-17138579D01*
X1601015Y-17138579D02*
X1610539Y-17176674D01*
X1610539Y-17176674D02*
X1610539Y-17224293D01*
X1610539Y-17224293D02*
X1601015Y-17262388D01*
X1601015Y-17262388D02*
X1591491Y-17281436D01*
X1591491Y-17281436D02*
X1581967Y-17290960D01*
X1581967Y-17290960D02*
X1562920Y-17300484D01*
X1562920Y-17300484D02*
X1543872Y-17300484D01*
X1543872Y-17300484D02*
X1524824Y-17290960D01*
X1524824Y-17290960D02*
X1515301Y-17281436D01*
X1515301Y-17281436D02*
X1505777Y-17262388D01*
X1505777Y-17262388D02*
X1496253Y-17224293D01*
X1496253Y-17224293D02*
X1496253Y-17176674D01*
X1496253Y-17176674D02*
X1505777Y-17138579D01*
X1505777Y-17138579D02*
X1515301Y-17119531D01*
X1515301Y-17119531D02*
X1524824Y-17110008D01*
X1524824Y-17110008D02*
X1543872Y-17100484D01*
X1696253Y-17281436D02*
X1705777Y-17290960D01*
X1705777Y-17290960D02*
X1696253Y-17300484D01*
X1696253Y-17300484D02*
X1686729Y-17290960D01*
X1686729Y-17290960D02*
X1696253Y-17281436D01*
X1696253Y-17281436D02*
X1696253Y-17300484D01*
X1877205Y-17100484D02*
X1839110Y-17100484D01*
X1839110Y-17100484D02*
X1820063Y-17110008D01*
X1820063Y-17110008D02*
X1810539Y-17119531D01*
X1810539Y-17119531D02*
X1791491Y-17148103D01*
X1791491Y-17148103D02*
X1781967Y-17186198D01*
X1781967Y-17186198D02*
X1781967Y-17262388D01*
X1781967Y-17262388D02*
X1791491Y-17281436D01*
X1791491Y-17281436D02*
X1801015Y-17290960D01*
X1801015Y-17290960D02*
X1820063Y-17300484D01*
X1820063Y-17300484D02*
X1858158Y-17300484D01*
X1858158Y-17300484D02*
X1877205Y-17290960D01*
X1877205Y-17290960D02*
X1886729Y-17281436D01*
X1886729Y-17281436D02*
X1896253Y-17262388D01*
X1896253Y-17262388D02*
X1896253Y-17214769D01*
X1896253Y-17214769D02*
X1886729Y-17195722D01*
X1886729Y-17195722D02*
X1877205Y-17186198D01*
X1877205Y-17186198D02*
X1858158Y-17176674D01*
X1858158Y-17176674D02*
X1820063Y-17176674D01*
X1820063Y-17176674D02*
X1801015Y-17186198D01*
X1801015Y-17186198D02*
X1791491Y-17195722D01*
X1791491Y-17195722D02*
X1781967Y-17214769D01*
X2020063Y-17100484D02*
X2039110Y-17100484D01*
X2039110Y-17100484D02*
X2058158Y-17110008D01*
X2058158Y-17110008D02*
X2067682Y-17119531D01*
X2067682Y-17119531D02*
X2077205Y-17138579D01*
X2077205Y-17138579D02*
X2086729Y-17176674D01*
X2086729Y-17176674D02*
X2086729Y-17224293D01*
X2086729Y-17224293D02*
X2077205Y-17262388D01*
X2077205Y-17262388D02*
X2067682Y-17281436D01*
X2067682Y-17281436D02*
X2058158Y-17290960D01*
X2058158Y-17290960D02*
X2039110Y-17300484D01*
X2039110Y-17300484D02*
X2020063Y-17300484D01*
X2020063Y-17300484D02*
X2001015Y-17290960D01*
X2001015Y-17290960D02*
X1991491Y-17281436D01*
X1991491Y-17281436D02*
X1981967Y-17262388D01*
X1981967Y-17262388D02*
X1972444Y-17224293D01*
X1972444Y-17224293D02*
X1972444Y-17176674D01*
X1972444Y-17176674D02*
X1981967Y-17138579D01*
X1981967Y-17138579D02*
X1991491Y-17119531D01*
X1991491Y-17119531D02*
X2001015Y-17110008D01*
X2001015Y-17110008D02*
X2020063Y-17100484D01*
X2210539Y-17100484D02*
X2229587Y-17100484D01*
X2229587Y-17100484D02*
X2248634Y-17110008D01*
X2248634Y-17110008D02*
X2258158Y-17119531D01*
X2258158Y-17119531D02*
X2267682Y-17138579D01*
X2267682Y-17138579D02*
X2277206Y-17176674D01*
X2277206Y-17176674D02*
X2277206Y-17224293D01*
X2277206Y-17224293D02*
X2267682Y-17262388D01*
X2267682Y-17262388D02*
X2258158Y-17281436D01*
X2258158Y-17281436D02*
X2248634Y-17290960D01*
X2248634Y-17290960D02*
X2229587Y-17300484D01*
X2229587Y-17300484D02*
X2210539Y-17300484D01*
X2210539Y-17300484D02*
X2191491Y-17290960D01*
X2191491Y-17290960D02*
X2181967Y-17281436D01*
X2181967Y-17281436D02*
X2172444Y-17262388D01*
X2172444Y-17262388D02*
X2162920Y-17224293D01*
X2162920Y-17224293D02*
X2162920Y-17176674D01*
X2162920Y-17176674D02*
X2172444Y-17138579D01*
X2172444Y-17138579D02*
X2181967Y-17119531D01*
X2181967Y-17119531D02*
X2191491Y-17110008D01*
X2191491Y-17110008D02*
X2210539Y-17100484D01*
X2362920Y-17300484D02*
X2362920Y-17167150D01*
X2362920Y-17186198D02*
X2372444Y-17176674D01*
X2372444Y-17176674D02*
X2391491Y-17167150D01*
X2391491Y-17167150D02*
X2420063Y-17167150D01*
X2420063Y-17167150D02*
X2439110Y-17176674D01*
X2439110Y-17176674D02*
X2448634Y-17195722D01*
X2448634Y-17195722D02*
X2448634Y-17300484D01*
X2448634Y-17195722D02*
X2458158Y-17176674D01*
X2458158Y-17176674D02*
X2477206Y-17167150D01*
X2477206Y-17167150D02*
X2505777Y-17167150D01*
X2505777Y-17167150D02*
X2524825Y-17176674D01*
X2524825Y-17176674D02*
X2534348Y-17195722D01*
X2534348Y-17195722D02*
X2534348Y-17300484D01*
X2629587Y-17300484D02*
X2629587Y-17167150D01*
X2629587Y-17186198D02*
X2639110Y-17176674D01*
X2639110Y-17176674D02*
X2658158Y-17167150D01*
X2658158Y-17167150D02*
X2686729Y-17167150D01*
X2686729Y-17167150D02*
X2705777Y-17176674D01*
X2705777Y-17176674D02*
X2715301Y-17195722D01*
X2715301Y-17195722D02*
X2715301Y-17300484D01*
X2715301Y-17195722D02*
X2724825Y-17176674D01*
X2724825Y-17176674D02*
X2743872Y-17167150D01*
X2743872Y-17167150D02*
X2772444Y-17167150D01*
X2772444Y-17167150D02*
X2791491Y-17176674D01*
X2791491Y-17176674D02*
X2801015Y-17195722D01*
X2801015Y-17195722D02*
X2801015Y-17300484D01*
X3191491Y-17090960D02*
X3020063Y-17348103D01*
X3448634Y-17100484D02*
X3467682Y-17100484D01*
X3467682Y-17100484D02*
X3486729Y-17110008D01*
X3486729Y-17110008D02*
X3496253Y-17119531D01*
X3496253Y-17119531D02*
X3505777Y-17138579D01*
X3505777Y-17138579D02*
X3515301Y-17176674D01*
X3515301Y-17176674D02*
X3515301Y-17224293D01*
X3515301Y-17224293D02*
X3505777Y-17262388D01*
X3505777Y-17262388D02*
X3496253Y-17281436D01*
X3496253Y-17281436D02*
X3486729Y-17290960D01*
X3486729Y-17290960D02*
X3467682Y-17300484D01*
X3467682Y-17300484D02*
X3448634Y-17300484D01*
X3448634Y-17300484D02*
X3429587Y-17290960D01*
X3429587Y-17290960D02*
X3420063Y-17281436D01*
X3420063Y-17281436D02*
X3410539Y-17262388D01*
X3410539Y-17262388D02*
X3401015Y-17224293D01*
X3401015Y-17224293D02*
X3401015Y-17176674D01*
X3401015Y-17176674D02*
X3410539Y-17138579D01*
X3410539Y-17138579D02*
X3420063Y-17119531D01*
X3420063Y-17119531D02*
X3429587Y-17110008D01*
X3429587Y-17110008D02*
X3448634Y-17100484D01*
X3601015Y-17281436D02*
X3610539Y-17290960D01*
X3610539Y-17290960D02*
X3601015Y-17300484D01*
X3601015Y-17300484D02*
X3591491Y-17290960D01*
X3591491Y-17290960D02*
X3601015Y-17281436D01*
X3601015Y-17281436D02*
X3601015Y-17300484D01*
X3734348Y-17100484D02*
X3753396Y-17100484D01*
X3753396Y-17100484D02*
X3772444Y-17110008D01*
X3772444Y-17110008D02*
X3781968Y-17119531D01*
X3781968Y-17119531D02*
X3791491Y-17138579D01*
X3791491Y-17138579D02*
X3801015Y-17176674D01*
X3801015Y-17176674D02*
X3801015Y-17224293D01*
X3801015Y-17224293D02*
X3791491Y-17262388D01*
X3791491Y-17262388D02*
X3781968Y-17281436D01*
X3781968Y-17281436D02*
X3772444Y-17290960D01*
X3772444Y-17290960D02*
X3753396Y-17300484D01*
X3753396Y-17300484D02*
X3734348Y-17300484D01*
X3734348Y-17300484D02*
X3715301Y-17290960D01*
X3715301Y-17290960D02*
X3705777Y-17281436D01*
X3705777Y-17281436D02*
X3696253Y-17262388D01*
X3696253Y-17262388D02*
X3686729Y-17224293D01*
X3686729Y-17224293D02*
X3686729Y-17176674D01*
X3686729Y-17176674D02*
X3696253Y-17138579D01*
X3696253Y-17138579D02*
X3705777Y-17119531D01*
X3705777Y-17119531D02*
X3715301Y-17110008D01*
X3715301Y-17110008D02*
X3734348Y-17100484D01*
X3877206Y-17119531D02*
X3886729Y-17110008D01*
X3886729Y-17110008D02*
X3905777Y-17100484D01*
X3905777Y-17100484D02*
X3953396Y-17100484D01*
X3953396Y-17100484D02*
X3972444Y-17110008D01*
X3972444Y-17110008D02*
X3981968Y-17119531D01*
X3981968Y-17119531D02*
X3991491Y-17138579D01*
X3991491Y-17138579D02*
X3991491Y-17157627D01*
X3991491Y-17157627D02*
X3981968Y-17186198D01*
X3981968Y-17186198D02*
X3867682Y-17300484D01*
X3867682Y-17300484D02*
X3991491Y-17300484D01*
X4058158Y-17100484D02*
X4181968Y-17100484D01*
X4181968Y-17100484D02*
X4115301Y-17176674D01*
X4115301Y-17176674D02*
X4143872Y-17176674D01*
X4143872Y-17176674D02*
X4162920Y-17186198D01*
X4162920Y-17186198D02*
X4172444Y-17195722D01*
X4172444Y-17195722D02*
X4181968Y-17214769D01*
X4181968Y-17214769D02*
X4181968Y-17262388D01*
X4181968Y-17262388D02*
X4172444Y-17281436D01*
X4172444Y-17281436D02*
X4162920Y-17290960D01*
X4162920Y-17290960D02*
X4143872Y-17300484D01*
X4143872Y-17300484D02*
X4086729Y-17300484D01*
X4086729Y-17300484D02*
X4067682Y-17290960D01*
X4067682Y-17290960D02*
X4058158Y-17281436D01*
X4353396Y-17100484D02*
X4315301Y-17100484D01*
X4315301Y-17100484D02*
X4296253Y-17110008D01*
X4296253Y-17110008D02*
X4286730Y-17119531D01*
X4286730Y-17119531D02*
X4267682Y-17148103D01*
X4267682Y-17148103D02*
X4258158Y-17186198D01*
X4258158Y-17186198D02*
X4258158Y-17262388D01*
X4258158Y-17262388D02*
X4267682Y-17281436D01*
X4267682Y-17281436D02*
X4277206Y-17290960D01*
X4277206Y-17290960D02*
X4296253Y-17300484D01*
X4296253Y-17300484D02*
X4334349Y-17300484D01*
X4334349Y-17300484D02*
X4353396Y-17290960D01*
X4353396Y-17290960D02*
X4362920Y-17281436D01*
X4362920Y-17281436D02*
X4372444Y-17262388D01*
X4372444Y-17262388D02*
X4372444Y-17214769D01*
X4372444Y-17214769D02*
X4362920Y-17195722D01*
X4362920Y-17195722D02*
X4353396Y-17186198D01*
X4353396Y-17186198D02*
X4334349Y-17176674D01*
X4334349Y-17176674D02*
X4296253Y-17176674D01*
X4296253Y-17176674D02*
X4277206Y-17186198D01*
X4277206Y-17186198D02*
X4267682Y-17195722D01*
X4267682Y-17195722D02*
X4258158Y-17214769D01*
X4448634Y-17100484D02*
X4448634Y-17138579D01*
X4524825Y-17100484D02*
X4524825Y-17138579D01*
X4820063Y-17376674D02*
X4810539Y-17367150D01*
X4810539Y-17367150D02*
X4791492Y-17338579D01*
X4791492Y-17338579D02*
X4781968Y-17319531D01*
X4781968Y-17319531D02*
X4772444Y-17290960D01*
X4772444Y-17290960D02*
X4762920Y-17243341D01*
X4762920Y-17243341D02*
X4762920Y-17205246D01*
X4762920Y-17205246D02*
X4772444Y-17157627D01*
X4772444Y-17157627D02*
X4781968Y-17129055D01*
X4781968Y-17129055D02*
X4791492Y-17110008D01*
X4791492Y-17110008D02*
X4810539Y-17081436D01*
X4810539Y-17081436D02*
X4820063Y-17071912D01*
X4886730Y-17119531D02*
X4896253Y-17110008D01*
X4896253Y-17110008D02*
X4915301Y-17100484D01*
X4915301Y-17100484D02*
X4962920Y-17100484D01*
X4962920Y-17100484D02*
X4981968Y-17110008D01*
X4981968Y-17110008D02*
X4991492Y-17119531D01*
X4991492Y-17119531D02*
X5001015Y-17138579D01*
X5001015Y-17138579D02*
X5001015Y-17157627D01*
X5001015Y-17157627D02*
X4991492Y-17186198D01*
X4991492Y-17186198D02*
X4877206Y-17300484D01*
X4877206Y-17300484D02*
X5001015Y-17300484D01*
X5172444Y-17167150D02*
X5172444Y-17300484D01*
X5124825Y-17090960D02*
X5077206Y-17233817D01*
X5077206Y-17233817D02*
X5201015Y-17233817D01*
X5429587Y-17300484D02*
X5429587Y-17100484D01*
X5515301Y-17300484D02*
X5515301Y-17195722D01*
X5515301Y-17195722D02*
X5505777Y-17176674D01*
X5505777Y-17176674D02*
X5486730Y-17167150D01*
X5486730Y-17167150D02*
X5458158Y-17167150D01*
X5458158Y-17167150D02*
X5439111Y-17176674D01*
X5439111Y-17176674D02*
X5429587Y-17186198D01*
X5639111Y-17300484D02*
X5620063Y-17290960D01*
X5620063Y-17290960D02*
X5610539Y-17281436D01*
X5610539Y-17281436D02*
X5601015Y-17262388D01*
X5601015Y-17262388D02*
X5601015Y-17205246D01*
X5601015Y-17205246D02*
X5610539Y-17186198D01*
X5610539Y-17186198D02*
X5620063Y-17176674D01*
X5620063Y-17176674D02*
X5639111Y-17167150D01*
X5639111Y-17167150D02*
X5667682Y-17167150D01*
X5667682Y-17167150D02*
X5686730Y-17176674D01*
X5686730Y-17176674D02*
X5696253Y-17186198D01*
X5696253Y-17186198D02*
X5705777Y-17205246D01*
X5705777Y-17205246D02*
X5705777Y-17262388D01*
X5705777Y-17262388D02*
X5696253Y-17281436D01*
X5696253Y-17281436D02*
X5686730Y-17290960D01*
X5686730Y-17290960D02*
X5667682Y-17300484D01*
X5667682Y-17300484D02*
X5639111Y-17300484D01*
X5820063Y-17300484D02*
X5801015Y-17290960D01*
X5801015Y-17290960D02*
X5791492Y-17271912D01*
X5791492Y-17271912D02*
X5791492Y-17100484D01*
X5972444Y-17290960D02*
X5953396Y-17300484D01*
X5953396Y-17300484D02*
X5915301Y-17300484D01*
X5915301Y-17300484D02*
X5896253Y-17290960D01*
X5896253Y-17290960D02*
X5886730Y-17271912D01*
X5886730Y-17271912D02*
X5886730Y-17195722D01*
X5886730Y-17195722D02*
X5896253Y-17176674D01*
X5896253Y-17176674D02*
X5915301Y-17167150D01*
X5915301Y-17167150D02*
X5953396Y-17167150D01*
X5953396Y-17167150D02*
X5972444Y-17176674D01*
X5972444Y-17176674D02*
X5981968Y-17195722D01*
X5981968Y-17195722D02*
X5981968Y-17214769D01*
X5981968Y-17214769D02*
X5886730Y-17233817D01*
X6058158Y-17290960D02*
X6077206Y-17300484D01*
X6077206Y-17300484D02*
X6115301Y-17300484D01*
X6115301Y-17300484D02*
X6134349Y-17290960D01*
X6134349Y-17290960D02*
X6143873Y-17271912D01*
X6143873Y-17271912D02*
X6143873Y-17262388D01*
X6143873Y-17262388D02*
X6134349Y-17243341D01*
X6134349Y-17243341D02*
X6115301Y-17233817D01*
X6115301Y-17233817D02*
X6086730Y-17233817D01*
X6086730Y-17233817D02*
X6067682Y-17224293D01*
X6067682Y-17224293D02*
X6058158Y-17205246D01*
X6058158Y-17205246D02*
X6058158Y-17195722D01*
X6058158Y-17195722D02*
X6067682Y-17176674D01*
X6067682Y-17176674D02*
X6086730Y-17167150D01*
X6086730Y-17167150D02*
X6115301Y-17167150D01*
X6115301Y-17167150D02*
X6134349Y-17176674D01*
X6210539Y-17376674D02*
X6220063Y-17367150D01*
X6220063Y-17367150D02*
X6239111Y-17338579D01*
X6239111Y-17338579D02*
X6248634Y-17319531D01*
X6248634Y-17319531D02*
X6258158Y-17290960D01*
X6258158Y-17290960D02*
X6267682Y-17243341D01*
X6267682Y-17243341D02*
X6267682Y-17205246D01*
X6267682Y-17205246D02*
X6258158Y-17157627D01*
X6258158Y-17157627D02*
X6248634Y-17129055D01*
X6248634Y-17129055D02*
X6239111Y-17110008D01*
X6239111Y-17110008D02*
X6220063Y-17081436D01*
X6220063Y-17081436D02*
X6210539Y-17071912D01*
D10*
X1200000Y-17428000D02*
X1200000Y-17518000D01*
X1155000Y-17473000D02*
X1245000Y-17473000D01*
D11*
X1543872Y-17364484D02*
X1562920Y-17364484D01*
X1562920Y-17364484D02*
X1581967Y-17374008D01*
X1581967Y-17374008D02*
X1591491Y-17383531D01*
X1591491Y-17383531D02*
X1601015Y-17402579D01*
X1601015Y-17402579D02*
X1610539Y-17440674D01*
X1610539Y-17440674D02*
X1610539Y-17488293D01*
X1610539Y-17488293D02*
X1601015Y-17526388D01*
X1601015Y-17526388D02*
X1591491Y-17545436D01*
X1591491Y-17545436D02*
X1581967Y-17554960D01*
X1581967Y-17554960D02*
X1562920Y-17564484D01*
X1562920Y-17564484D02*
X1543872Y-17564484D01*
X1543872Y-17564484D02*
X1524824Y-17554960D01*
X1524824Y-17554960D02*
X1515301Y-17545436D01*
X1515301Y-17545436D02*
X1505777Y-17526388D01*
X1505777Y-17526388D02*
X1496253Y-17488293D01*
X1496253Y-17488293D02*
X1496253Y-17440674D01*
X1496253Y-17440674D02*
X1505777Y-17402579D01*
X1505777Y-17402579D02*
X1515301Y-17383531D01*
X1515301Y-17383531D02*
X1524824Y-17374008D01*
X1524824Y-17374008D02*
X1543872Y-17364484D01*
X1696253Y-17545436D02*
X1705777Y-17554960D01*
X1705777Y-17554960D02*
X1696253Y-17564484D01*
X1696253Y-17564484D02*
X1686729Y-17554960D01*
X1686729Y-17554960D02*
X1696253Y-17545436D01*
X1696253Y-17545436D02*
X1696253Y-17564484D01*
X1801015Y-17564484D02*
X1839110Y-17564484D01*
X1839110Y-17564484D02*
X1858158Y-17554960D01*
X1858158Y-17554960D02*
X1867682Y-17545436D01*
X1867682Y-17545436D02*
X1886729Y-17516865D01*
X1886729Y-17516865D02*
X1896253Y-17478769D01*
X1896253Y-17478769D02*
X1896253Y-17402579D01*
X1896253Y-17402579D02*
X1886729Y-17383531D01*
X1886729Y-17383531D02*
X1877205Y-17374008D01*
X1877205Y-17374008D02*
X1858158Y-17364484D01*
X1858158Y-17364484D02*
X1820063Y-17364484D01*
X1820063Y-17364484D02*
X1801015Y-17374008D01*
X1801015Y-17374008D02*
X1791491Y-17383531D01*
X1791491Y-17383531D02*
X1781967Y-17402579D01*
X1781967Y-17402579D02*
X1781967Y-17450198D01*
X1781967Y-17450198D02*
X1791491Y-17469246D01*
X1791491Y-17469246D02*
X1801015Y-17478769D01*
X1801015Y-17478769D02*
X1820063Y-17488293D01*
X1820063Y-17488293D02*
X1858158Y-17488293D01*
X1858158Y-17488293D02*
X1877205Y-17478769D01*
X1877205Y-17478769D02*
X1886729Y-17469246D01*
X1886729Y-17469246D02*
X1896253Y-17450198D01*
X2020063Y-17364484D02*
X2039110Y-17364484D01*
X2039110Y-17364484D02*
X2058158Y-17374008D01*
X2058158Y-17374008D02*
X2067682Y-17383531D01*
X2067682Y-17383531D02*
X2077205Y-17402579D01*
X2077205Y-17402579D02*
X2086729Y-17440674D01*
X2086729Y-17440674D02*
X2086729Y-17488293D01*
X2086729Y-17488293D02*
X2077205Y-17526388D01*
X2077205Y-17526388D02*
X2067682Y-17545436D01*
X2067682Y-17545436D02*
X2058158Y-17554960D01*
X2058158Y-17554960D02*
X2039110Y-17564484D01*
X2039110Y-17564484D02*
X2020063Y-17564484D01*
X2020063Y-17564484D02*
X2001015Y-17554960D01*
X2001015Y-17554960D02*
X1991491Y-17545436D01*
X1991491Y-17545436D02*
X1981967Y-17526388D01*
X1981967Y-17526388D02*
X1972444Y-17488293D01*
X1972444Y-17488293D02*
X1972444Y-17440674D01*
X1972444Y-17440674D02*
X1981967Y-17402579D01*
X1981967Y-17402579D02*
X1991491Y-17383531D01*
X1991491Y-17383531D02*
X2001015Y-17374008D01*
X2001015Y-17374008D02*
X2020063Y-17364484D01*
X2210539Y-17364484D02*
X2229587Y-17364484D01*
X2229587Y-17364484D02*
X2248634Y-17374008D01*
X2248634Y-17374008D02*
X2258158Y-17383531D01*
X2258158Y-17383531D02*
X2267682Y-17402579D01*
X2267682Y-17402579D02*
X2277206Y-17440674D01*
X2277206Y-17440674D02*
X2277206Y-17488293D01*
X2277206Y-17488293D02*
X2267682Y-17526388D01*
X2267682Y-17526388D02*
X2258158Y-17545436D01*
X2258158Y-17545436D02*
X2248634Y-17554960D01*
X2248634Y-17554960D02*
X2229587Y-17564484D01*
X2229587Y-17564484D02*
X2210539Y-17564484D01*
X2210539Y-17564484D02*
X2191491Y-17554960D01*
X2191491Y-17554960D02*
X2181967Y-17545436D01*
X2181967Y-17545436D02*
X2172444Y-17526388D01*
X2172444Y-17526388D02*
X2162920Y-17488293D01*
X2162920Y-17488293D02*
X2162920Y-17440674D01*
X2162920Y-17440674D02*
X2172444Y-17402579D01*
X2172444Y-17402579D02*
X2181967Y-17383531D01*
X2181967Y-17383531D02*
X2191491Y-17374008D01*
X2191491Y-17374008D02*
X2210539Y-17364484D01*
X2362920Y-17564484D02*
X2362920Y-17431150D01*
X2362920Y-17450198D02*
X2372444Y-17440674D01*
X2372444Y-17440674D02*
X2391491Y-17431150D01*
X2391491Y-17431150D02*
X2420063Y-17431150D01*
X2420063Y-17431150D02*
X2439110Y-17440674D01*
X2439110Y-17440674D02*
X2448634Y-17459722D01*
X2448634Y-17459722D02*
X2448634Y-17564484D01*
X2448634Y-17459722D02*
X2458158Y-17440674D01*
X2458158Y-17440674D02*
X2477206Y-17431150D01*
X2477206Y-17431150D02*
X2505777Y-17431150D01*
X2505777Y-17431150D02*
X2524825Y-17440674D01*
X2524825Y-17440674D02*
X2534348Y-17459722D01*
X2534348Y-17459722D02*
X2534348Y-17564484D01*
X2629587Y-17564484D02*
X2629587Y-17431150D01*
X2629587Y-17450198D02*
X2639110Y-17440674D01*
X2639110Y-17440674D02*
X2658158Y-17431150D01*
X2658158Y-17431150D02*
X2686729Y-17431150D01*
X2686729Y-17431150D02*
X2705777Y-17440674D01*
X2705777Y-17440674D02*
X2715301Y-17459722D01*
X2715301Y-17459722D02*
X2715301Y-17564484D01*
X2715301Y-17459722D02*
X2724825Y-17440674D01*
X2724825Y-17440674D02*
X2743872Y-17431150D01*
X2743872Y-17431150D02*
X2772444Y-17431150D01*
X2772444Y-17431150D02*
X2791491Y-17440674D01*
X2791491Y-17440674D02*
X2801015Y-17459722D01*
X2801015Y-17459722D02*
X2801015Y-17564484D01*
X3191491Y-17354960D02*
X3020063Y-17612103D01*
X3448634Y-17364484D02*
X3467682Y-17364484D01*
X3467682Y-17364484D02*
X3486729Y-17374008D01*
X3486729Y-17374008D02*
X3496253Y-17383531D01*
X3496253Y-17383531D02*
X3505777Y-17402579D01*
X3505777Y-17402579D02*
X3515301Y-17440674D01*
X3515301Y-17440674D02*
X3515301Y-17488293D01*
X3515301Y-17488293D02*
X3505777Y-17526388D01*
X3505777Y-17526388D02*
X3496253Y-17545436D01*
X3496253Y-17545436D02*
X3486729Y-17554960D01*
X3486729Y-17554960D02*
X3467682Y-17564484D01*
X3467682Y-17564484D02*
X3448634Y-17564484D01*
X3448634Y-17564484D02*
X3429587Y-17554960D01*
X3429587Y-17554960D02*
X3420063Y-17545436D01*
X3420063Y-17545436D02*
X3410539Y-17526388D01*
X3410539Y-17526388D02*
X3401015Y-17488293D01*
X3401015Y-17488293D02*
X3401015Y-17440674D01*
X3401015Y-17440674D02*
X3410539Y-17402579D01*
X3410539Y-17402579D02*
X3420063Y-17383531D01*
X3420063Y-17383531D02*
X3429587Y-17374008D01*
X3429587Y-17374008D02*
X3448634Y-17364484D01*
X3601015Y-17545436D02*
X3610539Y-17554960D01*
X3610539Y-17554960D02*
X3601015Y-17564484D01*
X3601015Y-17564484D02*
X3591491Y-17554960D01*
X3591491Y-17554960D02*
X3601015Y-17545436D01*
X3601015Y-17545436D02*
X3601015Y-17564484D01*
X3734348Y-17364484D02*
X3753396Y-17364484D01*
X3753396Y-17364484D02*
X3772444Y-17374008D01*
X3772444Y-17374008D02*
X3781968Y-17383531D01*
X3781968Y-17383531D02*
X3791491Y-17402579D01*
X3791491Y-17402579D02*
X3801015Y-17440674D01*
X3801015Y-17440674D02*
X3801015Y-17488293D01*
X3801015Y-17488293D02*
X3791491Y-17526388D01*
X3791491Y-17526388D02*
X3781968Y-17545436D01*
X3781968Y-17545436D02*
X3772444Y-17554960D01*
X3772444Y-17554960D02*
X3753396Y-17564484D01*
X3753396Y-17564484D02*
X3734348Y-17564484D01*
X3734348Y-17564484D02*
X3715301Y-17554960D01*
X3715301Y-17554960D02*
X3705777Y-17545436D01*
X3705777Y-17545436D02*
X3696253Y-17526388D01*
X3696253Y-17526388D02*
X3686729Y-17488293D01*
X3686729Y-17488293D02*
X3686729Y-17440674D01*
X3686729Y-17440674D02*
X3696253Y-17402579D01*
X3696253Y-17402579D02*
X3705777Y-17383531D01*
X3705777Y-17383531D02*
X3715301Y-17374008D01*
X3715301Y-17374008D02*
X3734348Y-17364484D01*
X3867682Y-17364484D02*
X3991491Y-17364484D01*
X3991491Y-17364484D02*
X3924825Y-17440674D01*
X3924825Y-17440674D02*
X3953396Y-17440674D01*
X3953396Y-17440674D02*
X3972444Y-17450198D01*
X3972444Y-17450198D02*
X3981968Y-17459722D01*
X3981968Y-17459722D02*
X3991491Y-17478769D01*
X3991491Y-17478769D02*
X3991491Y-17526388D01*
X3991491Y-17526388D02*
X3981968Y-17545436D01*
X3981968Y-17545436D02*
X3972444Y-17554960D01*
X3972444Y-17554960D02*
X3953396Y-17564484D01*
X3953396Y-17564484D02*
X3896253Y-17564484D01*
X3896253Y-17564484D02*
X3877206Y-17554960D01*
X3877206Y-17554960D02*
X3867682Y-17545436D01*
X4172444Y-17364484D02*
X4077206Y-17364484D01*
X4077206Y-17364484D02*
X4067682Y-17459722D01*
X4067682Y-17459722D02*
X4077206Y-17450198D01*
X4077206Y-17450198D02*
X4096253Y-17440674D01*
X4096253Y-17440674D02*
X4143872Y-17440674D01*
X4143872Y-17440674D02*
X4162920Y-17450198D01*
X4162920Y-17450198D02*
X4172444Y-17459722D01*
X4172444Y-17459722D02*
X4181968Y-17478769D01*
X4181968Y-17478769D02*
X4181968Y-17526388D01*
X4181968Y-17526388D02*
X4172444Y-17545436D01*
X4172444Y-17545436D02*
X4162920Y-17554960D01*
X4162920Y-17554960D02*
X4143872Y-17564484D01*
X4143872Y-17564484D02*
X4096253Y-17564484D01*
X4096253Y-17564484D02*
X4077206Y-17554960D01*
X4077206Y-17554960D02*
X4067682Y-17545436D01*
X4353396Y-17431150D02*
X4353396Y-17564484D01*
X4305777Y-17354960D02*
X4258158Y-17497817D01*
X4258158Y-17497817D02*
X4381968Y-17497817D01*
X4448634Y-17364484D02*
X4448634Y-17402579D01*
X4524825Y-17364484D02*
X4524825Y-17402579D01*
X4820063Y-17640674D02*
X4810539Y-17631150D01*
X4810539Y-17631150D02*
X4791492Y-17602579D01*
X4791492Y-17602579D02*
X4781968Y-17583531D01*
X4781968Y-17583531D02*
X4772444Y-17554960D01*
X4772444Y-17554960D02*
X4762920Y-17507341D01*
X4762920Y-17507341D02*
X4762920Y-17469246D01*
X4762920Y-17469246D02*
X4772444Y-17421627D01*
X4772444Y-17421627D02*
X4781968Y-17393055D01*
X4781968Y-17393055D02*
X4791492Y-17374008D01*
X4791492Y-17374008D02*
X4810539Y-17345436D01*
X4810539Y-17345436D02*
X4820063Y-17335912D01*
X5001015Y-17564484D02*
X4886730Y-17564484D01*
X4943872Y-17564484D02*
X4943872Y-17364484D01*
X4943872Y-17364484D02*
X4924825Y-17393055D01*
X4924825Y-17393055D02*
X4905777Y-17412103D01*
X4905777Y-17412103D02*
X4886730Y-17421627D01*
X5077206Y-17383531D02*
X5086730Y-17374008D01*
X5086730Y-17374008D02*
X5105777Y-17364484D01*
X5105777Y-17364484D02*
X5153396Y-17364484D01*
X5153396Y-17364484D02*
X5172444Y-17374008D01*
X5172444Y-17374008D02*
X5181968Y-17383531D01*
X5181968Y-17383531D02*
X5191492Y-17402579D01*
X5191492Y-17402579D02*
X5191492Y-17421627D01*
X5191492Y-17421627D02*
X5181968Y-17450198D01*
X5181968Y-17450198D02*
X5067682Y-17564484D01*
X5067682Y-17564484D02*
X5191492Y-17564484D01*
X5429587Y-17564484D02*
X5429587Y-17364484D01*
X5515301Y-17564484D02*
X5515301Y-17459722D01*
X5515301Y-17459722D02*
X5505777Y-17440674D01*
X5505777Y-17440674D02*
X5486730Y-17431150D01*
X5486730Y-17431150D02*
X5458158Y-17431150D01*
X5458158Y-17431150D02*
X5439111Y-17440674D01*
X5439111Y-17440674D02*
X5429587Y-17450198D01*
X5639111Y-17564484D02*
X5620063Y-17554960D01*
X5620063Y-17554960D02*
X5610539Y-17545436D01*
X5610539Y-17545436D02*
X5601015Y-17526388D01*
X5601015Y-17526388D02*
X5601015Y-17469246D01*
X5601015Y-17469246D02*
X5610539Y-17450198D01*
X5610539Y-17450198D02*
X5620063Y-17440674D01*
X5620063Y-17440674D02*
X5639111Y-17431150D01*
X5639111Y-17431150D02*
X5667682Y-17431150D01*
X5667682Y-17431150D02*
X5686730Y-17440674D01*
X5686730Y-17440674D02*
X5696253Y-17450198D01*
X5696253Y-17450198D02*
X5705777Y-17469246D01*
X5705777Y-17469246D02*
X5705777Y-17526388D01*
X5705777Y-17526388D02*
X5696253Y-17545436D01*
X5696253Y-17545436D02*
X5686730Y-17554960D01*
X5686730Y-17554960D02*
X5667682Y-17564484D01*
X5667682Y-17564484D02*
X5639111Y-17564484D01*
X5820063Y-17564484D02*
X5801015Y-17554960D01*
X5801015Y-17554960D02*
X5791492Y-17535912D01*
X5791492Y-17535912D02*
X5791492Y-17364484D01*
X5972444Y-17554960D02*
X5953396Y-17564484D01*
X5953396Y-17564484D02*
X5915301Y-17564484D01*
X5915301Y-17564484D02*
X5896253Y-17554960D01*
X5896253Y-17554960D02*
X5886730Y-17535912D01*
X5886730Y-17535912D02*
X5886730Y-17459722D01*
X5886730Y-17459722D02*
X5896253Y-17440674D01*
X5896253Y-17440674D02*
X5915301Y-17431150D01*
X5915301Y-17431150D02*
X5953396Y-17431150D01*
X5953396Y-17431150D02*
X5972444Y-17440674D01*
X5972444Y-17440674D02*
X5981968Y-17459722D01*
X5981968Y-17459722D02*
X5981968Y-17478769D01*
X5981968Y-17478769D02*
X5886730Y-17497817D01*
X6058158Y-17554960D02*
X6077206Y-17564484D01*
X6077206Y-17564484D02*
X6115301Y-17564484D01*
X6115301Y-17564484D02*
X6134349Y-17554960D01*
X6134349Y-17554960D02*
X6143873Y-17535912D01*
X6143873Y-17535912D02*
X6143873Y-17526388D01*
X6143873Y-17526388D02*
X6134349Y-17507341D01*
X6134349Y-17507341D02*
X6115301Y-17497817D01*
X6115301Y-17497817D02*
X6086730Y-17497817D01*
X6086730Y-17497817D02*
X6067682Y-17488293D01*
X6067682Y-17488293D02*
X6058158Y-17469246D01*
X6058158Y-17469246D02*
X6058158Y-17459722D01*
X6058158Y-17459722D02*
X6067682Y-17440674D01*
X6067682Y-17440674D02*
X6086730Y-17431150D01*
X6086730Y-17431150D02*
X6115301Y-17431150D01*
X6115301Y-17431150D02*
X6134349Y-17440674D01*
X6210539Y-17640674D02*
X6220063Y-17631150D01*
X6220063Y-17631150D02*
X6239111Y-17602579D01*
X6239111Y-17602579D02*
X6248634Y-17583531D01*
X6248634Y-17583531D02*
X6258158Y-17554960D01*
X6258158Y-17554960D02*
X6267682Y-17507341D01*
X6267682Y-17507341D02*
X6267682Y-17469246D01*
X6267682Y-17469246D02*
X6258158Y-17421627D01*
X6258158Y-17421627D02*
X6248634Y-17393055D01*
X6248634Y-17393055D02*
X6239111Y-17374008D01*
X6239111Y-17374008D02*
X6220063Y-17345436D01*
X6220063Y-17345436D02*
X6210539Y-17335912D01*
D10*
X1230356Y-17772356D02*
X1230356Y-17701644D01*
X1159644Y-17701644D01*
X1159644Y-17772356D01*
X1230356Y-17772356D01*
D11*
X1610539Y-17828484D02*
X1496253Y-17828484D01*
X1553396Y-17828484D02*
X1553396Y-17628484D01*
X1553396Y-17628484D02*
X1534348Y-17657055D01*
X1534348Y-17657055D02*
X1515301Y-17676103D01*
X1515301Y-17676103D02*
X1496253Y-17685627D01*
X1696253Y-17809436D02*
X1705777Y-17818960D01*
X1705777Y-17818960D02*
X1696253Y-17828484D01*
X1696253Y-17828484D02*
X1686729Y-17818960D01*
X1686729Y-17818960D02*
X1696253Y-17809436D01*
X1696253Y-17809436D02*
X1696253Y-17828484D01*
X1829586Y-17628484D02*
X1848634Y-17628484D01*
X1848634Y-17628484D02*
X1867682Y-17638008D01*
X1867682Y-17638008D02*
X1877205Y-17647531D01*
X1877205Y-17647531D02*
X1886729Y-17666579D01*
X1886729Y-17666579D02*
X1896253Y-17704674D01*
X1896253Y-17704674D02*
X1896253Y-17752293D01*
X1896253Y-17752293D02*
X1886729Y-17790388D01*
X1886729Y-17790388D02*
X1877205Y-17809436D01*
X1877205Y-17809436D02*
X1867682Y-17818960D01*
X1867682Y-17818960D02*
X1848634Y-17828484D01*
X1848634Y-17828484D02*
X1829586Y-17828484D01*
X1829586Y-17828484D02*
X1810539Y-17818960D01*
X1810539Y-17818960D02*
X1801015Y-17809436D01*
X1801015Y-17809436D02*
X1791491Y-17790388D01*
X1791491Y-17790388D02*
X1781967Y-17752293D01*
X1781967Y-17752293D02*
X1781967Y-17704674D01*
X1781967Y-17704674D02*
X1791491Y-17666579D01*
X1791491Y-17666579D02*
X1801015Y-17647531D01*
X1801015Y-17647531D02*
X1810539Y-17638008D01*
X1810539Y-17638008D02*
X1829586Y-17628484D01*
X2020063Y-17628484D02*
X2039110Y-17628484D01*
X2039110Y-17628484D02*
X2058158Y-17638008D01*
X2058158Y-17638008D02*
X2067682Y-17647531D01*
X2067682Y-17647531D02*
X2077205Y-17666579D01*
X2077205Y-17666579D02*
X2086729Y-17704674D01*
X2086729Y-17704674D02*
X2086729Y-17752293D01*
X2086729Y-17752293D02*
X2077205Y-17790388D01*
X2077205Y-17790388D02*
X2067682Y-17809436D01*
X2067682Y-17809436D02*
X2058158Y-17818960D01*
X2058158Y-17818960D02*
X2039110Y-17828484D01*
X2039110Y-17828484D02*
X2020063Y-17828484D01*
X2020063Y-17828484D02*
X2001015Y-17818960D01*
X2001015Y-17818960D02*
X1991491Y-17809436D01*
X1991491Y-17809436D02*
X1981967Y-17790388D01*
X1981967Y-17790388D02*
X1972444Y-17752293D01*
X1972444Y-17752293D02*
X1972444Y-17704674D01*
X1972444Y-17704674D02*
X1981967Y-17666579D01*
X1981967Y-17666579D02*
X1991491Y-17647531D01*
X1991491Y-17647531D02*
X2001015Y-17638008D01*
X2001015Y-17638008D02*
X2020063Y-17628484D01*
X2210539Y-17628484D02*
X2229587Y-17628484D01*
X2229587Y-17628484D02*
X2248634Y-17638008D01*
X2248634Y-17638008D02*
X2258158Y-17647531D01*
X2258158Y-17647531D02*
X2267682Y-17666579D01*
X2267682Y-17666579D02*
X2277206Y-17704674D01*
X2277206Y-17704674D02*
X2277206Y-17752293D01*
X2277206Y-17752293D02*
X2267682Y-17790388D01*
X2267682Y-17790388D02*
X2258158Y-17809436D01*
X2258158Y-17809436D02*
X2248634Y-17818960D01*
X2248634Y-17818960D02*
X2229587Y-17828484D01*
X2229587Y-17828484D02*
X2210539Y-17828484D01*
X2210539Y-17828484D02*
X2191491Y-17818960D01*
X2191491Y-17818960D02*
X2181967Y-17809436D01*
X2181967Y-17809436D02*
X2172444Y-17790388D01*
X2172444Y-17790388D02*
X2162920Y-17752293D01*
X2162920Y-17752293D02*
X2162920Y-17704674D01*
X2162920Y-17704674D02*
X2172444Y-17666579D01*
X2172444Y-17666579D02*
X2181967Y-17647531D01*
X2181967Y-17647531D02*
X2191491Y-17638008D01*
X2191491Y-17638008D02*
X2210539Y-17628484D01*
X2362920Y-17828484D02*
X2362920Y-17695150D01*
X2362920Y-17714198D02*
X2372444Y-17704674D01*
X2372444Y-17704674D02*
X2391491Y-17695150D01*
X2391491Y-17695150D02*
X2420063Y-17695150D01*
X2420063Y-17695150D02*
X2439110Y-17704674D01*
X2439110Y-17704674D02*
X2448634Y-17723722D01*
X2448634Y-17723722D02*
X2448634Y-17828484D01*
X2448634Y-17723722D02*
X2458158Y-17704674D01*
X2458158Y-17704674D02*
X2477206Y-17695150D01*
X2477206Y-17695150D02*
X2505777Y-17695150D01*
X2505777Y-17695150D02*
X2524825Y-17704674D01*
X2524825Y-17704674D02*
X2534348Y-17723722D01*
X2534348Y-17723722D02*
X2534348Y-17828484D01*
X2629587Y-17828484D02*
X2629587Y-17695150D01*
X2629587Y-17714198D02*
X2639110Y-17704674D01*
X2639110Y-17704674D02*
X2658158Y-17695150D01*
X2658158Y-17695150D02*
X2686729Y-17695150D01*
X2686729Y-17695150D02*
X2705777Y-17704674D01*
X2705777Y-17704674D02*
X2715301Y-17723722D01*
X2715301Y-17723722D02*
X2715301Y-17828484D01*
X2715301Y-17723722D02*
X2724825Y-17704674D01*
X2724825Y-17704674D02*
X2743872Y-17695150D01*
X2743872Y-17695150D02*
X2772444Y-17695150D01*
X2772444Y-17695150D02*
X2791491Y-17704674D01*
X2791491Y-17704674D02*
X2801015Y-17723722D01*
X2801015Y-17723722D02*
X2801015Y-17828484D01*
X3191491Y-17618960D02*
X3020063Y-17876103D01*
X3448634Y-17628484D02*
X3467682Y-17628484D01*
X3467682Y-17628484D02*
X3486729Y-17638008D01*
X3486729Y-17638008D02*
X3496253Y-17647531D01*
X3496253Y-17647531D02*
X3505777Y-17666579D01*
X3505777Y-17666579D02*
X3515301Y-17704674D01*
X3515301Y-17704674D02*
X3515301Y-17752293D01*
X3515301Y-17752293D02*
X3505777Y-17790388D01*
X3505777Y-17790388D02*
X3496253Y-17809436D01*
X3496253Y-17809436D02*
X3486729Y-17818960D01*
X3486729Y-17818960D02*
X3467682Y-17828484D01*
X3467682Y-17828484D02*
X3448634Y-17828484D01*
X3448634Y-17828484D02*
X3429587Y-17818960D01*
X3429587Y-17818960D02*
X3420063Y-17809436D01*
X3420063Y-17809436D02*
X3410539Y-17790388D01*
X3410539Y-17790388D02*
X3401015Y-17752293D01*
X3401015Y-17752293D02*
X3401015Y-17704674D01*
X3401015Y-17704674D02*
X3410539Y-17666579D01*
X3410539Y-17666579D02*
X3420063Y-17647531D01*
X3420063Y-17647531D02*
X3429587Y-17638008D01*
X3429587Y-17638008D02*
X3448634Y-17628484D01*
X3601015Y-17809436D02*
X3610539Y-17818960D01*
X3610539Y-17818960D02*
X3601015Y-17828484D01*
X3601015Y-17828484D02*
X3591491Y-17818960D01*
X3591491Y-17818960D02*
X3601015Y-17809436D01*
X3601015Y-17809436D02*
X3601015Y-17828484D01*
X3734348Y-17628484D02*
X3753396Y-17628484D01*
X3753396Y-17628484D02*
X3772444Y-17638008D01*
X3772444Y-17638008D02*
X3781968Y-17647531D01*
X3781968Y-17647531D02*
X3791491Y-17666579D01*
X3791491Y-17666579D02*
X3801015Y-17704674D01*
X3801015Y-17704674D02*
X3801015Y-17752293D01*
X3801015Y-17752293D02*
X3791491Y-17790388D01*
X3791491Y-17790388D02*
X3781968Y-17809436D01*
X3781968Y-17809436D02*
X3772444Y-17818960D01*
X3772444Y-17818960D02*
X3753396Y-17828484D01*
X3753396Y-17828484D02*
X3734348Y-17828484D01*
X3734348Y-17828484D02*
X3715301Y-17818960D01*
X3715301Y-17818960D02*
X3705777Y-17809436D01*
X3705777Y-17809436D02*
X3696253Y-17790388D01*
X3696253Y-17790388D02*
X3686729Y-17752293D01*
X3686729Y-17752293D02*
X3686729Y-17704674D01*
X3686729Y-17704674D02*
X3696253Y-17666579D01*
X3696253Y-17666579D02*
X3705777Y-17647531D01*
X3705777Y-17647531D02*
X3715301Y-17638008D01*
X3715301Y-17638008D02*
X3734348Y-17628484D01*
X3867682Y-17628484D02*
X3991491Y-17628484D01*
X3991491Y-17628484D02*
X3924825Y-17704674D01*
X3924825Y-17704674D02*
X3953396Y-17704674D01*
X3953396Y-17704674D02*
X3972444Y-17714198D01*
X3972444Y-17714198D02*
X3981968Y-17723722D01*
X3981968Y-17723722D02*
X3991491Y-17742769D01*
X3991491Y-17742769D02*
X3991491Y-17790388D01*
X3991491Y-17790388D02*
X3981968Y-17809436D01*
X3981968Y-17809436D02*
X3972444Y-17818960D01*
X3972444Y-17818960D02*
X3953396Y-17828484D01*
X3953396Y-17828484D02*
X3896253Y-17828484D01*
X3896253Y-17828484D02*
X3877206Y-17818960D01*
X3877206Y-17818960D02*
X3867682Y-17809436D01*
X4086729Y-17828484D02*
X4124825Y-17828484D01*
X4124825Y-17828484D02*
X4143872Y-17818960D01*
X4143872Y-17818960D02*
X4153396Y-17809436D01*
X4153396Y-17809436D02*
X4172444Y-17780865D01*
X4172444Y-17780865D02*
X4181968Y-17742769D01*
X4181968Y-17742769D02*
X4181968Y-17666579D01*
X4181968Y-17666579D02*
X4172444Y-17647531D01*
X4172444Y-17647531D02*
X4162920Y-17638008D01*
X4162920Y-17638008D02*
X4143872Y-17628484D01*
X4143872Y-17628484D02*
X4105777Y-17628484D01*
X4105777Y-17628484D02*
X4086729Y-17638008D01*
X4086729Y-17638008D02*
X4077206Y-17647531D01*
X4077206Y-17647531D02*
X4067682Y-17666579D01*
X4067682Y-17666579D02*
X4067682Y-17714198D01*
X4067682Y-17714198D02*
X4077206Y-17733246D01*
X4077206Y-17733246D02*
X4086729Y-17742769D01*
X4086729Y-17742769D02*
X4105777Y-17752293D01*
X4105777Y-17752293D02*
X4143872Y-17752293D01*
X4143872Y-17752293D02*
X4162920Y-17742769D01*
X4162920Y-17742769D02*
X4172444Y-17733246D01*
X4172444Y-17733246D02*
X4181968Y-17714198D01*
X4353396Y-17695150D02*
X4353396Y-17828484D01*
X4305777Y-17618960D02*
X4258158Y-17761817D01*
X4258158Y-17761817D02*
X4381968Y-17761817D01*
X4448634Y-17628484D02*
X4448634Y-17666579D01*
X4524825Y-17628484D02*
X4524825Y-17666579D01*
X4820063Y-17904674D02*
X4810539Y-17895150D01*
X4810539Y-17895150D02*
X4791492Y-17866579D01*
X4791492Y-17866579D02*
X4781968Y-17847531D01*
X4781968Y-17847531D02*
X4772444Y-17818960D01*
X4772444Y-17818960D02*
X4762920Y-17771341D01*
X4762920Y-17771341D02*
X4762920Y-17733246D01*
X4762920Y-17733246D02*
X4772444Y-17685627D01*
X4772444Y-17685627D02*
X4781968Y-17657055D01*
X4781968Y-17657055D02*
X4791492Y-17638008D01*
X4791492Y-17638008D02*
X4810539Y-17609436D01*
X4810539Y-17609436D02*
X4820063Y-17599912D01*
X4981968Y-17628484D02*
X4943872Y-17628484D01*
X4943872Y-17628484D02*
X4924825Y-17638008D01*
X4924825Y-17638008D02*
X4915301Y-17647531D01*
X4915301Y-17647531D02*
X4896253Y-17676103D01*
X4896253Y-17676103D02*
X4886730Y-17714198D01*
X4886730Y-17714198D02*
X4886730Y-17790388D01*
X4886730Y-17790388D02*
X4896253Y-17809436D01*
X4896253Y-17809436D02*
X4905777Y-17818960D01*
X4905777Y-17818960D02*
X4924825Y-17828484D01*
X4924825Y-17828484D02*
X4962920Y-17828484D01*
X4962920Y-17828484D02*
X4981968Y-17818960D01*
X4981968Y-17818960D02*
X4991492Y-17809436D01*
X4991492Y-17809436D02*
X5001015Y-17790388D01*
X5001015Y-17790388D02*
X5001015Y-17742769D01*
X5001015Y-17742769D02*
X4991492Y-17723722D01*
X4991492Y-17723722D02*
X4981968Y-17714198D01*
X4981968Y-17714198D02*
X4962920Y-17704674D01*
X4962920Y-17704674D02*
X4924825Y-17704674D01*
X4924825Y-17704674D02*
X4905777Y-17714198D01*
X4905777Y-17714198D02*
X4896253Y-17723722D01*
X4896253Y-17723722D02*
X4886730Y-17742769D01*
X5239111Y-17828484D02*
X5239111Y-17628484D01*
X5324825Y-17828484D02*
X5324825Y-17723722D01*
X5324825Y-17723722D02*
X5315301Y-17704674D01*
X5315301Y-17704674D02*
X5296254Y-17695150D01*
X5296254Y-17695150D02*
X5267682Y-17695150D01*
X5267682Y-17695150D02*
X5248634Y-17704674D01*
X5248634Y-17704674D02*
X5239111Y-17714198D01*
X5448634Y-17828484D02*
X5429587Y-17818960D01*
X5429587Y-17818960D02*
X5420063Y-17809436D01*
X5420063Y-17809436D02*
X5410539Y-17790388D01*
X5410539Y-17790388D02*
X5410539Y-17733246D01*
X5410539Y-17733246D02*
X5420063Y-17714198D01*
X5420063Y-17714198D02*
X5429587Y-17704674D01*
X5429587Y-17704674D02*
X5448634Y-17695150D01*
X5448634Y-17695150D02*
X5477206Y-17695150D01*
X5477206Y-17695150D02*
X5496254Y-17704674D01*
X5496254Y-17704674D02*
X5505777Y-17714198D01*
X5505777Y-17714198D02*
X5515301Y-17733246D01*
X5515301Y-17733246D02*
X5515301Y-17790388D01*
X5515301Y-17790388D02*
X5505777Y-17809436D01*
X5505777Y-17809436D02*
X5496254Y-17818960D01*
X5496254Y-17818960D02*
X5477206Y-17828484D01*
X5477206Y-17828484D02*
X5448634Y-17828484D01*
X5629587Y-17828484D02*
X5610539Y-17818960D01*
X5610539Y-17818960D02*
X5601015Y-17799912D01*
X5601015Y-17799912D02*
X5601015Y-17628484D01*
X5781968Y-17818960D02*
X5762920Y-17828484D01*
X5762920Y-17828484D02*
X5724825Y-17828484D01*
X5724825Y-17828484D02*
X5705777Y-17818960D01*
X5705777Y-17818960D02*
X5696253Y-17799912D01*
X5696253Y-17799912D02*
X5696253Y-17723722D01*
X5696253Y-17723722D02*
X5705777Y-17704674D01*
X5705777Y-17704674D02*
X5724825Y-17695150D01*
X5724825Y-17695150D02*
X5762920Y-17695150D01*
X5762920Y-17695150D02*
X5781968Y-17704674D01*
X5781968Y-17704674D02*
X5791492Y-17723722D01*
X5791492Y-17723722D02*
X5791492Y-17742769D01*
X5791492Y-17742769D02*
X5696253Y-17761817D01*
X5867682Y-17818960D02*
X5886730Y-17828484D01*
X5886730Y-17828484D02*
X5924825Y-17828484D01*
X5924825Y-17828484D02*
X5943873Y-17818960D01*
X5943873Y-17818960D02*
X5953396Y-17799912D01*
X5953396Y-17799912D02*
X5953396Y-17790388D01*
X5953396Y-17790388D02*
X5943873Y-17771341D01*
X5943873Y-17771341D02*
X5924825Y-17761817D01*
X5924825Y-17761817D02*
X5896253Y-17761817D01*
X5896253Y-17761817D02*
X5877206Y-17752293D01*
X5877206Y-17752293D02*
X5867682Y-17733246D01*
X5867682Y-17733246D02*
X5867682Y-17723722D01*
X5867682Y-17723722D02*
X5877206Y-17704674D01*
X5877206Y-17704674D02*
X5896253Y-17695150D01*
X5896253Y-17695150D02*
X5924825Y-17695150D01*
X5924825Y-17695150D02*
X5943873Y-17704674D01*
X6191492Y-17752293D02*
X6343873Y-17752293D01*
X6267682Y-17828484D02*
X6267682Y-17676103D01*
X6581968Y-17647531D02*
X6591492Y-17638008D01*
X6591492Y-17638008D02*
X6610539Y-17628484D01*
X6610539Y-17628484D02*
X6658158Y-17628484D01*
X6658158Y-17628484D02*
X6677206Y-17638008D01*
X6677206Y-17638008D02*
X6686730Y-17647531D01*
X6686730Y-17647531D02*
X6696254Y-17666579D01*
X6696254Y-17666579D02*
X6696254Y-17685627D01*
X6696254Y-17685627D02*
X6686730Y-17714198D01*
X6686730Y-17714198D02*
X6572444Y-17828484D01*
X6572444Y-17828484D02*
X6696254Y-17828484D01*
X6924825Y-17818960D02*
X6943873Y-17828484D01*
X6943873Y-17828484D02*
X6981968Y-17828484D01*
X6981968Y-17828484D02*
X7001016Y-17818960D01*
X7001016Y-17818960D02*
X7010539Y-17799912D01*
X7010539Y-17799912D02*
X7010539Y-17790388D01*
X7010539Y-17790388D02*
X7001016Y-17771341D01*
X7001016Y-17771341D02*
X6981968Y-17761817D01*
X6981968Y-17761817D02*
X6953396Y-17761817D01*
X6953396Y-17761817D02*
X6934349Y-17752293D01*
X6934349Y-17752293D02*
X6924825Y-17733246D01*
X6924825Y-17733246D02*
X6924825Y-17723722D01*
X6924825Y-17723722D02*
X6934349Y-17704674D01*
X6934349Y-17704674D02*
X6953396Y-17695150D01*
X6953396Y-17695150D02*
X6981968Y-17695150D01*
X6981968Y-17695150D02*
X7001016Y-17704674D01*
X7124825Y-17828484D02*
X7105777Y-17818960D01*
X7105777Y-17818960D02*
X7096254Y-17799912D01*
X7096254Y-17799912D02*
X7096254Y-17628484D01*
X7229587Y-17828484D02*
X7210539Y-17818960D01*
X7210539Y-17818960D02*
X7201016Y-17809436D01*
X7201016Y-17809436D02*
X7191492Y-17790388D01*
X7191492Y-17790388D02*
X7191492Y-17733246D01*
X7191492Y-17733246D02*
X7201016Y-17714198D01*
X7201016Y-17714198D02*
X7210539Y-17704674D01*
X7210539Y-17704674D02*
X7229587Y-17695150D01*
X7229587Y-17695150D02*
X7258158Y-17695150D01*
X7258158Y-17695150D02*
X7277206Y-17704674D01*
X7277206Y-17704674D02*
X7286730Y-17714198D01*
X7286730Y-17714198D02*
X7296254Y-17733246D01*
X7296254Y-17733246D02*
X7296254Y-17790388D01*
X7296254Y-17790388D02*
X7286730Y-17809436D01*
X7286730Y-17809436D02*
X7277206Y-17818960D01*
X7277206Y-17818960D02*
X7258158Y-17828484D01*
X7258158Y-17828484D02*
X7229587Y-17828484D01*
X7353397Y-17695150D02*
X7429587Y-17695150D01*
X7381968Y-17628484D02*
X7381968Y-17799912D01*
X7381968Y-17799912D02*
X7391492Y-17818960D01*
X7391492Y-17818960D02*
X7410539Y-17828484D01*
X7410539Y-17828484D02*
X7429587Y-17828484D01*
X7486730Y-17818960D02*
X7505777Y-17828484D01*
X7505777Y-17828484D02*
X7543873Y-17828484D01*
X7543873Y-17828484D02*
X7562920Y-17818960D01*
X7562920Y-17818960D02*
X7572444Y-17799912D01*
X7572444Y-17799912D02*
X7572444Y-17790388D01*
X7572444Y-17790388D02*
X7562920Y-17771341D01*
X7562920Y-17771341D02*
X7543873Y-17761817D01*
X7543873Y-17761817D02*
X7515301Y-17761817D01*
X7515301Y-17761817D02*
X7496254Y-17752293D01*
X7496254Y-17752293D02*
X7486730Y-17733246D01*
X7486730Y-17733246D02*
X7486730Y-17723722D01*
X7486730Y-17723722D02*
X7496254Y-17704674D01*
X7496254Y-17704674D02*
X7515301Y-17695150D01*
X7515301Y-17695150D02*
X7543873Y-17695150D01*
X7543873Y-17695150D02*
X7562920Y-17704674D01*
X7639111Y-17904674D02*
X7648635Y-17895150D01*
X7648635Y-17895150D02*
X7667682Y-17866579D01*
X7667682Y-17866579D02*
X7677206Y-17847531D01*
X7677206Y-17847531D02*
X7686730Y-17818960D01*
X7686730Y-17818960D02*
X7696254Y-17771341D01*
X7696254Y-17771341D02*
X7696254Y-17733246D01*
X7696254Y-17733246D02*
X7686730Y-17685627D01*
X7686730Y-17685627D02*
X7677206Y-17657055D01*
X7677206Y-17657055D02*
X7667682Y-17638008D01*
X7667682Y-17638008D02*
X7648635Y-17609436D01*
X7648635Y-17609436D02*
X7639111Y-17599912D01*
D12*
X1180000Y-18066000D02*
X1245000Y-18001000D01*
X1180000Y-17936000D01*
X1115000Y-18001000D01*
X1180000Y-18066000D01*
D11*
X1610539Y-18092484D02*
X1496253Y-18092484D01*
X1553396Y-18092484D02*
X1553396Y-17892484D01*
X1553396Y-17892484D02*
X1534348Y-17921055D01*
X1534348Y-17921055D02*
X1515301Y-17940103D01*
X1515301Y-17940103D02*
X1496253Y-17949627D01*
X1696253Y-18073436D02*
X1705777Y-18082960D01*
X1705777Y-18082960D02*
X1696253Y-18092484D01*
X1696253Y-18092484D02*
X1686729Y-18082960D01*
X1686729Y-18082960D02*
X1696253Y-18073436D01*
X1696253Y-18073436D02*
X1696253Y-18092484D01*
X1772444Y-17892484D02*
X1896253Y-17892484D01*
X1896253Y-17892484D02*
X1829586Y-17968674D01*
X1829586Y-17968674D02*
X1858158Y-17968674D01*
X1858158Y-17968674D02*
X1877205Y-17978198D01*
X1877205Y-17978198D02*
X1886729Y-17987722D01*
X1886729Y-17987722D02*
X1896253Y-18006769D01*
X1896253Y-18006769D02*
X1896253Y-18054388D01*
X1896253Y-18054388D02*
X1886729Y-18073436D01*
X1886729Y-18073436D02*
X1877205Y-18082960D01*
X1877205Y-18082960D02*
X1858158Y-18092484D01*
X1858158Y-18092484D02*
X1801015Y-18092484D01*
X1801015Y-18092484D02*
X1781967Y-18082960D01*
X1781967Y-18082960D02*
X1772444Y-18073436D01*
X2020063Y-17892484D02*
X2039110Y-17892484D01*
X2039110Y-17892484D02*
X2058158Y-17902008D01*
X2058158Y-17902008D02*
X2067682Y-17911531D01*
X2067682Y-17911531D02*
X2077205Y-17930579D01*
X2077205Y-17930579D02*
X2086729Y-17968674D01*
X2086729Y-17968674D02*
X2086729Y-18016293D01*
X2086729Y-18016293D02*
X2077205Y-18054388D01*
X2077205Y-18054388D02*
X2067682Y-18073436D01*
X2067682Y-18073436D02*
X2058158Y-18082960D01*
X2058158Y-18082960D02*
X2039110Y-18092484D01*
X2039110Y-18092484D02*
X2020063Y-18092484D01*
X2020063Y-18092484D02*
X2001015Y-18082960D01*
X2001015Y-18082960D02*
X1991491Y-18073436D01*
X1991491Y-18073436D02*
X1981967Y-18054388D01*
X1981967Y-18054388D02*
X1972444Y-18016293D01*
X1972444Y-18016293D02*
X1972444Y-17968674D01*
X1972444Y-17968674D02*
X1981967Y-17930579D01*
X1981967Y-17930579D02*
X1991491Y-17911531D01*
X1991491Y-17911531D02*
X2001015Y-17902008D01*
X2001015Y-17902008D02*
X2020063Y-17892484D01*
X2210539Y-17892484D02*
X2229587Y-17892484D01*
X2229587Y-17892484D02*
X2248634Y-17902008D01*
X2248634Y-17902008D02*
X2258158Y-17911531D01*
X2258158Y-17911531D02*
X2267682Y-17930579D01*
X2267682Y-17930579D02*
X2277206Y-17968674D01*
X2277206Y-17968674D02*
X2277206Y-18016293D01*
X2277206Y-18016293D02*
X2267682Y-18054388D01*
X2267682Y-18054388D02*
X2258158Y-18073436D01*
X2258158Y-18073436D02*
X2248634Y-18082960D01*
X2248634Y-18082960D02*
X2229587Y-18092484D01*
X2229587Y-18092484D02*
X2210539Y-18092484D01*
X2210539Y-18092484D02*
X2191491Y-18082960D01*
X2191491Y-18082960D02*
X2181967Y-18073436D01*
X2181967Y-18073436D02*
X2172444Y-18054388D01*
X2172444Y-18054388D02*
X2162920Y-18016293D01*
X2162920Y-18016293D02*
X2162920Y-17968674D01*
X2162920Y-17968674D02*
X2172444Y-17930579D01*
X2172444Y-17930579D02*
X2181967Y-17911531D01*
X2181967Y-17911531D02*
X2191491Y-17902008D01*
X2191491Y-17902008D02*
X2210539Y-17892484D01*
X2362920Y-18092484D02*
X2362920Y-17959150D01*
X2362920Y-17978198D02*
X2372444Y-17968674D01*
X2372444Y-17968674D02*
X2391491Y-17959150D01*
X2391491Y-17959150D02*
X2420063Y-17959150D01*
X2420063Y-17959150D02*
X2439110Y-17968674D01*
X2439110Y-17968674D02*
X2448634Y-17987722D01*
X2448634Y-17987722D02*
X2448634Y-18092484D01*
X2448634Y-17987722D02*
X2458158Y-17968674D01*
X2458158Y-17968674D02*
X2477206Y-17959150D01*
X2477206Y-17959150D02*
X2505777Y-17959150D01*
X2505777Y-17959150D02*
X2524825Y-17968674D01*
X2524825Y-17968674D02*
X2534348Y-17987722D01*
X2534348Y-17987722D02*
X2534348Y-18092484D01*
X2629587Y-18092484D02*
X2629587Y-17959150D01*
X2629587Y-17978198D02*
X2639110Y-17968674D01*
X2639110Y-17968674D02*
X2658158Y-17959150D01*
X2658158Y-17959150D02*
X2686729Y-17959150D01*
X2686729Y-17959150D02*
X2705777Y-17968674D01*
X2705777Y-17968674D02*
X2715301Y-17987722D01*
X2715301Y-17987722D02*
X2715301Y-18092484D01*
X2715301Y-17987722D02*
X2724825Y-17968674D01*
X2724825Y-17968674D02*
X2743872Y-17959150D01*
X2743872Y-17959150D02*
X2772444Y-17959150D01*
X2772444Y-17959150D02*
X2791491Y-17968674D01*
X2791491Y-17968674D02*
X2801015Y-17987722D01*
X2801015Y-17987722D02*
X2801015Y-18092484D01*
X3191491Y-17882960D02*
X3020063Y-18140103D01*
X3448634Y-17892484D02*
X3467682Y-17892484D01*
X3467682Y-17892484D02*
X3486729Y-17902008D01*
X3486729Y-17902008D02*
X3496253Y-17911531D01*
X3496253Y-17911531D02*
X3505777Y-17930579D01*
X3505777Y-17930579D02*
X3515301Y-17968674D01*
X3515301Y-17968674D02*
X3515301Y-18016293D01*
X3515301Y-18016293D02*
X3505777Y-18054388D01*
X3505777Y-18054388D02*
X3496253Y-18073436D01*
X3496253Y-18073436D02*
X3486729Y-18082960D01*
X3486729Y-18082960D02*
X3467682Y-18092484D01*
X3467682Y-18092484D02*
X3448634Y-18092484D01*
X3448634Y-18092484D02*
X3429587Y-18082960D01*
X3429587Y-18082960D02*
X3420063Y-18073436D01*
X3420063Y-18073436D02*
X3410539Y-18054388D01*
X3410539Y-18054388D02*
X3401015Y-18016293D01*
X3401015Y-18016293D02*
X3401015Y-17968674D01*
X3401015Y-17968674D02*
X3410539Y-17930579D01*
X3410539Y-17930579D02*
X3420063Y-17911531D01*
X3420063Y-17911531D02*
X3429587Y-17902008D01*
X3429587Y-17902008D02*
X3448634Y-17892484D01*
X3601015Y-18073436D02*
X3610539Y-18082960D01*
X3610539Y-18082960D02*
X3601015Y-18092484D01*
X3601015Y-18092484D02*
X3591491Y-18082960D01*
X3591491Y-18082960D02*
X3601015Y-18073436D01*
X3601015Y-18073436D02*
X3601015Y-18092484D01*
X3734348Y-17892484D02*
X3753396Y-17892484D01*
X3753396Y-17892484D02*
X3772444Y-17902008D01*
X3772444Y-17902008D02*
X3781968Y-17911531D01*
X3781968Y-17911531D02*
X3791491Y-17930579D01*
X3791491Y-17930579D02*
X3801015Y-17968674D01*
X3801015Y-17968674D02*
X3801015Y-18016293D01*
X3801015Y-18016293D02*
X3791491Y-18054388D01*
X3791491Y-18054388D02*
X3781968Y-18073436D01*
X3781968Y-18073436D02*
X3772444Y-18082960D01*
X3772444Y-18082960D02*
X3753396Y-18092484D01*
X3753396Y-18092484D02*
X3734348Y-18092484D01*
X3734348Y-18092484D02*
X3715301Y-18082960D01*
X3715301Y-18082960D02*
X3705777Y-18073436D01*
X3705777Y-18073436D02*
X3696253Y-18054388D01*
X3696253Y-18054388D02*
X3686729Y-18016293D01*
X3686729Y-18016293D02*
X3686729Y-17968674D01*
X3686729Y-17968674D02*
X3696253Y-17930579D01*
X3696253Y-17930579D02*
X3705777Y-17911531D01*
X3705777Y-17911531D02*
X3715301Y-17902008D01*
X3715301Y-17902008D02*
X3734348Y-17892484D01*
X3981968Y-17892484D02*
X3886729Y-17892484D01*
X3886729Y-17892484D02*
X3877206Y-17987722D01*
X3877206Y-17987722D02*
X3886729Y-17978198D01*
X3886729Y-17978198D02*
X3905777Y-17968674D01*
X3905777Y-17968674D02*
X3953396Y-17968674D01*
X3953396Y-17968674D02*
X3972444Y-17978198D01*
X3972444Y-17978198D02*
X3981968Y-17987722D01*
X3981968Y-17987722D02*
X3991491Y-18006769D01*
X3991491Y-18006769D02*
X3991491Y-18054388D01*
X3991491Y-18054388D02*
X3981968Y-18073436D01*
X3981968Y-18073436D02*
X3972444Y-18082960D01*
X3972444Y-18082960D02*
X3953396Y-18092484D01*
X3953396Y-18092484D02*
X3905777Y-18092484D01*
X3905777Y-18092484D02*
X3886729Y-18082960D01*
X3886729Y-18082960D02*
X3877206Y-18073436D01*
X4181968Y-18092484D02*
X4067682Y-18092484D01*
X4124825Y-18092484D02*
X4124825Y-17892484D01*
X4124825Y-17892484D02*
X4105777Y-17921055D01*
X4105777Y-17921055D02*
X4086729Y-17940103D01*
X4086729Y-17940103D02*
X4067682Y-17949627D01*
X4258158Y-17911531D02*
X4267682Y-17902008D01*
X4267682Y-17902008D02*
X4286730Y-17892484D01*
X4286730Y-17892484D02*
X4334349Y-17892484D01*
X4334349Y-17892484D02*
X4353396Y-17902008D01*
X4353396Y-17902008D02*
X4362920Y-17911531D01*
X4362920Y-17911531D02*
X4372444Y-17930579D01*
X4372444Y-17930579D02*
X4372444Y-17949627D01*
X4372444Y-17949627D02*
X4362920Y-17978198D01*
X4362920Y-17978198D02*
X4248634Y-18092484D01*
X4248634Y-18092484D02*
X4372444Y-18092484D01*
X4448634Y-17892484D02*
X4448634Y-17930579D01*
X4524825Y-17892484D02*
X4524825Y-17930579D01*
X4820063Y-18168674D02*
X4810539Y-18159150D01*
X4810539Y-18159150D02*
X4791492Y-18130579D01*
X4791492Y-18130579D02*
X4781968Y-18111531D01*
X4781968Y-18111531D02*
X4772444Y-18082960D01*
X4772444Y-18082960D02*
X4762920Y-18035341D01*
X4762920Y-18035341D02*
X4762920Y-17997246D01*
X4762920Y-17997246D02*
X4772444Y-17949627D01*
X4772444Y-17949627D02*
X4781968Y-17921055D01*
X4781968Y-17921055D02*
X4791492Y-17902008D01*
X4791492Y-17902008D02*
X4810539Y-17873436D01*
X4810539Y-17873436D02*
X4820063Y-17863912D01*
X5001015Y-18092484D02*
X4886730Y-18092484D01*
X4943872Y-18092484D02*
X4943872Y-17892484D01*
X4943872Y-17892484D02*
X4924825Y-17921055D01*
X4924825Y-17921055D02*
X4905777Y-17940103D01*
X4905777Y-17940103D02*
X4886730Y-17949627D01*
X5172444Y-17959150D02*
X5172444Y-18092484D01*
X5124825Y-17882960D02*
X5077206Y-18025817D01*
X5077206Y-18025817D02*
X5201015Y-18025817D01*
X5258158Y-17892484D02*
X5391492Y-17892484D01*
X5391492Y-17892484D02*
X5305777Y-18092484D01*
X5620063Y-18092484D02*
X5620063Y-17892484D01*
X5705777Y-18092484D02*
X5705777Y-17987722D01*
X5705777Y-17987722D02*
X5696253Y-17968674D01*
X5696253Y-17968674D02*
X5677206Y-17959150D01*
X5677206Y-17959150D02*
X5648634Y-17959150D01*
X5648634Y-17959150D02*
X5629587Y-17968674D01*
X5629587Y-17968674D02*
X5620063Y-17978198D01*
X5829587Y-18092484D02*
X5810539Y-18082960D01*
X5810539Y-18082960D02*
X5801015Y-18073436D01*
X5801015Y-18073436D02*
X5791492Y-18054388D01*
X5791492Y-18054388D02*
X5791492Y-17997246D01*
X5791492Y-17997246D02*
X5801015Y-17978198D01*
X5801015Y-17978198D02*
X5810539Y-17968674D01*
X5810539Y-17968674D02*
X5829587Y-17959150D01*
X5829587Y-17959150D02*
X5858158Y-17959150D01*
X5858158Y-17959150D02*
X5877206Y-17968674D01*
X5877206Y-17968674D02*
X5886730Y-17978198D01*
X5886730Y-17978198D02*
X5896253Y-17997246D01*
X5896253Y-17997246D02*
X5896253Y-18054388D01*
X5896253Y-18054388D02*
X5886730Y-18073436D01*
X5886730Y-18073436D02*
X5877206Y-18082960D01*
X5877206Y-18082960D02*
X5858158Y-18092484D01*
X5858158Y-18092484D02*
X5829587Y-18092484D01*
X6010539Y-18092484D02*
X5991492Y-18082960D01*
X5991492Y-18082960D02*
X5981968Y-18063912D01*
X5981968Y-18063912D02*
X5981968Y-17892484D01*
X6162920Y-18082960D02*
X6143873Y-18092484D01*
X6143873Y-18092484D02*
X6105777Y-18092484D01*
X6105777Y-18092484D02*
X6086730Y-18082960D01*
X6086730Y-18082960D02*
X6077206Y-18063912D01*
X6077206Y-18063912D02*
X6077206Y-17987722D01*
X6077206Y-17987722D02*
X6086730Y-17968674D01*
X6086730Y-17968674D02*
X6105777Y-17959150D01*
X6105777Y-17959150D02*
X6143873Y-17959150D01*
X6143873Y-17959150D02*
X6162920Y-17968674D01*
X6162920Y-17968674D02*
X6172444Y-17987722D01*
X6172444Y-17987722D02*
X6172444Y-18006769D01*
X6172444Y-18006769D02*
X6077206Y-18025817D01*
X6248634Y-18082960D02*
X6267682Y-18092484D01*
X6267682Y-18092484D02*
X6305777Y-18092484D01*
X6305777Y-18092484D02*
X6324825Y-18082960D01*
X6324825Y-18082960D02*
X6334349Y-18063912D01*
X6334349Y-18063912D02*
X6334349Y-18054388D01*
X6334349Y-18054388D02*
X6324825Y-18035341D01*
X6324825Y-18035341D02*
X6305777Y-18025817D01*
X6305777Y-18025817D02*
X6277206Y-18025817D01*
X6277206Y-18025817D02*
X6258158Y-18016293D01*
X6258158Y-18016293D02*
X6248634Y-17997246D01*
X6248634Y-17997246D02*
X6248634Y-17987722D01*
X6248634Y-17987722D02*
X6258158Y-17968674D01*
X6258158Y-17968674D02*
X6277206Y-17959150D01*
X6277206Y-17959150D02*
X6305777Y-17959150D01*
X6305777Y-17959150D02*
X6324825Y-17968674D01*
X6572444Y-18016293D02*
X6724825Y-18016293D01*
X6648635Y-18092484D02*
X6648635Y-17940103D01*
X6962920Y-17911531D02*
X6972444Y-17902008D01*
X6972444Y-17902008D02*
X6991492Y-17892484D01*
X6991492Y-17892484D02*
X7039111Y-17892484D01*
X7039111Y-17892484D02*
X7058158Y-17902008D01*
X7058158Y-17902008D02*
X7067682Y-17911531D01*
X7067682Y-17911531D02*
X7077206Y-17930579D01*
X7077206Y-17930579D02*
X7077206Y-17949627D01*
X7077206Y-17949627D02*
X7067682Y-17978198D01*
X7067682Y-17978198D02*
X6953396Y-18092484D01*
X6953396Y-18092484D02*
X7077206Y-18092484D01*
X7305777Y-18082960D02*
X7324825Y-18092484D01*
X7324825Y-18092484D02*
X7362920Y-18092484D01*
X7362920Y-18092484D02*
X7381968Y-18082960D01*
X7381968Y-18082960D02*
X7391492Y-18063912D01*
X7391492Y-18063912D02*
X7391492Y-18054388D01*
X7391492Y-18054388D02*
X7381968Y-18035341D01*
X7381968Y-18035341D02*
X7362920Y-18025817D01*
X7362920Y-18025817D02*
X7334349Y-18025817D01*
X7334349Y-18025817D02*
X7315301Y-18016293D01*
X7315301Y-18016293D02*
X7305777Y-17997246D01*
X7305777Y-17997246D02*
X7305777Y-17987722D01*
X7305777Y-17987722D02*
X7315301Y-17968674D01*
X7315301Y-17968674D02*
X7334349Y-17959150D01*
X7334349Y-17959150D02*
X7362920Y-17959150D01*
X7362920Y-17959150D02*
X7381968Y-17968674D01*
X7505777Y-18092484D02*
X7486730Y-18082960D01*
X7486730Y-18082960D02*
X7477206Y-18063912D01*
X7477206Y-18063912D02*
X7477206Y-17892484D01*
X7610539Y-18092484D02*
X7591492Y-18082960D01*
X7591492Y-18082960D02*
X7581968Y-18073436D01*
X7581968Y-18073436D02*
X7572444Y-18054388D01*
X7572444Y-18054388D02*
X7572444Y-17997246D01*
X7572444Y-17997246D02*
X7581968Y-17978198D01*
X7581968Y-17978198D02*
X7591492Y-17968674D01*
X7591492Y-17968674D02*
X7610539Y-17959150D01*
X7610539Y-17959150D02*
X7639111Y-17959150D01*
X7639111Y-17959150D02*
X7658158Y-17968674D01*
X7658158Y-17968674D02*
X7667682Y-17978198D01*
X7667682Y-17978198D02*
X7677206Y-17997246D01*
X7677206Y-17997246D02*
X7677206Y-18054388D01*
X7677206Y-18054388D02*
X7667682Y-18073436D01*
X7667682Y-18073436D02*
X7658158Y-18082960D01*
X7658158Y-18082960D02*
X7639111Y-18092484D01*
X7639111Y-18092484D02*
X7610539Y-18092484D01*
X7734349Y-17959150D02*
X7810539Y-17959150D01*
X7762920Y-17892484D02*
X7762920Y-18063912D01*
X7762920Y-18063912D02*
X7772444Y-18082960D01*
X7772444Y-18082960D02*
X7791492Y-18092484D01*
X7791492Y-18092484D02*
X7810539Y-18092484D01*
X7867682Y-18082960D02*
X7886730Y-18092484D01*
X7886730Y-18092484D02*
X7924825Y-18092484D01*
X7924825Y-18092484D02*
X7943873Y-18082960D01*
X7943873Y-18082960D02*
X7953397Y-18063912D01*
X7953397Y-18063912D02*
X7953397Y-18054388D01*
X7953397Y-18054388D02*
X7943873Y-18035341D01*
X7943873Y-18035341D02*
X7924825Y-18025817D01*
X7924825Y-18025817D02*
X7896254Y-18025817D01*
X7896254Y-18025817D02*
X7877206Y-18016293D01*
X7877206Y-18016293D02*
X7867682Y-17997246D01*
X7867682Y-17997246D02*
X7867682Y-17987722D01*
X7867682Y-17987722D02*
X7877206Y-17968674D01*
X7877206Y-17968674D02*
X7896254Y-17959150D01*
X7896254Y-17959150D02*
X7924825Y-17959150D01*
X7924825Y-17959150D02*
X7943873Y-17968674D01*
X8020063Y-18168674D02*
X8029587Y-18159150D01*
X8029587Y-18159150D02*
X8048635Y-18130579D01*
X8048635Y-18130579D02*
X8058158Y-18111531D01*
X8058158Y-18111531D02*
X8067682Y-18082960D01*
X8067682Y-18082960D02*
X8077206Y-18035341D01*
X8077206Y-18035341D02*
X8077206Y-17997246D01*
X8077206Y-17997246D02*
X8067682Y-17949627D01*
X8067682Y-17949627D02*
X8058158Y-17921055D01*
X8058158Y-17921055D02*
X8048635Y-17902008D01*
X8048635Y-17902008D02*
X8029587Y-17873436D01*
X8029587Y-17873436D02*
X8020063Y-17863912D01*
M02*
